<svg xmlns="http://www.w3.org/2000/svg" width="190" height="100.001" viewBox="0 0 190 100.001">
  <g id="Group_100035" data-name="Group 100035" transform="translate(-180.5 -1293.999)">
    <path id="Rectangle_35408" data-name="Rectangle 35408" d="M50,0h90a50,50,0,0,1,50,50V69a0,0,0,0,1,0,0H0a0,0,0,0,1,0,0V50A50,50,0,0,1,50,0Z" transform="translate(180.5 1325)" fill="#e4fae6"/>
    <g id="guardar" transform="translate(226.501 1293.998)">
      <path id="Path_151059" data-name="Path 151059" d="M32.395,307.936H50.1L48.937,295.25a9.736,9.736,0,0,0-5.441-7.866l-9.139-4.44-8.124-8.585a2.373,2.373,0,0,0-2.948-.4,2.327,2.327,0,0,0-.811,3.087l2.6,4.041-1.364-.665a21.38,21.38,0,0,1-10.1-10.374l-1.91-4.2a2.2,2.2,0,0,0-4.118,1.5l2.009,7.23c.848,2.674,4.044,8.936,6.041,10.905,4.366,4.307,12.26,8.6,14.55,11.072,2.457,2.657,2.209,11.388,2.209,11.388Zm0,0" transform="translate(-6.04 -212.884)" fill="#fcd7c3"/>
      <path id="Path_151060" data-name="Path 151060" d="M109.439,332.574A9.736,9.736,0,0,0,104,324.708l-9.139-4.44-8.124-8.585a2.373,2.373,0,0,0-2.948-.4,2.327,2.327,0,0,0-.811,3.087l2.6,4.041,6.2,6.3s5.294,6.268,5.607,9.661l1,10.891h12.222Zm0,0" transform="translate(-66.542 -250.208)" fill="#f9c7ac"/>
      <path id="Path_151061" data-name="Path 151061" d="M125.664,459.234H143.6a1.931,1.931,0,0,1,1.931,1.931v4.979a1.931,1.931,0,0,1-1.931,1.931H125.664a1.931,1.931,0,0,1-1.93-1.931v-4.979A1.931,1.931,0,0,1,125.664,459.234Zm0,0" transform="translate(-99.568 -369.539)" fill="#fb0"/>
      <path id="Path_151062" data-name="Path 151062" d="M296.021,307.936H278.312l1.167-12.686a9.736,9.736,0,0,1,5.441-7.866l9.139-4.44,8.124-8.585a2.373,2.373,0,0,1,2.948-.4,2.327,2.327,0,0,1,.811,3.087l-2.6,4.041,1.363-.665a21.381,21.381,0,0,0,10.1-10.374l1.91-4.2a2.2,2.2,0,0,1,4.118,1.5l-2.009,7.23c-.848,2.674-4.044,8.936-6.041,10.905-4.366,4.307-12.26,8.6-14.55,11.072-2.457,2.657-2.209,11.388-2.209,11.388Zm0,0" transform="translate(-223.955 -212.884)" fill="#fcd7c3"/>
      <path id="Path_151063" data-name="Path 151063" d="M341.449,264.832l-5.357,13.234c-5.476,7.431-25.62,16.229-27.91,18.705-2.457,2.657-2.21,11.388-2.21,11.388h12.3s-.248-8.731,2.21-11.388c2.29-2.476,10.184-6.766,14.55-11.072,2-1.97,5.193-8.231,6.041-10.905l2.009-7.23a2.2,2.2,0,0,0-1.635-2.731Zm0,0" transform="translate(-246.207 -213.106)" fill="#f9c7ac"/>
      <path id="Path_151064" data-name="Path 151064" d="M288.445,459.234H270.506a1.931,1.931,0,0,0-1.931,1.931v4.979a1.931,1.931,0,0,0,1.931,1.931h17.939a1.931,1.931,0,0,0,1.93-1.931v-4.979A1.931,1.931,0,0,0,288.445,459.234Zm0,0" transform="translate(-216.119 -369.539)" fill="#fb0"/>
      <path id="Path_151065" data-name="Path 151065" d="M125.872,8.332a32.364,32.364,0,1,0,24.272,38.8,32.364,32.364,0,0,0-24.272-38.8Zm0,0" transform="translate(-69.392 -6.033)" fill="#55b2f4"/>
      <path id="Path_151066" data-name="Path 151066" d="M233.62,8.337a32.251,32.251,0,0,0-13.48-.23c.365.071.729.146,1.095.23a32.368,32.368,0,0,1-1.05,63.3,32.362,32.362,0,0,0,13.435-63.3Zm0,0" transform="translate(-177.145 -6.038)" fill="#3c9aef"/>
      <path id="Path_151067" data-name="Path 151067" d="M124.535,50.455c-3.735-.952-6.257-12.923-14.408-10.9-2.608.647-9.726-5.264-8.977-6.959,1.818-4.115-1.905-5.55.027-7.97,1.051-1.315,2.354-2.769,4.048-1.336s1.07,4.411,2.587,4.7,2.551-3.233,3.461-5.223c3.278-7.166,12.52-4.842,15.529-7.7,2.287-2.176,3.22-4.81,2.851-6.746a32.361,32.361,0,0,0-38.6,23.843c2.895,4.773,9.636,8.771,11.809,10.255a1.634,1.634,0,0,1,.492,2.179c-1.239,2.1-2.941,6.324.854,9.456,5.255,4.337,5.251,6.348,3.115,10.835-.54,1.134-.946,2.085-1.254,2.892A32.267,32.267,0,0,0,113.608,71a21.194,21.194,0,0,1,7.527-6.4c3.14-1.392,9.381-.983,10.914-7.636.728-3.161-3.778-5.56-7.513-6.512Zm0,0" transform="translate(-73.272 -6.038)" fill="#7ae582"/>
      <path id="Path_151068" data-name="Path 151068" d="M221.245,8.34a32.276,32.276,0,0,1,11.03,4.831,6.83,6.83,0,0,0,1.261-4.852,32.233,32.233,0,0,0-13.383-.209c.364.07.729.146,1.093.23Zm0,0" transform="translate(-177.154 -6.041)" fill="#3bcd43"/>
      <path id="Path_151069" data-name="Path 151069" d="M342.958,65.219A32.378,32.378,0,0,0,327.7,29.973c-2.012,5.1,4.16,7.2,3.506,8.881a3.532,3.532,0,0,0,.183,2.364,2.906,2.906,0,0,1-.879,3.258c-1.66,1.347-3.912,3.542-4.349,5.825-1.074,5.605.843,7.954,2.923,9.67,3.221,2.659,5.66,1.727,6.973,3.68,2.844,4.229-10.337,15.428-5.9,20.691a32.233,32.233,0,0,0,12.8-19.123Zm0,0" transform="translate(-262.21 -24.118)" fill="#7ae582"/>
      <path id="Path_151070" data-name="Path 151070" d="M348.9,65.219a32.378,32.378,0,0,0-15.259-35.246c-2.012,5.1,4.16,7.2,3.506,8.881a3.532,3.532,0,0,0,.183,2.364,2.906,2.906,0,0,1-.879,3.258c-.465.377-.976.822-1.481,1.316a32.185,32.185,0,0,1,2.2,15.543c2.166,1.014,3.828.823,4.832,2.316,2.843,4.229-10.337,15.428-5.9,20.692a32.235,32.235,0,0,0,12.8-19.124Zm0,0" transform="translate(-268.151 -24.118)" fill="#3bcd43"/>
      <path id="Path_151071" data-name="Path 151071" d="M132.3,61.288A33.845,33.845,0,0,0,129.682,4.64a1.375,1.375,0,0,0-.207-.119A33.873,33.873,0,0,0,89.923,8.685a1.465,1.465,0,1,0,1.958,2.178,30.966,30.966,0,0,1,26.455-7.392,7.73,7.73,0,0,1-2.461,4.479c-2.386,2.269-12.265.311-15.853,8.157a40.7,40.7,0,0,1-1.813,4.011c-.315-1.1-.572-2.824-1.957-4A3.5,3.5,0,0,0,93.61,15.2c-1.659.163-2.809,1.6-3.5,2.464-1.453,1.82-.806,3.455-.335,4.649a4.029,4.029,0,0,1,.112,3.645c-.673,1.524.725,3.187,1.184,3.733,1.883,2.24,6.608,5.954,9.487,5.241,7.027-1.747,9.017,9.706,13.7,10.9,3.5.893,6.873,2.92,6.448,4.765-1.309,5.682-6.7,5.127-10.081,6.625a22.974,22.974,0,0,0-7.5,6.035,30.882,30.882,0,0,1-5.134-2.162q.332-.774.734-1.622c2.448-5.139,2.287-7.815-3.5-12.6-2.776-2.291-1.817-5.389-.524-7.584a3.107,3.107,0,0,0-.928-4.131c-2.089-1.429-8.206-5.091-11.06-9.306a30.586,30.586,0,0,1,5.322-10.83,1.465,1.465,0,1,0-2.324-1.785A33.828,33.828,0,0,0,131.97,61.521a1.349,1.349,0,0,0,.331-.233Zm-.425-3.352c-.25-2.262,1.8-5.656,3.65-8.717,2.425-4.013,4.716-7.8,2.895-10.513-1.727-2.567-4.275-1.531-7.257-3.992-1.748-1.443-3.374-3.269-2.417-8.266.271-1.416,1.633-3.179,3.834-4.964a4.381,4.381,0,0,0,1.334-4.894,2.3,2.3,0,0,1-.2-1.334c1.051-2.7-3.4-4.151-3.787-7.011a30.912,30.912,0,0,1,1.945,49.692ZM81.953,29.606c3.34,3.7,7.926,6.44,10.165,7.972a.168.168,0,0,1,.056.225C89.567,42.23,90,46.361,93.358,49.134c5.558,4.588,4.239,5.574,2.1,10.445a30.924,30.924,0,0,1-13.5-29.973ZM106.28,64.083a20.075,20.075,0,0,1,5.531-4.185c2.792-1.237,10.006-1.078,11.749-8.647.913-3.963-3.651-7.005-8.579-8.262-2.686-.685-5.971-13.176-15.125-10.9-.185.043-1.09-.065-2.785-1.119a13.471,13.471,0,0,1-4.392-4.081,6.9,6.9,0,0,0-.175-5.652c-.448-1.133-.457-1.3-.1-1.742.264-.33,1.067-1.335,1.493-1.377a.807.807,0,0,1,.465.245c1.208,1.022.592,4.513,3.26,5.02,2.853.542,3.989-3.7,5.067-6.054,2.92-6.384,11.658-3.876,15.208-7.253A10.564,10.564,0,0,0,121.2,4.156a30.971,30.971,0,0,1,5.906,2.391c-.9,4.266,2.805,6.716,3.77,7.979a5.105,5.105,0,0,0,.28,3.059,1.449,1.449,0,0,1-.423,1.623c-1.936,1.57-4.352,4.005-4.866,6.689-1.2,6.274,1.06,9.12,3.429,11.077,5.508,4.546,10.225-.034,3.72,10.729-2.44,4.037-5.164,8.548-3.692,12.067a30.81,30.81,0,0,1-23.046,4.313Zm0,0" transform="translate(-63.348)"/>
      <path id="Path_151072" data-name="Path 151072" d="M23.241,291.7a1.465,1.465,0,1,0,2.375-1.715c-1.923-2.665-10.443-7.117-14.991-11.6-1.764-1.74-4.855-7.75-5.666-10.283l-2-7.2a.734.734,0,0,1,1.4-.433c2.332,4.973,2.532,5.987,3.7,7.494a29.548,29.548,0,0,0,10.1,8.279L24.4,282.5a1.465,1.465,0,0,0,2.077-2.066l-6.3-6.331L17.7,270.25a.863.863,0,0,1,1.428-.941c8.517,8.954,8.109,8.684,8.549,8.9l9.141,4.44c4.99,2.424,4.633,7.709,4.752,8.085a1.465,1.465,0,0,0,2.918-.269l-.129-1.4a11.265,11.265,0,0,0-6.261-9.05l-8.9-4.324-7.952-8.4a3.849,3.849,0,0,0-4.779-.626,3.8,3.8,0,0,0-1.714,3.935,26.523,26.523,0,0,1-4.381-4.438c-.841-1.083-.867-1.576-3.349-6.91a3.725,3.725,0,0,0-4.162-2.126,3.665,3.665,0,0,0-2.731,4.555c2.7,9.7,1.84,6.7,2.024,7.282.924,2.912,4.232,9.361,6.409,11.507a67.877,67.877,0,0,0,9.034,6.921c1.274.87,4.89,3.275,5.64,4.311Zm0,0" transform="translate(0 -206.831)"/>
      <path id="Path_151073" data-name="Path 151073" d="M318.146,257.2a3.657,3.657,0,0,0-4.5,1.955c-2.507,5.39-2.535,5.89-3.378,6.976a26.5,26.5,0,0,1-4.381,4.439,3.8,3.8,0,0,0-1.714-3.935,3.853,3.853,0,0,0-4.79.636l-7.941,8.392-8.9,4.324c-6.641,3.226-6.261,10.1-6.4,10.513a1.465,1.465,0,1,0,2.917.269c.118-.375-.241-5.718,4.758-8.146,9.566-4.683,9.219-4.386,9.564-4.751L301.5,269.3a.863.863,0,0,1,1.438.93l-2.481,3.856-6.3,6.331a1.467,1.467,0,0,0,1.039,2.5c1.112,0,1.158-.76,7.277-6.705,5.695-2.84,10.06-7.532,11.3-10.254l2.538-5.585a.734.734,0,0,1,1.353.568l-1.983,7.136c-.811,2.534-3.9,8.543-5.666,10.283-4.536,4.475-13.041,8.92-14.979,11.585a1.465,1.465,0,1,0,2.369,1.724c1.474-2.024,10.01-6.629,14.667-11.223,2.177-2.147,5.486-8.6,6.409-11.507.185-.586-.572,2.061,2-7.214a3.7,3.7,0,0,0-2.34-4.52Zm0,0" transform="translate(-222.204 -206.813)"/>
      <path id="Path_151074" data-name="Path 151074" d="M137.584,451.727H119.643a3.4,3.4,0,0,0-3.4,3.4v4.98a3.4,3.4,0,0,0,3.4,3.4h17.941a3.4,3.4,0,0,0,3.4-3.4v-4.98A3.4,3.4,0,0,0,137.584,451.727Zm.466,8.376a.467.467,0,0,1-.466.466H119.643a.467.467,0,0,1-.466-.466v-4.98a.467.467,0,0,1,.466-.466h17.941a.467.467,0,0,1,.466.466Zm0,0" transform="translate(-93.542 -363.498)"/>
      <path id="Path_151075" data-name="Path 151075" d="M282.447,451.727H264.5a3.4,3.4,0,0,0-3.4,3.4v4.98a3.4,3.4,0,0,0,3.4,3.4h17.942a3.4,3.4,0,0,0,3.4-3.4v-4.98A3.4,3.4,0,0,0,282.447,451.727Zm.465,8.376a.466.466,0,0,1-.465.466H264.5a.466.466,0,0,1-.465-.466v-4.98a.466.466,0,0,1,.465-.466h17.942a.466.466,0,0,1,.465.466Zm0,0" transform="translate(-210.112 -363.498)"/>
    </g>
  </g>
</svg>
