<svg xmlns="http://www.w3.org/2000/svg" width="80" height="80.064" viewBox="0 0 80 80.064">
  <g id="t0-i2" transform="translate(-0.001 0)">
    <path id="Path_151046" data-name="Path 151046" d="M101.043,157.924a25.891,25.891,0,1,0-25.891,25.959A25.925,25.925,0,0,0,101.043,157.924Zm0,0" transform="translate(-41.558 -111.329)" fill="#55b2f4"/>
    <path id="Path_151047" data-name="Path 151047" d="M193.737,131.965a26.032,26.032,0,0,0-3.909.294,25.974,25.974,0,0,1,0,51.33,25.955,25.955,0,1,0,3.909-51.624Zm0,0" transform="translate(-160.143 -111.329)" fill="#3c9aef"/>
    <g id="Group_96796" data-name="Group 96796" transform="translate(7.704 20.688)">
      <path id="Path_151048" data-name="Path 151048" d="M163.608,142.333c-3.988,2.5-6.979,6.5-4.736,11s7.229,2.749,11.841,2.124,1.122,13.621,3.864,17.121,10.469-3.5,9.721-8c-1.107-6.661-1.5-9,7.479-13.746l.024-.009A25.92,25.92,0,0,0,168.6,132.3v.039s-1,7.5-4.986,10Zm0,0" transform="translate(-141.083 -132.296)" fill="#7ae582"/>
      <path id="Path_151049" data-name="Path 151049" d="M318.566,168.6l0,0Zm0,0" transform="translate(-276.454 -162.921)" fill="#7ae582"/>
      <path id="Path_151050" data-name="Path 151050" d="M338.809,187.961h0Zm0,0" transform="translate(-293.531 -179.256)" fill="#7ae582"/>
      <path id="Path_151051" data-name="Path 151051" d="M57.953,260.917c-1.2-1.826,2.118-6.123,2.867-9.372s-3.74-3-5.11-4.124-3.241-6-4.612-7.123l-.219-.173a26.033,26.033,0,0,0,8.936,29.96l.008-.544a11.95,11.95,0,0,0-1.869-8.623Zm0,0" transform="translate(-49.262 -223.263)" fill="#7ae582"/>
      <path id="Path_151052" data-name="Path 151052" d="M313.925,338.2c-.005-.032-.011-.064-.016-.1a25.837,25.837,0,0,1-2.151,5.7c1.473-1.738,2.457-3.857,2.167-5.6Zm0,0" transform="translate(-270.71 -305.922)" fill="#7ae582"/>
    </g>
    <path id="Path_151053" data-name="Path 151053" d="M223.588,132.3v.039s-.084.626-.3,1.575a25.969,25.969,0,0,1,16.64,21.908c1.144-1.565,3.237-3.082,6.84-4.989l.024-.009A25.921,25.921,0,0,0,223.588,132.3Zm0,0" transform="translate(-188.372 -111.609)" fill="#3bcd43"/>
    <path id="Path_151054" data-name="Path 151054" d="M59.624,36.1C47.1,33.972,39.336,18.208,39.336,18.208s12.533-12.32,25.053-10.2S84.676,25.9,84.676,25.9,72.144,38.221,59.624,36.1Zm0,0" transform="translate(-33.184 -6.551)" fill="#7ae582"/>
    <path id="Path_151055" data-name="Path 151055" d="M161.324,8.018a19.436,19.436,0,0,0-7.085.178c12,2.694,19.4,17.71,19.4,17.71s-8.2,8.063-17.968,10.018c.294.067.591.127.891.178,12.52,2.124,25.052-10.2,25.052-10.2s-7.767-15.764-20.287-17.888Zm0,0" transform="translate(-130.119 -6.557)" fill="#3bcd43"/>
    <path id="Path_151056" data-name="Path 151056" d="M378.353,33.772c3.359-7.948,15-10.624,15-10.624s6.192,10.21,2.834,18.158-15,10.623-15,10.623-6.192-10.21-2.834-18.157Zm0,0" transform="translate(-318.345 -19.529)" fill="#7ae582"/>
    <path id="Path_151057" data-name="Path 151057" d="M408.081,23.148a31.138,31.138,0,0,0-5.78,2.108c1.607,3.405,4.156,10.316,1.732,16.05-1.757,4.157-5.78,6.872-9.217,8.516.621,1.315,1.1,2.107,1.1,2.107s11.638-2.675,15-10.623-2.833-18.158-2.833-18.158Zm0,0" transform="translate(-333.077 -19.529)" fill="#3bcd43"/>
    <path id="Path_151058" data-name="Path 151058" d="M78.8,9.331A32.212,32.212,0,0,0,76.007,2.98a1.2,1.2,0,0,0-1.266-.534,32.241,32.241,0,0,0-6.5,2.425c-4.61,2.3-7.83,5.374-9.314,8.885A17.209,17.209,0,0,0,58.391,24.2a33.269,33.269,0,0,0-6.254-5.443A48.439,48.439,0,0,0,46.7,10.426a1.173,1.173,0,0,0-1.82,1.479,46.922,46.922,0,0,1,4.328,6.366L38.526,16.189,28.375,2.343a16.578,16.578,0,0,1,2.959.3A20.251,20.251,0,0,1,40.5,7.367a1.174,1.174,0,0,0,1.522-1.785A22.563,22.563,0,0,0,31.785.343C26.411-.709,20.143.671,13.658,4.336a46.8,46.8,0,0,0-8.2,5.859,1.241,1.241,0,0,0-.139,1.61,47.862,47.862,0,0,0,5.261,8.257,36.679,36.679,0,0,0,5.545,5.7q-.819.686-1.592,1.44A27.115,27.115,0,0,0,23.3,71.707a1.174,1.174,0,0,0,.882-2.173,24.761,24.761,0,0,1-5.074-2.791,13.215,13.215,0,0,0-1.991-9.251c-.372-.579.74-2.853,1.4-4.212a22.025,22.025,0,0,0,1.723-4.211A3.21,3.21,0,0,0,19.1,45.554a8.656,8.656,0,0,0-2.788-1.236,5.988,5.988,0,0,1-1.532-.6A15.607,15.607,0,0,1,12.8,40.487a20.062,20.062,0,0,0-2.143-3.523,24.941,24.941,0,0,1,7.4-9.755,20.51,20.51,0,0,0,9.883,3.672c-4.145,3.212-5.486,7.313-3.569,11.253,2.238,4.6,6.844,3.865,10.909,3.218.7-.112,1.431-.228,2.128-.315.261-.033.34.038.393.085.89.792.864,4.573.845,7.334-.026,3.819-.051,7.426,1.372,9.278a3.58,3.58,0,0,0,2.945,1.427,5.916,5.916,0,0,0,2.316-.523c3.537-1.515,7.215-6.074,6.654-9.682-.491-3.154-.815-5.237-.05-6.917.707-1.555,2.416-2.994,5.783-4.83A24.767,24.767,0,0,1,30.751,71.191a1.174,1.174,0,0,0-.257,2.332,27.262,27.262,0,0,0,21.953-7.567,27.1,27.1,0,0,0-4.172-42.087c1.55-1.105,2.7-2.06,3.344-2.615A31.141,31.141,0,1,1,2.77,41.506a1.174,1.174,0,0,0-2.314-.382A33.477,33.477,0,0,0,28.033,79.609a33.9,33.9,0,0,0,5.527.455A33.5,33.5,0,0,0,64.2,33.217a33.758,33.758,0,0,0,5.408-2.13c4.609-2.3,7.83-5.374,9.313-8.885S80.36,14.24,78.8,9.331ZM10.722,41.582a14.6,14.6,0,0,0,2.556,3.936,6.721,6.721,0,0,0,2.347,1.043c2.292.7,2.559,1.051,2.339,1.957a20.484,20.484,0,0,1-1.55,3.733c-1.211,2.478-2.355,4.818-1.271,6.509a11.154,11.154,0,0,1,1.775,6.223A25,25,0,0,1,9.69,39.689c.345.591.708,1.278,1.032,1.892ZM67.469,18.532l-3.333-8.078a21.952,21.952,0,0,1,5.107-3.462,31.337,31.337,0,0,1,3.706-1.56ZM75.111,6.342a31.352,31.352,0,0,1,1.467,3.75,22.422,22.422,0,0,1,1.062,5.655l-7.811,3.223ZM61.088,14.668a11.144,11.144,0,0,1,1.31-2.277l3.795,9.194-3.405,8.142a31.2,31.2,0,0,1-1.52-3.862c-.959-3.032-1.768-7.437-.179-11.2Zm7.514,14.3a31.194,31.194,0,0,1-3.589,1.519l3.534-8.448,8.995-3.711a11.328,11.328,0,0,1-.784,2.964c-1.589,3.76-5.311,6.25-8.155,7.676ZM26.309,28.3c-.415-.081-.823-.18-1.227-.293l12.981-9.516,10.688,2.084c-3.893,3.068-13.369,9.5-22.443,7.725ZM14.446,20.959a45.669,45.669,0,0,1-5.98-8.24l13.6,2.652Zm2.4-15.648,5.691,7.763L8.849,10.4a46.206,46.206,0,0,1,8-5.094Zm9.084,8.424-6.9-9.411a26.382,26.382,0,0,1,6.556-1.814l9.544,13.018Zm-.73,2.247,9.728,1.9L22.445,27.029a24.264,24.264,0,0,1-6.327-4.388Zm31.826,22.9c-4.228,2.253-6.3,4.022-7.281,6.181-1.055,2.318-.668,4.805-.133,8.249.316,2.03-2.1,5.811-5.259,7.165-1.17.5-2,.442-2.478-.177-.932-1.213-.906-4.884-.886-7.833.027-4.08.052-7.6-1.632-9.1a2.765,2.765,0,0,0-2.241-.66c-.737.092-1.486.211-2.208.326-4.311.687-7.025.962-8.43-1.927-2.277-4.68,2.333-8.147,4.42-9.42a7.426,7.426,0,0,0,1.186-.9A34.1,34.1,0,0,0,46.149,25.3a24.9,24.9,0,0,1,10.88,13.581Zm0,0" transform="translate(0 0)"/>
  </g>
</svg>
