<svg xmlns="http://www.w3.org/2000/svg" xmlns:xlink="http://www.w3.org/1999/xlink" width="160" height="160" viewBox="0 0 160 160">
  <defs>
    <clipPath id="clip-path">
      <path id="icon_arrow-right-circle" data-name="icon / arrow-right-circle" d="M6.328,12.657A6.31,6.31,0,0,1,0,6.328,6.31,6.31,0,0,1,6.328,0a6.31,6.31,0,0,1,6.328,6.328,6.31,6.31,0,0,1-6.328,6.328Zm0-11.506a5.178,5.178,0,1,0,5.178,5.178A5.184,5.184,0,0,0,6.328,1.151Zm0,8.055a.521.521,0,0,1-.4-.173.557.557,0,0,1,0-.805L7.249,6.9H4.027a.575.575,0,0,1,0-1.151H7.249L5.926,4.43a.558.558,0,0,1,0-.806.557.557,0,0,1,.806,0l2.3,2.3c.057.057.115.115.115.173a.207.207,0,0,0,.021.076.378.378,0,0,1,.036.154.349.349,0,0,1-.057.23c0,.058-.059.116-.115.172l-2.3,2.3A.52.52,0,0,1,6.328,9.205Z" transform="translate(0 0)" fill="#fff"/>
    </clipPath>
  </defs>
  <g id="t2-ob15" transform="translate(-704.5 -1222)">
    <rect id="Rectangle_33876" data-name="Rectangle 33876" width="160" height="160" rx="10" transform="translate(704.5 1222)" fill="#5bb947"/>
    <g id="Group_98463" data-name="Group 98463" transform="translate(715.799 1235.281)">
      <path id="Path_153814" data-name="Path 153814" d="M156.814,156.564v5.663h.046l3.806-3.95h.049v24.695h5.423V150.711h-4.331Z" transform="translate(-156.814 -150.599)" fill="#fff"/>
      <path id="Path_153815" data-name="Path 153815" d="M170.3,160.942a4.9,4.9,0,0,0-4.567,2.234h-.049v-8.041h9.327v-4.423H160.737v18.176h4.947v-.715c0-1.9.856-2.949,2.379-2.949,1.667,0,2.336,1.145,2.336,2.9v7.8c0,1.713-.62,2.9-2.287,2.9-1.857,0-2.516-1.237-2.516-3.136v-4.045h-4.954v3.665c0,4.9,1.952,8.041,7.47,8.041,5.469,0,7.707-2.9,7.707-7.375v-7.9c0-5.092-2.615-7.136-5.518-7.136" transform="translate(-148.082 -150.597)" fill="#fff"/>
      <path id="Rectangle_33886" data-name="Rectangle 33886" d="M.1,0h3.38a.1.1,0,0,1,.1.1V8.064a.1.1,0,0,1-.1.1H.1a.1.1,0,0,1-.1-.1V.1A.1.1,0,0,1,.1,0Z" transform="translate(61.187 88.524)" fill="#fff"/>
      <path id="Path_153816" data-name="Path 153816" d="M218.017,185.9h-51.3a.242.242,0,0,0-.235.24v3.136a.233.233,0,0,0,.235.23h51.3a.237.237,0,0,0,.238-.23v-3.136a.245.245,0,0,0-.238-.24" transform="translate(-119.3 -85.914)" fill="#fff"/>
      <path id="Path_153817" data-name="Path 153817" d="M218.017,188.525h-51.3a.233.233,0,0,0-.235.23V191.9a.235.235,0,0,0,.235.233h51.3a.239.239,0,0,0,.238-.233v-3.143a.237.237,0,0,0-.238-.23" transform="translate(-119.3 -82.305)" fill="#fff"/>
      <path id="Path_153818" data-name="Path 153818" d="M189.1,178.464a7.594,7.594,0,0,0-4.436-1.673,5.924,5.924,0,0,0-4.122,1.754.427.427,0,0,0-.135.318v.28a.439.439,0,0,0,.145.349.412.412,0,0,0,.361.086.333.333,0,0,0,.1-.026.645.645,0,0,0,.259-.162,4.139,4.139,0,0,1,2.055-.428,7.765,7.765,0,0,1,5.284,2.214l.048.045a.621.621,0,0,0,.447.185.588.588,0,0,0,.432-.183l.043-.04a7.781,7.781,0,0,1,5.294-2.222,4.14,4.14,0,0,1,2.06.428.777.777,0,0,0,.283.176.662.662,0,0,0,.3.007.44.44,0,0,0,.323-.421V178.9a.445.445,0,0,0-.138-.316,5.943,5.943,0,0,0-4.172-1.8,7.521,7.521,0,0,0-4.426,1.675" transform="translate(-100.143 -98.454)" fill="#fff"/>
      <path id="Path_153819" data-name="Path 153819" d="M182.895,169.172a.422.422,0,0,0-.223.268l-.052.171a.446.446,0,0,0,.067.387.437.437,0,0,0,.318.173.2.2,0,0,0,.064,0,.554.554,0,0,0,.247-.064,1.207,1.207,0,0,1,.311-.033,4.441,4.441,0,0,1,3.664,2.393l.019.031a.534.534,0,0,0,.328.266.716.716,0,0,0,.164.024.529.529,0,0,0,.259-.064l.033-.017a5.1,5.1,0,0,1,2.288-.568,3.475,3.475,0,0,1,2.338.751.6.6,0,0,0,.173.19,1,1,0,0,0,.169.081.319.319,0,0,0,.074.012l.045,0a.488.488,0,0,0,.2-.05.445.445,0,0,0,.219-.266l.04-.15a.355.355,0,0,0,.021-.124.428.428,0,0,0-.062-.221,3.855,3.855,0,0,0-3.481-2.091,5.433,5.433,0,0,0-1.846.347,4.478,4.478,0,0,0-3.46-1.941,4.281,4.281,0,0,0-1.922.489" transform="translate(-97.122 -109.608)" fill="#fff"/>
      <path id="Path_153820" data-name="Path 153820" d="M178.163,173.637l.014.23a.426.426,0,0,0,.2.345.433.433,0,0,0,.344.055l.076-.024a.556.556,0,0,0,.221-.166,3.78,3.78,0,0,1,1.958-.444,6.348,6.348,0,0,1,4.056,1.535l.036.038a.613.613,0,0,0,.394.15h.04a.606.606,0,0,0,.4-.195l.036-.038a6.153,6.153,0,0,1,4.5-2.079,3.068,3.068,0,0,1,1.338.245.671.671,0,0,0,.268.14.769.769,0,0,0,.185.01.61.61,0,0,0,.109-.026.437.437,0,0,0,.292-.442l-.014-.2a.434.434,0,0,0-.152-.3,5.039,5.039,0,0,0-3.281-1.29,6.1,6.1,0,0,0-3.84,1.587,6.407,6.407,0,0,0-3.424-1.136,4.895,4.895,0,0,0-3.64,1.682.449.449,0,0,0-.119.328" transform="translate(-103.229 -106.179)" fill="#fff"/>
      <path id="Path_153821" data-name="Path 153821" d="M167.237,181.182a5.56,5.56,0,0,1,5.562-5.56c.121,0,.238.01.354.017a7.522,7.522,0,1,1,14.261,3.852,8.4,8.4,0,0,1-1.822,16.611c-.34,0-11.222-.067-11.222-.067a5.945,5.945,0,0,1-4.331-10.029,5.553,5.553,0,0,1-2.8-4.823" transform="translate(-118.264 -109.607)" fill="#fff"/>
      <path id="Path_153822" data-name="Path 153822" d="M175.878,150.677l-2.566,13.484h-2.467l-2.566-13.484h2.306l1.552,9.406h.02l1.591-9.406Z" transform="translate(-130.662 -150.676)" fill="#fff"/>
      <rect id="Rectangle_33887" data-name="Rectangle 33887" width="2.267" height="13.484" transform="translate(45.85 0)" fill="#fff"/>
      <path id="Path_153823" data-name="Path 153823" d="M175.013,162.311c.935,0,1.293-.554,1.293-1.371v-7.06a1.18,1.18,0,0,0-1.293-1.352h-.955v9.784Zm3.56-8.015v6.247c0,2.067-.856,3.619-3.281,3.619h-3.5V150.677h3.5c2.425,0,3.281,1.532,3.281,3.619" transform="translate(-122.66 -150.677)" fill="#fff"/>
      <path id="Path_153824" data-name="Path 153824" d="M176.8,159.886h1.811l-.9-5.41h-.02Zm-2.845,4.275,2.546-13.484h2.585l2.566,13.484H179.33l-.417-2.467H176.5l-.4,2.467Z" transform="translate(-117.708 -150.677)" fill="#fff"/>
      <path id="Path_153825" data-name="Path 153825" d="M171.607,167.767c.935,0,1.293-.558,1.293-1.371v-7.064a1.181,1.181,0,0,0-1.293-1.352h-.955v9.787Zm3.56-8.015V166c0,2.067-.856,3.616-3.281,3.616h-3.5V156.133h3.5c2.425,0,3.281,1.529,3.281,3.619" transform="translate(-130.429 -138.233)" fill="#fff"/>
      <path id="Path_153826" data-name="Path 153826" d="M170.753,156.132h5.41v1.85H173.02v3.858h2.247v1.831H173.02v4.095h3.143v1.85h-5.41Z" transform="translate(-125.02 -138.235)" fill="#fff"/>
      <path id="Path_153827" data-name="Path 153827" d="M173.226,156.132h5.41v1.85h-3.143v3.858h2.247v1.831h-2.247v4.095h3.143v1.85h-5.41Z" transform="translate(-119.381 -138.235)" fill="#fff"/>
      <path id="Path_153828" data-name="Path 153828" d="M175.092,166.247v-6.522c0-2.11.994-3.642,3.383-3.642,2.5,0,3.2,1.394,3.2,3.383v1.591h-2.07v-1.768c0-.84-.279-1.316-1.1-1.316s-1.152.577-1.152,1.394v7.241c0,.814.341,1.391,1.152,1.391s1.1-.518,1.1-1.312V164.2h2.07v2.326c0,1.929-.8,3.36-3.2,3.36-2.388,0-3.383-1.549-3.383-3.638" transform="translate(-115.124 -138.347)" fill="#fff"/>
      <path id="Path_153829" data-name="Path 153829" d="M181.979,166.608v-7.241c0-.817-.361-1.394-1.178-1.394-.794,0-1.152.577-1.152,1.394v7.241c0,.814.358,1.391,1.152,1.391.817,0,1.178-.577,1.178-1.391m-4.6-.361v-6.522c0-2.11,1.033-3.642,3.419-3.642,2.411,0,3.445,1.532,3.445,3.642v6.522c0,2.09-1.033,3.638-3.445,3.638-2.385,0-3.419-1.549-3.419-3.638" transform="translate(-109.899 -138.347)" fill="#fff"/>
      <path id="Path_153830" data-name="Path 153830" d="M179.741,166.822v-1.808h2.11v1.847c0,.755.338,1.194,1.115,1.194.712,0,1.033-.479,1.033-1.194v-.515a2.439,2.439,0,0,0-1.017-1.909L181.65,163.1c-1.293-1.273-1.89-2.047-1.89-3.6v-.456c0-1.67.974-2.963,3.182-2.963,2.267,0,3.163,1.112,3.163,3.061v1.093h-2.07v-1.171c0-.778-.358-1.155-1.07-1.155a.994.994,0,0,0-1.076,1.112v.282c0,.755.417,1.191,1.076,1.827l1.45,1.434c1.234,1.25,1.831,2.008,1.831,3.5v.656c0,1.847-.994,3.159-3.3,3.159s-3.2-1.289-3.2-3.061" transform="translate(-104.521 -138.344)" fill="#fff"/>
      <rect id="Rectangle_33888" data-name="Rectangle 33888" width="2.267" height="13.484" transform="translate(82.619 17.897)" fill="#fff"/>
      <path id="Path_153831" data-name="Path 153831" d="M182.959,166.822v-1.808h2.11v1.847c0,.755.338,1.194,1.115,1.194.712,0,1.033-.479,1.033-1.194v-.515a2.439,2.439,0,0,0-1.017-1.909l-1.332-1.335c-1.293-1.273-1.89-2.047-1.89-3.6v-.456c0-1.67.974-2.963,3.182-2.963,2.267,0,3.163,1.112,3.163,3.061v1.093h-2.067v-1.171c0-.778-.361-1.155-1.073-1.155a.994.994,0,0,0-1.076,1.112v.282c0,.755.417,1.191,1.076,1.827l1.45,1.434c1.234,1.25,1.831,2.008,1.831,3.5v.656c0,1.847-.994,3.159-3.3,3.159s-3.2-1.289-3.2-3.061" transform="translate(-97.181 -138.344)" fill="#fff"/>
      <path id="Path_153832" data-name="Path 153832" d="M185.045,156.132h6.027v1.85H189.2v11.634h-2.287V157.982h-1.87Z" transform="translate(-92.424 -138.235)" fill="#fff"/>
      <path id="Path_153833" data-name="Path 153833" d="M187.111,156.132h5.41v1.85h-3.143v3.858h2.247v1.831h-2.247v4.095h3.143v1.85h-5.41Z" transform="translate(-87.71 -138.235)" fill="#fff"/>
      <path id="Path_153834" data-name="Path 153834" d="M195.285,160.866h-.059l-1.532,8.75H192.64l-1.69-8.75h-.039v8.75h-1.873V156.132h2.648l1.47,7.6h.02l1.312-7.6h2.868v13.484h-2.07Z" transform="translate(-83.315 -138.235)" fill="#fff"/>
      <path id="Path_153835" data-name="Path 153835" d="M194.611,165.341h1.811l-.9-5.41h-.02Zm-2.844,4.275,2.546-13.484H196.9l2.566,13.484h-2.326l-.417-2.467h-2.408l-.4,2.467Z" transform="translate(-77.093 -138.235)" fill="#fff"/>
      <path id="Path_153836" data-name="Path 153836" d="M194.208,166.822v-1.808h2.11v1.847c0,.755.338,1.194,1.115,1.194.712,0,1.033-.479,1.033-1.194v-.515a2.439,2.439,0,0,0-1.017-1.909l-1.332-1.335c-1.293-1.273-1.89-2.047-1.89-3.6v-.456c0-1.67.974-2.963,3.182-2.963,2.267,0,3.163,1.112,3.163,3.061v1.093H198.5v-1.171c0-.778-.358-1.155-1.07-1.155a.994.994,0,0,0-1.076,1.112v.282c0,.755.417,1.191,1.076,1.827l1.45,1.434c1.234,1.25,1.831,2.008,1.831,3.5v.656c0,1.847-.994,3.159-3.3,3.159s-3.2-1.289-3.2-3.061" transform="translate(-71.524 -138.344)" fill="#fff"/>
      <path id="Path_153837" data-name="Path 153837" d="M168.3,161.587h6.027v1.85h-1.87v11.634h-2.287V163.437H168.3Z" transform="translate(-130.605 -125.794)" fill="#fff"/>
      <path id="Path_153838" data-name="Path 153838" d="M170.371,161.587h5.41v1.85h-3.143V167.3h2.247v1.831h-2.247v4.1h3.143v1.847h-5.41Z" transform="translate(-125.892 -125.794)" fill="#fff"/>
      <path id="Path_153839" data-name="Path 153839" d="M174.565,163.437v4.2h.755a.981.981,0,0,0,1.116-1.112v-1.988c0-.738-.338-1.1-1.116-1.1Zm0,5.449v6.184H172.3V161.587h3.3c2.284,0,3.12,1.132,3.12,3.025v1.729c0,1.453-.515,2.306-1.811,2.605l2.169,6.125h-2.385Z" transform="translate(-121.497 -125.793)" fill="#fff"/>
      <path id="Path_153840" data-name="Path 153840" d="M176.808,163.437v4.2h.755a.981.981,0,0,0,1.115-1.112v-1.988c0-.738-.338-1.1-1.115-1.1Zm0,5.449v6.184h-2.267V161.587h3.3c2.283,0,3.12,1.132,3.12,3.025v1.729c0,1.453-.515,2.306-1.811,2.605l2.169,6.125h-2.385Z" transform="translate(-116.381 -125.793)" fill="#fff"/>
      <path id="Path_153841" data-name="Path 153841" d="M176.784,161.587h5.41v1.85h-3.143V167.3H181.3v1.831h-2.247v4.1h3.143v1.847h-5.41Z" transform="translate(-111.265 -125.794)" fill="#fff"/>
      <path id="Path_153842" data-name="Path 153842" d="M178.645,172.277v-1.811h2.11v1.85c0,.755.338,1.191,1.116,1.191.712,0,1.033-.476,1.033-1.191V171.8a2.439,2.439,0,0,0-1.017-1.909l-1.332-1.332c-1.293-1.273-1.89-2.047-1.89-3.6V164.5c0-1.67.974-2.959,3.179-2.959,2.27,0,3.166,1.112,3.166,3.061v1.092h-2.07v-1.171c0-.778-.358-1.155-1.07-1.155a.994.994,0,0,0-1.076,1.112v.279c0,.758.417,1.194,1.076,1.827l1.45,1.434c1.23,1.253,1.827,2.011,1.827,3.5v.656c0,1.85-.994,3.163-3.3,3.163s-3.2-1.293-3.2-3.061" transform="translate(-107.02 -125.902)" fill="#fff"/>
      <path id="Path_153843" data-name="Path 153843" d="M180.73,161.587h6.027v1.85h-1.87v11.634H182.6V163.437h-1.87Z" transform="translate(-102.266 -125.794)" fill="#fff"/>
      <path id="Path_153844" data-name="Path 153844" d="M185.063,163.437v4.2h.755a.981.981,0,0,0,1.116-1.112v-1.988c0-.738-.338-1.1-1.116-1.1Zm0,5.449v6.184H182.8V161.587h3.3c2.283,0,3.12,1.132,3.12,3.025v1.729c0,1.453-.515,2.306-1.811,2.605l2.169,6.125h-2.385Z" transform="translate(-97.553 -125.793)" fill="#fff"/>
      <path id="Path_153845" data-name="Path 153845" d="M185.039,161.587h5.41v1.85h-3.143V167.3h2.247v1.831h-2.247v4.1h3.143v1.847h-5.41Z" transform="translate(-92.438 -125.794)" fill="#fff"/>
      <path id="Path_153846" data-name="Path 153846" d="M186.9,172.277v-1.811h2.11v1.85c0,.755.338,1.191,1.115,1.191.712,0,1.033-.476,1.033-1.191V171.8a2.439,2.439,0,0,0-1.017-1.909l-1.332-1.332c-1.293-1.273-1.89-2.047-1.89-3.6V164.5c0-1.67.974-2.959,3.182-2.959,2.267,0,3.163,1.112,3.163,3.061v1.092H191.2v-1.171c0-.778-.361-1.155-1.073-1.155a.994.994,0,0,0-1.076,1.112v.279c0,.758.417,1.194,1.076,1.827l1.45,1.434c1.234,1.253,1.831,2.011,1.831,3.5v.656c0,1.85-.994,3.163-3.3,3.163s-3.2-1.293-3.2-3.061" transform="translate(-88.194 -125.902)" fill="#fff"/>
    </g>
    <g id="Group_100248" data-name="Group 100248" transform="translate(514 398)">
      <text id="Leer_más" data-name="Leer más" transform="translate(235.172 953)" fill="#fff" font-size="14" font-family="Roboto-Regular, Roboto"><tspan x="0" y="13">Leer más</tspan></text>
      <g id="icon_arrow_arrow-right-circle" data-name="icon / arrow / arrow-right-circle" transform="translate(303.172 955.888)">
        <g id="Group_201" data-name="Group 201">
          <path id="icon_arrow-right-circle-2" data-name="icon / arrow-right-circle" d="M6.328,12.657A6.31,6.31,0,0,1,0,6.328,6.31,6.31,0,0,1,6.328,0a6.31,6.31,0,0,1,6.328,6.328,6.31,6.31,0,0,1-6.328,6.328Zm0-11.506a5.178,5.178,0,1,0,5.178,5.178A5.184,5.184,0,0,0,6.328,1.151Zm0,8.055a.521.521,0,0,1-.4-.173.557.557,0,0,1,0-.805L7.249,6.9H4.027a.575.575,0,0,1,0-1.151H7.249L5.926,4.43a.558.558,0,0,1,0-.806.557.557,0,0,1,.806,0l2.3,2.3c.057.057.115.115.115.173a.207.207,0,0,0,.021.076.378.378,0,0,1,.036.154.349.349,0,0,1-.057.23c0,.058-.059.116-.115.172l-2.3,2.3A.52.52,0,0,1,6.328,9.205Z" transform="translate(0 0)" fill="#fff"/>
        </g>
      </g>
    </g>
  </g>
</svg>
