<svg xmlns="http://www.w3.org/2000/svg" xmlns:xlink="http://www.w3.org/1999/xlink" width="160" height="160" viewBox="0 0 160 160">
  <defs>
    <clipPath id="clip-path">
      <path id="icon_arrow-right-circle" data-name="icon / arrow-right-circle" d="M6.328,12.657A6.31,6.31,0,0,1,0,6.328,6.31,6.31,0,0,1,6.328,0a6.31,6.31,0,0,1,6.328,6.328,6.31,6.31,0,0,1-6.328,6.328Zm0-11.506a5.178,5.178,0,1,0,5.178,5.178A5.184,5.184,0,0,0,6.328,1.151Zm0,8.055a.521.521,0,0,1-.4-.173.557.557,0,0,1,0-.805L7.249,6.9H4.027a.575.575,0,0,1,0-1.151H7.249L5.926,4.43a.558.558,0,0,1,0-.806.557.557,0,0,1,.806,0l2.3,2.3c.057.057.115.115.115.173a.207.207,0,0,0,.021.076.378.378,0,0,1,.036.154.349.349,0,0,1-.057.23c0,.058-.059.116-.115.172l-2.3,2.3A.52.52,0,0,1,6.328,9.205Z" transform="translate(0 0)" fill="#fff"/>
    </clipPath>
  </defs>
  <g id="t2-ob11" transform="translate(-1020.5 -1001)">
    <rect id="Rectangle_33846" data-name="Rectangle 33846" width="160" height="160" rx="10" transform="translate(1020.5 1001)" fill="#f89d26"/>
    <g id="Group_98452" data-name="Group 98452" transform="translate(1031.543 1014.285)">
      <path id="Path_153714" data-name="Path 153714" d="M267.152,101.026v5.663h.046L271,102.735h.049v24.7h5.423V95.173h-4.327Z" transform="translate(-267.152 -95.046)" fill="#fff"/>
      <path id="Path_153715" data-name="Path 153715" d="M270.922,101.026v5.663h.046l3.806-3.953h.049v24.7h5.427V95.173h-4.331Z" transform="translate(-258.552 -95.046)" fill="#fff"/>
      <path id="Path_153716" data-name="Path 153716" d="M273.544,135.292h16.131a.4.4,0,0,0,.4-.4.393.393,0,0,0-.1-.265l-.021-.024-8.026-10.384-.076-.083a.393.393,0,0,0-.553-.029l-.048.057-.076.083-7.826,10.274-.124.148a.386.386,0,0,0-.067.222.4.4,0,0,0,.4.4" transform="translate(-232.041 -39.826)" fill="#fff"/>
      <path id="Path_153717" data-name="Path 153717" d="M289.673,129.359H273.511a.4.4,0,0,0-.4.4V142.4a.4.4,0,0,0,.4.4h5.2v-7.96a.394.394,0,0,1,.4-.393h4.83a.394.394,0,0,1,.393.393v7.96h5.342a.4.4,0,0,0,.4-.4V129.755a.4.4,0,0,0-.4-.4" transform="translate(-232.09 -32.427)" fill="#fff"/>
      <path id="Path_153718" data-name="Path 153718" d="M311.559,133.148a.388.388,0,0,1-.393.381h-4.777a.387.387,0,0,1-.393-.381v-2.908a.384.384,0,0,1,.393-.377h4.777a.386.386,0,0,1,.393.377Zm0,5.368a.388.388,0,0,1-.393.381h-4.777a.387.387,0,0,1-.393-.381V135.61a.383.383,0,0,1,.393-.379h4.777a.385.385,0,0,1,.393.379Zm-7.3-5.368a.388.388,0,0,1-.393.381h-4.777a.389.389,0,0,1-.4-.381v-2.908a.386.386,0,0,1,.4-.377h4.777a.386.386,0,0,1,.393.377Zm0,5.368a.388.388,0,0,1-.393.381h-4.777a.389.389,0,0,1-.4-.381V135.61a.385.385,0,0,1,.4-.379h4.777a.385.385,0,0,1,.393.379Zm8.751-10.546h-16a.381.381,0,0,0-.389.379V144.5a.384.384,0,0,0,.389.381h16a.386.386,0,0,0,.391-.381V128.349a.383.383,0,0,0-.391-.379" transform="translate(-199.561 -34.348)" fill="#fff"/>
      <path id="Path_153719" data-name="Path 153719" d="M294.921,123.72a.207.207,0,0,1-.207.2h-3.585a.2.2,0,0,1-.2-.2v-4a.2.2,0,0,1,.2-.2h3.585a.206.206,0,0,1,.207.2Zm0,9.173a.206.206,0,0,1-.207.205h-3.585a.2.2,0,0,1-.2-.205v-4a.2.2,0,0,1,.2-.2h3.585a.206.206,0,0,1,.207.2Zm0,9.173a.208.208,0,0,1-.207.207h-3.585a.205.205,0,0,1-.2-.207v-3.993a.205.205,0,0,1,.2-.207h3.585a.208.208,0,0,1,.207.207Zm0,9.173a.206.206,0,0,1-.207.207h-3.585a.2.2,0,0,1-.2-.207v-3.993a.2.2,0,0,1,.2-.207h3.585a.206.206,0,0,1,.207.207Zm0,9.175a.208.208,0,0,1-.207.207h-3.585a.205.205,0,0,1-.2-.207v-4a.2.2,0,0,1,.2-.205h3.585a.207.207,0,0,1,.207.205Zm-7.03-36.694a.206.206,0,0,1-.2.2H284.1a.206.206,0,0,1-.205-.2v-4a.205.205,0,0,1,.205-.2h3.585a.2.2,0,0,1,.2.2Zm0,9.173a.2.2,0,0,1-.2.205H284.1a.205.205,0,0,1-.205-.205v-4a.205.205,0,0,1,.205-.2h3.585a.2.2,0,0,1,.2.2Zm0,9.173a.207.207,0,0,1-.2.207H284.1a.207.207,0,0,1-.205-.207v-3.993a.207.207,0,0,1,.205-.207h3.585a.207.207,0,0,1,.2.207Zm0,9.173a.205.205,0,0,1-.2.207H284.1a.206.206,0,0,1-.205-.207v-3.993a.206.206,0,0,1,.205-.207h3.585a.206.206,0,0,1,.2.207Zm0,9.175a.207.207,0,0,1-.2.207H284.1a.207.207,0,0,1-.205-.207v-4a.207.207,0,0,1,.205-.205h3.585a.207.207,0,0,1,.2.205ZM297.2,112.24H281.55a.385.385,0,0,0-.384.384v53.5a.385.385,0,0,0,.384.381H297.2a.387.387,0,0,0,.386-.381v-53.5a.387.387,0,0,0-.386-.384" transform="translate(-220.947 -56.116)" fill="#fff"/>
      <rect id="Rectangle_33867" data-name="Rectangle 33867" width="16.744" height="3.864" rx="0.135" transform="translate(97.074 88.453)" fill="#fff"/>
      <path id="Path_153720" data-name="Path 153720" d="M303.549,133a.383.383,0,0,1-.381.384H298.5a.38.38,0,0,1-.381-.384v-2.92a.38.38,0,0,1,.381-.384h4.667a.383.383,0,0,1,.381.384Zm0,5.4a.385.385,0,0,1-.381.384H298.5a.382.382,0,0,1-.381-.384v-2.918a.379.379,0,0,1,.381-.381h4.667a.383.383,0,0,1,.381.381Zm0,5.4a.384.384,0,0,1-.381.381H298.5a.381.381,0,0,1-.381-.381v-2.923a.379.379,0,0,1,.381-.381h4.667a.383.383,0,0,1,.381.381Zm0,5.4a.383.383,0,0,1-.381.381H298.5a.379.379,0,0,1-.381-.381V146.27a.377.377,0,0,1,.381-.379h4.667a.38.38,0,0,1,.381.379Zm0,5.4a.385.385,0,0,1-.381.384H298.5a.382.382,0,0,1-.381-.384v-2.923a.381.381,0,0,1,.381-.381h4.667a.384.384,0,0,1,.381.381Zm-7.12-22.62V138.4a.381.381,0,0,1-.381.384h-4.665A.382.382,0,0,1,291,138.4V137.6a.394.394,0,0,1,.029-.143.211.211,0,0,1,.024-.045l.031-.05.045-.062c.6-.853,3.29-4.172,4.417-5.557l.115-.136a.448.448,0,0,1,.346-.162.434.434,0,0,1,.424.358Zm-.009,11.826a.385.385,0,0,1-.384.381h-4.668a.381.381,0,0,1-.381-.381v-2.923a.379.379,0,0,1,.381-.381h4.668a.383.383,0,0,1,.384.381Zm0,5.4a.383.383,0,0,1-.384.381h-4.668a.379.379,0,0,1-.381-.381V146.27a.377.377,0,0,1,.381-.379h4.668a.381.381,0,0,1,.384.379Zm0,5.4a.385.385,0,0,1-.384.384h-4.668a.382.382,0,0,1-.381-.384v-2.923a.381.381,0,0,1,.381-.381h4.668a.385.385,0,0,1,.384.381Zm2.434-27.335.107-.138c1.054-1.352,2.827-3.535,3.693-4.6l.114-.136a.45.45,0,0,1,.343-.162.437.437,0,0,1,.427.358v4.937a.441.441,0,0,1-.424.441l-.019,0-.021,0h-3.843l-.019,0-.021,0a.442.442,0,0,1-.336-.7m6.477-10.6a.414.414,0,0,0-.393-.3.384.384,0,0,0-.224.076l-.029.019-.133.167-15.385,19.516-.072.1a.446.446,0,0,0-.133.305v23.983a.385.385,0,0,0,.384.384h15.64a.382.382,0,0,0,.381-.384v-43.7a.391.391,0,0,0-.036-.16" transform="translate(-210.161 -50.425)" fill="#fff"/>
      <path id="Path_153721" data-name="Path 153721" d="M276.3,105.3V98.773c0-2.106.994-3.639,3.379-3.639,2.507,0,3.205,1.394,3.205,3.379v1.595h-2.07V98.336c0-.837-.279-1.312-1.1-1.312s-1.152.577-1.152,1.391v7.241c0,.817.341,1.391,1.152,1.391s1.1-.518,1.1-1.312v-2.484h2.07v2.326c0,1.929-.8,3.363-3.205,3.363-2.385,0-3.379-1.555-3.379-3.642" transform="translate(-246.285 -95.134)" fill="#fff"/>
      <rect id="Rectangle_33868" data-name="Rectangle 33868" width="2.267" height="13.484" transform="translate(37.83 0.157)" fill="#fff"/>
      <path id="Path_153722" data-name="Path 153722" d="M286.357,95.182v10.2c0,2.09-.9,3.442-3.2,3.442-2.392,0-3.386-1.352-3.386-3.442v-10.2h2.27v10.423c0,.794.318,1.332,1.116,1.332s1.112-.538,1.112-1.332V95.182Z" transform="translate(-238.366 -95.025)" fill="#fff"/>
      <path id="Path_153723" data-name="Path 153723" d="M285.395,106.816c.935,0,1.293-.554,1.293-1.371V98.384a1.182,1.182,0,0,0-1.293-1.355h-.955v9.787Zm3.56-8.015v6.247c0,2.067-.856,3.619-3.281,3.619h-3.5V95.182h3.5c2.425,0,3.281,1.532,3.281,3.619" transform="translate(-232.889 -95.025)" fill="#fff"/>
      <path id="Path_153724" data-name="Path 153724" d="M287.281,104.392h1.808l-.892-5.41h-.026Zm-2.848,4.275,2.546-13.485h2.589l2.566,13.485h-2.326l-.42-2.467h-2.408l-.4,2.467Z" transform="translate(-227.734 -95.025)" fill="#fff"/>
      <path id="Path_153725" data-name="Path 153725" d="M290.286,106.816c.935,0,1.293-.554,1.293-1.371V98.384a1.182,1.182,0,0,0-1.293-1.355h-.955v9.787Zm3.56-8.015v6.247c0,2.067-.853,3.619-3.281,3.619h-3.5V95.182h3.5c2.428,0,3.281,1.532,3.281,3.619" transform="translate(-221.733 -95.025)" fill="#fff"/>
      <path id="Path_153726" data-name="Path 153726" d="M289.524,95.182h5.41v1.851h-3.143v3.858h2.247v1.831h-2.247v4.095h3.143v1.85h-5.41Z" transform="translate(-216.121 -95.025)" fill="#fff"/>
      <path id="Path_153727" data-name="Path 153727" d="M291.476,105.872v-1.808h2.11v1.847c0,.755.338,1.194,1.112,1.194.715,0,1.034-.479,1.034-1.194v-.518a2.434,2.434,0,0,0-1.014-1.906l-1.332-1.335c-1.293-1.273-1.89-2.047-1.89-3.6V98.1c0-1.673.974-2.963,3.179-2.963,2.27,0,3.166,1.112,3.166,3.061v1.093h-2.067V98.116c0-.778-.361-1.155-1.076-1.155a.993.993,0,0,0-1.073,1.112v.282c0,.755.417,1.191,1.073,1.827l1.45,1.431c1.234,1.257,1.831,2.011,1.831,3.5v.656c0,1.847-.991,3.159-3.3,3.159s-3.2-1.289-3.2-3.061" transform="translate(-211.67 -95.134)" fill="#fff"/>
      <path id="Path_153728" data-name="Path 153728" d="M299.139,103.536v5.135h-2.27v-5.135l-2.526-8.353h2.372l1.371,5.112h.016l1.375-5.112h2.165Z" transform="translate(-205.133 -95.024)" fill="#fff"/>
      <path id="Path_153729" data-name="Path 153729" d="M276.3,110.752V104.23c0-2.11.994-3.642,3.379-3.642,2.507,0,3.205,1.394,3.205,3.379v1.595h-2.07V103.79c0-.837-.279-1.312-1.1-1.312s-1.152.577-1.152,1.391v7.244c0,.814.341,1.391,1.152,1.391s1.1-.518,1.1-1.316V108.7h2.07v2.326c0,1.929-.8,3.363-3.205,3.363-2.385,0-3.379-1.552-3.379-3.642" transform="translate(-246.285 -82.694)" fill="#fff"/>
      <path id="Path_153730" data-name="Path 153730" d="M283.275,111.113v-7.244c0-.814-.358-1.391-1.175-1.391-.794,0-1.152.577-1.152,1.391v7.244c0,.814.358,1.391,1.152,1.391.817,0,1.175-.577,1.175-1.391m-4.593-.361V104.23c0-2.11,1.034-3.642,3.419-3.642,2.408,0,3.442,1.532,3.442,3.642v6.522c0,2.09-1.033,3.642-3.442,3.642-2.385,0-3.419-1.552-3.419-3.642" transform="translate(-240.852 -82.694)" fill="#fff"/>
      <path id="Path_153731" data-name="Path 153731" d="M287.413,105.371h-.059l-1.529,8.754h-1.057l-1.69-8.754h-.039v8.754h-1.873V100.637h2.644l1.473,7.6h.02l1.316-7.6h2.864v13.488h-2.07Z" transform="translate(-235.187 -82.583)" fill="#fff"/>
      <path id="Path_153732" data-name="Path 153732" d="M290.678,100.637v10.2c0,2.087-.9,3.442-3.2,3.442-2.388,0-3.383-1.355-3.383-3.442v-10.2h2.27v10.42c0,.8.315,1.335,1.112,1.335s1.112-.538,1.112-1.335v-10.42Z" transform="translate(-228.51 -82.582)" fill="#fff"/>
      <path id="Path_153733" data-name="Path 153733" d="M288.4,105.65v8.471h-1.909V100.637h2.228l2.444,7.736v-7.736h1.89v13.484h-1.988Z" transform="translate(-223.033 -82.582)" fill="#fff"/>
      <rect id="Rectangle_33869" data-name="Rectangle 33869" width="2.267" height="13.484" transform="translate(71.315 18.055)" fill="#fff"/>
      <path id="Path_153734" data-name="Path 153734" d="M293.2,112.271c.935,0,1.293-.554,1.293-1.371v-7.061a1.182,1.182,0,0,0-1.293-1.355h-.955v9.787Zm3.56-8.015V110.5c0,2.067-.853,3.619-3.281,3.619h-3.5V100.637h3.5c2.428,0,3.281,1.529,3.281,3.619" transform="translate(-215.084 -82.582)" fill="#fff"/>
      <path id="Path_153735" data-name="Path 153735" d="M295.081,109.847h1.811l-.892-5.41h-.026Zm-2.841,4.275,2.543-13.485h2.589l2.562,13.485h-2.326l-.417-2.467h-2.408l-.394,2.467Z" transform="translate(-209.927 -82.582)" fill="#fff"/>
      <path id="Path_153736" data-name="Path 153736" d="M298.092,112.271c.935,0,1.293-.554,1.293-1.371v-7.061a1.183,1.183,0,0,0-1.293-1.355h-.955v9.787Zm3.56-8.015V110.5c0,2.067-.853,3.619-3.281,3.619h-3.5V100.637h3.5c2.428,0,3.281,1.529,3.281,3.619" transform="translate(-203.929 -82.582)" fill="#fff"/>
      <path id="Path_153737" data-name="Path 153737" d="M297.331,100.637h5.41v1.851H299.6v3.858h2.247v1.827H299.6v4.1h3.143v1.85h-5.41Z" transform="translate(-198.315 -82.582)" fill="#fff"/>
      <path id="Path_153738" data-name="Path 153738" d="M299.282,111.327v-1.811h2.11v1.85c0,.755.338,1.194,1.116,1.194.712,0,1.03-.479,1.03-1.194v-.518a2.429,2.429,0,0,0-1.014-1.906l-1.332-1.335c-1.293-1.273-1.89-2.047-1.89-3.6v-.456c0-1.673.974-2.963,3.179-2.963,2.27,0,3.166,1.112,3.166,3.061v1.093H303.58v-1.171c0-.778-.361-1.155-1.073-1.155a.994.994,0,0,0-1.076,1.112v.279c0,.758.417,1.194,1.076,1.831l1.45,1.43c1.23,1.257,1.831,2.011,1.831,3.5v.656c0,1.847-.994,3.16-3.307,3.16s-3.2-1.289-3.2-3.061" transform="translate(-193.865 -82.692)" fill="#fff"/>
      <path id="Path_153739" data-name="Path 153739" d="M276.263,116.782v-1.808h2.11v1.847c0,.758.338,1.194,1.112,1.194.715,0,1.034-.479,1.034-1.194V116.3A2.434,2.434,0,0,0,279.5,114.4l-1.332-1.335c-1.293-1.27-1.89-2.047-1.89-3.6v-.456c0-1.673.974-2.963,3.179-2.963,2.27,0,3.166,1.112,3.166,3.061V110.2h-2.07v-1.171c0-.778-.358-1.155-1.073-1.155a.993.993,0,0,0-1.073,1.112v.282c0,.755.417,1.191,1.073,1.827l1.45,1.43c1.234,1.257,1.834,2.011,1.834,3.5v.656c0,1.85-.994,3.16-3.307,3.16s-3.2-1.289-3.2-3.061" transform="translate(-246.369 -70.249)" fill="#fff"/>
      <path id="Path_153740" data-name="Path 153740" d="M283.206,116.565v-7.241c0-.814-.361-1.391-1.175-1.391-.794,0-1.155.577-1.155,1.391v7.241c0,.817.361,1.391,1.155,1.391.814,0,1.175-.574,1.175-1.391m-4.6-.358v-6.526c0-2.106,1.034-3.639,3.422-3.639,2.408,0,3.442,1.532,3.442,3.639v6.526c0,2.087-1.034,3.642-3.442,3.642-2.388,0-3.422-1.555-3.422-3.642" transform="translate(-241.018 -70.252)" fill="#fff"/>
      <path id="Path_153741" data-name="Path 153741" d="M281.057,116.782v-1.808h2.11v1.847c0,.758.338,1.194,1.116,1.194.712,0,1.033-.479,1.033-1.194V116.3A2.438,2.438,0,0,0,284.3,114.4l-1.332-1.335c-1.293-1.27-1.887-2.047-1.887-3.6v-.456c0-1.673.971-2.963,3.179-2.963,2.267,0,3.163,1.112,3.163,3.061V110.2h-2.067v-1.171c0-.778-.361-1.155-1.073-1.155a.994.994,0,0,0-1.076,1.112v.282c0,.755.417,1.191,1.076,1.827l1.45,1.43c1.234,1.257,1.831,2.011,1.831,3.5v.656c0,1.85-.994,3.16-3.3,3.16s-3.2-1.289-3.2-3.061" transform="translate(-235.435 -70.249)" fill="#fff"/>
      <path id="Path_153742" data-name="Path 153742" d="M283.234,106.092h6.03v1.851H287.39v11.634H285.1V107.943h-1.87Z" transform="translate(-230.47 -70.14)" fill="#fff"/>
      <path id="Path_153743" data-name="Path 153743" d="M285.391,106.092h5.41v1.851h-3.143V111.8h2.247v1.827h-2.247v4.1H290.8v1.85h-5.41Z" transform="translate(-225.548 -70.14)" fill="#fff"/>
      <path id="Path_153744" data-name="Path 153744" d="M289.319,111.1v8.475h-1.91V106.092h2.228l2.448,7.736v-7.736h1.887v13.488h-1.988Z" transform="translate(-220.946 -70.141)" fill="#fff"/>
      <rect id="Rectangle_33870" data-name="Rectangle 33870" width="2.267" height="13.484" transform="translate(74.317 35.952)" fill="#fff"/>
      <path id="Path_153745" data-name="Path 153745" d="M293.161,113.51v4.216h.994a.976.976,0,0,0,1.116-1.093v-2.028c0-.718-.341-1.1-1.135-1.1Zm0-1.729h.8a.954.954,0,0,0,1.073-1.093v-1.654a.954.954,0,0,0-1.1-1.093h-.774Zm-2.267-5.689h3.281c2.267,0,3.025,1.053,3.025,2.966v1.368a1.965,1.965,0,0,1-1.352,2.149,2.05,2.05,0,0,1,1.69,2.251v1.788c0,1.909-.856,2.963-3.123,2.963h-3.52Z" transform="translate(-212.997 -70.14)" fill="#fff"/>
      <path id="Path_153746" data-name="Path 153746" d="M293.264,106.092h2.267v11.634h2.707v1.85h-4.974Z" transform="translate(-207.592 -70.14)" fill="#fff"/>
      <path id="Path_153747" data-name="Path 153747" d="M295.094,106.092h5.41v1.851h-3.143V111.8h2.247v1.827h-2.247v4.1H300.5v1.85h-5.41Z" transform="translate(-203.417 -70.14)" fill="#fff"/>
      <path id="Path_153748" data-name="Path 153748" d="M297.046,116.782v-1.808h2.11v1.847c0,.758.338,1.194,1.112,1.194.712,0,1.033-.479,1.033-1.194V116.3a2.443,2.443,0,0,0-1.014-1.906l-1.332-1.335c-1.3-1.27-1.89-2.047-1.89-3.6v-.456c0-1.673.974-2.963,3.179-2.963,2.267,0,3.166,1.112,3.166,3.061V110.2h-2.067v-1.171c0-.778-.364-1.155-1.076-1.155a1,1,0,0,0-1.076,1.112v.282c0,.755.42,1.191,1.076,1.827l1.45,1.43c1.234,1.257,1.831,2.011,1.831,3.5v.656c0,1.85-.994,3.16-3.3,3.16s-3.2-1.289-3.2-3.061" transform="translate(-198.965 -70.249)" fill="#fff"/>
    </g>
    <g id="Group_100244" data-name="Group 100244" transform="translate(825 179)">
      <text id="Leer_más" data-name="Leer más" transform="translate(235.172 953)" fill="#fff" font-size="14" font-family="Roboto-Regular, Roboto"><tspan x="0" y="13">Leer más</tspan></text>
      <g id="icon_arrow_arrow-right-circle" data-name="icon / arrow / arrow-right-circle" transform="translate(303.172 955.888)">
        <g id="Group_201" data-name="Group 201">
          <path id="icon_arrow-right-circle-2" data-name="icon / arrow-right-circle" d="M6.328,12.657A6.31,6.31,0,0,1,0,6.328,6.31,6.31,0,0,1,6.328,0a6.31,6.31,0,0,1,6.328,6.328,6.31,6.31,0,0,1-6.328,6.328Zm0-11.506a5.178,5.178,0,1,0,5.178,5.178A5.184,5.184,0,0,0,6.328,1.151Zm0,8.055a.521.521,0,0,1-.4-.173.557.557,0,0,1,0-.805L7.249,6.9H4.027a.575.575,0,0,1,0-1.151H7.249L5.926,4.43a.558.558,0,0,1,0-.806.557.557,0,0,1,.806,0l2.3,2.3c.057.057.115.115.115.173a.207.207,0,0,0,.021.076.378.378,0,0,1,.036.154.349.349,0,0,1-.057.23c0,.058-.059.116-.115.172l-2.3,2.3A.52.52,0,0,1,6.328,9.205Z" transform="translate(0 0)" fill="#fff"/>
        </g>
      </g>
    </g>
  </g>
</svg>
