<svg xmlns="http://www.w3.org/2000/svg" xmlns:xlink="http://www.w3.org/1999/xlink" width="160" height="160" viewBox="0 0 160 160">
  <defs>
    <clipPath id="clip-path">
      <path id="icon_arrow-right-circle" data-name="icon / arrow-right-circle" d="M6.328,12.657A6.31,6.31,0,0,1,0,6.328,6.31,6.31,0,0,1,6.328,0a6.31,6.31,0,0,1,6.328,6.328,6.31,6.31,0,0,1-6.328,6.328Zm0-11.506a5.178,5.178,0,1,0,5.178,5.178A5.184,5.184,0,0,0,6.328,1.151Zm0,8.055a.521.521,0,0,1-.4-.173.557.557,0,0,1,0-.805L7.249,6.9H4.027a.575.575,0,0,1,0-1.151H7.249L5.926,4.43a.558.558,0,0,1,0-.806.557.557,0,0,1,.806,0l2.3,2.3c.057.057.115.115.115.173a.207.207,0,0,0,.021.076.378.378,0,0,1,.036.154.349.349,0,0,1-.057.23c0,.058-.059.116-.115.172l-2.3,2.3A.52.52,0,0,1,6.328,9.205Z" transform="translate(0 0)" fill="#fff"/>
    </clipPath>
  </defs>
  <g id="t2-ob14" transform="translate(-495.5 -1222)">
    <rect id="Rectangle_33877" data-name="Rectangle 33877" width="160" height="160" rx="10" transform="translate(495.5 1222)" fill="#1d94d2"/>
    <g id="Group_98462" data-name="Group 98462" transform="translate(506.608 1235.283)">
      <path id="Path_153798" data-name="Path 153798" d="M110.654,150.732V182.98h-5.423V158.3h-.046l-3.806,3.947h-.046v-5.663l4.99-5.85Z" transform="translate(-101.333 -150.55)" fill="#fff"/>
      <path id="Path_153799" data-name="Path 153799" d="M109.486,173.522l4.852-13.274h.046v13.274Zm9.944,9.468v-5.233h2.188v-4.236H119.43V150.73H114.1l-9.373,23.7v3.33h9.564v5.233Z" transform="translate(-93.597 -150.555)" fill="#fff"/>
      <path id="Path_153800" data-name="Path 153800" d="M161.967,194.616a4.467,4.467,0,1,1,4.473-4.473,4.471,4.471,0,0,1-4.473,4.473m19.406-2.082c-1.691-2.283-12.609-16.206-27.92-16.206-13.292,0-27.512,12.058-27.512,12.058S120.6,177.452,109.67,176.4c-.063,0-.132-.017-.2-.017H109.4a.444.444,0,0,0-.419.432,1.213,1.213,0,0,0,.171.4c1.407,2.341,5,8.992,5,15.638,0,6.668-3.614,13.339-5.01,15.666l-.094.149a.416.416,0,0,0-.069.231.433.433,0,0,0,.4.43l.118-.008a.421.421,0,0,0,.116-.011c10.962-1.022,16.324-11.989,16.324-11.989s14.22,12.058,27.512,12.058c15.311,0,26.228-13.92,27.92-16.2.047-.061.083-.118.118-.157a.469.469,0,0,0,.036-.168.442.442,0,0,0-.036-.165c-.036-.047-.072-.1-.118-.157" transform="translate(-71.964 -103.615)" fill="#fff"/>
      <path id="Path_153801" data-name="Path 153801" d="M109.438,168.3a.386.386,0,0,0-.083-.019.443.443,0,0,0-.441.446v3.043a.423.423,0,0,0,.129.317c7.39,6.42,14.385.4,16.008-1.184a.351.351,0,0,1,.113-.124.419.419,0,0,1,.242-.08.425.425,0,0,1,.3.118l.022.017c8.345,7.965,17.1,1.515,18.919,0l.182-.163a.37.37,0,0,1,.165-.033.391.391,0,0,1,.174.033l.182.163c1.818,1.515,10.573,7.965,18.919,0l.017-.017a.419.419,0,0,1,.295-.118.466.466,0,0,1,.366.2c1.617,1.589,8.607,7.6,16,1.184a.454.454,0,0,0,.127-.317v-3.043a.439.439,0,0,0-.435-.446.377.377,0,0,0-.094.019c-.069.039-.141.074-.223.113a13.446,13.446,0,0,1-15.718-2.2c-.061-.058-.124-.116-.185-.182a.515.515,0,0,0-.187-.039.9.9,0,0,0-.132.019.51.51,0,0,0-.223.174c-1.906,1.457-10.659,7.381-18.456.11l-.113-.113a.488.488,0,0,0-.317-.132.471.471,0,0,0-.306.132l-.121.113c-7.789,7.271-16.553,1.347-18.459-.11a.47.47,0,0,0-.215-.174,1.021,1.021,0,0,0-.14-.019.537.537,0,0,0-.182.039c-.058.066-.127.124-.187.182a13.446,13.446,0,0,1-15.718,2.2c-.08-.039-.157-.074-.226-.113" transform="translate(-72.076 -121.752)" fill="#fff"/>
      <path id="Path_153802" data-name="Path 153802" d="M125.049,174.928a.413.413,0,0,1,.118-.121.441.441,0,0,1,.24-.083.434.434,0,0,1,.3.121l.019.019c8.343,7.957,17.1,1.507,18.919,0l.182-.171a.448.448,0,0,1,.163-.028.494.494,0,0,1,.176.028l.182.171c1.821,1.507,10.571,7.957,18.919,0l.017-.019a.405.405,0,0,1,.534-.039.433.433,0,0,1,.124.121c1.619,1.592,8.61,7.61,16,1.182a.414.414,0,0,0,.13-.308v-3.054a.433.433,0,0,0-.435-.435.677.677,0,0,0-.1.014c-.066.036-.138.072-.22.113a13.453,13.453,0,0,1-15.718-2.206c-.061-.055-.124-.11-.187-.174a.353.353,0,0,0-.185-.044.288.288,0,0,0-.135.033.372.372,0,0,0-.22.165c-1.906,1.449-10.662,7.379-18.456.107l-.116-.116a.45.45,0,0,0-.317-.124.436.436,0,0,0-.3.124l-.121.116c-7.792,7.271-16.553,1.341-18.456-.107a.366.366,0,0,0-.218-.165.319.319,0,0,0-.14-.033.369.369,0,0,0-.182.044,2.221,2.221,0,0,1-.187.174,13.457,13.457,0,0,1-15.721,2.206c-.077-.041-.154-.077-.22-.113a.6.6,0,0,0-.085-.014.437.437,0,0,0-.441.435V175.8a.423.423,0,0,0,.127.308c7.39,6.428,14.388.41,16.008-1.182" transform="translate(-72.076 -114.691)" fill="#fff"/>
      <path id="Path_153803" data-name="Path 153803" d="M121.243,150.677l-2.566,13.484H116.21l-2.566-13.484h2.306l1.552,9.41h.02l1.591-9.41Z" transform="translate(-73.254 -150.677)" fill="#fff"/>
      <rect id="Rectangle_33883" data-name="Rectangle 33883" width="2.267" height="13.484" transform="translate(48.923 0.001)" fill="#fff"/>
      <path id="Path_153804" data-name="Path 153804" d="M120.56,162.311c.935,0,1.293-.554,1.293-1.371v-7.06a1.182,1.182,0,0,0-1.293-1.355h-.955v9.787Zm3.56-8.015v6.247c0,2.067-.856,3.619-3.281,3.619h-3.5V150.677h3.5c2.425,0,3.281,1.529,3.281,3.619" transform="translate(-64.836 -150.676)" fill="#fff"/>
      <path id="Path_153805" data-name="Path 153805" d="M122.44,159.886h1.811l-.9-5.41h-.02Zm-2.844,4.275,2.546-13.484h2.585l2.566,13.484h-2.326l-.417-2.467h-2.408l-.4,2.467Z" transform="translate(-59.679 -150.676)" fill="#fff"/>
      <path id="Path_153806" data-name="Path 153806" d="M113.711,167.125v-1.811h2.11v1.85c0,.755.338,1.194,1.116,1.194.712,0,1.033-.479,1.033-1.194v-.518a2.444,2.444,0,0,0-1.017-1.909L115.62,163.4c-1.293-1.273-1.89-2.047-1.89-3.6v-.456c0-1.67.974-2.959,3.179-2.959,2.27,0,3.166,1.112,3.166,3.061v1.092h-2.067v-1.171c0-.778-.361-1.155-1.073-1.155a.994.994,0,0,0-1.076,1.112v.282c0,.755.417,1.191,1.076,1.827l1.45,1.43c1.234,1.253,1.827,2.011,1.827,3.5v.653c0,1.85-.991,3.163-3.3,3.163s-3.2-1.293-3.2-3.061" transform="translate(-73.102 -137.652)" fill="#fff"/>
      <path id="Path_153807" data-name="Path 153807" d="M122.642,156.435v10.2c0,2.093-.9,3.442-3.2,3.442-2.388,0-3.383-1.348-3.383-3.442v-10.2h2.27v10.42c0,.8.318,1.335,1.112,1.335s1.112-.538,1.112-1.335v-10.42Z" transform="translate(-67.751 -137.543)" fill="#fff"/>
      <path id="Path_153808" data-name="Path 153808" d="M120.724,163.853v4.216h.994a.976.976,0,0,0,1.115-1.093v-2.028c0-.719-.341-1.1-1.135-1.1Zm0-1.729h.8a.955.955,0,0,0,1.073-1.1v-1.65a.956.956,0,0,0-1.1-1.1h-.774Zm-2.267-5.689h3.281c2.267,0,3.025,1.053,3.025,2.963v1.371a1.967,1.967,0,0,1-1.352,2.149,2.045,2.045,0,0,1,1.69,2.247v1.791c0,1.906-.856,2.959-3.123,2.959h-3.52Z" transform="translate(-62.277 -137.543)" fill="#fff"/>
      <path id="Path_153809" data-name="Path 153809" d="M127.073,161.169h-.059l-1.532,8.75h-1.053l-1.69-8.75H122.7v8.75h-1.873V156.435h2.648l1.47,7.6h.02l1.316-7.6h2.864v13.484h-2.07Z" transform="translate(-56.872 -137.544)" fill="#fff"/>
      <path id="Path_153810" data-name="Path 153810" d="M126.489,165.644H128.3l-.9-5.41h-.02Zm-2.844,4.275,2.546-13.484h2.589l2.562,13.484h-2.326l-.417-2.467h-2.408l-.4,2.467Z" transform="translate(-50.444 -137.543)" fill="#fff"/>
      <path id="Path_153811" data-name="Path 153811" d="M128.542,158.285v4.2h.755a.981.981,0,0,0,1.116-1.112v-1.988c0-.738-.338-1.1-1.116-1.1Zm0,5.45v6.184h-2.267V156.435h3.3c2.283,0,3.12,1.135,3.12,3.025v1.729c0,1.453-.515,2.31-1.811,2.6l2.169,6.125h-2.385Z" transform="translate(-44.445 -137.543)" fill="#fff"/>
      <rect id="Rectangle_33884" data-name="Rectangle 33884" width="2.267" height="13.484" transform="translate(89.487 18.892)" fill="#fff"/>
      <path id="Path_153812" data-name="Path 153812" d="M131.609,161.445v8.471H129.7V156.436h2.228l2.444,7.733v-7.733h1.89v13.481h-1.985Z" transform="translate(-36.634 -137.541)" fill="#fff"/>
      <path id="Path_153813" data-name="Path 153813" d="M134.832,165.644h1.808l-.892-5.41h-.026Zm-2.848,4.275,2.546-13.484h2.589l2.562,13.484h-2.326l-.417-2.467H134.53l-.4,2.467Z" transform="translate(-31.424 -137.543)" fill="#fff"/>
    </g>
    <g id="Group_100247" data-name="Group 100247" transform="translate(304 399)">
      <text id="Leer_más" data-name="Leer más" transform="translate(235.172 953)" fill="#fff" font-size="14" font-family="Roboto-Regular, Roboto"><tspan x="0" y="13">Leer más</tspan></text>
      <g id="icon_arrow_arrow-right-circle" data-name="icon / arrow / arrow-right-circle" transform="translate(303.172 955.888)">
        <g id="Group_201" data-name="Group 201">
          <path id="icon_arrow-right-circle-2" data-name="icon / arrow-right-circle" d="M6.328,12.657A6.31,6.31,0,0,1,0,6.328,6.31,6.31,0,0,1,6.328,0a6.31,6.31,0,0,1,6.328,6.328,6.31,6.31,0,0,1-6.328,6.328Zm0-11.506a5.178,5.178,0,1,0,5.178,5.178A5.184,5.184,0,0,0,6.328,1.151Zm0,8.055a.521.521,0,0,1-.4-.173.557.557,0,0,1,0-.805L7.249,6.9H4.027a.575.575,0,0,1,0-1.151H7.249L5.926,4.43a.558.558,0,0,1,0-.806.557.557,0,0,1,.806,0l2.3,2.3c.057.057.115.115.115.173a.207.207,0,0,0,.021.076.378.378,0,0,1,.036.154.349.349,0,0,1-.057.23c0,.058-.059.116-.115.172l-2.3,2.3A.52.52,0,0,1,6.328,9.205Z" transform="translate(0 0)" fill="#fff"/>
        </g>
      </g>
    </g>
  </g>
</svg>
