<svg xmlns="http://www.w3.org/2000/svg" xmlns:xlink="http://www.w3.org/1999/xlink" width="160" height="160" viewBox="0 0 160 160">
  <defs>
    <clipPath id="clip-path">
      <path id="icon_arrow-right-circle" data-name="icon / arrow-right-circle" d="M6.328,12.657A6.31,6.31,0,0,1,0,6.328,6.31,6.31,0,0,1,6.328,0a6.31,6.31,0,0,1,6.328,6.328,6.31,6.31,0,0,1-6.328,6.328Zm0-11.506a5.178,5.178,0,1,0,5.178,5.178A5.184,5.184,0,0,0,6.328,1.151Zm0,8.055a.521.521,0,0,1-.4-.173.557.557,0,0,1,0-.805L7.249,6.9H4.027a.575.575,0,0,1,0-1.151H7.249L5.926,4.43a.558.558,0,0,1,0-.806.557.557,0,0,1,.806,0l2.3,2.3c.057.057.115.115.115.173a.207.207,0,0,0,.021.076.378.378,0,0,1,.036.154.349.349,0,0,1-.057.23c0,.058-.059.116-.115.172l-2.3,2.3A.52.52,0,0,1,6.328,9.205Z" transform="translate(0 0)" fill="#fff"/>
    </clipPath>
  </defs>
  <g id="t2-ob12" transform="translate(-1230.5 -1001)">
    <rect id="Rectangle_33845" data-name="Rectangle 33845" width="160" height="160" rx="10" transform="translate(1230.5 1001)" fill="#be8c2c"/>
    <g id="Group_98454" data-name="Group 98454" transform="translate(1242.2 1011.916)">
      <path id="Path_153749" data-name="Path 153749" d="M326.627,102.753h.046v24.7H332.1V95.188h-4.338l-4.987,5.853v5.66h.043Z" transform="translate(-322.775 -92.646)" fill="#fff"/>
      <path id="Path_153750" data-name="Path 153750" d="M326.67,102.115v3.9h4.948v-4.045c0-1.946.955-2.52,2.093-2.52,1.05,0,1.949.427,1.949,2.425v2.664c0,2.667-.233,3.711-1.995,5.568l-3.048,3.235c-2.946,3.143-4.045,5.236-4.045,8.426v5.948H340.66v-4.429h-8.9v-1.519c0-2.523.906-3.475,2.284-4.948l3.475-3.665c2.809-3,3.429-4.905,3.429-8.14v-3.14c0-4.61-2.234-6.8-7.09-6.8-4.761,0-7.185,2.523-7.185,7.044" transform="translate(-314.113 -92.912)" fill="#fff"/>
      <path id="Path_153751" data-name="Path 153751" d="M403.628,120.651a21.753,21.753,0,0,0-16.443-4.043l-.331.079c-3.277.774-8.485,2.057-14.582,9.621l-.1.128-.076.1a.484.484,0,0,0-.035.546l.141.234c.766,1.28,1.731,2.929,2.546,4.445a.275.275,0,0,1,.022.049.523.523,0,0,0,.826.141c.038-.052.076-.1.111-.158,5.412-7.485,9.667-8.518,12.544-9.194l.345-.082a15.768,15.768,0,0,1,11.276,2.9c3.2,2.524,4.823,6.545,4.823,11.947,0,9.061-4.4,12.6-8.1,13.982-5.727,2.144-11.221-.72-11.262-.742l-.247-.12c-3.146-1.369-7.841-4.209-12.267-13.1-8.92-17.913-16.381-19.6-21.318-20.72l-.264-.06a21.29,21.29,0,0,0-16.193,4.029c-3.209,2.557-7.026,7.532-7.026,16.691,0,5.586,1.144,9.27,4.092,13.148.647.886,7.254,9.374,20.027,6.923a19.162,19.162,0,0,0,7.858-3.649l2.812,2.538a.459.459,0,0,0,.644-.035.433.433,0,0,0,.114-.3V155.9l2.024-12.474,0-.139a.451.451,0,0,0-.147-.331.426.426,0,0,0-.3-.111l-.087.008-.13.014-11.949,3.345-.217.035a.419.419,0,0,0-.228.133.453.453,0,0,0,.035.649l.139.13,2.679,2.415a12.476,12.476,0,0,1-4.388,1.856c-9.241,1.763-13.8-4.29-13.974-4.529l-.065-.084c-2.146-2.82-2.872-5.217-2.872-9.5,0-5.415,1.595-9.436,4.744-11.949a15.3,15.3,0,0,1,11.061-2.856l.269.062c4.046.916,9.591,2.168,17.226,17.506,3.967,7.964,8.933,13.169,15.183,15.916a22.062,22.062,0,0,0,9.518,2.206,18.983,18.983,0,0,0,6.632-1.174c3.622-1.356,12.053-5.975,12.053-19.674,0-9.156-3.877-14.139-7.132-16.71" transform="translate(-294.208 -49.48)" fill="#fff"/>
      <path id="Path_153752" data-name="Path 153752" d="M336.1,97.032v5.312h.837a.975.975,0,0,0,1.116-1.116v-3.1c0-.735-.338-1.093-1.116-1.093Zm-2.267-1.85h3.36c2.29,0,3.124,1.132,3.124,3.025v2.845c0,1.887-.833,3.041-3.124,3.041H336.1v4.574h-2.267Z" transform="translate(-297.544 -92.659)" fill="#fff"/>
      <path id="Path_153753" data-name="Path 153753" d="M338.437,97.032v4.2h.755a.981.981,0,0,0,1.115-1.112V98.128c0-.738-.338-1.1-1.115-1.1Zm0,5.45v6.188H336.17V95.182h3.3c2.284,0,3.12,1.135,3.12,3.022v1.732c0,1.453-.518,2.307-1.811,2.605l2.169,6.129h-2.389Z" transform="translate(-292.221 -92.659)" fill="#fff"/>
      <path id="Path_153754" data-name="Path 153754" d="M343.1,105.656V98.415c0-.814-.361-1.391-1.175-1.391-.794,0-1.155.577-1.155,1.391v7.241c0,.817.361,1.391,1.155,1.391.814,0,1.175-.574,1.175-1.391m-4.6-.358V98.773c0-2.106,1.034-3.639,3.422-3.639,2.408,0,3.442,1.532,3.442,3.639V105.3c0,2.087-1.034,3.642-3.442,3.642-2.389,0-3.422-1.555-3.422-3.642" transform="translate(-286.899 -92.768)" fill="#fff"/>
      <path id="Path_153755" data-name="Path 153755" d="M344.211,106.816c.935,0,1.293-.554,1.293-1.371V98.384a1.182,1.182,0,0,0-1.293-1.355h-.955v9.787Zm3.56-8.015v6.247c0,2.067-.856,3.619-3.281,3.619h-3.5V95.182h3.5c2.425,0,3.281,1.532,3.281,3.619" transform="translate(-281.229 -92.659)" fill="#fff"/>
      <path id="Path_153756" data-name="Path 153756" d="M350.033,95.182v10.2c0,2.09-.892,3.442-3.2,3.442-2.389,0-3.386-1.352-3.386-3.442v-10.2h2.27v10.424c0,.794.318,1.332,1.116,1.332s1.112-.538,1.112-1.332V95.182Z" transform="translate(-275.62 -92.659)" fill="#fff"/>
      <path id="Path_153757" data-name="Path 153757" d="M345.849,105.3V98.773c0-2.106.994-3.639,3.379-3.639,2.507,0,3.205,1.394,3.205,3.379v1.595h-2.07V98.336c0-.837-.279-1.312-1.1-1.312s-1.152.577-1.152,1.391v7.241c0,.817.341,1.391,1.152,1.391s1.1-.518,1.1-1.312v-2.484h2.07v2.326c0,1.929-.8,3.363-3.205,3.363-2.385,0-3.379-1.555-3.379-3.642" transform="translate(-270.143 -92.768)" fill="#fff"/>
      <path id="Path_153758" data-name="Path 153758" d="M348.231,105.3V98.773c0-2.106.994-3.639,3.379-3.639,2.507,0,3.206,1.394,3.206,3.379v1.595h-2.07V98.336c0-.837-.279-1.312-1.1-1.312s-1.152.577-1.152,1.391v7.241c0,.817.341,1.391,1.152,1.391s1.1-.518,1.1-1.312v-2.484h2.07v2.326c0,1.929-.8,3.363-3.206,3.363-2.385,0-3.379-1.555-3.379-3.642" transform="translate(-264.71 -92.768)" fill="#fff"/>
      <rect id="Rectangle_33872" data-name="Rectangle 33872" width="2.267" height="13.485" transform="translate(91.337 2.523)" fill="#fff"/>
      <path id="Path_153759" data-name="Path 153759" d="M356.3,107.3V100.06c0-.814-.361-1.391-1.175-1.391-.794,0-1.155.577-1.155,1.391V107.3c0,.817.361,1.391,1.155,1.391.814,0,1.175-.574,1.175-1.391m.673-11.316-3.557.456V95.168l3.557-.755ZM351.7,106.943v-6.526c0-2.106,1.034-3.639,3.422-3.639,2.408,0,3.442,1.532,3.442,3.639v6.526c0,2.087-1.034,3.642-3.442,3.642-2.389,0-3.422-1.555-3.422-3.642" transform="translate(-256.788 -94.413)" fill="#fff"/>
      <path id="Path_153760" data-name="Path 153760" d="M356.1,100.2v8.471h-1.91V95.182h2.228l2.448,7.736V95.182h1.887v13.485h-1.988Z" transform="translate(-251.12 -92.659)" fill="#fff"/>
      <path id="Path_153761" data-name="Path 153761" d="M338.515,108.991v5.132h-2.267v-5.132l-2.526-8.353h2.369l1.371,5.112h.016l1.375-5.112h2.169Z" transform="translate(-297.807 -80.215)" fill="#fff"/>
      <path id="Path_153762" data-name="Path 153762" d="M336.861,110.752V104.23c0-2.11.994-3.642,3.383-3.642,2.5,0,3.2,1.394,3.2,3.379v1.595h-2.07V103.79c0-.837-.279-1.312-1.1-1.312s-1.152.577-1.152,1.391v7.244c0,.814.341,1.391,1.152,1.391s1.1-.518,1.1-1.316v-2.484h2.07v2.326c0,1.929-.8,3.363-3.2,3.363-2.389,0-3.383-1.552-3.383-3.642" transform="translate(-290.644 -80.328)" fill="#fff"/>
      <path id="Path_153763" data-name="Path 153763" d="M343.836,111.113v-7.244c0-.814-.358-1.391-1.175-1.391-.794,0-1.152.577-1.152,1.391v7.244c0,.814.358,1.391,1.152,1.391.817,0,1.175-.577,1.175-1.391m-4.593-.361V104.23c0-2.11,1.034-3.642,3.419-3.642,2.408,0,3.442,1.532,3.442,3.642v6.523c0,2.09-1.034,3.642-3.442,3.642-2.385,0-3.419-1.552-3.419-3.642" transform="translate(-285.211 -80.328)" fill="#fff"/>
      <path id="Path_153764" data-name="Path 153764" d="M343.637,105.65v8.472h-1.91V100.637h2.228l2.448,7.737v-7.737h1.887v13.485H346.3Z" transform="translate(-279.544 -80.216)" fill="#fff"/>
      <path id="Path_153765" data-name="Path 153765" d="M344.085,111.328v-1.811h2.11v1.85c0,.755.338,1.194,1.112,1.194.715,0,1.034-.479,1.034-1.194v-.518a2.429,2.429,0,0,0-1.014-1.906l-1.332-1.335c-1.293-1.273-1.89-2.047-1.89-3.6v-.456c0-1.673.974-2.963,3.179-2.963,2.267,0,3.166,1.112,3.166,3.061v1.093h-2.07v-1.171c0-.778-.358-1.155-1.073-1.155a1,1,0,0,0-1.076,1.112v.279c0,.758.42,1.194,1.076,1.831l1.45,1.431c1.234,1.257,1.831,2.011,1.831,3.5v.656c0,1.847-.994,3.16-3.3,3.16s-3.2-1.289-3.2-3.061" transform="translate(-274.167 -80.326)" fill="#fff"/>
      <path id="Path_153766" data-name="Path 153766" d="M353.015,100.637v10.2c0,2.087-.892,3.442-3.2,3.442-2.389,0-3.386-1.355-3.386-3.442v-10.2h2.27v10.42c0,.8.318,1.335,1.116,1.335s1.112-.538,1.112-1.335v-10.42Z" transform="translate(-268.818 -80.216)" fill="#fff"/>
      <path id="Path_153767" data-name="Path 153767" d="M355.077,105.371h-.059l-1.529,8.754h-1.057l-1.69-8.754H350.7v8.754H348.83V100.637h2.648l1.47,7.6h.02l1.316-7.6h2.864v13.488h-2.07Z" transform="translate(-263.343 -80.217)" fill="#fff"/>
      <path id="Path_153768" data-name="Path 153768" d="M356.352,111.113v-7.244c0-.814-.358-1.391-1.175-1.391-.794,0-1.152.577-1.152,1.391v7.244c0,.814.358,1.391,1.152,1.391.817,0,1.175-.577,1.175-1.391m-4.593-.361V104.23c0-2.11,1.03-3.642,3.419-3.642,2.408,0,3.442,1.532,3.442,3.642v6.523c0,2.09-1.034,3.642-3.442,3.642-2.389,0-3.419-1.552-3.419-3.642" transform="translate(-256.663 -80.328)" fill="#fff"/>
      <path id="Path_153769" data-name="Path 153769" d="M336.1,107.942v4.2h.755a.981.981,0,0,0,1.116-1.112v-1.988c0-.738-.338-1.1-1.116-1.1Zm0,5.45v6.188h-2.267V106.092h3.3c2.284,0,3.12,1.135,3.12,3.022v1.732c0,1.453-.515,2.307-1.811,2.605l2.169,6.129h-2.389Z" transform="translate(-297.544 -67.773)" fill="#fff"/>
      <path id="Path_153770" data-name="Path 153770" d="M336.17,106.092h5.41v1.851h-3.143V111.8h2.247v1.828h-2.247v4.1h3.143v1.85h-5.41Z" transform="translate(-292.221 -67.773)" fill="#fff"/>
      <path id="Path_153771" data-name="Path 153771" d="M338.121,116.783v-1.808h2.11v1.847c0,.758.338,1.194,1.112,1.194.715,0,1.034-.479,1.034-1.194V116.3a2.434,2.434,0,0,0-1.014-1.906l-1.332-1.335c-1.293-1.27-1.89-2.047-1.89-3.6v-.456c0-1.673.974-2.963,3.179-2.963,2.27,0,3.166,1.112,3.166,3.061V110.2h-2.067v-1.171c0-.778-.361-1.155-1.076-1.155a.994.994,0,0,0-1.073,1.112v.282c0,.755.417,1.191,1.073,1.827l1.45,1.43c1.234,1.257,1.834,2.011,1.834,3.5v.656c0,1.85-.994,3.16-3.307,3.16s-3.2-1.289-3.2-3.061" transform="translate(-287.77 -67.883)" fill="#fff"/>
      <path id="Path_153772" data-name="Path 153772" d="M342.734,107.942v5.309h.837a.974.974,0,0,0,1.116-1.112v-3.1c0-.735-.341-1.093-1.116-1.093Zm-2.267-1.85h3.36c2.29,0,3.123,1.132,3.123,3.022v2.848c0,1.887-.833,3.041-3.123,3.041h-1.093v4.574h-2.267Z" transform="translate(-282.419 -67.773)" fill="#fff"/>
      <path id="Path_153773" data-name="Path 153773" d="M347.394,116.565v-7.241c0-.814-.358-1.391-1.175-1.391-.794,0-1.152.577-1.152,1.391v7.241c0,.817.358,1.391,1.152,1.391.817,0,1.175-.574,1.175-1.391m-4.593-.358v-6.526c0-2.106,1.03-3.639,3.419-3.639,2.408,0,3.442,1.532,3.442,3.639v6.526c0,2.087-1.034,3.642-3.442,3.642-2.389,0-3.419-1.555-3.419-3.642" transform="translate(-277.095 -67.885)" fill="#fff"/>
      <path id="Path_153774" data-name="Path 153774" d="M347.2,111.1v8.475h-1.91V106.092h2.228l2.448,7.737v-7.737h1.887V119.58h-1.988Z" transform="translate(-271.428 -67.774)" fill="#fff"/>
      <path id="Path_153775" data-name="Path 153775" d="M347.643,116.783v-1.808h2.11v1.847c0,.758.338,1.194,1.112,1.194.712,0,1.034-.479,1.034-1.194V116.3a2.443,2.443,0,0,0-1.014-1.906l-1.332-1.335c-1.3-1.27-1.89-2.047-1.89-3.6v-.456c0-1.673.975-2.963,3.179-2.963,2.267,0,3.166,1.112,3.166,3.061V110.2h-2.067v-1.171c0-.778-.364-1.155-1.076-1.155a1,1,0,0,0-1.076,1.112v.282c0,.755.42,1.191,1.076,1.827l1.45,1.43c1.234,1.257,1.831,2.011,1.831,3.5v.656c0,1.85-.994,3.16-3.3,3.16s-3.2-1.289-3.2-3.061" transform="translate(-266.051 -67.883)" fill="#fff"/>
      <path id="Path_153776" data-name="Path 153776" d="M352.664,115.3h1.811l-.9-5.41h-.023Zm-2.845,4.275,2.546-13.485h2.585l2.566,13.485H355.19l-.417-2.467h-2.408l-.4,2.467Z" transform="translate(-261.088 -67.773)" fill="#fff"/>
      <path id="Path_153777" data-name="Path 153777" d="M354.717,113.51v4.216h.994a.975.975,0,0,0,1.115-1.093v-2.028c0-.719-.341-1.1-1.135-1.1Zm0-1.729h.8a.957.957,0,0,0,1.076-1.093v-1.654a.956.956,0,0,0-1.1-1.093h-.774Zm-2.267-5.689h3.281c2.267,0,3.025,1.053,3.025,2.966v1.368a1.965,1.965,0,0,1-1.352,2.149,2.05,2.05,0,0,1,1.69,2.251v1.788c0,1.91-.856,2.963-3.123,2.963H352.45Z" transform="translate(-255.086 -67.773)" fill="#fff"/>
      <path id="Path_153778" data-name="Path 153778" d="M354.819,106.092h2.267v11.634h2.707v1.85h-4.974Z" transform="translate(-249.682 -67.773)" fill="#fff"/>
      <path id="Path_153779" data-name="Path 153779" d="M356.649,106.092h5.41v1.851h-3.143V111.8h2.248v1.828h-2.248v4.1h3.143v1.85h-5.41Z" transform="translate(-245.508 -67.773)" fill="#fff"/>
      <path id="Path_153780" data-name="Path 153780" d="M358.6,116.783v-1.808h2.11v1.847c0,.758.338,1.194,1.116,1.194.712,0,1.033-.479,1.033-1.194V116.3a2.438,2.438,0,0,0-1.017-1.906l-1.332-1.335c-1.293-1.27-1.887-2.047-1.887-3.6v-.456c0-1.673.971-2.963,3.176-2.963,2.271,0,3.166,1.112,3.166,3.061V110.2H362.9v-1.171c0-.778-.361-1.155-1.073-1.155a.994.994,0,0,0-1.076,1.112v.282c0,.755.417,1.191,1.076,1.827l1.45,1.43c1.23,1.257,1.831,2.011,1.831,3.5v.656c0,1.85-.994,3.16-3.307,3.16s-3.2-1.289-3.2-3.061" transform="translate(-241.056 -67.883)" fill="#fff"/>
    </g>
    <g id="Group_100245" data-name="Group 100245" transform="translate(1042 178)">
      <text id="Leer_más" data-name="Leer más" transform="translate(235.172 953)" fill="#fff" font-size="14" font-family="Roboto-Regular, Roboto"><tspan x="0" y="13">Leer más</tspan></text>
      <g id="icon_arrow_arrow-right-circle" data-name="icon / arrow / arrow-right-circle" transform="translate(303.172 955.888)">
        <g id="Group_201" data-name="Group 201">
          <path id="icon_arrow-right-circle-2" data-name="icon / arrow-right-circle" d="M6.328,12.657A6.31,6.31,0,0,1,0,6.328,6.31,6.31,0,0,1,6.328,0a6.31,6.31,0,0,1,6.328,6.328,6.31,6.31,0,0,1-6.328,6.328Zm0-11.506a5.178,5.178,0,1,0,5.178,5.178A5.184,5.184,0,0,0,6.328,1.151Zm0,8.055a.521.521,0,0,1-.4-.173.557.557,0,0,1,0-.805L7.249,6.9H4.027a.575.575,0,0,1,0-1.151H7.249L5.926,4.43a.558.558,0,0,1,0-.806.557.557,0,0,1,.806,0l2.3,2.3c.057.057.115.115.115.173a.207.207,0,0,0,.021.076.378.378,0,0,1,.036.154.349.349,0,0,1-.057.23c0,.058-.059.116-.115.172l-2.3,2.3A.52.52,0,0,1,6.328,9.205Z" transform="translate(0 0)" fill="#fff"/>
        </g>
      </g>
    </g>
  </g>
</svg>
