<svg xmlns="http://www.w3.org/2000/svg" xmlns:xlink="http://www.w3.org/1999/xlink" width="160" height="160" viewBox="0 0 160 160">
  <defs>
    <clipPath id="clip-path">
      <path id="icon_arrow-right-circle" data-name="icon / arrow-right-circle" d="M6.328,12.657A6.31,6.31,0,0,1,0,6.328,6.31,6.31,0,0,1,6.328,0a6.31,6.31,0,0,1,6.328,6.328,6.31,6.31,0,0,1-6.328,6.328Zm0-11.506a5.178,5.178,0,1,0,5.178,5.178A5.184,5.184,0,0,0,6.328,1.151Zm0,8.055a.521.521,0,0,1-.4-.173.557.557,0,0,1,0-.805L7.249,6.9H4.027a.575.575,0,0,1,0-1.151H7.249L5.926,4.43a.558.558,0,0,1,0-.806.557.557,0,0,1,.806,0l2.3,2.3c.057.057.115.115.115.173a.207.207,0,0,0,.021.076.378.378,0,0,1,.036.154.349.349,0,0,1-.057.23c0,.058-.059.116-.115.172l-2.3,2.3A.52.52,0,0,1,6.328,9.205Z" transform="translate(0 0)" fill="#fff"/>
    </clipPath>
  </defs>
  <g id="t2-ob2" transform="translate(-406.5 -819)">
    <g id="Group_100226" data-name="Group 100226">
      <g id="Group_98536" data-name="Group 98536" transform="translate(16 39)">
        <rect id="Rectangle_33825" data-name="Rectangle 33825" width="160" height="160" rx="10" transform="translate(390.5 780)" fill="#dea53a"/>
        <g id="Group_98430" data-name="Group 98430" transform="translate(405.921 793.022)">
          <path id="Path_153413" data-name="Path 153413" d="M116.971,67.619h-8.9V66.1c0-2.52.905-3.474,2.287-4.948l3.471-3.665c2.808-3,3.425-4.9,3.425-8.136V46.205c0-4.613-2.234-6.8-7.087-6.8-4.757,0-7.185,2.523-7.185,7.044v3.9h4.951V46.3c0-1.949.948-2.523,2.093-2.523,1.043,0,1.949.43,1.949,2.425v2.667c0,2.664-.239,3.711-2,5.568l-3.048,3.235c-2.946,3.143-4.042,5.236-4.042,8.422v5.948h14.085Z" transform="translate(-102.886 -39.401)" fill="#fff"/>
          <path id="Path_153414" data-name="Path 153414" d="M137.829,99.914v2.251l-.007.049.007.056a1.061,1.061,0,0,0,1.037,1.01l.02,0,.02,0h26.4l.023,0,.023,0a1.059,1.059,0,0,0,1.04-1.056l0-.01,0-.007V99.661c14.859-4.872,25.988-16.909,28.435-31.588l.016-.089a.717.717,0,0,0,.013-.144,1.067,1.067,0,0,0-1.066-1.07H109.673a1.068,1.068,0,0,0-1.07,1.07l.059.479c2.569,14.813,14.006,26.923,29.167,31.595" transform="translate(-87.785 10.019)" fill="#fff"/>
          <path id="Path_153415" data-name="Path 153415" d="M128.846,56.588c-.344.492-8.471,12.192.18,21.657,3.97,4.337,3.625,8.173,2.49,10.758h5.551c1.129-3.819.663-8.612-3.845-13.537-6.375-6.972.082-16.394.18-16.539a2.082,2.082,0,0,0-.9-3.107,2.947,2.947,0,0,0-3.655.768" transform="translate(-50.262 -15.7)" fill="#fff"/>
          <path id="Path_153416" data-name="Path 153416" d="M126.423,89h5.554c1.119-3.819.656-8.612-3.852-13.533-6.381-6.972.075-16.388.177-16.545a2.078,2.078,0,0,0-.906-3.1,2.94,2.94,0,0,0-3.648.771c-.351.492-8.481,12.195.18,21.65,3.97,4.347,3.622,8.179,2.493,10.761" transform="translate(-61.9 -15.699)" fill="#fff"/>
          <path id="Path_153417" data-name="Path 153417" d="M118.648,56.589c-.351.492-8.481,12.192.177,21.657,3.973,4.341,3.629,8.173,2.5,10.758h5.551c1.122-3.819.656-8.609-3.855-13.537-6.378-6.972.079-16.394.184-16.542a2.082,2.082,0,0,0-.909-3.1,2.931,2.931,0,0,0-3.648.768" transform="translate(-73.538 -15.702)" fill="#fff"/>
          <path id="Path_153418" data-name="Path 153418" d="M115.532,46.94h-2.188v5.948h-2.267V39.4h2.267v5.709h2.188V39.4h2.287V52.888h-2.287Z" transform="translate(-84.205 -39.401)" fill="#fff"/>
          <path id="Path_153419" data-name="Path 153419" d="M116.259,48.612h1.811l-.9-5.41h-.02Zm-2.844,4.275L115.961,39.4h2.589l2.562,13.484h-2.326l-.417-2.467h-2.408l-.4,2.467Z" transform="translate(-78.871 -39.403)" fill="#fff"/>
          <path id="Path_153420" data-name="Path 153420" d="M122.292,44.137h-.059l-1.532,8.75h-1.053l-1.69-8.75h-.039v8.75h-1.873V39.4h2.648l1.47,7.6h.02l1.316-7.6h2.864V52.888h-2.07Z" transform="translate(-72.872 -39.403)" fill="#fff"/>
          <path id="Path_153421" data-name="Path 153421" d="M121.24,46.821V51.04h.994a.978.978,0,0,0,1.115-1.1V47.917c0-.715-.338-1.1-1.135-1.1Zm0-1.729h.8A.954.954,0,0,0,123.11,44V42.346a.954.954,0,0,0-1.1-1.093h-.774ZM118.973,39.4h3.281c2.267,0,3.025,1.053,3.025,2.963v1.371a1.965,1.965,0,0,1-1.352,2.149,2.05,2.05,0,0,1,1.69,2.251v1.788c0,1.909-.856,2.963-3.123,2.963h-3.52Z" transform="translate(-66.194 -39.403)" fill="#fff"/>
          <path id="Path_153422" data-name="Path 153422" d="M123.61,41.253v4.2h.755a.981.981,0,0,0,1.115-1.112V42.349c0-.738-.338-1.1-1.115-1.1Zm0,5.449v6.188h-2.267V39.4h3.3c2.283,0,3.12,1.135,3.12,3.022v1.732c0,1.453-.515,2.306-1.811,2.6l2.169,6.129h-2.385Z" transform="translate(-60.789 -39.403)" fill="#fff"/>
          <path id="Path_153423" data-name="Path 153423" d="M123.676,39.4h5.41v1.85h-3.143v3.858h2.247v1.831h-2.247v4.1h3.143v1.847h-5.41Z" transform="translate(-55.467 -39.403)" fill="#fff"/>
          <path id="Path_153424" data-name="Path 153424" d="M111.076,55.276V48.754c0-2.11.994-3.642,3.379-3.642,2.507,0,3.205,1.394,3.205,3.379v1.594h-2.07V48.314c0-.837-.279-1.312-1.1-1.312s-1.152.577-1.152,1.391v7.241c0,.817.338,1.391,1.152,1.391s1.1-.518,1.1-1.312V53.229h2.07v2.326c0,1.929-.8,3.363-3.205,3.363-2.385,0-3.379-1.552-3.379-3.642" transform="translate(-84.206 -26.382)" fill="#fff"/>
          <path id="Path_153425" data-name="Path 153425" d="M113.458,45.161h5.41v1.85h-3.143V50.87h2.247V52.7h-2.247v4.1h3.143v1.85h-5.41Z" transform="translate(-78.773 -26.269)" fill="#fff"/>
          <path id="Path_153426" data-name="Path 153426" d="M117.743,47.009v4.2h.755a.981.981,0,0,0,1.115-1.112V48.1c0-.738-.338-1.1-1.115-1.1Zm0,5.449v6.188h-2.267V45.162h3.3c2.283,0,3.12,1.132,3.12,3.018v1.732c0,1.453-.515,2.306-1.811,2.6l2.169,6.129h-2.385Z" transform="translate(-74.17 -26.268)" fill="#fff"/>
          <path id="Path_153427" data-name="Path 153427" d="M122.406,55.634V48.393c0-.814-.361-1.391-1.178-1.391-.794,0-1.152.577-1.152,1.391v7.241c0,.817.358,1.391,1.152,1.391.817,0,1.178-.574,1.178-1.391m-4.6-.358V48.754c0-2.11,1.033-3.642,3.419-3.642,2.411,0,3.445,1.532,3.445,3.642v6.522c0,2.09-1.034,3.642-3.445,3.642-2.385,0-3.419-1.552-3.419-3.642" transform="translate(-68.847 -26.382)" fill="#fff"/>
        </g>
      </g>
    </g>
    <g id="Group_100233" data-name="Group 100233" transform="translate(211)">
      <text id="Leer_más" data-name="Leer más" transform="translate(235.172 953)" fill="#fff" font-size="14" font-family="Roboto-Regular, Roboto"><tspan x="0" y="13">Leer más</tspan></text>
      <g id="icon_arrow_arrow-right-circle" data-name="icon / arrow / arrow-right-circle" transform="translate(303.172 955.888)">
        <g id="Group_201" data-name="Group 201">
          <path id="icon_arrow-right-circle-2" data-name="icon / arrow-right-circle" d="M6.328,12.657A6.31,6.31,0,0,1,0,6.328,6.31,6.31,0,0,1,6.328,0a6.31,6.31,0,0,1,6.328,6.328,6.31,6.31,0,0,1-6.328,6.328Zm0-11.506a5.178,5.178,0,1,0,5.178,5.178A5.184,5.184,0,0,0,6.328,1.151Zm0,8.055a.521.521,0,0,1-.4-.173.557.557,0,0,1,0-.805L7.249,6.9H4.027a.575.575,0,0,1,0-1.151H7.249L5.926,4.43a.558.558,0,0,1,0-.806.557.557,0,0,1,.806,0l2.3,2.3c.057.057.115.115.115.173a.207.207,0,0,0,.021.076.378.378,0,0,1,.036.154.349.349,0,0,1-.057.23c0,.058-.059.116-.115.172l-2.3,2.3A.52.52,0,0,1,6.328,9.205Z" transform="translate(0 0)" fill="#fff"/>
        </g>
      </g>
    </g>
  </g>
</svg>
