<svg xmlns="http://www.w3.org/2000/svg" xmlns:xlink="http://www.w3.org/1999/xlink" width="160" height="160" viewBox="0 0 160 160">
  <defs>
    <clipPath id="clip-path">
      <path id="icon_arrow-right-circle" data-name="icon / arrow-right-circle" d="M6.328,12.657A6.31,6.31,0,0,1,0,6.328,6.31,6.31,0,0,1,6.328,0a6.31,6.31,0,0,1,6.328,6.328,6.31,6.31,0,0,1-6.328,6.328Zm0-11.506a5.178,5.178,0,1,0,5.178,5.178A5.184,5.184,0,0,0,6.328,1.151Zm0,8.055a.521.521,0,0,1-.4-.173.557.557,0,0,1,0-.805L7.249,6.9H4.027a.575.575,0,0,1,0-1.151H7.249L5.926,4.43a.558.558,0,0,1,0-.806.557.557,0,0,1,.806,0l2.3,2.3c.057.057.115.115.115.173a.207.207,0,0,0,.021.076.378.378,0,0,1,.036.154.349.349,0,0,1-.057.23c0,.058-.059.116-.115.172l-2.3,2.3A.52.52,0,0,1,6.328,9.205Z" transform="translate(0 0)" fill="#fff"/>
    </clipPath>
  </defs>
  <g id="t2-ob13" transform="translate(-284.5 -1222)">
    <rect id="Rectangle_33878" data-name="Rectangle 33878" width="160" height="160" rx="10" transform="translate(284.5 1222)" fill="#3f7d45"/>
    <g id="Group_98461" data-name="Group 98461" transform="translate(294.966 1232.754)">
      <path id="Path_153781" data-name="Path 153781" d="M55.035,150.719v32.247H49.612V158.282h-.046l-3.806,3.947h-.046v-5.659l4.99-5.85Z" transform="translate(-45.715 -148.054)" fill="#fff"/>
      <path id="Path_153782" data-name="Path 153782" d="M64.454,157.978v2.805a5.158,5.158,0,0,1-3.711,5.233c2.713.62,4,2.52,4,5.469v4.754c0,4.472-2.379,7.372-7.848,7.372-5.518,0-7.467-3.136-7.467-8.035v-4.235h4.947v4.616c0,1.9.663,3.136,2.52,3.136,1.663,0,2.421-1.188,2.421-2.9v-5.328c0-1.713-.758-2.615-2.661-2.615h-2.28v-4.137h2.044c1.762,0,2.9-.905,2.9-2.615v-3.474c0-1.758-.613-2.9-2.326-2.9s-2.329,1.145-2.329,3.14v3.284H49.707V158.69c0-4.757,1.955-8.087,7.565-8.087,5,0,7.182,2.808,7.182,7.375" transform="translate(-37.252 -148.32)" fill="#fff"/>
      <path id="Path_153783" data-name="Path 153783" d="M132.515,203.517c-.659-.18-3.435-4.016-1.24-6.535.361-.413-.738-1.634-.436-1.66a2.008,2.008,0,0,1,2.152,1.722c.023.472.046.951.046,1.434a24.77,24.77,0,0,1-.522,5.039m-6.762,12.467a4.384,4.384,0,0,1-.778-.289c-1.345-.686-1.184.41-1.847.167s.748-1.781-1.243-.482-1.45-.2-2.31-2.4c-.879-2.2.991-4.708,2.552-5.275a31.439,31.439,0,0,1,4.482-1.184c2.966-.738,3.6-2.5,4.134-1.43.1.2.2.394.285.571a3.9,3.9,0,0,1,.384,1.611,24.76,24.76,0,0,1-5.659,8.71m-17.414,7.185a24.591,24.591,0,0,1-6.942-.994,1.021,1.021,0,0,1-.3-1.207c.764-1.988,3.041-2.769,4.836-2.943,4-.39,9.265,2.6,10.1,2.119s2.529-2.684,5.013-2.592a3.879,3.879,0,0,1,2.254.564,24.615,24.615,0,0,1-14.967,5.052m-3.36-16.092c-.338.554-1.266,4.708-1.886,4.226s.249-4.816.43-5.148c.974-1.788,3.084-1.7,1.457.922m10.085-4.9a2.233,2.233,0,0,1-2.356-.213c-.623-.482.387-1.286.758-1.316.837-.072,2.08,1.086,1.6,1.529m10.9.043c-.266-.1-.505-.354-.705-.958a.556.556,0,0,1,.807-.709,2.372,2.372,0,0,1,1.165,1.417c0,.4-.994.358-1.266.249m1.053.758c.823-.069,2.07,1.083,1.585,1.526a2.22,2.22,0,0,1-2.356-.213c-.62-.482.39-1.283.771-1.312m-26.5,9.846a7.039,7.039,0,0,1-1.516,3.166,5.13,5.13,0,0,1-3.363,1.286c-1.125-.085-1.283-3.084-1.283-4.623,0-.532-.755,1.043-1.145-2.162-.253-2.054-1.571.213-1.663-1.158s-.755-1.092-1.444-1.949-1.545.085-2.51.518-.564.65-1.929.22c-.036-.01-.049-.02-.089-.033a24.651,24.651,0,0,1-1.939-9.609c0-.837.046-1.654.125-2.464a2.037,2.037,0,0,1,.151-.233c1.306-1.542,1.28-1.906,1.28-1.906l1.447-.5a23.926,23.926,0,0,1,4.042,1.01c1.43.535,3.688,1.749,5,1.214.945-.39,1.686-.909,1.6-1.7-.108-.991-.886-1.224-1.831-.558-.348.246-1.092-1.493-1.673-1.4s.719,2.041.23,2.123-1.489-2.037-1.663-2.382-.935-1.191-1.624-.541c-1.453,1.384-3.819,1.3-4.3,1.654-1.44,1.083-1.824-.354-1.795-1.23.059-.2.121-.4.18-.6a2.959,2.959,0,0,1,2.749-.305c.64.426,1.1-.108,1.345-.371a.876.876,0,0,0,.007-1c-.164-.344.318-.594.653-.682a17.517,17.517,0,0,0,1.87-1.115,6.157,6.157,0,0,1,3.753-.023,1.977,1.977,0,0,0,2.464-.5,6.633,6.633,0,0,1,1.785-1.489c.358-.167-.883-1.322-1.9-.062s-1.545,1.371-2.021,1.371-3.333-.715-3.681-1.614.892-1.575,1.942-2.083,3.93-.5,4.669-.663c1.493-.328,3.405-1.076,4.373-.42.958.64-4.029,1.778-2.388,2.661.581.322,3.215-1.516,4.121-1.985,2.119-1.1-2.06-1.457-1.519-3.684.613-2.513-5.128-1.542-7.992-1.329A24.686,24.686,0,0,1,132.348,192.7a4,4,0,0,1-.121,1.142,1.614,1.614,0,0,1-2.894.223c-.246-.358-1.306-1.358-1.266.351s1.66,1.886.082,2.913a6.127,6.127,0,0,1-2.6,1.04c-.728.256-1.434,2.021-1.26,2.959s2.424,3.517.755,3.412c-.39-.03-3.343-2.044-3.829-3.34-.512-1.365-1.073-2.7-1.473-3.727a1.472,1.472,0,0,0-2.326-.682c-.876.6.246,1.2-.387,2.487s-1.079,2.431-2.008,1.368c-2.4-2.759-5.912-1.4-6.46-4.472-.3-1.667-1.732-1.506-2.93-2.451s-1.88-1.45-2.083-.768c-.177.6,3.776,3.73,4.058,4.531.42,1.191-1.184,2.244-2.359,2.53s-1.686-.656-2.835-1.857-1.65-2.054-1.732-1.112a5.408,5.408,0,0,0,2.264,4.1c1,.633,2.119.919,1.795,1.946s0,.446-1.125,1.552-1.335,1.473-1.25,3.012-.318,1.631-.564,2.91-.8.174-1.283,2.054M87.264,185.607c.052-.066.1-.118.125-.148a3.3,3.3,0,0,1,1.949-.712c.614-.108,1.434.2,1.529.61s-1.535,1.152-1.844,1.434c-.846.784-2.185,2.382-2.963,2.556a.93.93,0,0,1-.64-.066,24.194,24.194,0,0,1,1.844-3.675m1.263-2.516c.318-.469,1.381-1.808,1.509-1.978a1.883,1.883,0,0,1,1.194-.489c.374-.072.883.138.938.42a3.249,3.249,0,0,1-.328,1.568,4.109,4.109,0,0,1-2.618,1.184c-.581-.089-.8-.535-.7-.705m78.5,14.59a73.184,73.184,0,0,0-117.458,0c-.177.256-.335.472-.463.659.128.19.285.407.463.663a73.184,73.184,0,0,0,117.458,0c.184-.256.331-.472.456-.663-.125-.187-.272-.4-.456-.659" transform="translate(-38.851 -116.269)" fill="#fff"/>
      <path id="Path_153784" data-name="Path 153784" d="M60.179,159.886H61.99l-.9-5.41h-.02Zm-2.844,4.275,2.546-13.484h2.585l2.566,13.484H62.706l-.417-2.467H59.881l-.4,2.467Z" transform="translate(-19.211 -148.151)" fill="#fff"/>
      <path id="Path_153785" data-name="Path 153785" d="M59.874,160.792V154.27c0-2.11.994-3.642,3.382-3.642,2.5,0,3.2,1.394,3.2,3.382V155.6h-2.07V153.83c0-.837-.279-1.312-1.1-1.312s-1.152.577-1.152,1.391v7.244c0,.814.341,1.388,1.152,1.388s1.1-.515,1.1-1.309v-2.487h2.07v2.326c0,1.929-.8,3.36-3.2,3.36-2.388,0-3.382-1.552-3.382-3.638" transform="translate(-13.42 -148.263)" fill="#fff"/>
      <path id="Path_153786" data-name="Path 153786" d="M62.256,160.792V154.27c0-2.11.994-3.642,3.382-3.642,2.5,0,3.2,1.394,3.2,3.382V155.6H66.77V153.83c0-.837-.279-1.312-1.1-1.312s-1.152.577-1.152,1.391v7.244c0,.814.341,1.388,1.152,1.388s1.1-.515,1.1-1.309v-2.487h2.07v2.326c0,1.929-.8,3.36-3.2,3.36-2.388,0-3.382-1.552-3.382-3.638" transform="translate(-7.987 -148.263)" fill="#fff"/>
      <rect id="Rectangle_33880" data-name="Rectangle 33880" width="2.267" height="13.484" transform="translate(62.083 2.526)" fill="#fff"/>
      <path id="Path_153787" data-name="Path 153787" d="M70.325,162.8v-7.244c0-.814-.361-1.391-1.178-1.391-.794,0-1.152.577-1.152,1.391V162.8c0,.814.358,1.388,1.152,1.388.817,0,1.178-.574,1.178-1.388M71,151.478l-3.56.456v-1.273l3.56-.755Zm-5.269,10.958v-6.522c0-2.11,1.033-3.642,3.419-3.642,2.408,0,3.442,1.532,3.442,3.642v6.522c0,2.087-1.033,3.638-3.442,3.638-2.385,0-3.419-1.552-3.419-3.638" transform="translate(-0.066 -149.907)" fill="#fff"/>
      <path id="Path_153788" data-name="Path 153788" d="M70.124,155.687v8.471H68.214V150.677h2.228l2.444,7.733v-7.733h1.89v13.481H72.787Z" transform="translate(5.602 -148.15)" fill="#fff"/>
      <path id="Path_153789" data-name="Path 153789" d="M59.711,158.288V163.6h.837a.974.974,0,0,0,1.112-1.116v-3.1c0-.735-.335-1.089-1.112-1.089Zm-2.267-1.854H60.8c2.29,0,3.123,1.132,3.123,3.028V162.3c0,1.886-.833,3.041-3.123,3.041H59.711v4.573H57.444Z" transform="translate(-18.963 -135.02)" fill="#fff"/>
      <path id="Path_153790" data-name="Path 153790" d="M64.374,166.911v-7.244c0-.814-.361-1.391-1.178-1.391-.794,0-1.152.577-1.152,1.391v7.244c0,.814.358,1.388,1.152,1.388.817,0,1.178-.574,1.178-1.388m-4.6-.361v-6.522c0-2.11,1.033-3.642,3.419-3.642,2.411,0,3.445,1.532,3.445,3.642v6.522c0,2.09-1.033,3.638-3.445,3.638-2.385,0-3.419-1.549-3.419-3.638" transform="translate(-13.639 -135.13)" fill="#fff"/>
      <path id="Path_153791" data-name="Path 153791" d="M64.529,158.282v4.2h.755a.981.981,0,0,0,1.115-1.112v-1.988c0-.738-.338-1.1-1.115-1.1Zm0,5.453v6.184H62.262V156.435h3.3c2.283,0,3.12,1.132,3.12,3.025v1.729c0,1.453-.515,2.306-1.811,2.6l2.169,6.125H66.658Z" transform="translate(-7.974 -135.018)" fill="#fff"/>
      <path id="Path_153792" data-name="Path 153792" d="M65.232,156.434h5.41v1.85H67.5v3.858h2.247v1.831H67.5v4.094h3.143v1.85h-5.41Z" transform="translate(-1.2 -135.019)" fill="#fff"/>
      <path id="Path_153793" data-name="Path 153793" d="M67.251,156.434h2.267v11.634h2.7v1.85h-4.97Z" transform="translate(3.404 -135.019)" fill="#fff"/>
      <path id="Path_153794" data-name="Path 153794" d="M69.717,166.55v-6.522c0-2.11.994-3.642,3.382-3.642,2.5,0,3.2,1.394,3.2,3.382v1.591h-2.07v-1.768c0-.84-.279-1.316-1.1-1.316s-1.152.577-1.152,1.391v7.244c0,.814.341,1.388,1.152,1.388s1.1-.515,1.1-1.309V164.5H76.3v2.326c0,1.929-.8,3.36-3.2,3.36-2.388,0-3.382-1.549-3.382-3.638" transform="translate(9.029 -135.13)" fill="#fff"/>
      <path id="Path_153795" data-name="Path 153795" d="M72.1,156.434h2.267v11.634h2.7v1.85H72.1Z" transform="translate(14.463 -135.019)" fill="#fff"/>
      <rect id="Rectangle_33881" data-name="Rectangle 33881" width="2.267" height="13.484" transform="translate(92.565 21.417)" fill="#fff"/>
      <path id="Path_153796" data-name="Path 153796" d="M81.267,161.169h-.059l-1.529,8.75H78.622l-1.69-8.75h-.039v8.75H75.02V156.435h2.648l1.47,7.6h.023l1.312-7.6h2.864v13.484h-2.07Z" transform="translate(21.125 -135.019)" fill="#fff"/>
      <path id="Path_153797" data-name="Path 153797" d="M80.683,165.643h1.808l-.892-5.41h-.02Zm-2.844,4.275,2.543-13.484H82.97l2.562,13.484H83.206l-.417-2.467H80.382l-.4,2.467Z" transform="translate(27.554 -135.02)" fill="#fff"/>
    </g>
    <g id="Group_100246" data-name="Group 100246" transform="translate(92 400)">
      <text id="Leer_más" data-name="Leer más" transform="translate(235.172 953)" fill="#fff" font-size="14" font-family="Roboto-Regular, Roboto"><tspan x="0" y="13">Leer más</tspan></text>
      <g id="icon_arrow_arrow-right-circle" data-name="icon / arrow / arrow-right-circle" transform="translate(303.172 955.888)">
        <g id="Group_201" data-name="Group 201">
          <path id="icon_arrow-right-circle-2" data-name="icon / arrow-right-circle" d="M6.328,12.657A6.31,6.31,0,0,1,0,6.328,6.31,6.31,0,0,1,6.328,0a6.31,6.31,0,0,1,6.328,6.328,6.31,6.31,0,0,1-6.328,6.328Zm0-11.506a5.178,5.178,0,1,0,5.178,5.178A5.184,5.184,0,0,0,6.328,1.151Zm0,8.055a.521.521,0,0,1-.4-.173.557.557,0,0,1,0-.805L7.249,6.9H4.027a.575.575,0,0,1,0-1.151H7.249L5.926,4.43a.558.558,0,0,1,0-.806.557.557,0,0,1,.806,0l2.3,2.3c.057.057.115.115.115.173a.207.207,0,0,0,.021.076.378.378,0,0,1,.036.154.349.349,0,0,1-.057.23c0,.058-.059.116-.115.172l-2.3,2.3A.52.52,0,0,1,6.328,9.205Z" transform="translate(0 0)" fill="#fff"/>
        </g>
      </g>
    </g>
  </g>
</svg>
