<svg xmlns="http://www.w3.org/2000/svg" xmlns:xlink="http://www.w3.org/1999/xlink" width="160" height="160" viewBox="0 0 160 160">
  <defs>
    <clipPath id="clip-path">
      <path id="icon_arrow-right-circle" data-name="icon / arrow-right-circle" d="M6.328,12.657A6.31,6.31,0,0,1,0,6.328,6.31,6.31,0,0,1,6.328,0a6.31,6.31,0,0,1,6.328,6.328,6.31,6.31,0,0,1-6.328,6.328Zm0-11.506a5.178,5.178,0,1,0,5.178,5.178A5.184,5.184,0,0,0,6.328,1.151Zm0,8.055a.521.521,0,0,1-.4-.173.557.557,0,0,1,0-.805L7.249,6.9H4.027a.575.575,0,0,1,0-1.151H7.249L5.926,4.43a.558.558,0,0,1,0-.806.557.557,0,0,1,.806,0l2.3,2.3c.057.057.115.115.115.173a.207.207,0,0,0,.021.076.378.378,0,0,1,.036.154.349.349,0,0,1-.057.23c0,.058-.059.116-.115.172l-2.3,2.3A.52.52,0,0,1,6.328,9.205Z" transform="translate(0 0)" fill="#fff"/>
    </clipPath>
  </defs>
  <g id="t2-ob7" transform="translate(-195.5 -1009)">
    <g id="Group_98541" data-name="Group 98541" transform="translate(16 8)">
      <rect id="Rectangle_33805" data-name="Rectangle 33805" width="160" height="160" rx="10" transform="translate(179.5 1001)" fill="#fac112"/>
      <g id="Group_98448" data-name="Group 98448" transform="translate(196.331 1011.915)">
        <path id="Path_153568" data-name="Path 153568" d="M47.4,99.281h8.376l-7.234,27.835H53.92l7.09-27.264v-5H47.4Z" transform="translate(-47.401 -92.362)" fill="#fff"/>
        <g id="Group_100239" data-name="Group 100239" transform="translate(6.607 -3.217)">
          <path id="Path_153569" data-name="Path 153569" d="M80.582,146.042a10.884,10.884,0,0,1-3.232-21.276v4.052a7.126,7.126,0,1,0,6.447-.009V124.76a10.884,10.884,0,0,1-3.215,21.282M79.03,122.664a1.556,1.556,0,0,1,3.106,0v7.185a1.557,1.557,0,0,1-3.106,0Zm1.549-8.268A20.926,20.926,0,1,0,101.5,135.324,20.926,20.926,0,0,0,80.579,114.4" transform="translate(-21.324 -49.681)" fill="#fff"/>
          <path id="Path_153570" data-name="Path 153570" d="M66.756,122.611a1.746,1.746,0,0,0-1.607-1.716H55.985a1.723,1.723,0,0,0,0,3.44h9.164a1.754,1.754,0,0,0,1.607-1.724" transform="translate(-31.523 -37.152)" fill="#fff"/>
          <path id="Path_153571" data-name="Path 153571" d="M87.4,122.611a1.746,1.746,0,0,0-1.607-1.716H76.628a1.723,1.723,0,0,0,0,3.44h9.164a1.754,1.754,0,0,0,1.607-1.724" transform="translate(8.278 -37.152)" fill="#fff"/>
          <path id="Path_153572" data-name="Path 153572" d="M67.938,121.434a1.748,1.748,0,0,0,1.716-1.607v-9.164a1.723,1.723,0,0,0-3.44,0v9.164a1.755,1.755,0,0,0,1.724,1.607" transform="translate(-8.677 -59.998)" fill="#fff"/>
          <path id="Path_153573" data-name="Path 153573" d="M67.938,142.079a1.748,1.748,0,0,0,1.716-1.607v-9.164a1.723,1.723,0,0,0-3.44,0v9.164a1.754,1.754,0,0,0,1.724,1.607" transform="translate(-8.677 -20.199)" fill="#fff"/>
          <path id="Path_153574" data-name="Path 153574" d="M66.908,122.026a1.751,1.751,0,0,0-.545-2.29l-7.955-4.55A1.721,1.721,0,0,0,56.7,118.17l7.952,4.553a1.759,1.759,0,0,0,2.254-.7" transform="translate(-28.498 -48.501)" fill="#fff"/>
          <path id="Path_153575" data-name="Path 153575" d="M84.824,132.28a1.758,1.758,0,0,0-.542-2.29l-7.955-4.55a1.722,1.722,0,0,0-1.71,2.983l7.955,4.553a1.755,1.755,0,0,0,2.251-.7" transform="translate(6.045 -28.731)" fill="#fff"/>
          <path id="Path_153576" data-name="Path 153576" d="M71.454,121.586a1.755,1.755,0,0,0,2.29-.542l4.55-7.955a1.723,1.723,0,0,0-2.986-1.707l-4.553,7.949a1.758,1.758,0,0,0,.7,2.254" transform="translate(-0.256 -56.973)" fill="#fff"/>
          <path id="Path_153577" data-name="Path 153577" d="M61.2,139.5a1.755,1.755,0,0,0,2.29-.542l4.55-7.955a1.724,1.724,0,0,0-2.986-1.71L60.5,137.251a1.759,1.759,0,0,0,.7,2.254" transform="translate(-20.026 -22.433)" fill="#fff"/>
          <path id="Path_153578" data-name="Path 153578" d="M67.35,121.584a1.751,1.751,0,0,0,.688-2.249l-4.567-7.946a1.724,1.724,0,0,0-2.983,1.716l4.564,7.943a1.758,1.758,0,0,0,2.3.536" transform="translate(-20.063 -56.951)" fill="#fff"/>
          <path id="Path_153579" data-name="Path 153579" d="M77.64,139.482a1.753,1.753,0,0,0,.688-2.251l-4.567-7.946A1.725,1.725,0,0,0,70.778,131l4.567,7.943a1.758,1.758,0,0,0,2.3.536" transform="translate(-0.224 -22.451)" fill="#fff"/>
          <path id="Path_153580" data-name="Path 153580" d="M74.062,122.027a1.751,1.751,0,0,0,2.249.691l7.943-4.567a1.724,1.724,0,0,0-1.713-2.986L74.6,119.732a1.754,1.754,0,0,0-.533,2.3" transform="translate(6.027 -48.541)" fill="#fff"/>
          <path id="Path_153581" data-name="Path 153581" d="M56.165,132.321a1.753,1.753,0,0,0,2.251.688l7.94-4.57a1.723,1.723,0,0,0-1.713-2.983l-7.946,4.57a1.752,1.752,0,0,0-.533,2.3" transform="translate(-28.474 -28.702)" fill="#fff"/>
        </g>
        <path id="Path_153582" data-name="Path 153582" d="M55.379,94.865h5.41v1.85H57.646v3.858h2.247V102.4H57.646v4.1h3.143v1.85h-5.41Z" transform="translate(-29.206 -92.34)" fill="#fff"/>
        <path id="Path_153583" data-name="Path 153583" d="M59.27,99.877v8.474H57.361V94.864h2.228l2.444,7.736V94.864h1.89v13.487H61.934Z" transform="translate(-24.686 -92.341)" fill="#fff"/>
        <path id="Path_153584" data-name="Path 153584" d="M59.718,94.865h5.41v1.85H61.985v3.858h2.247V102.4H61.985v4.1h3.143v1.85h-5.41Z" transform="translate(-19.308 -92.34)" fill="#fff"/>
        <path id="Path_153585" data-name="Path 153585" d="M63.967,96.714v4.2h.755A.981.981,0,0,0,65.837,99.8V97.81c0-.738-.338-1.1-1.115-1.1Zm0,5.449v6.188H61.7V94.864H65c2.283,0,3.12,1.135,3.12,3.022v1.732c0,1.453-.515,2.306-1.811,2.6l2.169,6.129H66.1Z" transform="translate(-14.789 -92.341)" fill="#fff"/>
        <path id="Path_153586" data-name="Path 153586" d="M67.417,101.262h3.225v7.2H69.008V106.99a2.044,2.044,0,0,1-2.169,1.631c-1.949,0-2.841-1.552-2.841-3.638V98.457c0-2.106,1.014-3.642,3.4-3.642,2.507,0,3.245,1.391,3.245,3.386v1.191h-2.07V98.02c0-.837-.318-1.316-1.135-1.316s-1.171.581-1.171,1.394v7.241c0,.817.338,1.391,1.112,1.391.735,0,1.115-.417,1.115-1.293V103.05H67.417Z" transform="translate(-9.547 -92.453)" fill="#fff"/>
        <path id="Path_153587" data-name="Path 153587" d="M66.784,96.621h2.267v13.484H66.784Zm2.982-.955-3.563.456v-1.27l3.563-.758Z" transform="translate(-4.518 -94.095)" fill="#fff"/>
        <path id="Path_153588" data-name="Path 153588" d="M70.169,104.074h1.811l-.9-5.41h-.02Zm-2.844,4.275,2.546-13.484h2.585l2.566,13.484H72.7l-.417-2.467H69.871l-.4,2.467Z" transform="translate(-1.959 -92.339)" fill="#fff"/>
        <path id="Path_153589" data-name="Path 153589" d="M73.251,104.074h1.811l-.9-5.41h-.02Zm-2.841,4.275,2.543-13.484h2.585L78.1,108.349H75.777l-.417-2.467H72.953l-.4,2.467Z" transform="translate(5.078 -92.339)" fill="#fff"/>
        <path id="Path_153590" data-name="Path 153590" d="M72.906,105.555v-1.808h2.11v1.847c0,.758.338,1.194,1.115,1.194.712,0,1.033-.479,1.033-1.194v-.518a2.438,2.438,0,0,0-1.017-1.906l-1.332-1.335c-1.293-1.273-1.89-2.047-1.89-3.6V97.78c0-1.673.974-2.963,3.179-2.963,2.27,0,3.166,1.112,3.166,3.061v1.092H77.2V97.8c0-.778-.358-1.155-1.07-1.155a1,1,0,0,0-1.076,1.115v.279c0,.755.417,1.191,1.076,1.827l1.45,1.43c1.234,1.257,1.831,2.011,1.831,3.5v.656c0,1.85-.994,3.159-3.307,3.159s-3.2-1.289-3.2-3.061" transform="translate(10.77 -92.448)" fill="#fff"/>
        <path id="Path_153591" data-name="Path 153591" d="M75.216,94.865h5.41v1.85H77.483v3.858H79.73V102.4H77.483v4.1h3.143v1.85h-5.41Z" transform="translate(16.039 -92.34)" fill="#fff"/>
        <path id="Path_153592" data-name="Path 153592" d="M81.73,105.459V98.1c0-.817-.358-1.394-1.171-1.394-.8,0-1.155.577-1.155,1.394v7.359c0,.794.358,1.394,1.155,1.394.814,0,1.171-.6,1.171-1.394m-2.008,3.917v-.915c-1.808-.315-2.585-1.65-2.585-3.481V98.458c0-2.11,1.033-3.642,3.422-3.642,2.4,0,3.438,1.532,3.438,3.642v6.522a3.235,3.235,0,0,1-1.667,3.182l1.667.322v1.69Z" transform="translate(20.421 -92.451)" fill="#fff"/>
        <path id="Path_153593" data-name="Path 153593" d="M86.17,94.865v10.2c0,2.087-.892,3.442-3.2,3.442-2.392,0-3.386-1.355-3.386-3.442v-10.2h2.27v10.42c0,.8.318,1.335,1.115,1.335s1.109-.538,1.109-1.335V94.865Z" transform="translate(26.004 -92.339)" fill="#fff"/>
        <rect id="Rectangle_33851" data-name="Rectangle 33851" width="2.267" height="13.484" transform="translate(113.345 2.526)" fill="#fff"/>
        <path id="Path_153594" data-name="Path 153594" d="M85.271,102.283V106.5h1a.974.974,0,0,0,1.112-1.093v-2.028c0-.715-.338-1.1-1.135-1.1Zm0-1.729h.8a.957.957,0,0,0,1.076-1.093V97.808a.956.956,0,0,0-1.1-1.093h-.774ZM83,94.865h3.281c2.27,0,3.025,1.053,3.025,2.966V99.2a1.965,1.965,0,0,1-1.352,2.149,2.048,2.048,0,0,1,1.69,2.251v1.788c0,1.909-.856,2.963-3.123,2.963H83Z" transform="translate(33.802 -92.339)" fill="#fff"/>
        <path id="Path_153595" data-name="Path 153595" d="M85.337,94.865H87.6V106.5h2.707v1.85H85.337Z" transform="translate(39.124 -92.34)" fill="#fff"/>
        <path id="Path_153596" data-name="Path 153596" d="M87.131,94.865h5.41v1.85H89.4v3.858h2.247V102.4H89.4v4.1h3.143v1.85h-5.41Z" transform="translate(43.216 -92.34)" fill="#fff"/>
        <path id="Path_153597" data-name="Path 153597" d="M60.057,108.976v5.131H57.79v-5.131l-2.526-8.353h2.365L59,105.734h.016l1.375-5.112h2.169Z" transform="translate(-29.468 -79.206)" fill="#fff"/>
        <path id="Path_153598" data-name="Path 153598" d="M60.119,105.635v8.471H58.209V100.622h2.228l2.444,7.736v-7.736h1.89v13.484H62.783Z" transform="translate(-22.75 -79.208)" fill="#fff"/>
        <path id="Path_153599" data-name="Path 153599" d="M65.1,111.1v-7.241c0-.814-.361-1.391-1.178-1.391-.794,0-1.152.577-1.152,1.391V111.1c0,.817.358,1.391,1.152,1.391.817,0,1.178-.574,1.178-1.391m-4.6-.358v-6.526c0-2.106,1.033-3.638,3.419-3.638,2.411,0,3.445,1.532,3.445,3.638v6.526c0,2.087-1.033,3.642-3.445,3.642-2.385,0-3.419-1.555-3.419-3.642" transform="translate(-17.512 -79.317)" fill="#fff"/>
        <path id="Path_153600" data-name="Path 153600" d="M63.434,110.738v-6.526c0-2.106.994-3.638,3.383-3.638,2.5,0,3.2,1.394,3.2,3.379v1.594h-2.07v-1.772c0-.837-.279-1.312-1.1-1.312s-1.152.577-1.152,1.391V111.1c0,.817.341,1.391,1.152,1.391s1.1-.518,1.1-1.312v-2.484h2.07v2.326c0,1.929-.8,3.363-3.2,3.363-2.388,0-3.383-1.555-3.383-3.642" transform="translate(-10.834 -79.317)" fill="#fff"/>
        <path id="Path_153601" data-name="Path 153601" d="M70.314,111.1v-7.241c0-.814-.361-1.391-1.178-1.391-.794,0-1.152.577-1.152,1.391V111.1c0,.817.358,1.391,1.152,1.391.817,0,1.178-.574,1.178-1.391m-4.6-.358v-6.526c0-2.106,1.033-3.638,3.419-3.638,2.411,0,3.442,1.532,3.442,3.638v6.526c0,2.087-1.03,3.642-3.442,3.642-2.385,0-3.419-1.555-3.419-3.642" transform="translate(-5.624 -79.317)" fill="#fff"/>
        <path id="Path_153602" data-name="Path 153602" d="M70.016,105.635v8.471H68.106V100.622h2.228l2.444,7.736v-7.736h1.89v13.484H72.683Z" transform="translate(-0.176 -79.208)" fill="#fff"/>
        <path id="Path_153603" data-name="Path 153603" d="M70.325,100.622h6.027v1.85h-1.87v11.634H72.195V102.473h-1.87Z" transform="translate(4.883 -79.207)" fill="#fff"/>
        <path id="Path_153604" data-name="Path 153604" d="M74.817,109.832h1.811l-.9-5.41h-.02Zm-2.844,4.275,2.546-13.484H77.1l2.566,13.484H77.344l-.417-2.467H74.519l-.4,2.467Z" transform="translate(8.643 -79.206)" fill="#fff"/>
        <path id="Path_153605" data-name="Path 153605" d="M80.753,105.357h-.059l-1.532,8.753H78.108l-1.69-8.753h-.039v8.753H74.506V100.622h2.648l1.47,7.6h.02l1.312-7.6h2.867V114.11h-2.07Z" transform="translate(14.42 -79.207)" fill="#fff"/>
        <rect id="Rectangle_33852" data-name="Rectangle 33852" width="2.267" height="13.484" transform="translate(98.214 21.417)" fill="#fff"/>
        <path id="Path_153606" data-name="Path 153606" d="M80.24,105.635v8.471H78.331V100.622h2.228l2.448,7.736v-7.736h1.887v13.484H82.907Z" transform="translate(23.143 -79.208)" fill="#fff"/>
        <path id="Path_153607" data-name="Path 153607" d="M83.36,109.832h1.814l-.9-5.41h-.016Zm-2.841,4.275,2.543-13.484h2.585l2.566,13.484H85.886l-.417-2.467H83.062l-.394,2.467Z" transform="translate(28.135 -79.206)" fill="#fff"/>
        <path id="Path_153608" data-name="Path 153608" d="M84.961,105.635v8.471H83.052V100.622H85.28l2.444,7.736v-7.736h1.89v13.484H87.625Z" transform="translate(33.912 -79.208)" fill="#fff"/>
        <path id="Path_153609" data-name="Path 153609" d="M85.27,100.622H91.3v1.85h-1.87v11.634H87.14V102.473H85.27Z" transform="translate(38.971 -79.207)" fill="#fff"/>
        <path id="Path_153610" data-name="Path 153610" d="M87.331,100.622h5.41v1.85H89.6v3.858h2.247v1.831H89.6v4.095h3.143v1.85h-5.41Z" transform="translate(43.671 -79.207)" fill="#fff"/>
      </g>
    </g>
    <g id="Group_100238" data-name="Group 100238" transform="translate(2 193)">
      <text id="Leer_más" data-name="Leer más" transform="translate(235.172 953)" fill="#fff" font-size="14" font-family="Roboto-Regular, Roboto"><tspan x="0" y="13">Leer más</tspan></text>
      <g id="icon_arrow_arrow-right-circle" data-name="icon / arrow / arrow-right-circle" transform="translate(303.172 955.888)">
        <g id="Group_201" data-name="Group 201">
          <path id="icon_arrow-right-circle-2" data-name="icon / arrow-right-circle" d="M6.328,12.657A6.31,6.31,0,0,1,0,6.328,6.31,6.31,0,0,1,6.328,0a6.31,6.31,0,0,1,6.328,6.328,6.31,6.31,0,0,1-6.328,6.328Zm0-11.506a5.178,5.178,0,1,0,5.178,5.178A5.184,5.184,0,0,0,6.328,1.151Zm0,8.055a.521.521,0,0,1-.4-.173.557.557,0,0,1,0-.805L7.249,6.9H4.027a.575.575,0,0,1,0-1.151H7.249L5.926,4.43a.558.558,0,0,1,0-.806.557.557,0,0,1,.806,0l2.3,2.3c.057.057.115.115.115.173a.207.207,0,0,0,.021.076.378.378,0,0,1,.036.154.349.349,0,0,1-.057.23c0,.058-.059.116-.115.172l-2.3,2.3A.52.52,0,0,1,6.328,9.205Z" transform="translate(0 0)" fill="#fff"/>
        </g>
      </g>
    </g>
  </g>
</svg>
