<svg xmlns="http://www.w3.org/2000/svg" xmlns:xlink="http://www.w3.org/1999/xlink" width="160" height="160" viewBox="0 0 160 160">
  <defs>
    <clipPath id="clip-path">
      <path id="icon_arrow-right-circle" data-name="icon / arrow-right-circle" d="M6.328,12.657A6.31,6.31,0,0,1,0,6.328,6.31,6.31,0,0,1,6.328,0a6.31,6.31,0,0,1,6.328,6.328,6.31,6.31,0,0,1-6.328,6.328Zm0-11.506a5.178,5.178,0,1,0,5.178,5.178A5.184,5.184,0,0,0,6.328,1.151Zm0,8.055a.521.521,0,0,1-.4-.173.557.557,0,0,1,0-.805L7.249,6.9H4.027a.575.575,0,0,1,0-1.151H7.249L5.926,4.43a.558.558,0,0,1,0-.806.557.557,0,0,1,.806,0l2.3,2.3c.057.057.115.115.115.173a.207.207,0,0,0,.021.076.378.378,0,0,1,.036.154.349.349,0,0,1-.057.23c0,.058-.059.116-.115.172l-2.3,2.3A.52.52,0,0,1,6.328,9.205Z" transform="translate(0 0)" fill="#fff"/>
    </clipPath>
  </defs>
  <g id="t2-ob8" transform="translate(-406.5 -1009)">
    <g id="Group_98542" data-name="Group 98542" transform="translate(16 8)">
      <rect id="Rectangle_33849" data-name="Rectangle 33849" width="160" height="160" rx="10" transform="translate(390.5 1001)" fill="#a21d43"/>
      <g id="Group_98449" data-name="Group 98449" transform="translate(405.039 1014.081)">
        <path id="Path_153611" data-name="Path 153611" d="M113.085,120.021c0,1.952-.712,3.33-2.661,3.33-1.906,0-2.618-1.378-2.618-3.33v-5.233c0-1.949.712-3.333,2.618-3.333,1.949,0,2.661,1.384,2.661,3.333Zm-5.092-17.841c0-1.952.669-3.094,2.431-3.094,1.8,0,2.474,1.142,2.474,3.094v2.188c0,1.949-.669,3.094-2.474,3.094-1.762,0-2.431-1.145-2.431-3.094Zm10.518,17.27v-3.52c0-3.091-1.093-5.331-3.615-6.47,2.136-1.05,3.14-2.949,3.14-5.613v-1.335c0-5.043-2.615-7.756-7.612-7.756-4.951,0-7.523,2.713-7.523,7.756v1.335c0,2.615.955,4.564,3.048,5.613-2.52,1.138-3.57,3.379-3.57,6.47v3.52c0,4.9,2.333,8.327,8.045,8.327,5.755,0,8.087-3.425,8.087-8.327" transform="translate(-102.38 -94.755)" fill="#fff"/>
        <path id="Path_153612" data-name="Path 153612" d="M137.829,117.46,124.9,129.765a2.129,2.129,0,0,0-.737,1.846v34.482a.738.738,0,0,0,.737.734h13.36a.738.738,0,0,0,.737-.734V117.772c0-.407-.321-1.15-1.163-.312" transform="translate(-45.317 -48.266)" fill="#fff"/>
        <path id="Path_153613" data-name="Path 153613" d="M125.393,122.811l-12.934,12.3a2.145,2.145,0,0,0-.737,1.846v18.453a.738.738,0,0,0,.737.737h13.36a.738.738,0,0,0,.737-.737V123.12c0-.407-.321-1.15-1.162-.309" transform="translate(-70.14 -37.587)" fill="#fff"/>
        <path id="Path_153614" data-name="Path 153614" d="M171.435,112.484a.383.383,0,0,0-.111-.282.413.413,0,0,0-.24-.1l-.069.006-.108.009-9.9,2.232-.18.018a.354.354,0,0,0-.192.1.378.378,0,0,0,0,.533l.114.111,2.259,2.259-22.438,22.438L130.2,129.445a.293.293,0,0,0-.422,0l-2.81,2.813-.006,0-16.611,16.608a.3.3,0,0,0,0,.422l2.816,2.816a.291.291,0,0,0,.416,0L130,135.7l7.52,7.52c.009.015.012.027.024.036l2.813,2.81a.3.3,0,0,0,.419,0L166.239,120.6l2.376,2.373a.366.366,0,0,0,.527,0,.372.372,0,0,0,.111-.243V122.7l2.175-10.106Z" transform="translate(-73.043 -58.207)" fill="#fff"/>
        <path id="Path_153615" data-name="Path 153615" d="M131.582,123.569l-6.256,6.307a.3.3,0,0,1-.4-.012l-5.672-5.78c-1.037-1.037-1.258-.195-1.258.21v29.716a.731.731,0,0,0,.731.734h13.363a.735.735,0,0,0,.734-.734V123.8c0-.407-.321-1.154-1.237-.234" transform="translate(-57.625 -36.185)" fill="#fff"/>
        <path id="Path_153616" data-name="Path 153616" d="M109.851,94.865h6.027v1.85h-1.87v11.634h-2.287V96.715h-1.87Z" transform="translate(-85.341 -94.505)" fill="#fff"/>
        <path id="Path_153617" data-name="Path 153617" d="M114.275,96.714v4.2h.755a.981.981,0,0,0,1.115-1.112V97.81c0-.738-.338-1.1-1.115-1.1Zm0,5.449v6.188h-2.267V94.864h3.3c2.283,0,3.12,1.135,3.12,3.022v1.732c0,1.453-.515,2.306-1.811,2.6l2.169,6.129H116.4Z" transform="translate(-80.42 -94.506)" fill="#fff"/>
        <path id="Path_153618" data-name="Path 153618" d="M117.076,104.074h1.811l-.9-5.41h-.02Zm-2.844,4.275,2.546-13.484h2.585l2.566,13.484H119.6l-.417-2.467h-2.408l-.4,2.467Z" transform="translate(-75.347 -94.504)" fill="#fff"/>
        <path id="Path_153619" data-name="Path 153619" d="M119.13,102.283V106.5h.994a.975.975,0,0,0,1.115-1.093v-2.028c0-.715-.341-1.1-1.135-1.1Zm0-1.729h.8A.954.954,0,0,0,121,99.461V97.808a.954.954,0,0,0-1.1-1.093h-.774Zm-2.267-5.689h3.281c2.267,0,3.025,1.053,3.025,2.966V99.2a1.965,1.965,0,0,1-1.352,2.149,2.05,2.05,0,0,1,1.69,2.251v1.788c0,1.909-.856,2.963-3.123,2.963h-3.52Z" transform="translate(-69.347 -94.504)" fill="#fff"/>
        <path id="Path_153620" data-name="Path 153620" d="M121.937,104.074h1.811l-.9-5.41h-.02Zm-2.844,4.275,2.546-13.484h2.585l2.566,13.484h-2.326l-.417-2.467h-2.408l-.4,2.467Z" transform="translate(-64.26 -94.504)" fill="#fff"/>
        <path id="Path_153621" data-name="Path 153621" d="M127.745,94.865v10.42c0,1.949-.856,3.225-3.123,3.225-2.346,0-2.982-1.3-2.982-3.005v-2.684h2.146v2.726c0,.673.239,1.073.837,1.073.617,0,.856-.4.856-1.1V94.865Z" transform="translate(-58.453 -94.504)" fill="#fff"/>
        <path id="Path_153622" data-name="Path 153622" d="M128.483,105.338V98.1c0-.814-.361-1.391-1.178-1.391-.794,0-1.152.577-1.152,1.391v7.241c0,.817.358,1.391,1.152,1.391.817,0,1.178-.574,1.178-1.391m-4.6-.358V98.458c0-2.11,1.033-3.642,3.419-3.642,2.411,0,3.445,1.532,3.445,3.642v6.522c0,2.09-1.033,3.642-3.445,3.642-2.385,0-3.419-1.552-3.419-3.642" transform="translate(-53.326 -94.616)" fill="#fff"/>
        <path id="Path_153623" data-name="Path 153623" d="M130.233,106.5c.935,0,1.293-.558,1.293-1.371v-7.06a1.182,1.182,0,0,0-1.293-1.355h-.955V106.5Zm3.56-8.015v6.247c0,2.067-.856,3.619-3.281,3.619h-3.5V94.865h3.5c2.425,0,3.281,1.529,3.281,3.619" transform="translate(-46.207 -94.504)" fill="#fff"/>
        <path id="Path_153624" data-name="Path 153624" d="M129.469,94.865h5.41v1.85h-3.143v3.858h2.247V102.4h-2.247v4.1h3.143v1.85h-5.41Z" transform="translate(-40.594 -94.505)" fill="#fff"/>
        <path id="Path_153625" data-name="Path 153625" d="M131.427,104.98V98.458c0-2.11.994-3.642,3.379-3.642,2.507,0,3.205,1.394,3.205,3.379V99.79h-2.07V98.018c0-.837-.279-1.312-1.1-1.312s-1.152.577-1.152,1.391v7.241c0,.817.338,1.391,1.152,1.391s1.1-.515,1.1-1.312v-2.484h2.07v2.326c0,1.929-.8,3.363-3.205,3.363-2.385,0-3.379-1.552-3.379-3.642" transform="translate(-36.128 -94.616)" fill="#fff"/>
        <path id="Path_153626" data-name="Path 153626" d="M133.808,94.865h5.41v1.85h-3.143v3.858h2.247V102.4h-2.247v4.1h3.143v1.85h-5.41Z" transform="translate(-30.698 -94.505)" fill="#fff"/>
        <path id="Path_153627" data-name="Path 153627" d="M137.736,99.877v8.474h-1.909V94.864h2.228L140.5,102.6V94.864h1.89v13.487H140.4Z" transform="translate(-26.093 -94.506)" fill="#fff"/>
        <path id="Path_153628" data-name="Path 153628" d="M138.142,94.865h6.027v1.85H142.3v11.634h-2.287V96.715h-1.87Z" transform="translate(-20.813 -94.505)" fill="#fff"/>
        <path id="Path_153629" data-name="Path 153629" d="M140.3,94.865h5.41v1.85h-3.143v3.858h2.247V102.4h-2.247v4.1h3.143v1.85H140.3Z" transform="translate(-15.892 -94.505)" fill="#fff"/>
        <path id="Path_153630" data-name="Path 153630" d="M114.608,108.673V113.8h-2.27v-5.131l-2.523-8.353h2.365l1.375,5.112h.016l1.375-5.112h2.169Z" transform="translate(-85.423 -82.063)" fill="#fff"/>
        <path id="Path_153631" data-name="Path 153631" d="M112.954,110.435v-6.526c0-2.106.994-3.638,3.383-3.638,2.5,0,3.2,1.394,3.2,3.379v1.594h-2.07v-1.772c0-.837-.279-1.312-1.1-1.312s-1.152.577-1.152,1.391v7.241c0,.817.341,1.391,1.152,1.391s1.1-.515,1.1-1.312v-2.484h2.07v2.326c0,1.929-.8,3.363-3.2,3.363-2.388,0-3.383-1.555-3.383-3.642" transform="translate(-78.262 -82.174)" fill="#fff"/>
        <path id="Path_153632" data-name="Path 153632" d="M117.6,102.169v4.2h.755a.981.981,0,0,0,1.115-1.112v-1.988c0-.738-.338-1.1-1.115-1.1Zm0,5.449v6.188h-2.267V100.319h3.3c2.283,0,3.12,1.135,3.12,3.022v1.732c0,1.453-.515,2.306-1.811,2.6l2.169,6.129h-2.385Z" transform="translate(-72.829 -82.064)" fill="#fff"/>
        <path id="Path_153633" data-name="Path 153633" d="M117.669,100.319h5.41v1.85h-3.143v3.858h2.247v1.831h-2.247v4.095h3.143v1.85h-5.41Z" transform="translate(-67.508 -82.064)" fill="#fff"/>
        <path id="Path_153634" data-name="Path 153634" d="M119.627,110.435v-6.526c0-2.106.994-3.638,3.383-3.638,2.5,0,3.2,1.394,3.2,3.379v1.594h-2.07v-1.772c0-.837-.279-1.312-1.1-1.312s-1.152.577-1.152,1.391v7.241c0,.817.341,1.391,1.152,1.391s1.1-.515,1.1-1.312v-2.484h2.07v2.326c0,1.929-.8,3.363-3.2,3.363-2.388,0-3.383-1.555-3.383-3.642" transform="translate(-63.042 -82.174)" fill="#fff"/>
        <rect id="Rectangle_33854" data-name="Rectangle 33854" width="2.267" height="13.484" transform="translate(64.4 18.255)" fill="#fff"/>
        <path id="Path_153635" data-name="Path 153635" d="M129.346,105.054h-.059l-1.529,8.753H126.7l-1.69-8.753h-.039v8.753H123.1V100.319h2.648l1.47,7.6h.023l1.312-7.6h2.864v13.488h-2.07Z" transform="translate(-55.124 -82.064)" fill="#fff"/>
        <rect id="Rectangle_33855" data-name="Rectangle 33855" width="2.267" height="13.484" transform="translate(77.582 18.255)" fill="#fff"/>
        <path id="Path_153636" data-name="Path 153636" d="M127.118,100.319h5.41v1.85h-3.143v3.858h2.247v1.831h-2.247v4.095h3.143v1.85h-5.41Z" transform="translate(-45.957 -82.064)" fill="#fff"/>
        <path id="Path_153637" data-name="Path 153637" d="M131.046,105.332V113.8h-1.909V100.319h2.228l2.444,7.736v-7.736h1.89V113.8H133.71Z" transform="translate(-41.353 -82.064)" fill="#fff"/>
        <path id="Path_153638" data-name="Path 153638" d="M131.451,100.319h6.027v1.85h-1.87V113.8h-2.287V102.17h-1.87Z" transform="translate(-36.073 -82.064)" fill="#fff"/>
        <path id="Path_153639" data-name="Path 153639" d="M138.114,110.793v-7.241c0-.814-.361-1.391-1.178-1.391-.794,0-1.152.577-1.152,1.391v7.241c0,.817.358,1.391,1.152,1.391.817,0,1.178-.574,1.178-1.391m-4.6-.358v-6.526c0-2.106,1.033-3.638,3.419-3.638,2.411,0,3.445,1.532,3.445,3.638v6.526c0,2.087-1.033,3.642-3.445,3.642-2.385,0-3.419-1.555-3.419-3.642" transform="translate(-31.359 -82.174)" fill="#fff"/>
        <path id="Path_153640" data-name="Path 153640" d="M109.93,105.774h5.41v1.85H112.2v3.858h2.247v1.827H112.2v4.1h3.143v1.85h-5.41Z" transform="translate(-85.161 -69.622)" fill="#fff"/>
        <path id="Path_153641" data-name="Path 153641" d="M111.887,115.889V109.37c0-2.11.994-3.645,3.383-3.645,2.5,0,3.2,1.4,3.2,3.379v1.6H116.4V108.93c0-.837-.279-1.312-1.1-1.312s-1.152.577-1.152,1.388v7.247c0,.81.341,1.391,1.152,1.391s1.1-.522,1.1-1.316v-2.487h2.07v2.329c0,1.926-.8,3.363-3.2,3.363-2.388,0-3.383-1.552-3.383-3.645" transform="translate(-80.696 -69.734)" fill="#fff"/>
        <path id="Path_153642" data-name="Path 153642" d="M118.862,116.253v-7.247c0-.81-.361-1.388-1.175-1.388-.8,0-1.155.577-1.155,1.388v7.247c0,.81.358,1.391,1.155,1.391.814,0,1.175-.581,1.175-1.391m-4.593-.364V109.37c0-2.11,1.03-3.645,3.419-3.645,2.408,0,3.442,1.535,3.442,3.645v6.519c0,2.093-1.033,3.645-3.442,3.645-2.388,0-3.419-1.552-3.419-3.645" transform="translate(-75.263 -69.734)" fill="#fff"/>
        <path id="Path_153643" data-name="Path 153643" d="M118.663,110.787v8.471h-1.909V105.774h2.228l2.444,7.736v-7.736h1.89v13.484H121.33Z" transform="translate(-69.596 -69.622)" fill="#fff"/>
        <path id="Path_153644" data-name="Path 153644" d="M123.743,117.9v-7.247c0-.81-.361-1.388-1.178-1.388-.794,0-1.152.577-1.152,1.388V117.9c0,.81.358,1.391,1.152,1.391.817,0,1.178-.581,1.178-1.391m.673-11.322-3.56.456v-1.273l3.56-.751Zm-5.269,10.958v-6.519c0-2.11,1.033-3.645,3.419-3.645,2.411,0,3.445,1.535,3.445,3.645v6.519c0,2.093-1.033,3.645-3.445,3.645-2.385,0-3.419-1.552-3.419-3.645" transform="translate(-64.137 -71.376)" fill="#fff"/>
        <path id="Path_153645" data-name="Path 153645" d="M127.879,110.508h-.059l-1.532,8.753h-1.053l-1.69-8.753h-.039v8.753h-1.873V105.774h2.648l1.47,7.6h.02l1.312-7.6h2.867v13.488h-2.07Z" transform="translate(-58.469 -69.622)" fill="#fff"/>
        <rect id="Rectangle_33856" data-name="Rectangle 33856" width="2.267" height="13.484" transform="translate(72.769 36.155)" fill="#fff"/>
        <path id="Path_153646" data-name="Path 153646" d="M125.65,115.889V109.37c0-2.11.994-3.645,3.379-3.645,2.507,0,3.205,1.4,3.205,3.379v1.6h-2.07V108.93c0-.837-.279-1.312-1.1-1.312s-1.152.577-1.152,1.388v7.247c0,.81.338,1.391,1.152,1.391s1.1-.522,1.1-1.316v-2.487h2.07v2.329c0,1.926-.8,3.363-3.205,3.363-2.385,0-3.379-1.552-3.379-3.645" transform="translate(-49.305 -69.734)" fill="#fff"/>
        <path id="Path_153647" data-name="Path 153647" d="M132.629,116.253v-7.247c0-.81-.361-1.388-1.178-1.388-.794,0-1.152.577-1.152,1.388v7.247c0,.81.358,1.391,1.152,1.391.817,0,1.178-.581,1.178-1.391m-4.6-.364V109.37c0-2.11,1.033-3.645,3.419-3.645,2.411,0,3.442,1.535,3.442,3.645v6.519c0,2.093-1.03,3.645-3.442,3.645-2.385,0-3.419-1.552-3.419-3.645" transform="translate(-43.87 -69.734)" fill="#fff"/>
      </g>
    </g>
    <g id="Group_100240" data-name="Group 100240" transform="translate(211 193)">
      <text id="Leer_más" data-name="Leer más" transform="translate(235.172 953)" fill="#fff" font-size="14" font-family="Roboto-Regular, Roboto"><tspan x="0" y="13">Leer más</tspan></text>
      <g id="icon_arrow_arrow-right-circle" data-name="icon / arrow / arrow-right-circle" transform="translate(303.172 955.888)">
        <g id="Group_201" data-name="Group 201">
          <path id="icon_arrow-right-circle-2" data-name="icon / arrow-right-circle" d="M6.328,12.657A6.31,6.31,0,0,1,0,6.328,6.31,6.31,0,0,1,6.328,0a6.31,6.31,0,0,1,6.328,6.328,6.31,6.31,0,0,1-6.328,6.328Zm0-11.506a5.178,5.178,0,1,0,5.178,5.178A5.184,5.184,0,0,0,6.328,1.151Zm0,8.055a.521.521,0,0,1-.4-.173.557.557,0,0,1,0-.805L7.249,6.9H4.027a.575.575,0,0,1,0-1.151H7.249L5.926,4.43a.558.558,0,0,1,0-.806.557.557,0,0,1,.806,0l2.3,2.3c.057.057.115.115.115.173a.207.207,0,0,0,.021.076.378.378,0,0,1,.036.154.349.349,0,0,1-.057.23c0,.058-.059.116-.115.172l-2.3,2.3A.52.52,0,0,1,6.328,9.205Z" transform="translate(0 0)" fill="#fff"/>
        </g>
      </g>
    </g>
  </g>
</svg>
