<svg xmlns="http://www.w3.org/2000/svg" xmlns:xlink="http://www.w3.org/1999/xlink" width="160" height="160" viewBox="0 0 160 160">
  <defs>
    <clipPath id="clip-path">
      <path id="icon_arrow-right-circle" data-name="icon / arrow-right-circle" d="M6.328,12.657A6.31,6.31,0,0,1,0,6.328,6.31,6.31,0,0,1,6.328,0a6.31,6.31,0,0,1,6.328,6.328,6.31,6.31,0,0,1-6.328,6.328Zm0-11.506a5.178,5.178,0,1,0,5.178,5.178A5.184,5.184,0,0,0,6.328,1.151Zm0,8.055a.521.521,0,0,1-.4-.173.557.557,0,0,1,0-.805L7.249,6.9H4.027a.575.575,0,0,1,0-1.151H7.249L5.926,4.43a.558.558,0,0,1,0-.806.557.557,0,0,1,.806,0l2.3,2.3c.057.057.115.115.115.173a.207.207,0,0,0,.021.076.378.378,0,0,1,.036.154.349.349,0,0,1-.057.23c0,.058-.059.116-.115.172l-2.3,2.3A.52.52,0,0,1,6.328,9.205Z" transform="translate(0 0)" fill="#fff"/>
    </clipPath>
  </defs>
  <g id="t2-ob10" transform="translate(-810.5 -1001)">
    <rect id="Rectangle_33847" data-name="Rectangle 33847" width="160" height="160" rx="10" transform="translate(810.5 1001)" fill="#d9035e"/>
    <g id="Group_98451" data-name="Group 98451" transform="translate(821.608 1011.913)">
      <path id="Path_153681" data-name="Path 153681" d="M215.663,102.676v24.718h5.428V95.1h-4.338l-5,5.861v5.671h.046l3.813-3.958Z" transform="translate(-211.754 -92.625)" fill="#fff"/>
      <path id="Path_153682" data-name="Path 153682" d="M221.184,120.183v-17.34c0-1.949.714-3.335,2.568-3.335,1.91,0,2.621,1.386,2.621,3.335v17.34c0,1.956-.711,3.332-2.621,3.332-1.854,0-2.568-1.376-2.568-3.332m10.621-.858V103.7c0-5.052-2.526-8.714-8.053-8.714-5.474,0-8,3.663-8,8.714v15.624c0,5,2.526,8.714,8,8.714,5.527,0,8.053-3.715,8.053-8.714" transform="translate(-202.655 -92.887)" fill="#fff"/>
      <path id="Path_153683" data-name="Path 153683" d="M225.361,96.968v4.193h.754a.977.977,0,0,0,1.114-1.111V98.062c0-.74-.334-1.094-1.114-1.094Zm0,5.448V108.6h-2.267V95.117h3.3c2.283,0,3.122,1.137,3.122,3.021v1.733c0,1.458-.514,2.306-1.812,2.6l2.169,6.126h-2.385Z" transform="translate(-185.944 -92.591)" fill="#fff"/>
      <path id="Path_153684" data-name="Path 153684" d="M225.431,95.117h5.412v1.848H227.7v3.863h2.251v1.828H227.7v4.1h3.145V108.6h-5.412Z" transform="translate(-180.625 -92.591)" fill="#fff"/>
      <path id="Path_153685" data-name="Path 153685" d="M230.678,106.754c.934,0,1.291-.557,1.291-1.373v-7.06a1.181,1.181,0,0,0-1.291-1.353h-.957v9.786Zm3.558-8.017v6.244c0,2.07-.849,3.62-3.279,3.62h-3.505V95.117h3.505c2.431,0,3.279,1.533,3.279,3.62" transform="translate(-176.027 -92.591)" fill="#fff"/>
      <path id="Path_153686" data-name="Path 153686" d="M236.5,95.117v10.2c0,2.093-.894,3.443-3.2,3.443-2.388,0-3.384-1.35-3.384-3.443v-10.2h2.27v10.421c0,.8.315,1.333,1.114,1.333s1.114-.537,1.114-1.333V95.117Z" transform="translate(-170.417 -92.591)" fill="#fff"/>
      <path id="Path_153687" data-name="Path 153687" d="M232.32,105.231V98.705c0-2.107,1-3.636,3.381-3.636,2.5,0,3.2,1.389,3.2,3.378v1.6h-2.067V98.27c0-.835-.282-1.314-1.094-1.314s-1.156.58-1.156,1.392v7.243c0,.812.344,1.389,1.156,1.389s1.094-.518,1.094-1.314v-2.483H238.9v2.326c0,1.926-.8,3.365-3.2,3.365-2.385,0-3.381-1.556-3.381-3.643" transform="translate(-164.945 -92.7)" fill="#fff"/>
      <path id="Path_153688" data-name="Path 153688" d="M234.705,105.231V98.705c0-2.107,1-3.636,3.381-3.636,2.5,0,3.2,1.389,3.2,3.378v1.6h-2.067V98.27c0-.835-.282-1.314-1.094-1.314s-1.156.58-1.156,1.392v7.243c0,.812.344,1.389,1.156,1.389s1.094-.518,1.094-1.314v-2.483h2.067v2.326c0,1.926-.8,3.365-3.2,3.365-2.385,0-3.381-1.556-3.381-3.643" transform="translate(-159.517 -92.7)" fill="#fff"/>
      <rect id="Rectangle_33864" data-name="Rectangle 33864" width="2.267" height="13.484" transform="translate(83.005 2.526)" fill="#fff"/>
      <path id="Path_153689" data-name="Path 153689" d="M242.779,107.237V99.994c0-.812-.36-1.392-1.173-1.392s-1.156.58-1.156,1.392v7.243c0,.812.357,1.389,1.156,1.389s1.173-.577,1.173-1.389m.675-11.319-3.561.459V95.1l3.561-.753Zm-5.271,10.958v-6.526c0-2.107,1.035-3.636,3.423-3.636,2.4,0,3.44,1.53,3.44,3.636v6.526c0,2.087-1.035,3.643-3.44,3.643-2.388,0-3.423-1.556-3.423-3.643" transform="translate(-151.601 -94.346)" fill="#fff"/>
      <path id="Path_153690" data-name="Path 153690" d="M242.58,100.13V108.6h-1.907V95.117H242.9l2.444,7.738V95.117h1.89V108.6h-1.989Z" transform="translate(-145.933 -92.59)" fill="#fff"/>
      <path id="Path_153691" data-name="Path 153691" d="M246.933,106.754c.934,0,1.291-.557,1.291-1.373v-7.06a1.181,1.181,0,0,0-1.291-1.353h-.957v9.786Zm3.558-8.017v6.244c0,2.07-.855,3.62-3.279,3.62h-3.505V95.117h3.505c2.424,0,3.279,1.533,3.279,3.62" transform="translate(-139.03 -92.591)" fill="#fff"/>
      <path id="Path_153692" data-name="Path 153692" d="M246.171,95.117h5.412v1.848h-3.145v3.863h2.247v1.828h-2.247v4.1h3.145V108.6h-5.412Z" transform="translate(-133.419 -92.591)" fill="#fff"/>
      <path id="Path_153693" data-name="Path 153693" d="M248.83,95.117H251.1v11.633H253.8V108.6H248.83Z" transform="translate(-127.368 -92.591)" fill="#fff"/>
      <path id="Path_153694" data-name="Path 153694" d="M253.4,104.327h1.812l-.894-5.412h-.023Zm-2.844,4.275L253.1,95.118h2.588l2.565,13.484h-2.326l-.416-2.467H253.1l-.4,2.467Z" transform="translate(-123.446 -92.589)" fill="#fff"/>
      <path id="Path_153695" data-name="Path 153695" d="M253.09,105.808V104h2.11v1.848c0,.757.334,1.2,1.111,1.2.714,0,1.032-.478,1.032-1.2v-.518a2.431,2.431,0,0,0-1.012-1.907L255,102.09c-1.291-1.274-1.887-2.051-1.887-3.6v-.459c0-1.671.973-2.962,3.181-2.962,2.264,0,3.158,1.114,3.158,3.06v1.094h-2.061V98.05c0-.773-.364-1.153-1.078-1.153a.993.993,0,0,0-1.071,1.114v.278c0,.757.419,1.192,1.071,1.828l1.451,1.435c1.235,1.255,1.831,2.008,1.831,3.5v.655c0,1.848-.993,3.161-3.3,3.161s-3.2-1.294-3.2-3.063" transform="translate(-117.671 -92.7)" fill="#fff"/>
      <path id="Path_153696" data-name="Path 153696" d="M226.318,112.521c.934,0,1.294-.557,1.294-1.373v-7.06a1.182,1.182,0,0,0-1.294-1.353h-.957v9.786Zm3.561-8.017v6.244c0,2.07-.855,3.62-3.283,3.62h-3.5V100.884h3.5c2.428,0,3.283,1.533,3.283,3.62" transform="translate(-185.944 -79.465)" fill="#fff"/>
      <path id="Path_153697" data-name="Path 153697" d="M225.558,100.884h5.412v1.848h-3.145v3.862h2.251v1.828h-2.251v4.1h3.145v1.848h-5.412Z" transform="translate(-180.335 -79.466)" fill="#fff"/>
      <path id="Path_153698" data-name="Path 153698" d="M227.513,111.575v-1.812h2.11v1.851c0,.757.337,1.192,1.114,1.192.714,0,1.032-.478,1.032-1.192V111.1a2.426,2.426,0,0,0-1.016-1.907l-1.333-1.337c-1.291-1.268-1.884-2.044-1.884-3.6V103.8c0-1.671.973-2.962,3.178-2.962,2.267,0,3.165,1.114,3.165,3.06v1.094h-2.067v-1.173c0-.776-.36-1.153-1.075-1.153a1,1,0,0,0-1.078,1.114v.278c0,.754.423,1.192,1.078,1.828l1.451,1.432c1.232,1.258,1.831,2.012,1.831,3.5v.658c0,1.848-1,3.161-3.305,3.161s-3.2-1.294-3.2-3.063" transform="translate(-175.886 -79.574)" fill="#fff"/>
      <rect id="Rectangle_33865" data-name="Rectangle 33865" width="2.267" height="13.484" transform="translate(59.322 21.416)" fill="#fff"/>
      <path id="Path_153699" data-name="Path 153699" d="M234.375,107.279H237.6v7.2h-1.631v-1.471a2.041,2.041,0,0,1-2.169,1.628c-1.949,0-2.844-1.55-2.844-3.64v-6.523c0-2.107,1.016-3.64,3.4-3.64,2.506,0,3.243,1.392,3.243,3.381v1.2h-2.064v-1.373c0-.835-.324-1.317-1.137-1.317s-1.176.58-1.176,1.4v7.243c0,.812.337,1.389,1.114,1.389.737,0,1.117-.419,1.117-1.291v-2.392h-1.078Z" transform="translate(-168.052 -79.577)" fill="#fff"/>
      <path id="Path_153700" data-name="Path 153700" d="M239.961,100.884v10.2c0,2.084-.894,3.44-3.2,3.44-2.385,0-3.384-1.356-3.384-3.44v-10.2h2.27v10.421c0,.8.318,1.333,1.114,1.333s1.114-.537,1.114-1.333V100.884Z" transform="translate(-162.542 -79.465)" fill="#fff"/>
      <path id="Path_153701" data-name="Path 153701" d="M238.426,110.093h1.808l-.894-5.412h-.023Zm-2.847,4.275,2.546-13.484h2.588l2.565,13.484h-2.326l-.416-2.467h-2.411l-.4,2.467Z" transform="translate(-157.528 -79.465)" fill="#fff"/>
      <path id="Path_153702" data-name="Path 153702" d="M238.214,100.884h2.267V112.52h2.706v1.848h-4.973Z" transform="translate(-151.53 -79.466)" fill="#fff"/>
      <path id="Path_153703" data-name="Path 153703" d="M243.273,112.521c.934,0,1.291-.557,1.291-1.373v-7.06a1.179,1.179,0,0,0-1.291-1.353h-.96v9.786Zm3.558-8.017v6.244c0,2.07-.848,3.62-3.279,3.62h-3.505V100.884h3.505c2.431,0,3.279,1.533,3.279,3.62" transform="translate(-147.36 -79.465)" fill="#fff"/>
      <path id="Path_153704" data-name="Path 153704" d="M245.158,110.093h1.808l-.894-5.412h-.02Zm-2.847,4.275,2.549-13.484h2.585l2.565,13.484h-2.326l-.416-2.467H244.86l-.4,2.467Z" transform="translate(-142.205 -79.465)" fill="#fff"/>
      <path id="Path_153705" data-name="Path 153705" d="M248.171,112.521c.934,0,1.291-.557,1.291-1.373v-7.06a1.179,1.179,0,0,0-1.291-1.353h-.957v9.786Zm3.558-8.017v6.244c0,2.07-.849,3.62-3.279,3.62h-3.505V100.884h3.505c2.431,0,3.279,1.533,3.279,3.62" transform="translate(-136.212 -79.465)" fill="#fff"/>
      <path id="Path_153706" data-name="Path 153706" d="M247.41,100.884h5.412v1.848h-3.145v3.862h2.251v1.828h-2.251v4.1h3.145v1.848H247.41Z" transform="translate(-130.6 -79.466)" fill="#fff"/>
      <path id="Path_153707" data-name="Path 153707" d="M249.364,111.575v-1.812h2.11v1.851c0,.757.337,1.192,1.114,1.192.714,0,1.032-.478,1.032-1.192V111.1a2.426,2.426,0,0,0-1.016-1.907l-1.333-1.337c-1.291-1.268-1.884-2.044-1.884-3.6V103.8c0-1.671.973-2.962,3.178-2.962,2.267,0,3.161,1.114,3.161,3.06v1.094h-2.064v-1.173c0-.776-.36-1.153-1.075-1.153a.994.994,0,0,0-1.075,1.114v.278c0,.754.419,1.192,1.075,1.828l1.451,1.432c1.232,1.258,1.831,2.012,1.831,3.5v.658c0,1.848-1,3.161-3.306,3.161s-3.2-1.294-3.2-3.063" transform="translate(-126.152 -79.574)" fill="#fff"/>
      <g id="Group_100242" data-name="Group 100242" transform="translate(9.216 -2)">
        <path id="Path_153708" data-name="Path 153708" d="M239.908,109.8l-11.235,11.515h22.469Z" transform="translate(-178.808 -59.163)" fill="#fff"/>
        <path id="Path_153709" data-name="Path 153709" d="M239.908,142.568l11.235-11.515H228.674Z" transform="translate(-178.808 -24.649)" fill="#fff"/>
        <path id="Path_153710" data-name="Path 153710" d="M252.9,129.576l-11.513-11.234V140.81Z" transform="translate(-158.159 -45.296)" fill="#fff"/>
        <path id="Path_153711" data-name="Path 153711" d="M220.137,129.576l11.513,11.235V118.341Z" transform="translate(-192.675 -45.296)" fill="#fff"/>
        <path id="Path_153712" data-name="Path 153712" d="M253.642,124.39H228.294a.275.275,0,0,0-.273.276v5.745a.272.272,0,0,0,.273.276h25.348a.277.277,0,0,0,.283-.276v-5.745a.281.281,0,0,0-.283-.276" transform="translate(-179.869 -35.471)" fill="#fff"/>
        <path id="Path_153713" data-name="Path 153713" d="M253.921,118.731a.274.274,0,0,0-.278-.276H228.295a.277.277,0,0,0-.276.276v5.742a.276.276,0,0,0,.276.278h25.348a.273.273,0,0,0,.278-.278Z" transform="translate(-179.872 -45.111)" fill="#fff"/>
      </g>
    </g>
    <g id="Group_100243" data-name="Group 100243" transform="translate(615 182)">
      <text id="Leer_más" data-name="Leer más" transform="translate(235.172 953)" fill="#fff" font-size="14" font-family="Roboto-Regular, Roboto"><tspan x="0" y="13">Leer más</tspan></text>
      <g id="icon_arrow_arrow-right-circle" data-name="icon / arrow / arrow-right-circle" transform="translate(303.172 955.888)">
        <g id="Group_201" data-name="Group 201">
          <path id="icon_arrow-right-circle-2" data-name="icon / arrow-right-circle" d="M6.328,12.657A6.31,6.31,0,0,1,0,6.328,6.31,6.31,0,0,1,6.328,0a6.31,6.31,0,0,1,6.328,6.328,6.31,6.31,0,0,1-6.328,6.328Zm0-11.506a5.178,5.178,0,1,0,5.178,5.178A5.184,5.184,0,0,0,6.328,1.151Zm0,8.055a.521.521,0,0,1-.4-.173.557.557,0,0,1,0-.805L7.249,6.9H4.027a.575.575,0,0,1,0-1.151H7.249L5.926,4.43a.558.558,0,0,1,0-.806.557.557,0,0,1,.806,0l2.3,2.3c.057.057.115.115.115.173a.207.207,0,0,0,.021.076.378.378,0,0,1,.036.154.349.349,0,0,1-.057.23c0,.058-.059.116-.115.172l-2.3,2.3A.52.52,0,0,1,6.328,9.205Z" transform="translate(0 0)" fill="#fff"/>
        </g>
      </g>
    </g>
  </g>
</svg>
