<svg xmlns="http://www.w3.org/2000/svg" width="80.24" height="80" viewBox="0 0 80.24 80">
  <g id="t5-ico1" transform="translate(0 -0.5)">
    <path id="Path_152210" data-name="Path 152210" d="M64.232,7.738c-7.462,0-14.021,4.41-17.787,11.072C42.678,12.148,36.119,7.738,28.657,7.738,16.972,7.738,7.5,18.552,7.5,31.892c0,34.352,38.944,53.5,38.944,53.5s38.944-18.428,38.944-53.5C85.389,18.552,75.916,7.738,64.232,7.738Zm0,0" transform="translate(-6.325 -6.104)" fill="#7ae582"/>
    <path id="Path_152211" data-name="Path 152211" d="M255.508,7.738a18.712,18.712,0,0,0-3.451.32c10.046,1.878,17.713,11.833,17.713,23.833,0,28.587-25.881,46.117-35.446,51.618,2.108,1.243,3.4,1.878,3.4,1.878s38.944-18.428,38.944-53.5c0-13.34-9.472-24.153-21.157-24.153Zm0,0" transform="translate(-197.601 -6.103)" fill="#3bcd43"/>
    <path id="Path_152212" data-name="Path 152212" d="M168.374,148.11a20,20,0,1,1-20-20A20,20,0,0,1,168.374,148.11Zm0,0" transform="translate(-108.253 -107.61)" fill="#55b2f4"/>
    <path id="Path_152213" data-name="Path 152213" d="M237.448,128.108a20.122,20.122,0,0,0-3.448.3,20,20,0,0,1,0,39.409,20,20,0,1,0,3.448-39.706Zm0,0" transform="translate(-197.328 -107.61)" fill="#3c9aef"/>
    <path id="Path_152214" data-name="Path 152214" d="M220.439,128.391l-.063.026s-.771,5.778-3.852,7.7-5.392,5.007-3.659,8.473,5.585,2.119,9.147,1.637.867,10.5,2.985,13.191,8.088-2.7,7.51-6.162c-.855-5.132-1.155-6.932,5.778-10.591h.021a20.013,20.013,0,0,0-17.867-14.277Zm0,0" transform="translate(-179.004 -107.848)" fill="#a1ffa8"/>
    <path id="Path_152215" data-name="Path 152215" d="M135.086,228c-.925-1.407,1.637-4.718,2.214-7.221s-2.888-2.311-3.947-3.177-2.5-4.622-3.563-5.489c0,0-.144.154-.376.448a20.025,20.025,0,0,0,6.684,22.18c.275-.051.432-.1.432-.1A9.189,9.189,0,0,0,135.086,228Zm0,0" transform="translate(-108.253 -178.45)" fill="#a1ffa8"/>
    <path id="Path_152216" data-name="Path 152216" d="M274.2,148.135c.469-1.868,2.062-3.36,6.057-5.468h.021a20.018,20.018,0,0,0-17.867-14.277c-.041.016-.063.026-.063.026s-.084.624-.3,1.528a20,20,0,0,1,12.156,18.19Zm0,0" transform="translate(-220.979 -107.848)" fill="#a1ffa8" style="mix-blend-mode: multiply;isolation: isolate"/>
    <path id="Path_152217" data-name="Path 152217" d="M322.623,272.316c-.173-1.035-.323-1.935-.395-2.742a19.88,19.88,0,0,1-3.1,8.706C321.14,276.911,322.953,274.3,322.623,272.316Zm0,0" transform="translate(-269.119 -226.905)" fill="#96d629"/>
    <path id="Path_152218" data-name="Path 152218" d="M57.907.5C50.858.5,44.333,4.206,40.12,10.507,35.906,4.206,29.381.5,22.332.5,10.018.5,0,11.863,0,25.829A48.127,48.127,0,0,0,6.231,49.247,69.4,69.4,0,0,0,19.846,66.318,90.991,90.991,0,0,0,39.6,80.379a1.175,1.175,0,0,0,1.022.007,69.935,69.935,0,0,0,6.866-3.909,1.176,1.176,0,0,0-1.26-1.984c-2.9,1.844-5.139,3.027-6.1,3.514A92,92,0,0,1,21.4,64.556,66.993,66.993,0,0,1,8.273,48.082,45.8,45.8,0,0,1,2.351,25.829c0-12.67,8.963-22.978,19.981-22.978,6.788,0,13.055,3.916,16.765,10.475a1.191,1.191,0,0,0,2.046,0C44.852,6.767,51.119,2.851,57.907,2.851c11.018,0,19.981,10.308,19.981,22.978A47.683,47.683,0,0,1,69.3,52.765,74.126,74.126,0,0,1,52.263,70.31a1.176,1.176,0,0,0,1.416,1.876A76.444,76.444,0,0,0,71.247,54.077,49.994,49.994,0,0,0,80.24,25.829C80.24,11.863,70.221.5,57.907.5Zm0,0"/>
    <path id="Path_152219" data-name="Path 152219" d="M125.158,129.271a21.166,21.166,0,1,0,5.274-4.932,1.176,1.176,0,0,0,1.29,1.964,18.738,18.738,0,0,1,10.169-3.078c-.434,1.832-1.4,4.554-3.066,5.6-4.334,2.71-5.862,6.446-4.088,10,1.854,3.709,5.666,3.058,8.727,2.536.539-.092,1.1-.187,1.629-.26a.616.616,0,0,1,.073,0h.012c.026.02.31.269.476,1.576a34.535,34.535,0,0,1,.149,3.872c.012,2.993.023,5.821,1.194,7.31a3.013,3.013,0,0,0,2.452,1.181,4.829,4.829,0,0,0,1.934-.448c2.8-1.238,5.69-4.921,5.208-7.815-.4-2.38-.659-3.952-.116-5.18.479-1.083,1.7-2.15,3.986-3.467a18.819,18.819,0,0,1-29.036,19.463,10.513,10.513,0,0,0-1.676-7.117c-.167-.429.631-2.106,1.059-3.007a17.171,17.171,0,0,0,1.312-3.317c.646-2.8-1.99-3.578-3.257-3.952a5.054,5.054,0,0,1-1.091-.4,12.575,12.575,0,0,1-1.492-2.394,17.131,17.131,0,0,0-1.6-2.62,18.815,18.815,0,0,1,2.357-4.086,1.176,1.176,0,0,0-1.874-1.42Zm29.166,11.364c-.826,1.871-.5,3.819-.052,6.517.265,1.591-1.743,4.354-3.838,5.278-.769.34-1.3.328-1.589-.035-.671-.854-.683-3.751-.692-5.867-.013-3.213-.024-5.988-1.427-7.209a2.393,2.393,0,0,0-1.947-.554c-.573.077-1.151.176-1.71.271-3.584.612-5.256.676-6.229-1.269-.565-1.13-1.381-4.069,3.23-6.951,2.658-1.661,3.789-5.557,4.2-7.462A18.878,18.878,0,0,1,159.8,135.791C156.64,137.543,155.074,138.939,154.324,140.635Zm-30.112-2.119a11.149,11.149,0,0,0,2.07,3.094,5.365,5.365,0,0,0,1.914.834c1.781.526,1.735.728,1.633,1.169a15.612,15.612,0,0,1-1.144,2.836c-.947,1.992-1.841,3.873-.907,5.3a8.315,8.315,0,0,1,1.366,4,18.846,18.846,0,0,1-5.407-18.094C123.9,137.944,124.065,138.246,124.212,138.516Zm0,0" transform="translate(-101.928 -101.507)"/>
    <path id="Path_152220" data-name="Path 152220" d="M387.039,42.075c3.441,2.935,5.652,7.217,6.57,12.727a1.176,1.176,0,0,0,1.158.982,1.2,1.2,0,0,0,1.161-1.369c-1.273-7.639-4.768-11.952-7.476-14.224a15.4,15.4,0,0,0-5.8-3.182,1.176,1.176,0,0,0-.541,2.288,13.43,13.43,0,0,1,4.924,2.778Zm0,0" transform="translate(-321.503 -30.758)"/>
  </g>
</svg>
