<svg xmlns="http://www.w3.org/2000/svg" width="99.999" height="111.562" viewBox="0 0 99.999 111.562">
  <g id="t6-ic7" transform="translate(-26.532)">
    <g id="Group_97260" data-name="Group 97260" transform="translate(50.639 35.67)">
      <path id="Path_152398" data-name="Path 152398" d="M187.541,184.756h-4.977a1.435,1.435,0,0,1-1.362-1,18.913,18.913,0,0,0-1.176-2.831,1.436,1.436,0,0,1,.253-1.676l3.522-3.522a1.429,1.429,0,0,0,0-2.021l-4.832-4.832a1.429,1.429,0,0,0-2.021,0l-3.522,3.522a1.436,1.436,0,0,1-1.676.253,18.921,18.921,0,0,0-2.831-1.176,1.435,1.435,0,0,1-1-1.362v-4.977a1.429,1.429,0,0,0-1.429-1.429h-5.934q.1,1.058.1,2.143a21.944,21.944,0,0,1-21.944,21.944c-.519,0-1.033-.019-1.544-.055v5.285a1.429,1.429,0,0,0,1.429,1.429h4.977a1.435,1.435,0,0,1,1.362,1,18.922,18.922,0,0,0,1.176,2.831,1.436,1.436,0,0,1-.253,1.676l-3.522,3.522a1.429,1.429,0,0,0,0,2.021l4.832,4.832a1.429,1.429,0,0,0,2.021,0l3.522-3.522a1.436,1.436,0,0,1,1.675-.253,18.922,18.922,0,0,0,2.831,1.176,1.435,1.435,0,0,1,1,1.362v4.977a1.429,1.429,0,0,0,1.429,1.429h6.834a1.429,1.429,0,0,0,1.429-1.429V209.1a1.435,1.435,0,0,1,1-1.362,18.92,18.92,0,0,0,2.831-1.176,1.436,1.436,0,0,1,1.676.253l3.522,3.522a1.429,1.429,0,0,0,2.021,0L183.8,205.5a1.429,1.429,0,0,0,0-2.021l-3.522-3.522a1.436,1.436,0,0,1-.253-1.676,18.92,18.92,0,0,0,1.176-2.831,1.435,1.435,0,0,1,1.362-1h4.977a1.429,1.429,0,0,0,1.429-1.429v-6.834a1.428,1.428,0,0,0-1.429-1.429Z" transform="translate(-137.17 -163.702)" fill="#baafb9"/>
      <g id="Group_97256" data-name="Group 97256" transform="translate(0 21.032)">
        <g id="Group_97255" data-name="Group 97255">
          <path id="Path_152399" data-name="Path 152399" d="M149.305,265.094a20.656,20.656,0,0,1,.579-4.868,21.839,21.839,0,0,1-11.172,3.054c-.519,0-1.033-.019-1.544-.055v5.285a1.429,1.429,0,0,0,1.429,1.429h4.977a1.435,1.435,0,0,1,1.363,1,18.922,18.922,0,0,0,1.176,2.831,1.436,1.436,0,0,1-.253,1.676l-3.522,3.522a1.429,1.429,0,0,0,0,2.021l4.832,4.832a1.429,1.429,0,0,0,2.021,0l3.522-3.522a1.436,1.436,0,0,1,1.675-.253,18.919,18.919,0,0,0,2.831,1.176,1.435,1.435,0,0,1,1,1.362v4.977a1.429,1.429,0,0,0,1.429,1.429h6.834a1.429,1.429,0,0,0,1.429-1.429V285.6A20.606,20.606,0,0,1,149.305,265.094Z" transform="translate(-137.169 -260.226)" fill="#aa9ea9"/>
        </g>
      </g>
      <g id="Group_97257" data-name="Group 97257" transform="translate(14.098 14.098)">
        <circle id="Ellipse_4431" data-name="Ellipse 4431" cx="11.802" cy="11.802" r="11.802" fill="#e5e1e5"/>
      </g>
      <g id="Group_97258" data-name="Group 97258" transform="translate(20.59 20.59)">
        <circle id="Ellipse_4432" data-name="Ellipse 4432" cx="5.31" cy="5.31" r="5.31" fill="#baafb9"/>
      </g>
      <g id="Group_97259" data-name="Group 97259" transform="translate(20.59 20.59)">
        <path id="Path_152400" data-name="Path 152400" d="M236.153,263.508a5.309,5.309,0,0,1,3.066-4.812,5.31,5.31,0,1,0,0,9.624,5.309,5.309,0,0,1-3.066-4.812Z" transform="translate(-231.665 -258.198)" fill="#aa9ea9"/>
      </g>
    </g>
    <g id="Group_97261" data-name="Group 97261" transform="translate(28.166 13.197)">
      <path id="Path_152401" data-name="Path 152401" d="M82.39,157.3a48.373,48.373,0,0,0,1.218-96.73,1.188,1.188,0,0,0-1.217,1.186v7.786a1.183,1.183,0,0,0,1.149,1.182,38.221,38.221,0,1,1-39.352,39.352A1.183,1.183,0,0,0,43,108.923H35.219a1.188,1.188,0,0,0-1.186,1.217A48.373,48.373,0,0,0,82.39,157.3Z" transform="translate(-34.032 -60.565)" fill="#ffd152"/>
    </g>
    <g id="Group_97262" data-name="Group 97262" transform="translate(76.524 13.197)">
      <path id="Path_152402" data-name="Path 152402" d="M257.182,60.565a1.188,1.188,0,0,0-1.217,1.186v7.786a1.183,1.183,0,0,0,1.149,1.182,38.221,38.221,0,0,1-1.149,76.424v10.152a48.373,48.373,0,0,0,1.218-96.73Z" transform="translate(-255.964 -60.564)" fill="#7ae582"/>
    </g>
    <g id="Group_97263" data-name="Group 97263" transform="translate(76.524 13.197)">
      <path id="Path_152403" data-name="Path 152403" d="M257.183,60.565a1.188,1.188,0,0,0-1.217,1.186v7.786a1.183,1.183,0,0,0,1.149,1.182,38.221,38.221,0,0,1,37.072,38.2h10.152a48.373,48.373,0,0,0-47.155-48.358Z" transform="translate(-255.966 -60.564)" fill="#3c9aef"/>
    </g>
    <g id="Group_97265" data-name="Group 97265" transform="translate(28.166 61.555)">
      <g id="Group_97264" data-name="Group 97264" transform="translate(0)">
        <path id="Path_152404" data-name="Path 152404" d="M38.6,283.716a1.188,1.188,0,0,1,1.186-1.217H35.219a1.188,1.188,0,0,0-1.186,1.217A48.373,48.373,0,0,0,82.39,330.872c.767,0,1.528-.02,2.285-.055a48.374,48.374,0,0,1-46.074-47.1Z" transform="translate(-34.032 -282.499)" fill="#fb0"/>
      </g>
    </g>
    <g id="Group_97272" data-name="Group 97272" transform="translate(30.238 1.634)">
      <path id="Path_152405" data-name="Path 152405" d="M124.551,41.523v7.241a22.1,22.1,0,0,1,8.586,0V41.523Z" transform="translate(-106.9 -34.11)" fill="#baafb9"/>
      <path id="Path_152406" data-name="Path 152406" d="M124.551,41.523v7.241a22.043,22.043,0,0,1,4.293-.421l.163,0V41.523Z" transform="translate(-106.9 -34.11)" fill="#aa9ea9"/>
      <path id="Path_152407" data-name="Path 152407" d="M49.627,79.7a22.063,22.063,0,0,1,6.3-5.843l-3.218-3.218a2.179,2.179,0,0,0-3.081,0l-2.99,2.99a2.179,2.179,0,0,0,0,3.081Z" transform="translate(-45.464 -56.382)" fill="#baafb9"/>
      <path id="Path_152408" data-name="Path 152408" d="M49.628,85.67a22.071,22.071,0,0,1,3.284-3.612L48.958,78.1a2.175,2.175,0,0,1-.355-.47L46.638,79.6a2.179,2.179,0,0,0,0,3.081Z" transform="translate(-45.465 -62.352)" fill="#aa9ea9"/>
      <g id="Group_97266" data-name="Group 97266" transform="translate(12.828)">
        <path id="Path_152409" data-name="Path 152409" d="M120.648,8.685v5.044a1.185,1.185,0,0,1-1.185,1.185H103.6a1.185,1.185,0,0,1-1.185-1.185V8.685A1.185,1.185,0,0,1,103.6,7.5h15.862A1.185,1.185,0,0,1,120.648,8.685Z" transform="translate(-102.416 -7.5)" fill="#7ae582"/>
      </g>
      <g id="Group_97267" data-name="Group 97267" transform="translate(12.828)">
        <path id="Path_152410" data-name="Path 152410" d="M109.3,13.729V8.685A1.185,1.185,0,0,1,110.483,7.5H103.6a1.185,1.185,0,0,0-1.185,1.185v5.044a1.185,1.185,0,0,0,1.185,1.185h6.882A1.185,1.185,0,0,1,109.3,13.729Z" transform="translate(-102.416 -7.5)" fill="#3bcd43"/>
      </g>
      <g id="Group_97268" data-name="Group 97268" transform="translate(0 14.234)">
        <circle id="Ellipse_4433" data-name="Ellipse 4433" cx="21.944" cy="21.944" r="21.944" fill="#7ae582"/>
      </g>
      <g id="Group_97269" data-name="Group 97269" transform="translate(5.866 20.1)">
        <circle id="Ellipse_4434" data-name="Ellipse 4434" cx="16.078" cy="16.078" r="16.078" fill="#fff"/>
      </g>
      <g id="Group_97270" data-name="Group 97270" transform="translate(5.866 20.1)">
        <path id="Path_152411" data-name="Path 152411" d="M77.336,115.825a16.1,16.1,0,0,1,12.642-15.7,16.078,16.078,0,1,0,0,31.409A16.1,16.1,0,0,1,77.336,115.825Z" transform="translate(-70.465 -99.747)" fill="#fff3de"/>
      </g>
      <g id="Group_97271" data-name="Group 97271" transform="translate(19.105 33.339)">
        <circle id="Ellipse_4435" data-name="Ellipse 4435" cx="2.839" cy="2.839" r="2.839" fill="#3ca8f4"/>
      </g>
    </g>
    <g id="Group_97273" data-name="Group 97273" transform="translate(26.532 0)">
      <path id="Path_152412" data-name="Path 152412" d="M112.3,68.111A49.719,49.719,0,0,0,77.782,53.064a2.822,2.822,0,0,0-2.892,2.82V63.67a2.8,2.8,0,0,0,2.735,2.816,36.586,36.586,0,1,1-24.312,64.848,1.634,1.634,0,0,0-2.075,2.525,39.928,39.928,0,0,0,23.652,9.017v6.887A46.734,46.734,0,0,1,29.814,104.69H36.7a39.449,39.449,0,0,0,8.922,23.538,1.634,1.634,0,1,0,2.533-2.066,36.22,36.22,0,0,1-8.2-22.006,2.8,2.8,0,0,0-2.816-2.735H29.353a2.822,2.822,0,0,0-2.82,2.892,50.007,50.007,0,0,0,49.991,48.749h0A50.007,50.007,0,0,0,112.3,68.111Zm-7.2,7.159A39.629,39.629,0,0,0,78.158,63.234V56.345a46.734,46.734,0,0,1,45.073,45.076h-6.888A39.62,39.62,0,0,0,105.1,75.271Zm4.506,60.864a46.412,46.412,0,0,1-31.445,13.629v-6.888a39.876,39.876,0,0,0,38.185-38.185h6.888A46.411,46.411,0,0,1,109.6,136.135Z" transform="translate(-26.532 -41.501)"/>
      <path id="Path_152413" data-name="Path 152413" d="M56.443,61.175v3.811a3.066,3.066,0,0,0,3.063,3.063h4.826a20.632,20.632,0,0,0,1.174,2.827l-3.415,3.415a3.067,3.067,0,0,0,0,4.332l4.832,4.832a3.067,3.067,0,0,0,4.332,0l3.415-3.415A20.617,20.617,0,0,0,77.5,81.214V86.04A3.067,3.067,0,0,0,80.56,89.1h6.834a3.067,3.067,0,0,0,3.063-3.063V81.214a20.589,20.589,0,0,0,2.827-1.174L96.7,83.455a3.063,3.063,0,0,0,4.332,0l4.832-4.832a3.063,3.063,0,0,0,0-4.332l-3.415-3.415a20.624,20.624,0,0,0,1.174-2.827h4.826a3.066,3.066,0,0,0,3.063-3.063V58.152a3.067,3.067,0,0,0-3.063-3.063h-4.826a20.612,20.612,0,0,0-1.174-2.827l3.415-3.415a3.063,3.063,0,0,0,0-4.332l-4.832-4.832a3.066,3.066,0,0,0-4.332,0L93.284,43.1a20.643,20.643,0,0,0-2.827-1.174V37.1a3.066,3.066,0,0,0-3.063-3.063H82.9A23.649,23.649,0,0,0,65.548,14.989V10.682h2a2.822,2.822,0,0,0,2.819-2.819V2.819A2.822,2.822,0,0,0,67.552,0H51.69a2.822,2.822,0,0,0-2.819,2.819V7.863a2.822,2.822,0,0,0,2.819,2.819h2v4.307a23.423,23.423,0,0,0-5.28,2.083l-2.337-2.337a3.818,3.818,0,0,0-5.392,0l-2.99,2.99a3.818,3.818,0,0,0,0,5.392l2.04,2.04A23.568,23.568,0,0,0,56.443,61.175ZM83.2,37.812c0-.17,0-.339-.007-.508h4v4.771a3.063,3.063,0,0,0,2.135,2.918,17.363,17.363,0,0,1,2.587,1.074,3.063,3.063,0,0,0,3.578-.551l3.376-3.376,4.542,4.542-3.376,3.376a3.063,3.063,0,0,0-.551,3.578,17.352,17.352,0,0,1,1.075,2.586,3.063,3.063,0,0,0,2.918,2.135h4.771v6.423h-4.771a3.063,3.063,0,0,0-2.918,2.135A17.334,17.334,0,0,1,99.48,69.5a3.063,3.063,0,0,0,.551,3.578l3.376,3.376L98.865,81l-3.376-3.376a3.063,3.063,0,0,0-3.578-.551,17.342,17.342,0,0,1-2.587,1.075,3.063,3.063,0,0,0-2.135,2.918v4.772H80.766V81.064a3.063,3.063,0,0,0-2.135-2.918,17.361,17.361,0,0,1-2.587-1.075,3.063,3.063,0,0,0-3.578.551L69.09,81l-4.542-4.542,3.376-3.376a3.063,3.063,0,0,0,.551-3.578A17.355,17.355,0,0,1,67.4,66.916a3.063,3.063,0,0,0-2.918-2.135H59.712V61.389A23.431,23.431,0,0,0,70.9,58.515a13.435,13.435,0,0,0,25.623,7.876,1.634,1.634,0,1,0-3.051-1.174,10.167,10.167,0,1,1,.248-6.571,1.634,1.634,0,0,0,3.131-.938A13.441,13.441,0,0,0,80.6,48.563a23.436,23.436,0,0,0,2.6-10.751Zm-3.268,0A20.31,20.31,0,1,1,59.621,17.5,20.333,20.333,0,0,1,79.931,37.812ZM52.139,3.268H67.1V7.413H52.139Zm4.823,7.413H62.28v3.7a23.616,23.616,0,0,0-5.317,0ZM40.006,20.806a.545.545,0,0,1,0-.77L43,17.046a.546.546,0,0,1,.771,0l1.827,1.827A23.775,23.775,0,0,0,41.7,22.5Z" transform="translate(-33.971 0)"/>
      <path id="Path_152414" data-name="Path 152414" d="M231.11,250.7a6.944,6.944,0,1,0,6.944,6.944,6.952,6.952,0,0,0-6.944-6.944Zm0,10.619a3.675,3.675,0,1,1,3.675-3.675A3.68,3.68,0,0,1,231.11,261.317Z" transform="translate(-181.103 -196.072)"/>
      <path id="Path_152415" data-name="Path 152415" d="M62.965,109.959a17.712,17.712,0,0,0,35.03,3.712,1.634,1.634,0,0,0-3.2-.684,14.447,14.447,0,1,1-.2-6.851,1.634,1.634,0,0,0,3.151-.867,17.711,17.711,0,0,0-34.789,4.69Z" transform="translate(-55.026 -72.147)"/>
      <path id="Path_152416" data-name="Path 152416" d="M128.2,115.179a1.634,1.634,0,0,0-1.634,1.634v6.921a4.473,4.473,0,1,0,3.268,0v-6.921A1.634,1.634,0,0,0,128.2,115.179Zm0,13.92a1.2,1.2,0,1,1,1.2-1.2A1.206,1.206,0,0,1,128.2,129.1Z" transform="translate(-102.546 -90.082)"/>
    </g>
  </g>
</svg>
