<svg xmlns="http://www.w3.org/2000/svg" width="100" height="89.577" viewBox="0 0 100 89.577">
  <g id="t6-ic5" transform="translate(-7278 9497.354)">
    <path id="Path_152366" data-name="Path 152366" d="M7333.631-9481.267v55.354l-1.473,3.577-3.157.843-46.093-.843-3.157-2.525v-67.772l3.157-3.367h36.833Z" transform="translate(-0.277 -0.214)" fill="#f3f9ff"/>
    <path id="Path_152367" data-name="Path 152367" d="M7342.536-9480.5h28.835l13.891,13.892v56.406l-3.578,4h-46.935l-4-4v-8.84h8.629l3.157-4.841Z" transform="translate(-8.34 -2.665)" fill="#f3f9ff"/>
    <path id="Path_152368" data-name="Path 152368" d="M7328.473-9494.5l12,12.418-1.684,1.684h-10.313l-1.473-2.736V-9494.5Z" transform="translate(-7.747 -0.451)" fill="#d2e1f1"/>
    <path id="Path_152369" data-name="Path 152369" d="M7379.25-9479.5l12.628,12.418-2.1,1.263H7379.25Z" transform="translate(-16.009 -2.823)" fill="#d2e1f1"/>
    <path id="Path_152370" data-name="Path 152370" d="M7330.75-9442.673v7.577h18.311v6.945l14.522-10.734-14.522-11.365v7.577Z" transform="translate(-8.34 -7.448)" fill="#ffd152"/>
    <path id="Path_152371" data-name="Path 152371" d="M7337.781-9457.173v7.156h-17.89v7.156L7306-9453.595l13.891-11.155v7.577Z" transform="translate(-4.427 -5.155)" fill="#7ae582"/>
    <rect id="Rectangle_33289" data-name="Rectangle 33289" width="5.893" height="9.261" transform="translate(7327.671 -9463.381)" fill="#3bcd43"/>
    <rect id="Rectangle_33290" data-name="Rectangle 33290" width="5.893" height="9.261" transform="translate(7321.778 -9450.752)" fill="#fb0"/>
    <g id="transferencia-de-datos" transform="translate(7278 -9497.354)">
      <path id="Path_152359" data-name="Path 152359" d="M104.169,38.206C88.538,22.091,91.422,24.087,89.436,23.394h-30.4L47.477,11.257A1.543,1.543,0,0,0,46.41,10.8H10.293A5.689,5.689,0,0,0,4.61,16.483V82.1a5.69,5.69,0,0,0,5.683,5.683H47.639v6.912a5.689,5.689,0,0,0,5.683,5.683H98.927a5.689,5.689,0,0,0,5.683-5.683V39.256a1.544,1.544,0,0,0-.44-1.05ZM90.912,28.555,99.7,37.783H90.912ZM67.053,64.083H50.586V59.689H67.053a1.473,1.473,0,0,0,1.473-1.473V53.554L79.3,61.877,68.526,70.206v-4.65A1.473,1.473,0,0,0,67.053,64.083ZM42.169,47.09H58.634v4.4H42.169A1.472,1.472,0,0,0,40.7,52.966v4.651L29.92,49.287,40.7,40.963v4.653a1.472,1.472,0,0,0,1.473,1.473Zm14.5-21.9H47.883v-9.23ZM7.557,82.1V16.483a2.74,2.74,0,0,1,2.736-2.736H44.937V26.661a1.473,1.473,0,0,0,1.473,1.473H58.634V44.143H43.643V37.964A1.483,1.483,0,0,0,41.268,36.8L26.611,48.121a1.482,1.482,0,0,0,0,2.331L41.268,61.784a1.466,1.466,0,0,0,.9.309,1.483,1.483,0,0,0,1.473-1.473v-6.18H58.634v2.3H49.112a1.473,1.473,0,0,0-1.473,1.473v7.341a1.473,1.473,0,0,0,1.473,1.473h9.522V82.1A2.74,2.74,0,0,1,55.9,84.836H10.293A2.74,2.74,0,0,1,7.557,82.1Zm94.107,12.595a2.74,2.74,0,0,1-2.736,2.736H53.322a2.74,2.74,0,0,1-2.736-2.736V87.782H55.9A5.689,5.689,0,0,0,61.581,82.1V67.03h4v6.179a1.473,1.473,0,0,0,.824,1.323,1.527,1.527,0,0,0,1.551-.157L82.611,63.043a1.483,1.483,0,0,0,0-2.331L67.954,49.388a1.473,1.473,0,0,0-2.374,1.166v6.188h-4c0-2.4.005-8.653,0-11.126-.008-.026,0-18.927,0-18.956a2.89,2.89,0,0,0-.035-.319H87.963V39.256a1.473,1.473,0,0,0,1.476,1.473h12.224Z" transform="translate(-4.61 -10.8)"/>
      <path id="Path_152360" data-name="Path 152360" d="M92.607,57.747a1.473,1.473,0,0,0,1.473,1.473H107.9a1.473,1.473,0,0,0,0-2.947H94.08A1.474,1.474,0,0,0,92.607,57.747Z" transform="translate(-18.523 -17.99)"/>
      <path id="Path_152361" data-name="Path 152361" d="M109.2,69.729h-6.909a1.473,1.473,0,1,0,0,2.947H109.2a1.473,1.473,0,1,0,0-2.947Z" transform="translate(-19.821 -20.117)"/>
      <path id="Path_152362" data-name="Path 152362" d="M107.9,83.185H94.08a1.473,1.473,0,1,0,0,2.947H107.9a1.473,1.473,0,0,0,0-2.947Z" transform="translate(-18.523 -22.245)"/>
      <path id="Path_152363" data-name="Path 152363" d="M16.95,44.262h13.82a1.473,1.473,0,1,0,0-2.947H16.95a1.473,1.473,0,0,0,0,2.947Z" transform="translate(-6.328 -15.625)"/>
      <path id="Path_152364" data-name="Path 152364" d="M16.95,57.717h6.91a1.473,1.473,0,1,0,0-2.947H16.95a1.473,1.473,0,0,0,0,2.947Z" transform="translate(-6.328 -17.752)"/>
      <path id="Path_152365" data-name="Path 152365" d="M30.771,68.226H16.95a1.473,1.473,0,1,0,0,2.947h13.82a1.473,1.473,0,0,0,0-2.947Z" transform="translate(-6.328 -19.88)"/>
    </g>
  </g>
</svg>
