<svg id="t6-ic1" xmlns="http://www.w3.org/2000/svg" width="99.5" height="99.5" viewBox="0 0 99.5 99.5">
  <g id="_050---Plan-Manager-" data-name="050---Plan-Manager-" transform="translate(0 0)">
    <g id="Icons" transform="translate(1.658 1.658)">
      <path id="Shape" d="M96.183,17.633V69.042a6.228,6.228,0,0,1-.5,2.488,6.6,6.6,0,0,1-6.136,4.146H11.608V87.283H6.633C2.968,87.283,0,85.973,0,82.308V29.242a6.633,6.633,0,0,1,6.633-6.633H87.892V11H89.55A6.633,6.633,0,0,1,96.183,17.633Z" transform="translate(0 7.242)" fill="#e8e8e8"/>
      <path id="Shape-2" data-name="Shape" d="M11.608,50V63.267H6.633A6.6,6.6,0,0,1,.5,59.121a6.047,6.047,0,0,1-.464-1.808C.017,57.081,0,56.866,0,56.633A6.633,6.633,0,0,1,6.633,50Z" transform="translate(0 32.917)" fill="#afafaf"/>
      <path id="Shape-3" data-name="Shape" d="M11.411,53v8.292H6.436A6.6,6.6,0,0,1,.3,57.146a1.136,1.136,0,0,1,.05-.133A6.6,6.6,0,0,1,6.436,53Z" transform="translate(0.198 34.892)" fill="#e8e8e8"/>
      <path id="Shape-4" data-name="Shape" d="M61.95,19.633V67.725a6.228,6.228,0,0,1-.5,2.487,6.6,6.6,0,0,0-6.136-4.146H53.658A1.658,1.658,0,0,1,52,64.408V13h3.317A6.633,6.633,0,0,1,61.95,19.633Z" transform="translate(34.233 8.558)" fill="#afafaf"/>
      <path id="Shape-5" data-name="Shape" d="M61.95,16.633V69.7a6.62,6.62,0,0,0-4.975-6.418,6.062,6.062,0,0,0-1.658-.216H52V10h3.317A6.633,6.633,0,0,1,61.95,16.633Z" transform="translate(34.233 6.583)" fill="#afafaf"/>
      <path id="Shape-6" data-name="Shape" d="M56.975,16.548V63.2a6.062,6.062,0,0,0-1.658-.216H52V10.13A6.62,6.62,0,0,1,56.975,16.548Z" transform="translate(34.233 6.669)" fill="#e8e8e8"/>
      <path id="Shape-7" data-name="Shape" d="M49.887,20.159V24.52a4.868,4.868,0,0,1-1.443,3.449,5.06,5.06,0,0,0-1.393,2.62A19.773,19.773,0,0,1,43.5,38.119a1.352,1.352,0,0,0-.249.763v7.065a1.01,1.01,0,0,0,.133.531l-8.424,3.665L32.524,49.08l-5.987-2.6a1.01,1.01,0,0,0,.133-.531V38.882a1.352,1.352,0,0,0-.249-.763,19.772,19.772,0,0,1-3.549-7.529,5.06,5.06,0,0,0-1.393-2.62,4.868,4.868,0,0,1-1.443-3.449V20.159A4.775,4.775,0,0,1,20.1,18l.249-.547c.315-.614,1.227-1.973,1.327-2.139H21.7V12H48.228v3.317h.017c.1.166,1.012,1.526,1.327,2.139L49.82,18A4.775,4.775,0,0,1,49.887,20.159Z" transform="translate(13.13 7.9)" fill="#fec093"/>
      <path id="Shape-8" data-name="Shape" d="M45.011,20.159V24.52a4.868,4.868,0,0,1-1.443,3.449,5.06,5.06,0,0,0-1.393,2.62,19.772,19.772,0,0,1-3.549,7.529,1.352,1.352,0,0,0-.249.763v7.065a1.01,1.01,0,0,0,.133.531l-5.987,2.6-5.987-2.6a1.01,1.01,0,0,0,.133-.531V38.882a1.352,1.352,0,0,0-.249-.763,19.772,19.772,0,0,1-3.549-7.529,5.06,5.06,0,0,0-1.393-2.62,4.868,4.868,0,0,1-1.443-3.449V20.159A4.775,4.775,0,0,1,20.1,18l.249-.547c.315-.614,1.227-1.973,1.327-2.139H21.7V12H43.353v3.317h.017c.1.166,1.012,1.526,1.327,2.139l.249.547A4.775,4.775,0,0,1,45.011,20.159Z" transform="translate(13.13 7.9)" fill="#fec9a3"/>
      <path id="Shape-9" data-name="Shape" d="M49.853,15.323v6.235H20V15.323A11.618,11.618,0,0,1,31.2,3.317h.415V1.244A1.2,1.2,0,0,1,32.44.05.842.842,0,0,1,32.722,0h4.411a1.187,1.187,0,0,1,1.111,1.244V3.317h.415A11.618,11.618,0,0,1,49.853,15.323Z" transform="translate(13.164)" fill="#fb0"/>
      <path id="Shape-10" data-name="Shape" d="M44.878,15.3v6.235H20V15.3A11.618,11.618,0,0,1,31.2,3.3h.415V1.224A1.2,1.2,0,0,1,32.44.03a1.2,1.2,0,0,1,.829,1.194V3.3h.415A11.618,11.618,0,0,1,44.878,15.3Z" transform="translate(13.164 0.02)" fill="#ffd152"/>
      <path id="Shape-11" data-name="Shape" d="M55.569,33.23l8.458,5.376a8.97,8.97,0,0,1,4.356,7.688v6.459H12V46.286A8.97,8.97,0,0,1,16.356,38.6l8.458-5.376Z" transform="translate(7.9 21.871)" fill="#29b39d"/>
      <rect id="Rectangle-path" width="40" height="7" rx="2" transform="translate(28.342 16.342)" fill="#fb0"/>
      <rect id="Rectangle-path-2" data-name="Rectangle-path" width="35" height="7" rx="2" transform="translate(28.342 16.342)" fill="#ffd152"/>
      <path id="Shape-12" data-name="Shape" d="M25.438,30.724l9.666,4.3-4.743,5.693a2.564,2.564,0,0,1-3.637.305l-7-6,2.62-3.492A2.564,2.564,0,0,1,25.438,30.724Z" transform="translate(12.987 20.081)" fill="#fff"/>
      <path id="Shape-13" data-name="Shape" d="M38.666,30.724,29,35.02l4.743,5.693a2.564,2.564,0,0,0,3.637.305l7-6-2.62-3.492A2.564,2.564,0,0,0,38.666,30.724Z" transform="translate(19.092 20.081)" fill="#fff"/>
      <path id="Shape-14" data-name="Shape" d="M35.857,39.084l-.017.017-3.234,3.7H29.29l-3.234-3.7-.017-.017a.779.779,0,0,0,.166-.166l4.743-5.688,4.743,5.688A.778.778,0,0,0,35.857,39.084Z" transform="translate(17.143 21.876)" fill="#fb0"/>
      <path id="Shape-15" data-name="Shape" d="M37.942,48.652v.3H25.14v-.3L29.883,39H33.2Z" transform="translate(16.551 25.675)" fill="#fb0"/>
    </g>
    <g id="Outline">
      <path id="Shape-16" data-name="Shape" d="M8.292,92.917h4.975a1.658,1.658,0,0,0,1.658-1.658V79.65H91.208A8.3,8.3,0,0,0,99.5,71.358V18.292A8.3,8.3,0,0,0,91.208,10H87.892a1.658,1.658,0,0,0-1.658,1.658V23.267H72.967a1.658,1.658,0,1,0,0,3.317H86.233V64.725a1.658,1.658,0,0,0,1.658,1.658h3.317a4.975,4.975,0,1,1,0,9.95H8.292a8.206,8.206,0,0,0-4.975,1.7V31.558a4.975,4.975,0,0,1,4.975-4.975H26.533a1.658,1.658,0,1,0,0-3.317H8.292A8.3,8.3,0,0,0,0,31.558V84.625A8.3,8.3,0,0,0,8.292,92.917Zm82.917-29.85H89.55V13.317h1.658a4.975,4.975,0,0,1,4.975,4.975V64.768A8.206,8.206,0,0,0,91.208,63.067ZM8.292,79.65h3.317V89.6H8.292a4.975,4.975,0,0,1,0-9.95Z" transform="translate(0 6.583)"/>
      <path id="Shape-17" data-name="Shape" d="M63.408,21.558a4.975,4.975,0,0,0-4.975-4.975h-.018a13.358,13.358,0,0,0-11.59-13.2V2.9A2.839,2.839,0,0,0,44.061,0H39.639a2.839,2.839,0,0,0-2.764,2.9v.481a13.358,13.358,0,0,0-11.59,13.2h-.018a4.975,4.975,0,1,0,0,9.95h.371l-.129.285a5.517,5.517,0,0,0-.242,3.031v4.229a6.5,6.5,0,0,0,1.927,4.62,3.425,3.425,0,0,1,.942,1.781A21.274,21.274,0,0,0,31.9,48.558v2.108a4.186,4.186,0,0,0-4.134,1.607l-2.619,3.494a1.438,1.438,0,0,0-.108.222l-7.88,4.726A10.7,10.7,0,0,0,12,69.824v6.459a1.658,1.658,0,0,0,1.658,1.658H70.042A1.658,1.658,0,0,0,71.7,76.283V69.816A10.7,10.7,0,0,0,66.539,60.7L58.661,55.98a1.438,1.438,0,0,0-.108-.222l-2.619-3.494a4.194,4.194,0,0,0-4.134-1.6V48.558a21.328,21.328,0,0,0,3.766-8.084A3.412,3.412,0,0,1,56.5,38.7a6.5,6.5,0,0,0,1.929-4.622V29.85a5.519,5.519,0,0,0-.216-2.985l-.156-.332h.371A4.975,4.975,0,0,0,63.408,21.558ZM36.875,6.731v4.877a1.658,1.658,0,0,0,3.317,0V3.317h3.317v8.292a1.658,1.658,0,1,0,3.317,0V6.731A10.066,10.066,0,0,1,55.1,16.583H28.6A10.066,10.066,0,0,1,36.875,6.731ZM23.608,21.558A1.658,1.658,0,0,1,25.267,19.9H58.433a1.658,1.658,0,1,1,0,3.317H25.267A1.658,1.658,0,0,1,23.608,21.558Zm6.809,32.706a.9.9,0,0,1,1.093-.284l7.661,3.4-3.34,4.007a.9.9,0,0,1-.619.322.94.94,0,0,1-.663-.214l-5.817-4.987ZM41.85,59.352l2.711,3.255-1.806,2.068H40.945l-1.806-2.068Zm-.625,8.64h1.25l3.265,6.633H37.96ZM15.317,69.824a7.267,7.267,0,0,1,3.552-6.267l7.64-4.584L32.4,64.012a4.2,4.2,0,0,0,2.74,1.015,2.928,2.928,0,0,0,.362-.015,4.207,4.207,0,0,0,1.114-.267l1.61,1.841-3.96,8.04H15.317Zm41.875-10.85,7.638,4.582a7.268,7.268,0,0,1,3.554,6.269v4.8H49.437l-3.953-8.033,1.61-1.841a4.207,4.207,0,0,0,1.114.267c.121.01.24.015.362.015A4.191,4.191,0,0,0,51.3,64.012Zm-3.909-4.711,1.685,2.25L49.147,61.5a.947.947,0,0,1-.663.216.9.9,0,0,1-.619-.322l-3.337-4.013,7.662-3.4A.9.9,0,0,1,53.283,54.262Zm1.668-26.568.242.521a4.146,4.146,0,0,1-.048,1.2,1.542,1.542,0,0,0-.028.3v4.361a3.209,3.209,0,0,1-.959,2.279,6.76,6.76,0,0,0-1.842,3.459,18.333,18.333,0,0,1-3.284,6.91,2.974,2.974,0,0,0-.549,1.713V52L41.85,54.946,35.217,52V48.44a3,3,0,0,0-.565-1.738,18.256,18.256,0,0,1-3.265-6.879,6.77,6.77,0,0,0-1.846-3.468,3.207,3.207,0,0,1-.957-2.277V29.717a1.549,1.549,0,0,0-.027-.29A4.512,4.512,0,0,1,28.5,28.25l.217-.479c.141-.277.474-.806.753-1.237H54.231C54.506,26.96,54.831,27.474,54.951,27.694Z" transform="translate(7.9 0)"/>
    </g>
  </g>
</svg>
