<svg xmlns="http://www.w3.org/2000/svg" width="105" height="99.515" viewBox="0 0 105 99.515">
  <g id="t6-ic4" transform="translate(0 -13.371)">
    <g id="Group_97238" data-name="Group 97238" transform="translate(1.54 14.911)">
      <path id="Path_152342" data-name="Path 152342" d="M241.622,20.882H206.635a3,3,0,0,1,2.817,1.959l1.787,5.533a4.078,4.078,0,0,0,3.823,2.658H241.35a3,3,0,0,1,3,3V23.615A2.741,2.741,0,0,0,241.622,20.882Z" transform="translate(-165.799 -20.882)" fill="#fb0"/>
      <g id="Group_97234" data-name="Group 97234" transform="translate(40.836)" style="mix-blend-mode: multiply;isolation: isolate">
        <path id="Path_152343" data-name="Path 152343" d="M221.845,28.374l-1.787-5.533a3,3,0,0,0-2.817-1.959H206.635a3,3,0,0,1,2.817,1.959l1.787,5.533a4.079,4.079,0,0,0,3.823,2.658h10.607A4.079,4.079,0,0,1,221.845,28.374Z" transform="translate(-206.635 -20.882)" fill="#fb0"/>
      </g>
      <path id="Path_152344" data-name="Path 152344" d="M173.636,30.311H148.069a4.078,4.078,0,0,1-3.823-2.658l-1.787-4.812a3,3,0,0,0-2.817-1.959H124.457a3,3,0,0,0-3,3V62.029a3,3,0,0,0,3,3h49.18a3,3,0,0,0,3-3V33.316A3,3,0,0,0,173.636,30.311Z" transform="translate(-98.085 -20.882)" fill="#ffd152"/>
      <path id="Path_152345" data-name="Path 152345" d="M131.069,62.03V23.888a3,3,0,0,1,3-3h-9.617a3,3,0,0,0-3,3V62.03a3,3,0,0,0,3,3h9.617A3,3,0,0,1,131.069,62.03Z" transform="translate(-98.085 -20.883)" fill="#fb0"/>
      <path id="Path_152346" data-name="Path 152346" d="M36.007,363.939H14.927a1.671,1.671,0,0,0-1.666,1.665v4.559a1.882,1.882,0,0,1,.711-.14h6.2a1.891,1.891,0,0,1,1.773,1.233l.708,1.907a1.891,1.891,0,0,0,1.773,1.233H35.782a1.891,1.891,0,0,1,1.891,1.891V365.6A1.671,1.671,0,0,0,36.007,363.939Z" transform="translate(-12.081 -293.586)" fill="#fb0"/>
      <g id="Group_97235" data-name="Group 97235" transform="translate(1.18 70.353)">
        <path id="Path_152347" data-name="Path 152347" d="M20.371,365.6a1.671,1.671,0,0,1,1.666-1.666h-7.11a1.671,1.671,0,0,0-1.666,1.666v4.559a1.882,1.882,0,0,1,.711-.14h6.2a1.878,1.878,0,0,1,.2.016Z" transform="translate(-13.261 -363.939)" fill="#ff8900"/>
      </g>
      <path id="Path_152348" data-name="Path 152348" d="M31.208,395.682H19.85a1.891,1.891,0,0,1-1.773-1.233l-.708-1.907A1.891,1.891,0,0,0,15.6,391.31H9.4A1.891,1.891,0,0,0,7.508,393.2v16.691A1.891,1.891,0,0,0,9.4,411.783H31.208a1.891,1.891,0,0,0,1.891-1.891V397.573a1.891,1.891,0,0,0-1.891-1.891Z" transform="translate(-7.508 -315.344)" fill="#ffd152"/>
      <path id="Path_152349" data-name="Path 152349" d="M14.618,409.892V393.2a1.89,1.89,0,0,1,1.428-1.832,1.882,1.882,0,0,0-.449-.06H9.4A1.891,1.891,0,0,0,7.508,393.2v16.691A1.891,1.891,0,0,0,9.4,411.783h7.11a1.891,1.891,0,0,1-1.891-1.891Z" transform="translate(-7.508 -315.344)" fill="#fb0"/>
      <path id="Path_152350" data-name="Path 152350" d="M222.113,363.939h-21.08a1.671,1.671,0,0,0-1.666,1.665v4.559a1.882,1.882,0,0,1,.711-.14h6.2a1.891,1.891,0,0,1,1.773,1.233l.708,1.907a1.891,1.891,0,0,0,1.773,1.233h11.358a1.891,1.891,0,0,1,1.891,1.891V365.6A1.671,1.671,0,0,0,222.113,363.939Z" transform="translate(-160.021 -293.586)" fill="#fb0"/>
      <g id="Group_97236" data-name="Group 97236" transform="translate(39.346 70.353)">
        <path id="Path_152351" data-name="Path 152351" d="M206.478,365.6a1.671,1.671,0,0,1,1.666-1.666h-7.11a1.671,1.671,0,0,0-1.666,1.666v4.559a1.882,1.882,0,0,1,.711-.14h6.2a1.878,1.878,0,0,1,.2.016Z" transform="translate(-199.368 -363.939)" fill="#ff8900"/>
      </g>
      <path id="Path_152352" data-name="Path 152352" d="M217.314,395.682H205.957a1.891,1.891,0,0,1-1.773-1.233l-.708-1.907a1.891,1.891,0,0,0-1.773-1.233h-6.2a1.891,1.891,0,0,0-1.891,1.891v16.691a1.891,1.891,0,0,0,1.891,1.891h21.809a1.891,1.891,0,0,0,1.891-1.891V397.573A1.891,1.891,0,0,0,217.314,395.682Z" transform="translate(-155.448 -315.344)" fill="#ffd152"/>
      <path id="Path_152353" data-name="Path 152353" d="M200.725,409.892V393.2a1.89,1.89,0,0,1,1.428-1.832,1.882,1.882,0,0,0-.449-.06h-6.2a1.891,1.891,0,0,0-1.891,1.891v16.691a1.891,1.891,0,0,0,1.891,1.891h7.11a1.891,1.891,0,0,1-1.891-1.891Z" transform="translate(-155.449 -315.344)" fill="#fb0"/>
      <path id="Path_152354" data-name="Path 152354" d="M408.22,363.939H387.14a1.671,1.671,0,0,0-1.666,1.665v4.559a1.882,1.882,0,0,1,.711-.14h6.2a1.891,1.891,0,0,1,1.773,1.233l.708,1.907a1.891,1.891,0,0,0,1.773,1.233h11.358a1.891,1.891,0,0,1,1.891,1.891V365.6A1.671,1.671,0,0,0,408.22,363.939Z" transform="translate(-307.963 -293.586)" fill="#fb0"/>
      <g id="Group_97237" data-name="Group 97237" transform="translate(77.512 70.353)">
        <path id="Path_152355" data-name="Path 152355" d="M392.584,365.6a1.671,1.671,0,0,1,1.666-1.666h-7.11a1.671,1.671,0,0,0-1.666,1.666v4.559a1.882,1.882,0,0,1,.711-.14h6.2a1.878,1.878,0,0,1,.2.016Z" transform="translate(-385.474 -363.939)" fill="#ff8900"/>
      </g>
      <path id="Path_152356" data-name="Path 152356" d="M403.421,395.682H392.063a1.891,1.891,0,0,1-1.773-1.233l-.708-1.907a1.891,1.891,0,0,0-1.773-1.233h-6.2a1.891,1.891,0,0,0-1.891,1.891v16.691a1.891,1.891,0,0,0,1.891,1.891h21.809a1.891,1.891,0,0,0,1.891-1.891V397.573A1.891,1.891,0,0,0,403.421,395.682Z" transform="translate(-303.389 -315.344)" fill="#ffd152"/>
      <path id="Path_152357" data-name="Path 152357" d="M386.831,409.892V393.2a1.89,1.89,0,0,1,1.428-1.832,1.881,1.881,0,0,0-.449-.06h-6.2a1.891,1.891,0,0,0-1.891,1.891v16.691a1.891,1.891,0,0,0,1.891,1.891h7.11a1.891,1.891,0,0,1-1.891-1.891Z" transform="translate(-303.389 -315.344)" fill="#fb0"/>
    </g>
    <path id="Path_152358" data-name="Path 152358" d="M101.8,83.724H93.03V74.794a4.176,4.176,0,0,0-4.171-4.171H54.038V60.6H77.089a4.548,4.548,0,0,0,4.543-4.543V46.016a1.538,1.538,0,1,0-3.076,0v10.04a1.468,1.468,0,0,1-1.467,1.467H27.91a1.468,1.468,0,0,1-1.467-1.467V17.914a1.468,1.468,0,0,1,1.467-1.467H43.1a1.472,1.472,0,0,1,1.375.956l1.787,4.812a5.64,5.64,0,0,0,5.265,3.661H77.089a1.468,1.468,0,0,1,1.467,1.467v11.5a1.538,1.538,0,1,0,3.076,0v-21.2a4.276,4.276,0,0,0-4.271-4.271H27.91a4.548,4.548,0,0,0-4.543,4.543V56.056A4.548,4.548,0,0,0,27.91,60.6H50.962V70.623H17.32a4.176,4.176,0,0,0-4.171,4.171v8.929H4.383a3.207,3.207,0,0,0-3.2,3.2v3.257A3.42,3.42,0,0,0,0,92.766v16.691a3.433,3.433,0,0,0,3.429,3.429H25.238a3.433,3.433,0,0,0,3.429-3.429V86.927a3.207,3.207,0,0,0-3.2-3.2H16.225V74.795a1.1,1.1,0,0,1,1.1-1.1H50.962V83.724H42.549a3.207,3.207,0,0,0-3.2,3.2v3.257a3.419,3.419,0,0,0-1.18,2.582v16.691a3.433,3.433,0,0,0,3.429,3.429h7.316a1.538,1.538,0,1,0,0-3.076H41.595a.353.353,0,0,1-.353-.353V92.766a.354.354,0,0,1,.353-.353h6.2a.354.354,0,0,1,.331.23l.708,1.907a3.444,3.444,0,0,0,3.215,2.236H63.4a.353.353,0,0,1,.353.353v12.319a.353.353,0,0,1-.353.353H56.088a1.538,1.538,0,0,0,0,3.076H63.4a3.433,3.433,0,0,0,3.429-3.429V86.927a3.207,3.207,0,0,0-3.2-3.2H54.038V73.7H88.859a1.1,1.1,0,0,1,1.1,1.1v8.929H80.715a3.207,3.207,0,0,0-3.2,3.2v3.257a3.419,3.419,0,0,0-1.18,2.582v16.691a3.433,3.433,0,0,0,3.429,3.429H101.57A3.433,3.433,0,0,0,105,109.457V86.928a3.208,3.208,0,0,0-3.2-3.2ZM77.361,16.447a1.2,1.2,0,0,1,1.195,1.2v5.4a4.626,4.626,0,0,0-1.467-.243H51.522a2.551,2.551,0,0,1-2.381-1.656l-1.744-4.7Zm-51.77,93.01a.354.354,0,0,1-.353.353H3.429a.354.354,0,0,1-.353-.353V92.766a.353.353,0,0,1,.215-.324l.007,0a.348.348,0,0,1,.132-.026h6.2a.355.355,0,0,1,.331.23l.708,1.907a3.443,3.443,0,0,0,3.215,2.235H25.238a.354.354,0,0,1,.353.353v12.319ZM25.464,86.8a.133.133,0,0,1,.128.128v6.8h0a3.43,3.43,0,0,0-.351-.018H13.881a.355.355,0,0,1-.331-.23l-.708-1.907a3.443,3.443,0,0,0-3.215-2.235H4.256v-2.41a.133.133,0,0,1,.128-.128h21.08Zm38.166,0a.133.133,0,0,1,.128.128v6.8c-.013,0-.276-.018-.353-.018H52.046a.364.364,0,0,1-.331-.23l-.708-1.907a3.45,3.45,0,0,0-3.215-2.235H42.422v-2.41a.133.133,0,0,1,.128-.128H63.63Zm38.294,22.657a.354.354,0,0,1-.353.353H79.761a.354.354,0,0,1-.353-.353V92.766a.354.354,0,0,1,.353-.353h6.2a.355.355,0,0,1,.331.23L87,94.549a3.443,3.443,0,0,0,3.215,2.235H101.57a.354.354,0,0,1,.353.353v12.319Zm0-15.73a3.469,3.469,0,0,0-.353-.018H90.212a.355.355,0,0,1-.331-.23l-.708-1.907a3.443,3.443,0,0,0-3.215-2.235H80.588v-2.41a.133.133,0,0,1,.128-.128H101.8a.132.132,0,0,1,.127.128Z" transform="translate(0 0)"/>
  </g>
</svg>
