<svg xmlns="http://www.w3.org/2000/svg" width="98.347" height="98.348" viewBox="0 0 98.347 98.348">
  <g id="t6-ic8" transform="translate(-1 -1)">
    <path id="Path_152417" data-name="Path 152417" d="M90.83,21.518H22.621L16.276,12H2V91.313H84.485l12.69-50.76H90.83Z" transform="translate(0.586 6.449)" fill="#fb9a14"/>
    <path id="Path_152418" data-name="Path 152418" d="M2,80.76H84.485L97.175,30H14.69Z" transform="translate(0.586 17.001)" fill="#fb0"/>
    <path id="Path_152419" data-name="Path 152419" d="M79.14,64.9V30H14.1L3,74.415H69.623A9.518,9.518,0,0,0,79.14,64.9Z" transform="translate(1.173 17.001)" fill="#ffd152"/>
    <path id="Path_152420" data-name="Path 152420" d="M18,46.415V2H62.415l12.69,12.69V46.415" transform="translate(9.966 0.586)" fill="#e2e7f6"/>
    <path id="Path_152421" data-name="Path 152421" d="M70.346,41.429V9.931L62.415,2H18V41.429Z" transform="translate(9.966 0.586)" fill="#f2f2f2"/>
    <path id="Path_152422" data-name="Path 152422" d="M46,2V14.69H58.69" transform="translate(26.381 0.586)" fill="#7ae582"/>
    <circle id="Ellipse_4436" data-name="Ellipse 4436" cx="19" cy="19" r="19" transform="translate(34 53.348)" fill="#e2e7f6"/>
    <path id="Path_152423" data-name="Path 152423" d="M56.9,51.448a19,19,0,0,0-9-16.151A19.016,19.016,0,0,0,31,69.187,19,19,0,0,0,56.9,51.448Z" transform="translate(12.309 19.347)" fill="#f2f2f2"/>
    <path id="Path_152424" data-name="Path 152424" d="M22,10H37.863V25.863H22Z" transform="translate(12.311 5.276)" fill="#3bcd43"/>
    <path id="Path_152425" data-name="Path 152425" d="M22,10H34.69V22.69H22Z" transform="translate(12.311 5.276)" fill="#7ae582"/>
    <g id="Group_97274" data-name="Group 97274" transform="translate(32.725 23.208)">
      <path id="Path_152426" data-name="Path 152426" d="M35,19H60.38v3.173H35Z" transform="translate(-12.792 -12.655)" fill="#c8cded"/>
      <path id="Path_152427" data-name="Path 152427" d="M21,23H68.588v3.173H21Z" transform="translate(-21 -10.31)" fill="#c8cded"/>
      <path id="Path_152428" data-name="Path 152428" d="M35,15H60.38v3.173H35Z" transform="translate(-12.792 -15)" fill="#c8cded"/>
    </g>
    <path id="Path_152429" data-name="Path 152429" d="M26,51.1l9.518,9.518L51.38,44.759,46.621,40l-11.1,11.1-4.759-4.759Z" transform="translate(14.656 22.864)" fill="#7ae582"/>
    <path id="Path_152430" data-name="Path 152430" d="M27.587,21.346a1.586,1.586,0,0,1-1.121-.465l-3.173-3.173,2.243-2.243,2.051,2.051,5.224-5.224,2.243,2.243-6.345,6.345a1.586,1.586,0,0,1-1.121.465Z" transform="translate(13.069 6.621)" fill="#f2f2f2"/>
    <path id="Path_152431" data-name="Path 152431" d="M99.011,46.026a1.586,1.586,0,0,0-1.25-.611H93V27.966a1.586,1.586,0,0,0-1.586-1.586H86.658v-11.1a1.586,1.586,0,0,0-.465-1.121L73.5,1.465A1.586,1.586,0,0,0,72.381,1H27.966A1.586,1.586,0,0,0,26.38,2.586V26.38H24.056l-5.869-8.812a1.586,1.586,0,0,0-1.325-.706H2.586A1.586,1.586,0,0,0,1,18.449V97.761a1.586,1.586,0,0,0,1.586,1.586H85.071a1.586,1.586,0,0,0,1.539-1.2L99.3,47.385a1.586,1.586,0,0,0-.289-1.359ZM89.83,29.553V45.415H86.658V29.553ZM73.968,6.415l7.275,7.275H73.968ZM70.8,4.173v11.1a1.586,1.586,0,0,0,1.586,1.586h11.1V45.415H29.553V4.173ZM4.173,20.035H16.014l5.869,8.812a1.586,1.586,0,0,0,1.325.706H26.38V45.415h-11.1a1.586,1.586,0,0,0-1.539,1.2L4.173,84.876Zm79.66,76.14H4.618l11.9-47.588H95.729Z" transform="translate(0)"/>
    <path id="Path_152432" data-name="Path 152432" d="M41.621,74.243A20.621,20.621,0,1,0,21,53.621,20.621,20.621,0,0,0,41.621,74.243Zm0-38.07A17.449,17.449,0,1,1,24.173,53.621,17.449,17.449,0,0,1,41.621,36.173Z" transform="translate(11.725 18.76)"/>
    <path id="Path_152433" data-name="Path 152433" d="M22.586,28.035H38.449a1.586,1.586,0,0,0,1.586-1.586V10.586A1.586,1.586,0,0,0,38.449,9H22.586A1.586,1.586,0,0,0,21,10.586V26.449A1.586,1.586,0,0,0,22.586,28.035Zm1.586-15.863h12.69v12.69H24.173Z" transform="translate(11.725 4.69)"/>
    <path id="Path_152434" data-name="Path 152434" d="M35,19H60.38v3.173H35Z" transform="translate(19.933 10.553)"/>
    <path id="Path_152435" data-name="Path 152435" d="M21,23H68.588v3.173H21Z" transform="translate(11.725 12.898)"/>
    <path id="Path_152436" data-name="Path 152436" d="M35,15H60.38v3.173H35Z" transform="translate(19.933 8.208)"/>
    <path id="Path_152437" data-name="Path 152437" d="M36.1,62.794a1.586,1.586,0,0,0,1.121-.465L53.088,46.466a1.586,1.586,0,0,0,0-2.243l-4.759-4.759a1.586,1.586,0,0,0-2.243,0L36.1,49.447,32.466,45.81a1.586,1.586,0,0,0-2.243,0l-4.759,4.759a1.586,1.586,0,0,0,0,2.243l9.518,9.518A1.586,1.586,0,0,0,36.1,62.794Zm-4.759-13.62,3.637,3.637a1.586,1.586,0,0,0,2.243,0l9.982-9.982,2.516,2.516L36.1,58.964,28.829,51.69Z" transform="translate(14.07 22.278)"/>
    <path id="Path_152438" data-name="Path 152438" d="M27.587,17.517l-2.051-2.051-2.243,2.243,3.173,3.173a1.586,1.586,0,0,0,2.243,0l6.345-6.345-2.243-2.243Z" transform="translate(13.069 6.621)"/>
  </g>
</svg>
