<svg xmlns="http://www.w3.org/2000/svg" width="99.688" height="99.688" viewBox="0 0 99.688 99.688">
  <g id="t6-ic6" transform="translate(-1 -1)">
    <g id="Group_97253" data-name="Group 97253" transform="translate(2.608 2.608)">
      <g id="Group_97240" data-name="Group 97240" transform="translate(0 12.863)">
        <path id="Path_152372" data-name="Path 152372" d="M37.373,10v6.431H8.431v6.431A6.431,6.431,0,1,1,8.431,10Z" transform="translate(-2 -10)" fill="#fdc647"/>
      </g>
      <g id="Group_97241" data-name="Group 97241" transform="translate(35.373)">
        <path id="Path_152373" data-name="Path 152373" d="M69.02,18.079V2H24V21.294H56.157V34.157h6.431V24.51H78.667V40.589H72.236v9.647H56.157V82.393H85.1V18.079Z" transform="translate(-24 -2)" fill="#fff"/>
      </g>
      <g id="Group_97242" data-name="Group 97242" transform="translate(80.393)">
        <path id="Path_152374" data-name="Path 152374" d="M68.079,18.079H52V2Z" transform="translate(-52 -2)" fill="#ffd152"/>
      </g>
      <g id="Group_97243" data-name="Group 97243" transform="translate(73.962 22.51)">
        <path id="Path_152375" data-name="Path 152375" d="M64.079,16V32.079H57.647V25.647H48V16Z" transform="translate(-48 -16)" fill="#55b2f4"/>
      </g>
      <g id="Group_97244" data-name="Group 97244" transform="translate(67.53 32.157)">
        <path id="Path_152376" data-name="Path 152376" d="M60.079,28.431v9.647H44V22H60.079Z" transform="translate(-44 -22)" fill="#7ae582"/>
      </g>
      <g id="Group_97245" data-name="Group 97245" transform="translate(6.431 19.294)">
        <path id="Path_152377" data-name="Path 152377" d="M67.1,75.1V81.53H60.667V26.863a6.43,6.43,0,0,0-6.431-6.431H6V14H67.1V75.1Z" transform="translate(-6 -14)" fill="#f6f6f6"/>
      </g>
      <g id="Group_97246" data-name="Group 97246" transform="translate(0 86.825)">
        <path id="Path_152378" data-name="Path 152378" d="M11.647,56v9.647H8.431A6.43,6.43,0,0,1,2,59.216V56Z" transform="translate(-2 -56)" fill="#fdc647"/>
      </g>
      <g id="Group_97247" data-name="Group 97247" transform="translate(0 19.294)">
        <path id="Path_152379" data-name="Path 152379" d="M11.647,20.431V52.589H2V14a6.43,6.43,0,0,0,6.431,6.431Z" transform="translate(-2 -14)" fill="#fdc647"/>
      </g>
      <g id="Group_97248" data-name="Group 97248" transform="translate(9.647 25.726)">
        <path id="Path_152380" data-name="Path 152380" d="M32.118,18H8V88.746H53.02a6.43,6.43,0,0,0,6.431-6.431V45.334Z" transform="translate(-8 -18)" fill="#ffd152"/>
      </g>
      <g id="Group_97249" data-name="Group 97249" transform="translate(43.412 25.726)">
        <path id="Path_152381" data-name="Path 152381" d="M46.686,24.431V35.686L29,18H40.255A6.43,6.43,0,0,1,46.686,24.431Z" transform="translate(-29 -18)" fill="#fcd770"/>
      </g>
      <g id="Group_97250" data-name="Group 97250" transform="translate(33.765 25.726)">
        <path id="Path_152382" data-name="Path 152382" d="M50.334,35.686v9.647L23,18h9.647Z" transform="translate(-23 -18)" fill="#7ae582"/>
      </g>
      <g id="Group_97251" data-name="Group 97251" transform="translate(0 57.883)">
        <path id="Path_152383" data-name="Path 152383" d="M47.02,41.216v22.51A3.225,3.225,0,0,1,43.8,66.942H2V38H43.8A3.225,3.225,0,0,1,47.02,41.216Z" transform="translate(-2 -38)" fill="#e6e9ed"/>
      </g>
      <g id="Group_97252" data-name="Group 97252" transform="translate(6.431 70.746)">
        <path id="Path_152384" data-name="Path 152384" d="M6,46H38.157v9.647H6Z" transform="translate(-6 -46)" fill="#3bcd43"/>
      </g>
    </g>
    <g id="Group_97254" data-name="Group 97254" transform="translate(1 1)">
      <path id="Path_152385" data-name="Path 152385" d="M100.688,18.021,83.667,1H36.373V13.863H9.039A8.048,8.048,0,0,0,1,21.9V92.648a8.048,8.048,0,0,0,8.039,8.039H57.275a8.048,8.048,0,0,0,8.039-8.039V91.04h6.431V84.609h28.942ZM84.609,6.489,95.2,17.079H84.609ZM9.039,17.079H36.373v3.216H7.431V26.43a4.812,4.812,0,0,1,1.608-9.351Zm0,12.863h1.608V58.883H4.216V28.33A8,8,0,0,0,9.039,29.942ZM4.216,87.825V62.1h40.2a1.609,1.609,0,0,1,1.608,1.608v22.51a1.609,1.609,0,0,1-1.608,1.608Zm0,4.824V91.04h6.431v6.431H9.039A4.829,4.829,0,0,1,4.216,92.648Zm53.059,4.824H13.863V91.04H44.412a4.829,4.829,0,0,0,4.824-4.824V63.707a4.829,4.829,0,0,0-4.824-4.824H13.863V29.942H35.707L62.1,56.333V92.648A4.829,4.829,0,0,1,57.275,97.472ZM62.1,42.139l-12.2-12.2h7.374A4.829,4.829,0,0,1,62.1,34.765Zm-16.744-12.2L62.1,46.686v5.1L40.254,29.942ZM68.53,87.825H65.315V34.765a8.048,8.048,0,0,0-8.039-8.039H10.647V23.51H68.53Zm3.216-51.452H84.609V49.236H71.746Zm6.431-3.216V26.726H91.04V39.589H87.825V33.157ZM71.746,81.393V52.452H87.825V42.8h6.431V23.51H74.962v9.647H71.746V20.294H39.589V4.216h41.8V20.294H97.472v61.1Z" transform="translate(-1 -1)"/>
      <path id="Path_152386" data-name="Path 152386" d="M27,5h3.216V8.216H27Z" transform="translate(14.804 1.431)"/>
      <path id="Path_152387" data-name="Path 152387" d="M31,5H59.942V8.216H31Z" transform="translate(17.236 1.431)"/>
      <path id="Path_152388" data-name="Path 152388" d="M27,9H62.373v3.216H27Z" transform="translate(14.804 3.863)"/>
      <path id="Path_152389" data-name="Path 152389" d="M47,35H66.294v3.216H47Z" transform="translate(26.962 19.667)"/>
      <path id="Path_152390" data-name="Path 152390" d="M47,39H59.863v3.216H47Z" transform="translate(26.962 22.099)"/>
      <path id="Path_152391" data-name="Path 152391" d="M57,39h3.216v3.216H57Z" transform="translate(33.04 22.099)"/>
      <path id="Path_152392" data-name="Path 152392" d="M47,43H66.294v3.216H47Z" transform="translate(26.962 24.53)"/>
      <path id="Path_152393" data-name="Path 152393" d="M53,47h9.647v3.216H53Z" transform="translate(30.609 26.962)"/>
      <path id="Path_152394" data-name="Path 152394" d="M47,47h6.431v3.216H47Z" transform="translate(26.962 26.962)"/>
      <path id="Path_152395" data-name="Path 152395" d="M5,57.863H40.373V45H5Zm3.216-7.374,4.158,4.158H8.216Zm15.413,4.158H16.921l-6.431-6.431H17.2Zm-1.884-6.431h6.708l6.431,6.431H28.176Zm15.413,4.158L33,48.216h4.158Z" transform="translate(1.431 25.746)"/>
      <path id="Path_152396" data-name="Path 152396" d="M5,41H8.216v3.216H5Z" transform="translate(1.431 23.315)"/>
      <path id="Path_152397" data-name="Path 152397" d="M9,41H37.942v3.216H9Z" transform="translate(3.863 23.315)"/>
    </g>
  </g>
</svg>
