<svg xmlns="http://www.w3.org/2000/svg" width="99.99" height="99.999" viewBox="0 0 99.99 99.999">
  <g id="t6-ic3" transform="translate(-0.022)">
    <g id="Group_97232" data-name="Group 97232" transform="translate(1.482 1.465)">
      <path id="Path_152308" data-name="Path 152308" d="M54.138,161.782H9.448a1.953,1.953,0,0,1-1.953-1.953V88.706a1.953,1.953,0,0,1,1.953-1.953h44.69a1.953,1.953,0,0,1,1.953,1.953v71.123A1.953,1.953,0,0,1,54.138,161.782Z" transform="translate(-7.495 -71.274)" fill="#f6f6f6"/>
      <path id="Path_152309" data-name="Path 152309" d="M75.79,88.7v66.313a1.953,1.953,0,0,1-1.953,1.953H33.928a1.953,1.953,0,0,1-1.953-1.953V88.7a1.953,1.953,0,0,1,1.953-1.953H73.837A1.953,1.953,0,0,1,75.79,88.7Z" transform="translate(-27.194 -71.271)" fill="#e8e8e8"/>
      <path id="Path_152310" data-name="Path 152310" d="M101.438,122.156H48.924a1.953,1.953,0,0,1-1.953-1.953V49.08a1.953,1.953,0,0,1,1.953-1.953h52.514a1.953,1.953,0,0,1,1.953,1.953V120.2A1.953,1.953,0,0,1,101.438,122.156Z" transform="translate(-39.261 -39.387)" fill="#f6f6f6"/>
      <path id="Path_152311" data-name="Path 152311" d="M123.086,49.083V115.4a1.953,1.953,0,0,1-1.953,1.953H73.4a1.953,1.953,0,0,1-1.953-1.953V49.083A1.953,1.953,0,0,1,73.4,47.13h47.735A1.953,1.953,0,0,1,123.086,49.083Z" transform="translate(-58.955 -39.39)" fill="#e8e8e8"/>
      <path id="Path_152312" data-name="Path 152312" d="M86.445,80.577V9.453A1.953,1.953,0,0,1,88.4,7.5h52.514a1.953,1.953,0,0,1,1.953,1.953V80.577a1.953,1.953,0,0,1-1.953,1.953H88.4A1.953,1.953,0,0,1,86.445,80.577Z" transform="translate(-71.025 -7.5)" fill="#f6f6f6"/>
      <path id="Path_152313" data-name="Path 152313" d="M254.615,70.67h15.463a.977.977,0,0,0,.977-.977V54.164a.977.977,0,0,0-.977-.977H254.615a.977.977,0,0,0-.977.977V69.693A.977.977,0,0,0,254.615,70.67Z" transform="translate(-205.563 -44.264)" fill="#ffd152"/>
      <path id="Path_152314" data-name="Path 152314" d="M258.518,70.673h-3.906a.977.977,0,0,1-.977-.977V54.167a.977.977,0,0,1,.977-.977h3.906a.977.977,0,0,0-.977.977V69.7A.977.977,0,0,0,258.518,70.673Z" transform="translate(-205.56 -44.266)" fill="#fb0"/>
      <g id="Group_97225" data-name="Group 97225" transform="translate(20.305 22.573)">
        <path id="Path_152315" data-name="Path 152315" d="M132.877,126H112.921a1.465,1.465,0,1,1,0-2.93h19.956a1.465,1.465,0,1,1,0,2.93Z" transform="translate(-111.456 -123.075)" fill="#b4d2d7"/>
      </g>
      <g id="Group_97226" data-name="Group 97226" transform="translate(32.097 34.957)">
        <path id="Path_152316" data-name="Path 152316" d="M193.433,189.409H173.3a1.465,1.465,0,0,1,0-2.93h20.137a1.465,1.465,0,0,1,0,2.93Z" transform="translate(-171.831 -186.479)" fill="#b4d2d7"/>
      </g>
      <g id="Group_97227" data-name="Group 97227" transform="translate(20.305 16.2)">
        <path id="Path_152317" data-name="Path 152317" d="M132.877,93.372H112.921a1.465,1.465,0,1,1,0-2.93h19.956a1.465,1.465,0,1,1,0,2.93Z" transform="translate(-111.456 -90.442)" fill="#b4d2d7"/>
      </g>
      <g id="Group_97228" data-name="Group 97228" transform="translate(20.305 9.826)">
        <path id="Path_152318" data-name="Path 152318" d="M132.877,60.739H112.921a1.465,1.465,0,1,1,0-2.93h19.956a1.465,1.465,0,1,1,0,2.93Z" transform="translate(-111.456 -57.809)" fill="#b4d2d7"/>
      </g>
      <g id="Group_97229" data-name="Group 97229" transform="translate(20.305 51.165)">
        <path id="Path_152319" data-name="Path 152319" d="M142.971,272.391h-30.05a1.465,1.465,0,1,1,0-2.93h30.05a1.465,1.465,0,0,1,0,2.93Z" transform="translate(-111.456 -269.461)" fill="#b4d2d7"/>
      </g>
      <g id="Group_97230" data-name="Group 97230" transform="translate(20.305 42.97)">
        <path id="Path_152320" data-name="Path 152320" d="M136.686,230.434H112.921a1.465,1.465,0,1,1,0-2.93h23.765a1.465,1.465,0,1,1,0,2.93Z" transform="translate(-111.456 -227.504)" fill="#b4d2d7"/>
      </g>
      <g id="Group_97231" data-name="Group 97231" transform="translate(50.42 42.97)">
        <path id="Path_152321" data-name="Path 152321" d="M280.806,230.434h-13.7a1.465,1.465,0,1,1,0-2.93h13.7a1.465,1.465,0,0,1,0,2.93Z" transform="translate(-265.644 -227.504)" fill="#b4d2d7"/>
      </g>
      <path id="Path_152322" data-name="Path 152322" d="M184.789,328.24a1.953,1.953,0,0,1,1.953,1.953v1.326a9.089,9.089,0,0,1-9.07,9.106l-29.615.977-16.1-.977a9.09,9.09,0,0,0,9.072-9.106v-1.326a1.953,1.953,0,0,1,1.953-1.953Z" transform="translate(-107.646 -265.595)" fill="#e8e8e8"/>
      <path id="Path_152323" data-name="Path 152323" d="M291.451,264.7v12.4H271.1a21.594,21.594,0,0,1,19.514-12.414C290.89,264.68,291.171,264.686,291.451,264.7Z" transform="translate(-219.61 -214.449)" fill="#afafaf"/>
      <path id="Path_152324" data-name="Path 152324" d="M275.317,328.24V341.6a1.954,1.954,0,0,1-1.953,1.953H261.5a21.165,21.165,0,0,1-.535-2.262,21.611,21.611,0,0,1,1.7-13.053Z" transform="translate(-211.185 -265.595)" fill="#afafaf"/>
      <path id="Path_152325" data-name="Path 152325" d="M423.965,424.094l9.915,8.823a4.046,4.046,0,0,1,.135,5.758,4.108,4.108,0,0,1-5.789-.144l-9.9-8.87Z" transform="translate(-338.082 -342.727)" fill="#ffd152"/>
      <path id="Path_152326" data-name="Path 152326" d="M426.909,426.709a21.727,21.727,0,0,1-5.582,5.637l-3-2.687,5.643-5.568Z" transform="translate(-338.084 -342.724)" fill="#fb0"/>
      <path id="Path_152327" data-name="Path 152327" d="M278.938,396.65v4.809a1.954,1.954,0,0,1-1.953,1.953h-9.775a21.361,21.361,0,0,1-2.084-4.809h11.859A1.954,1.954,0,0,0,278.938,396.65Z" transform="translate(-214.806 -320.644)" fill="#d2e4e7"/>
      <path id="Path_152328" data-name="Path 152328" d="M280.622,302.39A17.652,17.652,0,1,1,298.274,320.1,17.728,17.728,0,0,1,280.622,302.39Z" transform="translate(-227.277 -230.545)" fill="#55b2f4"/>
      <path id="Path_152329" data-name="Path 152329" d="M311.8,327.784A17.639,17.639,0,0,1,280.625,316.4a17.671,17.671,0,0,1,7.25-14.3A17.676,17.676,0,0,0,311.8,327.784Z" transform="translate(-227.279 -244.561)" fill="#3c9aef"/>
      <path id="Path_152330" data-name="Path 152330" d="M314.572,329.794a11.021,11.021,0,1,1,11.021,11.055A11.064,11.064,0,0,1,314.572,329.794Z" transform="translate(-254.596 -257.95)" fill="#e1ebf0"/>
      <path id="Path_152331" data-name="Path 152331" d="M335.083,341.69a11.032,11.032,0,1,1-15.068-15.16,10.864,10.864,0,0,0-.91,1.955,11.028,11.028,0,0,0,15.979,13.205Z" transform="translate(-254.598 -264.219)" fill="#d2e4e7"/>
    </g>
    <g id="Group_97233" data-name="Group 97233" transform="translate(0.022)">
      <path id="Path_152332" data-name="Path 152332" d="M248.606,66.1h15.463a2.444,2.444,0,0,0,2.441-2.441V48.129a2.444,2.444,0,0,0-2.441-2.441H248.606a2.444,2.444,0,0,0-2.441,2.441V51.8a1.465,1.465,0,0,0,2.93,0V48.618h14.486V63.17H249.095V58.852a1.465,1.465,0,0,0-2.93,0v4.807A2.444,2.444,0,0,0,248.606,66.1Z" transform="translate(-198.09 -36.764)"/>
      <path id="Path_152333" data-name="Path 152333" d="M112.948,126H132.9a1.465,1.465,0,1,0,0-2.93H112.948a1.465,1.465,0,1,0,0,2.93Z" transform="translate(-89.713 -99.037)"/>
      <path id="Path_152334" data-name="Path 152334" d="M194.925,187.944a1.465,1.465,0,0,0-1.465-1.465H173.323a1.465,1.465,0,0,0,0,2.93H193.46A1.465,1.465,0,0,0,194.925,187.944Z" transform="translate(-138.296 -150.057)"/>
      <path id="Path_152335" data-name="Path 152335" d="M112.948,93.372H132.9a1.465,1.465,0,1,0,0-2.93H112.948a1.465,1.465,0,1,0,0,2.93Z" transform="translate(-89.713 -72.777)"/>
      <path id="Path_152336" data-name="Path 152336" d="M112.948,60.739H132.9a1.465,1.465,0,1,0,0-2.93H112.948a1.465,1.465,0,1,0,0,2.93Z" transform="translate(-89.713 -46.518)"/>
      <path id="Path_152337" data-name="Path 152337" d="M112.948,272.391H143a1.465,1.465,0,1,0,0-2.93h-30.05a1.465,1.465,0,1,0,0,2.93Z" transform="translate(-89.713 -216.832)"/>
      <path id="Path_152338" data-name="Path 152338" d="M112.948,230.434h23.765a1.465,1.465,0,0,0,0-2.93H112.948a1.465,1.465,0,1,0,0,2.93Z" transform="translate(-89.713 -183.069)"/>
      <path id="Path_152339" data-name="Path 152339" d="M280.833,227.5h-13.7a1.465,1.465,0,0,0,0,2.93h13.7a1.465,1.465,0,1,0,0-2.93Z" transform="translate(-213.786 -183.069)"/>
      <path id="Path_152340" data-name="Path 152340" d="M98.313,90.611l-.055-.051-9.014-8.021a19.112,19.112,0,0,0,2.345-8.533,1.465,1.465,0,1,0-2.928-.1,16.218,16.218,0,1,1-.927-6.052,1.465,1.465,0,0,0,2.76-.981,19.176,19.176,0,0,0-15.7-12.588V2.441A2.444,2.444,0,0,0,72.351,0H17.884a2.444,2.444,0,0,0-2.441,2.441v5.3H10.174a2.444,2.444,0,0,0-2.441,2.441v5.3H2.463A2.444,2.444,0,0,0,.022,17.921V91a2.444,2.444,0,0,0,2.441,2.441H49.107A2.444,2.444,0,0,0,51.548,91V85.7h6.359a19.075,19.075,0,0,0,23.634,4.5l9.083,8.135a5.452,5.452,0,1,0,7.689-7.723ZM18.372,2.93H71.862V54.15a19.144,19.144,0,0,0-15.265,8.5H50.65a1.465,1.465,0,0,0,0,2.93h4.337q-.294.669-.54,1.367a19.176,19.176,0,0,0-1.08,6.368c0,.58.027,1.153.078,1.72H33.066a10.555,10.555,0,0,0,3.267-7.641V65.575H44.3a1.465,1.465,0,1,0,0-2.93H34.868A1.465,1.465,0,0,0,33.4,64.111v3.278A7.632,7.632,0,0,1,25.8,75.029H18.372Zm-7.71,79.839V62.745a1.465,1.465,0,1,0-2.93,0V83.257A2.444,2.444,0,0,0,10.174,85.7H48.619v4.81H2.952v-72.1h4.78V56.553a1.465,1.465,0,1,0,2.93,0V10.669h4.781V76.494a1.465,1.465,0,0,0,1.465,1.465h37.03a19.079,19.079,0,0,0,1.924,4.81h-45.2Zm85.727,13.6a2.66,2.66,0,0,1-3.781-.195l-8.519-7.63a19.406,19.406,0,0,0,3.536-3.528l8.655,7.7a2.594,2.594,0,0,1,.108,3.651Z" transform="translate(-0.022)"/>
      <path id="Path_152341" data-name="Path 152341" d="M319.579,311.233a12.52,12.52,0,1,0,12.486,12.52A12.559,12.559,0,0,0,319.579,311.233Zm0,22.111a9.591,9.591,0,1,1,9.557-9.59A9.585,9.585,0,0,1,319.579,333.344Z" transform="translate(-247.116 -250.444)"/>
    </g>
  </g>
</svg>
