<svg xmlns="http://www.w3.org/2000/svg" width="88.476" height="100" viewBox="0 0 88.476 100">
  <g id="t0-i1" transform="translate(-29.501)">
    <path id="Path_151976" data-name="Path 151976" d="M127.251,10A31.248,31.248,0,0,0,96,41.246a31.872,31.872,0,0,0,10.372,23.329,18.3,18.3,0,0,1,5.9,13.468h0v13.08a14.971,14.971,0,0,0,14.971,14.971h0a14.971,14.971,0,0,0,14.971-14.971V78.044h.023a18.137,18.137,0,0,1,5.841-13.363A32.033,32.033,0,0,0,158.5,41.246,31.248,31.248,0,0,0,127.251,10Z" transform="translate(-53.512 -8.047)" fill="#ffde82"/>
    <path id="Path_151977" data-name="Path 151977" d="M179.326,384.022v8.072a14.97,14.97,0,0,0,14.97,14.971h0a14.97,14.97,0,0,0,14.971-14.971v-8.072Z" transform="translate(-120.562 -309.018)" fill="#e8e8e8"/>
    <g id="Group_97195" data-name="Group 97195" transform="translate(52.645 33.587)">
      <path id="Path_151978" data-name="Path 151978" d="M152.346,188.718c6.972,6.972,15.865,3.465,15.865,3.465s3.507-8.893-3.465-15.865-15.78-3.478-15.865-3.465C148.881,172.853,145.375,181.747,152.346,188.718Z" transform="translate(-148 -171.966)" fill="#7ae582"/>
      <path id="Path_151979" data-name="Path 151979" d="M276.211,172.852c-.085-.013-8.894-3.507-15.865,3.465s-3.465,15.865-3.465,15.865,8.893,3.507,15.865-3.465S276.211,172.852,276.211,172.852Z" transform="translate(-234.905 -171.965)" fill="#7ae582"/>
    </g>
    <path id="Path_151980" data-name="Path 151980" d="M119.2,0A33.238,33.238,0,0,0,86,33.2,33.8,33.8,0,0,0,97,57.966,16.384,16.384,0,0,1,102.275,70v13.08a16.924,16.924,0,0,0,33.847,0V70.3a1.973,1.973,0,0,0,.023-.3,16.22,16.22,0,0,1,5.21-11.925A33.928,33.928,0,0,0,152.407,33.2,33.238,33.238,0,0,0,119.2,0Zm0,96.094a13.032,13.032,0,0,1-13.017-13.017V76.954h11.069V80.9l-4.889,4.889a1.953,1.953,0,1,0,2.762,2.762l2.127-2.127v4.334a1.953,1.953,0,0,0,3.906,0v-9.8l2.127,2.127a1.953,1.953,0,1,0,2.762-2.762l-3.372-3.372h9.542v6.124A13.032,13.032,0,0,1,119.2,96.094ZM100.542,36.039a13.179,13.179,0,0,1,12.934,3.28,12.565,12.565,0,0,1,3.772,8.485c-.015.446-.013.879,0,1.3-.012.281-.032.553-.058.812l-7.154-7.154a1.953,1.953,0,1,0-2.762,2.762l7.142,7.142a12.821,12.821,0,0,1-10.581-3.705h0A13.178,13.178,0,0,1,100.542,36.039Zm20.623,11.976a12.59,12.59,0,0,1,3.766-8.7,13.179,13.179,0,0,1,12.934-3.281,13.177,13.177,0,0,1-3.3,12.919,12.783,12.783,0,0,1-10.592,3.717l7.154-7.153a1.953,1.953,0,1,0-2.762-2.762L121.226,49.9c-.03-.315-.053-.646-.063-.993Q121.175,48.473,121.165,48.015Zm17.547,7.18a20.131,20.131,0,0,0-6.471,14.486,1.951,1.951,0,0,0-.025.315v3.049h-11.06V56.152a19.045,19.045,0,0,0,4.312.5,16.358,16.358,0,0,0,11.863-4.932c7.788-7.788,4.063-17.551,3.9-17.963a1.952,1.952,0,0,0-1.219-1.143h0c-1.717-.6-10.648-3.247-17.84,3.945A17.122,17.122,0,0,0,119.2,40.5a17.122,17.122,0,0,0-2.965-3.937c-7.192-7.192-16.123-4.548-17.84-3.945h0a1.953,1.953,0,0,0-1.219,1.143c-.162.412-3.887,10.175,3.9,17.963a16.356,16.356,0,0,0,11.863,4.932,19.046,19.046,0,0,0,4.312-.5v16.9H106.182V70a20.3,20.3,0,0,0-6.534-14.906A29.889,29.889,0,0,1,89.907,33.2a29.3,29.3,0,0,1,58.593,0A30.016,30.016,0,0,1,138.713,55.2Z" transform="translate(-45.465)"/>
    <path id="Path_151981" data-name="Path 151981" d="M247.973,40h-.021a1.953,1.953,0,0,0,0,3.906h.021a1.953,1.953,0,1,0,0-3.906Z" transform="translate(-174.213 -32.188)"/>
    <path id="Path_151982" data-name="Path 151982" d="M289.617,47.3a1.953,1.953,0,0,0-1.334,3.671,21.62,21.62,0,0,1,10.883,8.813,1.953,1.953,0,1,0,3.311-2.073A25.545,25.545,0,0,0,289.617,47.3Z" transform="translate(-207.203 -37.966)"/>
    <path id="Path_151983" data-name="Path 151983" d="M36.239,38.194a1.947,1.947,0,0,1-1.381-.572l-4.785-4.785a1.953,1.953,0,1,1,2.762-2.762l4.785,4.785a1.953,1.953,0,0,1-1.381,3.334Z" transform="translate(0 -23.741)"/>
    <path id="Path_151984" data-name="Path 151984" d="M439.951,38.194a1.953,1.953,0,0,1-1.381-3.334l4.785-4.785a1.953,1.953,0,0,1,2.762,2.762l-4.785,4.785A1.948,1.948,0,0,1,439.951,38.194Z" transform="translate(-328.712 -23.741)"/>
    <path id="Path_151985" data-name="Path 151985" d="M31.454,358.153a1.953,1.953,0,0,1-1.381-3.334l4.785-4.785a1.953,1.953,0,0,1,2.762,2.762l-4.785,4.785A1.948,1.948,0,0,1,31.454,358.153Z" transform="translate(0 -281.208)"/>
    <path id="Path_151986" data-name="Path 151986" d="M444.736,358.153a1.947,1.947,0,0,1-1.381-.572L438.57,352.8a1.953,1.953,0,0,1,2.762-2.762l4.785,4.785a1.953,1.953,0,0,1-1.381,3.334Z" transform="translate(-328.712 -281.208)"/>
  </g>
</svg>
