<svg xmlns="http://www.w3.org/2000/svg" xmlns:xlink="http://www.w3.org/1999/xlink" width="160" height="160" viewBox="0 0 160 160">
  <defs>
    <clipPath id="clip-path">
      <path id="icon_arrow-right-circle" data-name="icon / arrow-right-circle" d="M6.328,12.657A6.31,6.31,0,0,1,0,6.328,6.31,6.31,0,0,1,6.328,0a6.31,6.31,0,0,1,6.328,6.328,6.31,6.31,0,0,1-6.328,6.328Zm0-11.506a5.178,5.178,0,1,0,5.178,5.178A5.184,5.184,0,0,0,6.328,1.151Zm0,8.055a.521.521,0,0,1-.4-.173.557.557,0,0,1,0-.805L7.249,6.9H4.027a.575.575,0,0,1,0-1.151H7.249L5.926,4.43a.558.558,0,0,1,0-.806.557.557,0,0,1,.806,0l2.3,2.3c.057.057.115.115.115.173a.207.207,0,0,0,.021.076.378.378,0,0,1,.036.154.349.349,0,0,1-.057.23c0,.058-.059.116-.115.172l-2.3,2.3A.52.52,0,0,1,6.328,9.205Z" transform="translate(0 0)" fill="#fff"/>
    </clipPath>
  </defs>
  <g id="t2-ob1" transform="translate(-195.5 -819)">
    <g id="Group_100231" data-name="Group 100231" transform="translate(5481.5 11826.945)">
      <rect id="Rectangle_33826" data-name="Rectangle 33826" width="160" height="160" rx="10" transform="translate(-5286 -11007.945)" fill="#e4243c"/>
      <g id="Group_98431" data-name="Group 98431" transform="translate(-5268.683 -10994.94)">
        <path id="Path_153386" data-name="Path 153386" d="M52.124,47.108h.046v24.7h5.424V39.541H53.263l-4.991,5.854v5.66h.043Z" transform="translate(-46.681 -39.088)" fill="#fff"/>
        <path id="Path_153387" data-name="Path 153387" d="M80.194,61.781a4.428,4.428,0,1,1,4.433,4.43,4.431,4.431,0,0,1-4.433-4.43" transform="translate(26.143 1.542)" fill="#fff"/>
        <path id="Path_153388" data-name="Path 153388" d="M94.044,60.592a5.9,5.9,0,0,1,5.362,5.883V78.753a1.716,1.716,0,0,1-3.432,0V68.207c0-.394-.115-.932-.84-.932-.5,0-.6.528-.62.87V99.757a2.469,2.469,0,0,1-4.938,0V81.539a.673.673,0,0,0-.7-.725h0a.68.68,0,0,0-.712.725V99.757a2.466,2.466,0,1,1-4.932,0V68.145c-.016-.341-.125-.87-.62-.87-.728,0-.837.538-.837.932V78.753a1.718,1.718,0,0,1-3.436,0V66.475A5.906,5.906,0,0,1,83.7,60.592a2.388,2.388,0,0,1,.322-.03h9.686a2.493,2.493,0,0,1,.335.03" transform="translate(21.898 8.867)" fill="#fff"/>
        <path id="Path_153389" data-name="Path 153389" d="M78,62.329a4.193,4.193,0,1,0-4.19,4.2,4.2,4.2,0,0,0,4.19-4.2" transform="translate(1.996 3.317)" fill="#fff"/>
        <path id="Path_153390" data-name="Path 153390" d="M70.81,64.587l-3.488,11.35s-.62,2.084,1.145,2.605,2.287-1.513,2.287-1.513l2.812-9.476s.154-.728.7-.571.345.938.345.938l-4.9,17.755h4.551V98.391a2.185,2.185,0,0,0,4.371,0V85.676h1.24V98.391a2.187,2.187,0,0,0,4.374,0V85.676H88.8L83.913,67.921s-.2-.781.341-.938.7.571.7.571l2.812,9.476s.535,2.031,2.29,1.513S91.2,75.937,91.2,75.937l-3.485-11.35s-1.247-3.281-4.006-3.281H74.817c-2.756,0-4.006,3.281-4.006,3.281" transform="translate(-3.462 10.564)" fill="#fff"/>
        <path id="Path_153391" data-name="Path 153391" d="M70.339,62.329a4.193,4.193,0,1,0-4.194,4.2,4.2,4.2,0,0,0,4.194-4.2" transform="translate(-15.472 3.317)" fill="#fff"/>
        <path id="Path_153392" data-name="Path 153392" d="M63.151,64.587l-3.485,11.35s-.623,2.084,1.142,2.605S63.1,77.03,63.1,77.03l2.812-9.476s.154-.728.7-.571.341.938.341.938L62.058,85.676h4.551V98.391a2.187,2.187,0,0,0,4.374,0V85.676h1.24V98.391a2.185,2.185,0,0,0,4.371,0V85.676h4.551L76.256,67.921s-.21-.781.338-.938.7.571.7.571l2.809,9.476s.535,2.031,2.29,1.513,1.142-2.605,1.142-2.605l-3.485-11.35s-1.244-3.281-4.006-3.281H67.161c-2.76,0-4.01,3.281-4.01,3.281" transform="translate(-20.93 10.564)" fill="#fff"/>
        <path id="Path_153393" data-name="Path 153393" d="M78.886,71.42a3.491,3.491,0,1,0-3.491-3.495,3.488,3.488,0,0,0,3.491,3.495" transform="translate(15.195 17.707)" fill="#fff"/>
        <path id="Path_153394" data-name="Path 153394" d="M74,76.464a1.214,1.214,0,0,0,.509,1.654,1.166,1.166,0,0,0,1.5-.489l1.9-6.054s.328-.4.328.016V85.838h.01a1.79,1.79,0,1,0,3.58,0V80.214s-.1-.794.538-.794.545.794.545.794v5.624a1.795,1.795,0,0,0,3.59,0V71.591c0-.42.22-.125.22-.125L88.2,75.614a9.885,9.885,0,0,0,.847,1.936,1.328,1.328,0,0,0,1.588-2l.01-.01c-.039-.135-2.221-5.483-2.477-6.234-.787-2.3-2.221-2.277-3.6-2.313s-2.205,0-2.205,0-.879-.039-2.707.016-2.392.988-4.4,6.152c-.289.745-1.257,3.15-1.27,3.294Z" transform="translate(11.712 23.511)" fill="#fff"/>
        <path id="Path_153395" data-name="Path 153395" d="M59.25,61.781a4.43,4.43,0,1,0-4.433,4.43,4.433,4.433,0,0,0,4.433-4.43" transform="translate(-41.846 1.542)" fill="#fff"/>
        <path id="Path_153396" data-name="Path 153396" d="M53.893,60.592a5.906,5.906,0,0,0-5.365,5.883V78.753a1.718,1.718,0,0,0,3.436,0V68.207c0-.394.118-.932.84-.932.5,0,.6.528.627.87V99.757a2.466,2.466,0,1,0,4.932,0V81.539a.707.707,0,1,1,1.414,0V99.757a2.468,2.468,0,0,0,4.935,0V68.145c.013-.341.128-.87.623-.87.728,0,.833.538.833.932V78.753a1.718,1.718,0,0,0,3.436,0V66.475a5.9,5.9,0,0,0-5.365-5.883,2.439,2.439,0,0,0-.325-.03H54.231a2.545,2.545,0,0,0-.338.03" transform="translate(-46.096 8.867)" fill="#fff"/>
        <path id="Line_303" data-name="Line 303" d="M0,21.051a.2.2,0,0,1-.037,0,.2.2,0,0,1-.158-.231L3.74-.037a.2.2,0,0,1,.231-.158.2.2,0,0,1,.158.231L.195,20.889A.2.2,0,0,1,0,21.051Z" transform="translate(0 89.408)" fill="#fff"/>
        <path id="Path_153397" data-name="Path 153397" d="M57.226,66.422a1.271,1.271,0,0,0-2.349.673,2.3,2.3,0,0,0,.125.558l3.518,6.369a2.251,2.251,0,0,1,.217.84V88.545h.01a1.718,1.718,0,1,0,3.436,0v-5.4s-.1-.765.518-.765.518.765.518.765v5.4a1.724,1.724,0,0,0,3.449,0V74.862a2.306,2.306,0,0,1,.21-.84l3.255-5.88a5.71,5.71,0,0,0,.4-1.047,1.272,1.272,0,0,0-1.273-1.27,1.244,1.244,0,0,0-1.073.6l-.02-.007c-.1.089-1.729,2.989-2.267,3.527a1.418,1.418,0,0,1-1.08.509h-4.23a1.418,1.418,0,0,1-1.08-.509c-.541-.538-2.166-3.439-2.271-3.527Z" transform="translate(-31.612 20.874)" fill="#fff"/>
        <path id="Path_153398" data-name="Path 153398" d="M59.688,71.42A3.491,3.491,0,1,0,56.2,67.925a3.488,3.488,0,0,0,3.491,3.495" transform="translate(-28.601 17.707)" fill="#fff"/>
        <path id="Path_153399" data-name="Path 153399" d="M61.314,68.058l3.944,2.878,1.877,6.9H55.487l1.883-6.9Z" transform="translate(-30.221 25.969)" fill="#fff"/>
        <path id="Path_153400" data-name="Path 153400" d="M55.679,39.4h5.309v1.851H57.947v3.859h2.267v1.831H57.947v5.946H55.679Z" transform="translate(-29.782 -39.402)" fill="#fff"/>
        <rect id="Rectangle_33824" data-name="Rectangle 33824" width="2.267" height="13.486" transform="translate(32.203 0)" fill="#fff"/>
        <path id="Path_153401" data-name="Path 153401" d="M60.6,44.417v8.472h-1.91V39.4H60.92l2.445,7.737V39.4h1.89V52.889H63.266Z" transform="translate(-22.91 -39.403)" fill="#fff"/>
        <path id="Path_153402" data-name="Path 153402" d="M58.9,56.8c.935,0,1.293-.558,1.293-1.372V48.364A1.18,1.18,0,0,0,58.9,47.012h-.955V56.8Zm3.56-8.016v6.248c0,2.067-.856,3.619-3.281,3.619h-3.5V45.161h3.5c2.425,0,3.281,1.529,3.281,3.619" transform="translate(-29.785 -26.267)" fill="#fff"/>
        <path id="Path_153403" data-name="Path 153403" d="M58.14,45.161h5.411v1.851H60.407v3.859h2.248V52.7H60.407v4.1h3.143v1.851H58.14Z" transform="translate(-24.168 -26.267)" fill="#fff"/>
        <path id="Path_153404" data-name="Path 153404" d="M60.795,45.161h2.267V56.8h2.7v1.851H60.795Z" transform="translate(-18.112 -26.267)" fill="#fff"/>
        <path id="Path_153405" data-name="Path 153405" d="M65.363,54.372h1.808l-.893-5.411h-.023Zm-2.848,4.276,2.546-13.486H67.65l2.563,13.486H67.886L67.47,56.18H65.061l-.4,2.468Z" transform="translate(-14.188 -26.267)" fill="#fff"/>
        <path id="Path_153406" data-name="Path 153406" d="M68.049,47.012v5.309h.837A.97.97,0,0,0,70,51.208V48.1c0-.735-.335-1.093-1.112-1.093Zm-2.267-1.851h3.36c2.29,0,3.124,1.132,3.124,3.022v2.848c0,1.887-.833,3.042-3.124,3.042H68.049v4.574H65.782Z" transform="translate(-6.735 -26.267)" fill="#fff"/>
        <path id="Path_153407" data-name="Path 153407" d="M72.712,55.635V48.393c0-.814-.361-1.391-1.178-1.391-.794,0-1.152.578-1.152,1.391v7.242c0,.817.358,1.391,1.152,1.391.817,0,1.178-.574,1.178-1.391m-4.6-.358V48.754c0-2.11,1.034-3.642,3.419-3.642,2.412,0,3.445,1.532,3.445,3.642v6.523c0,2.09-1.034,3.642-3.445,3.642-2.385,0-3.419-1.552-3.419-3.642" transform="translate(-1.413 -26.379)" fill="#fff"/>
        <path id="Path_153408" data-name="Path 153408" d="M72.868,52.58V56.8h.994A.976.976,0,0,0,74.978,55.7V53.676c0-.719-.341-1.1-1.135-1.1Zm0-1.729h.8a.954.954,0,0,0,1.073-1.093V48.1a.954.954,0,0,0-1.1-1.093h-.774ZM70.6,45.161h3.281c2.267,0,3.025,1.053,3.025,2.963V49.5a1.965,1.965,0,0,1-1.352,2.149,2.05,2.05,0,0,1,1.69,2.251v1.788c0,1.91-.856,2.963-3.124,2.963H70.6Z" transform="translate(4.259 -26.267)" fill="#fff"/>
        <path id="Path_153409" data-name="Path 153409" d="M75.237,47.009v4.2h.755a.981.981,0,0,0,1.116-1.112V48.105c0-.738-.338-1.1-1.116-1.1Zm0,5.45v6.189H72.97V45.162h3.3c2.284,0,3.121,1.132,3.121,3.019v1.733c0,1.454-.515,2.307-1.811,2.605l2.169,6.129H77.367Z" transform="translate(9.663 -26.265)" fill="#fff"/>
        <path id="Path_153410" data-name="Path 153410" d="M75.3,45.161h5.411v1.851H77.571v3.859h2.248V52.7H77.571v4.1h3.143v1.851H75.3Z" transform="translate(14.986 -26.267)" fill="#fff"/>
        <path id="Path_153411" data-name="Path 153411" d="M79.639,56.8h3.442v1.851H77.273V56.8l3.56-9.788h-3.2V45.161h5.588v1.847Z" transform="translate(19.48 -26.266)" fill="#fff"/>
        <path id="Path_153412" data-name="Path 153412" d="M82.154,54.372h1.811l-.9-5.411h-.02Zm-2.845,4.276,2.546-13.486h2.586l2.566,13.486H84.68l-.417-2.468H81.855l-.4,2.468Z" transform="translate(24.124 -26.267)" fill="#fff"/>
      </g>
    </g>
    <g id="Group_100232" data-name="Group 100232">
      <text id="Leer_más" data-name="Leer más" transform="translate(235.172 953)" fill="#fff" font-size="14" font-family="Roboto-Regular, Roboto"><tspan x="0" y="13">Leer más</tspan></text>
      <g id="icon_arrow_arrow-right-circle" data-name="icon / arrow / arrow-right-circle" transform="translate(303.172 955.888)">
        <g id="Group_201" data-name="Group 201">
          <path id="icon_arrow-right-circle-2" data-name="icon / arrow-right-circle" d="M6.328,12.657A6.31,6.31,0,0,1,0,6.328,6.31,6.31,0,0,1,6.328,0a6.31,6.31,0,0,1,6.328,6.328,6.31,6.31,0,0,1-6.328,6.328Zm0-11.506a5.178,5.178,0,1,0,5.178,5.178A5.184,5.184,0,0,0,6.328,1.151Zm0,8.055a.521.521,0,0,1-.4-.173.557.557,0,0,1,0-.805L7.249,6.9H4.027a.575.575,0,0,1,0-1.151H7.249L5.926,4.43a.558.558,0,0,1,0-.806.557.557,0,0,1,.806,0l2.3,2.3c.057.057.115.115.115.173a.207.207,0,0,0,.021.076.378.378,0,0,1,.036.154.349.349,0,0,1-.057.23c0,.058-.059.116-.115.172l-2.3,2.3A.52.52,0,0,1,6.328,9.205Z" transform="translate(0 0)" fill="#fff"/>
        </g>
      </g>
    </g>
  </g>
</svg>
