<svg xmlns="http://www.w3.org/2000/svg" xmlns:xlink="http://www.w3.org/1999/xlink" width="160" height="160" viewBox="0 0 160 160">
  <defs>
    <clipPath id="clip-path">
      <path id="icon_arrow-right-circle" data-name="icon / arrow-right-circle" d="M6.328,12.657A6.31,6.31,0,0,1,0,6.328,6.31,6.31,0,0,1,6.328,0a6.31,6.31,0,0,1,6.328,6.328,6.31,6.31,0,0,1-6.328,6.328Zm0-11.506a5.178,5.178,0,1,0,5.178,5.178A5.184,5.184,0,0,0,6.328,1.151Zm0,8.055a.521.521,0,0,1-.4-.173.557.557,0,0,1,0-.805L7.249,6.9H4.027a.575.575,0,0,1,0-1.151H7.249L5.926,4.43a.558.558,0,0,1,0-.806.557.557,0,0,1,.806,0l2.3,2.3c.057.057.115.115.115.173a.207.207,0,0,0,.021.076.378.378,0,0,1,.036.154.349.349,0,0,1-.057.23c0,.058-.059.116-.115.172l-2.3,2.3A.52.52,0,0,1,6.328,9.205Z" transform="translate(0 0)" fill="#fff"/>
    </clipPath>
  </defs>
  <g id="t2-ob6" transform="translate(-1246.5 -819)">
    <g id="Group_98540" data-name="Group 98540" transform="translate(16 39)">
      <rect id="Rectangle_33840" data-name="Rectangle 33840" width="160" height="160" rx="10" transform="translate(1230.5 780)" fill="#26bce3"/>
      <g id="Group_98442" data-name="Group 98442" transform="translate(1246.388 792.865)">
        <g id="Group_98441" data-name="Group 98441" transform="translate(0 0)">
          <path id="Path_153547" data-name="Path 153547" d="M329.429,58.992c.1-1.808.856-2.95,2.569-2.95,1.857,0,2.569,1.142,2.569,3.238v5.614c0,2.044-.758,3.235-2.615,3.235-1.808,0-2.523-1.237-2.523-3.235Zm2.523,13.564c5.758,0,8-3.143,8-8.137V59.658c0-5.282-2.093-7.947-6-7.947a4.637,4.637,0,0,0-4.472,2.618h-.049V47.381c0-1.949.62-3.33,2.569-3.33s2.523,1.145,2.523,3.143v2.139h4.948V47.621c0-4.761-1.568-8.088-7.563-8.088-5.712,0-7.855,3.662-7.855,8.7V63.943c0,5,2.192,8.613,7.9,8.613" transform="translate(-324.051 -39.326)" fill="#fff"/>
          <path id="Path_153548" data-name="Path 153548" d="M376.592,64.855a5.521,5.521,0,0,0-4.192.256c-5.5,2.231-9.249,3.034-15.038,1.221-3.645-1.143-7.057-3.533-11.086-2.076a22.87,22.87,0,0,1-8.2,1.855l-1.747-8.955h41.513Zm-14.072,26.6a8.524,8.524,0,0,1-10.593,0c-3.322-3.322-2.136-7.451-.98-9.585.717-1.339,5.822-9.008,6.26-9.66v-.05l.02.025.018-.025v.05c.426.652,5.541,8.321,6.255,9.66,1.158,2.134,2.339,6.263-.98,9.585m17.144-36.085a.534.534,0,0,0-.4-.175H334.9a.53.53,0,0,0-.4.175.537.537,0,0,0-.113.421l7.451,45.07a.524.524,0,0,0,.514.434h9.146l.624,7.341-3.848.005,8.953,8.955,8.981-8.975-3.848.005.624-7.331H372.3a.516.516,0,0,0,.511-.441l6.97-45.063a.525.525,0,0,0-.115-.421" transform="translate(-289.692 -4.595)" fill="#fff"/>
          <path id="Path_153549" data-name="Path 153549" d="M335.057,48.731h1.811l-.9-5.41h-.023ZM332.212,53l2.546-13.485h2.585L339.909,53h-2.326l-.417-2.464h-2.408l-.4,2.464Z" transform="translate(-305.436 -39.361)" fill="#fff"/>
          <path id="Path_153550" data-name="Path 153550" d="M338.171,45.914H341.4v7.2h-1.637V51.642a2.038,2.038,0,0,1-2.166,1.631c-1.949,0-2.841-1.552-2.841-3.639V43.109c0-2.106,1.014-3.639,3.4-3.639,2.507,0,3.248,1.394,3.248,3.383v1.191h-2.07V42.672c0-.837-.318-1.312-1.135-1.312s-1.175.577-1.175,1.391v7.241c0,.817.338,1.391,1.116,1.391.735,0,1.116-.417,1.116-1.293V47.7h-1.076Z" transform="translate(-299.642 -39.47)" fill="#fff"/>
          <path id="Path_153551" data-name="Path 153551" d="M343.754,39.518v10.2c0,2.09-.892,3.442-3.2,3.442-2.389,0-3.386-1.352-3.386-3.442v-10.2h2.27v10.42c0,.8.318,1.335,1.116,1.335s1.112-.538,1.112-1.335V39.518Z" transform="translate(-294.129 -39.361)" fill="#fff"/>
          <path id="Path_153552" data-name="Path 153552" d="M342.215,48.731h1.811l-.9-5.41h-.023ZM339.37,53l2.546-13.485H344.5L347.067,53h-2.326l-.417-2.464h-2.408l-.4,2.464Z" transform="translate(-289.109 -39.361)" fill="#fff"/>
          <path id="Path_153553" data-name="Path 153553" d="M342.637,39.518H344.9V51.156h2.7V53h-4.971Z" transform="translate(-281.657 -39.36)" fill="#fff"/>
          <rect id="Rectangle_33842" data-name="Rectangle 33842" width="2.267" height="13.485" transform="translate(66.984 0.157)" fill="#fff"/>
          <path id="Path_153554" data-name="Path 153554" d="M351.8,44.252h-.059l-1.529,8.754H349.16l-1.69-8.754h-.039v8.754h-1.873V39.518H348.2l1.47,7.6h.023l1.312-7.6h2.864V53.006H351.8Z" transform="translate(-274.996 -39.361)" fill="#fff"/>
          <path id="Path_153555" data-name="Path 153555" d="M350.75,41.368v5.309h.837a.974.974,0,0,0,1.116-1.112v-3.1c0-.735-.341-1.093-1.116-1.093Zm-2.264-1.85h3.357c2.29,0,3.123,1.132,3.123,3.025v2.845c0,1.887-.833,3.041-3.123,3.041H350.75V53h-2.264Z" transform="translate(-268.315 -39.361)" fill="#fff"/>
          <rect id="Rectangle_33843" data-name="Rectangle 33843" width="2.267" height="13.485" transform="translate(87.825 0.157)" fill="#fff"/>
          <path id="Path_153556" data-name="Path 153556" d="M354.648,48.731h1.808l-.892-5.41h-.026ZM351.8,53l2.546-13.485h2.589L359.5,53h-2.326l-.42-2.464h-2.408l-.4,2.464Z" transform="translate(-260.756 -39.361)" fill="#fff"/>
          <path id="Path_153557" data-name="Path 153557" d="M337,53.63v5.132h-2.267V53.63l-2.526-8.353h2.369l1.371,5.112h.016l1.378-5.112h2.166Z" transform="translate(-305.45 -26.226)" fill="#fff"/>
          <path id="Path_153558" data-name="Path 153558" d="M335.309,55.967V54.159h2.11v1.847c0,.758.338,1.194,1.116,1.194.712,0,1.034-.479,1.034-1.194v-.518a2.438,2.438,0,0,0-1.017-1.906l-1.332-1.335c-1.293-1.27-1.887-2.047-1.887-3.6v-.456c0-1.673.971-2.963,3.176-2.963,2.271,0,3.166,1.112,3.166,3.061v1.093h-2.067V48.21c0-.778-.361-1.155-1.073-1.155a.994.994,0,0,0-1.076,1.112v.282c0,.755.417,1.191,1.076,1.827l1.45,1.431c1.234,1.257,1.831,2.011,1.831,3.5v.656c0,1.85-.994,3.16-3.307,3.16s-3.2-1.289-3.2-3.061" transform="translate(-298.372 -26.336)" fill="#fff"/>
          <path id="Path_153559" data-name="Path 153559" d="M340.33,54.487h1.811l-.9-5.41h-.023Zm-2.845,4.275,2.546-13.485h2.585l2.566,13.485h-2.326l-.417-2.467h-2.408l-.4,2.467Z" transform="translate(-293.408 -26.224)" fill="#fff"/>
          <path id="Path_153560" data-name="Path 153560" d="M342.025,50.289v8.475h-1.909V45.276h2.228l2.448,7.736V45.276h1.887V58.764h-1.988Z" transform="translate(-287.408 -26.227)" fill="#fff"/>
          <path id="Path_153561" data-name="Path 153561" d="M342.509,45.276h5.41v1.851h-3.143v3.859h2.247v1.828h-2.247v4.1h3.143v1.851h-5.41Z" transform="translate(-281.949 -26.226)" fill="#fff"/>
          <path id="Path_153562" data-name="Path 153562" d="M347.266,54.487h1.808l-.892-5.41h-.026Zm-2.848,4.275,2.546-13.485h2.589l2.566,13.485h-2.326l-.42-2.467h-2.408l-.4,2.467Z" transform="translate(-277.594 -26.224)" fill="#fff"/>
          <path id="Path_153563" data-name="Path 153563" d="M353.3,50.01h-.059L351.7,58.764h-1.053l-1.69-8.754h-.039v8.754h-1.873V45.276H349.7l1.47,7.6h.023l1.312-7.6h2.864V58.764H353.3Z" transform="translate(-271.595 -26.227)" fill="#fff"/>
          <rect id="Rectangle_33844" data-name="Rectangle 33844" width="2.267" height="13.485" transform="translate(85.059 19.049)" fill="#fff"/>
          <path id="Path_153564" data-name="Path 153564" d="M351.067,45.276h5.41v1.851h-3.143v3.859h2.248v1.828h-2.248v4.1h3.143v1.851h-5.41Z" transform="translate(-262.427 -26.226)" fill="#fff"/>
          <path id="Path_153565" data-name="Path 153565" d="M355,50.289v8.475h-1.91V45.276h2.228l2.448,7.736V45.276h1.887V58.764h-1.988Z" transform="translate(-257.823 -26.227)" fill="#fff"/>
          <path id="Path_153566" data-name="Path 153566" d="M355.4,45.276h6.03v1.851h-1.873V58.761h-2.287V47.127H355.4Z" transform="translate(-252.543 -26.226)" fill="#fff"/>
          <path id="Path_153567" data-name="Path 153567" d="M362.064,55.75V48.509c0-.814-.361-1.391-1.175-1.391-.794,0-1.155.577-1.155,1.391V55.75c0,.817.361,1.391,1.155,1.391.814,0,1.175-.574,1.175-1.391m-4.6-.358V48.87c0-2.11,1.034-3.642,3.422-3.642,2.408,0,3.442,1.532,3.442,3.642v6.523c0,2.087-1.034,3.642-3.442,3.642-2.389,0-3.422-1.555-3.422-3.642" transform="translate(-247.83 -26.336)" fill="#fff"/>
        </g>
      </g>
    </g>
    <g id="Group_100237" data-name="Group 100237" transform="translate(1054)">
      <text id="Leer_más" data-name="Leer más" transform="translate(235.172 953)" fill="#fff" font-size="14" font-family="Roboto-Regular, Roboto"><tspan x="0" y="13">Leer más</tspan></text>
      <g id="icon_arrow_arrow-right-circle" data-name="icon / arrow / arrow-right-circle" transform="translate(303.172 955.888)">
        <g id="Group_201" data-name="Group 201">
          <path id="icon_arrow-right-circle-2" data-name="icon / arrow-right-circle" d="M6.328,12.657A6.31,6.31,0,0,1,0,6.328,6.31,6.31,0,0,1,6.328,0a6.31,6.31,0,0,1,6.328,6.328,6.31,6.31,0,0,1-6.328,6.328Zm0-11.506a5.178,5.178,0,1,0,5.178,5.178A5.184,5.184,0,0,0,6.328,1.151Zm0,8.055a.521.521,0,0,1-.4-.173.557.557,0,0,1,0-.805L7.249,6.9H4.027a.575.575,0,0,1,0-1.151H7.249L5.926,4.43a.558.558,0,0,1,0-.806.557.557,0,0,1,.806,0l2.3,2.3c.057.057.115.115.115.173a.207.207,0,0,0,.021.076.378.378,0,0,1,.036.154.349.349,0,0,1-.057.23c0,.058-.059.116-.115.172l-2.3,2.3A.52.52,0,0,1,6.328,9.205Z" transform="translate(0 0)" fill="#fff"/>
        </g>
      </g>
    </g>
  </g>
</svg>
