<svg xmlns="http://www.w3.org/2000/svg" xmlns:xlink="http://www.w3.org/1999/xlink" width="160" height="160" viewBox="0 0 160 160">
  <defs>
    <clipPath id="clip-path">
      <path id="icon_arrow-right-circle" data-name="icon / arrow-right-circle" d="M6.328,12.657A6.31,6.31,0,0,1,0,6.328,6.31,6.31,0,0,1,6.328,0a6.31,6.31,0,0,1,6.328,6.328,6.31,6.31,0,0,1-6.328,6.328Zm0-11.506a5.178,5.178,0,1,0,5.178,5.178A5.184,5.184,0,0,0,6.328,1.151Zm0,8.055a.521.521,0,0,1-.4-.173.557.557,0,0,1,0-.805L7.249,6.9H4.027a.575.575,0,0,1,0-1.151H7.249L5.926,4.43a.558.558,0,0,1,0-.806.557.557,0,0,1,.806,0l2.3,2.3c.057.057.115.115.115.173a.207.207,0,0,0,.021.076.378.378,0,0,1,.036.154.349.349,0,0,1-.057.23c0,.058-.059.116-.115.172l-2.3,2.3A.52.52,0,0,1,6.328,9.205Z" transform="translate(0 0)" fill="#fff"/>
    </clipPath>
  </defs>
  <g id="t2-ob16" transform="translate(-915.5 -1222)">
    <rect id="Rectangle_33873" data-name="Rectangle 33873" width="160" height="160" rx="10" transform="translate(915.5 1222)" fill="#006a9e"/>
    <g id="Group_98464" data-name="Group 98464" transform="translate(927.393 1235.039)">
      <path id="Path_153847" data-name="Path 153847" d="M212,157.253v5.663h.046l3.806-3.95h.053v24.695h5.423V151.4H217Z" transform="translate(-211.998 -151.016)" fill="#fff"/>
      <path id="Path_153848" data-name="Path 153848" d="M226.3,176.647c0,2.047-.761,3.235-2.618,3.235-1.8,0-2.52-1.234-2.52-3.235v-5.9c.1-1.8.856-2.95,2.569-2.95,1.854,0,2.569,1.145,2.569,3.235Zm5.377-.476v-4.757c0-5.282-2.093-7.949-6-7.949a4.633,4.633,0,0,0-4.472,2.625h-.046v-6.952c0-1.952.614-3.333,2.569-3.333s2.52,1.142,2.52,3.14v2.146H231.2v-1.716c0-4.757-1.568-8.09-7.566-8.09-5.709,0-7.851,3.668-7.851,8.711v15.7c0,4.993,2.188,8.612,7.9,8.612,5.758,0,8-3.14,8-8.136" transform="translate(-203.362 -151.283)" fill="#fff"/>
      <path id="Path_153856" data-name="Path 153856" d="M226.306,181.29a9.982,9.982,0,0,0-1.066-.272s.39.118,1.066.272" transform="translate(-181.794 -83.462)" fill="#fff"/>
      <g id="Group_100249" data-name="Group 100249" transform="translate(-7.246)">
        <path id="Path_153849" data-name="Path 153849" d="M245.6,167.376a3.963,3.963,0,0,0,1.445,6.393,3.97,3.97,0,0,0-1.445-6.393" transform="translate(-135.052 -114.708)" fill="#fff"/>
        <path id="Path_153850" data-name="Path 153850" d="M245.642,175.279a3.963,3.963,0,0,0-1.445-6.39,3.964,3.964,0,0,0,1.445,6.39" transform="translate(-137.314 -112.268)" fill="#fff"/>
        <path id="Path_153851" data-name="Path 153851" d="M246.253,171.73a4.483,4.483,0,0,0,3.081,1.307,4.671,4.671,0,0,0,2.854-1.835,4.5,4.5,0,0,0-3.079-1.307,4.682,4.682,0,0,0-2.857,1.835" transform="translate(-132.32 -110.66)" fill="#fff"/>
        <path id="Path_153852" data-name="Path 153852" d="M247.87,168.338a5.423,5.423,0,0,0-1.147,3.753,5.191,5.191,0,0,0,3.693-1.15,5.421,5.421,0,0,0,1.145-3.75,5.186,5.186,0,0,0-3.69,1.147" transform="translate(-131.577 -115.025)" fill="#fff"/>
        <path id="Path_153853" data-name="Path 153853" d="M247.725,174.59a4.692,4.692,0,0,0,3.173-1.21,4.5,4.5,0,0,0-2.747-1.91,4.7,4.7,0,0,0-3.173,1.213,4.48,4.48,0,0,0,2.747,1.908" transform="translate(-134.376 -108.134)" fill="#fff"/>
        <path id="Path_153854" data-name="Path 153854" d="M255.2,182.706H242.981a1.729,1.729,0,1,0,0,3.458H255.2a1.729,1.729,0,0,0,0-3.458" transform="translate(-140.391 -89.974)" fill="#fff"/>
        <path id="Path_153855" data-name="Path 153855" d="M255.2,190H242.981a1.728,1.728,0,1,0,0,3.455H255.2a1.728,1.728,0,1,0,0-3.455" transform="translate(-140.391 -78.21)" fill="#fff"/>
        <path id="Path_153857" data-name="Path 153857" d="M246.882,207.686q1.207.02,2.423-.065V214l-2.423-.055Zm34.694,1.383H270.258a.984.984,0,0,0-.985.985v3.426l-7.394.813-10.794-.246v-6.6a29.952,29.952,0,0,0,4.3-.87c10.391-2.935,12.66-9.409,12.433-15.352-.225-6.055,1.712-8.405,4.5-9.453a12.672,12.672,0,0,1,2.308-.609,18.49,18.49,0,0,0,1,5.274c.246-.013.494-.034.737-.06a17.563,17.563,0,0,1-1.019-5.319,13.062,13.062,0,0,1,2.465-.076,15.448,15.448,0,0,1-2.344-1.67c.465-2.867,2.174-4.629,3.936-6.429a21.431,21.431,0,0,0,2.752-3.23l-.612-.4a20.806,20.806,0,0,1-2.666,3.121c-1.715,1.754-3.447,3.549-4.035,6.4a23.639,23.639,0,0,1-1.78-1.793c-2.561-2.872-5.862-.763-10.566,3.62s-10.624,4.527-16.408-1.385c-7.626-7.809-14.278-7.767-18.841-7.323,3.121,1.333,4.21,4.247,5.794,11.659,1.654,7.778,5.828,11.3,11.541,11.784-2.65.426-3.335.795-7.59,3.735-3.327,2.292-8,1.568-9.9,1.137,3.481,1.087,7.6,4.736,11.29,6.006a27.134,27.134,0,0,0,6.732,1.38v6.312l-20.482-.439v4.4l37.256-.828,7.394.815v3.426a.986.986,0,0,0,.985.985h11.319a.988.988,0,0,0,.985-.985v-11.23a.986.986,0,0,0-.985-.985" transform="translate(-167.22 -111.67)" fill="#fff"/>
        <path id="Path_153858" data-name="Path 153858" d="M226.542,190.5a1.578,1.578,0,0,1-1.448,1.683h-.868a1.578,1.578,0,0,1-1.448-1.683v-3.045a1.577,1.577,0,0,1,1.448-1.68h.868a1.577,1.577,0,0,1,1.448,1.68Z" transform="translate(-170.195 -85.026)" fill="#fff"/>
      </g>
      <path id="Path_153859" data-name="Path 153859" d="M227.128,153.394v5.312h.837a.975.975,0,0,0,1.115-1.116v-3.1c0-.735-.338-1.093-1.115-1.093Zm-2.267-1.85h3.36c2.29,0,3.127,1.132,3.127,3.025v2.844c0,1.887-.837,3.041-3.127,3.041h-1.092v4.574h-2.267Z" transform="translate(-182.658 -150.688)" fill="#fff"/>
      <path id="Path_153860" data-name="Path 153860" d="M229.6,160.754h1.808l-.892-5.41h-.023Zm-2.848,4.275,2.546-13.484h2.589l2.566,13.484h-2.329l-.417-2.467H229.3l-.4,2.467Z" transform="translate(-178.343 -150.685)" fill="#fff"/>
      <path id="Path_153861" data-name="Path 153861" d="M231.61,163.179h3.442v1.851h-5.807v-1.851l3.56-9.787h-3.2v-1.847h5.591v1.847Z" transform="translate(-172.661 -150.686)" fill="#fff"/>
      <path id="Path_153862" data-name="Path 153862" d="M233.723,155.174l-1.155,3.041H231.3l.276-3.222h2.149Z" transform="translate(-167.974 -142.821)" fill="#fff"/>
      <path id="Path_153863" data-name="Path 153863" d="M238.97,151.544v10.42c0,1.952-.856,3.225-3.123,3.225-2.346,0-2.986-1.293-2.986-3V159.5h2.149v2.726c0,.676.239,1.073.837,1.073.617,0,.856-.4.856-1.1V151.544Z" transform="translate(-164.412 -150.688)" fill="#fff"/>
      <path id="Path_153864" data-name="Path 153864" d="M241.6,151.544v10.2c0,2.09-.9,3.442-3.205,3.442-2.388,0-3.379-1.352-3.379-3.442v-10.2h2.27v10.42c0,.8.312,1.335,1.109,1.335s1.112-.535,1.112-1.335v-10.42Z" transform="translate(-159.487 -150.688)" fill="#fff"/>
      <path id="Path_153865" data-name="Path 153865" d="M237.293,162.234v-1.808h2.11v1.847c0,.758.338,1.194,1.115,1.194.712,0,1.033-.476,1.033-1.194v-.515a2.439,2.439,0,0,0-1.017-1.909l-1.332-1.332c-1.293-1.276-1.886-2.051-1.886-3.6v-.456c0-1.67.971-2.963,3.176-2.963,2.27,0,3.166,1.112,3.166,3.064v1.089h-2.067v-1.168c0-.781-.361-1.155-1.073-1.155a.993.993,0,0,0-1.076,1.112v.279c0,.758.417,1.191,1.076,1.827l1.45,1.434c1.23,1.253,1.831,2.008,1.831,3.5v.656c0,1.85-.994,3.163-3.307,3.163s-3.2-1.293-3.2-3.064" transform="translate(-154.303 -150.797)" fill="#fff"/>
      <path id="Path_153866" data-name="Path 153866" d="M239.378,151.544h6.03v1.851h-1.873v11.634h-2.287V153.395h-1.87Z" transform="translate(-149.548 -150.687)" fill="#fff"/>
      <rect id="Rectangle_33890" data-name="Rectangle 33890" width="2.267" height="13.484" transform="translate(96.609 0.86)" fill="#fff"/>
      <path id="Path_153867" data-name="Path 153867" d="M242.444,161.66v-6.522c0-2.11.994-3.642,3.383-3.642,2.5,0,3.2,1.391,3.2,3.379v1.591h-2.07V154.7c0-.837-.279-1.312-1.093-1.312s-1.155.574-1.155,1.391v7.241c0,.817.341,1.391,1.155,1.391s1.093-.518,1.093-1.312V159.61h2.07v2.329c0,1.929-.8,3.36-3.2,3.36-2.389,0-3.383-1.552-3.383-3.638" transform="translate(-142.554 -150.797)" fill="#fff"/>
      <rect id="Rectangle_33891" data-name="Rectangle 33891" width="2.267" height="13.484" transform="translate(107.406 0.86)" fill="#fff"/>
      <path id="Path_153868" data-name="Path 153868" d="M248.474,160.754h1.808l-.892-5.41h-.023Zm-2.848,4.275,2.546-13.484h2.589l2.566,13.484H251l-.42-2.467h-2.408l-.4,2.467Z" transform="translate(-135.297 -150.685)" fill="#fff"/>
      <path id="Path_153869" data-name="Path 153869" d="M224.861,157h5.41v1.851h-3.143v3.858h2.247v1.831h-2.247v4.1h3.143v1.847h-5.41Z" transform="translate(-182.658 -138.246)" fill="#fff"/>
      <rect id="Rectangle_33892" data-name="Rectangle 33892" width="2.267" height="13.484" transform="translate(50.316 18.756)" fill="#fff"/>
      <path id="Path_153870" data-name="Path 153870" d="M230.244,162.012v8.471h-1.909V157h2.228l2.448,7.736V157H234.9v13.484h-1.988Z" transform="translate(-174.736 -138.246)" fill="#fff"/>
      <path id="Path_153871" data-name="Path 153871" d="M230.6,167.69v-1.811h2.11v1.85c0,.755.338,1.191,1.115,1.191.712,0,1.033-.476,1.033-1.191v-.518a2.444,2.444,0,0,0-1.017-1.909l-1.332-1.332c-1.293-1.273-1.886-2.047-1.886-3.6v-.456c0-1.67.971-2.959,3.179-2.959,2.267,0,3.163,1.112,3.163,3.064v1.089H234.9v-1.171c0-.778-.361-1.155-1.073-1.155a.994.994,0,0,0-1.076,1.112v.282c0,.758.417,1.191,1.076,1.827l1.45,1.43c1.234,1.253,1.831,2.011,1.831,3.5v.653c0,1.85-.994,3.166-3.3,3.166s-3.2-1.293-3.2-3.064" transform="translate(-169.566 -138.353)" fill="#fff"/>
      <path id="Path_153872" data-name="Path 153872" d="M232.686,157h6.027v1.851h-1.87v11.634h-2.287V158.849h-1.87Z" transform="translate(-164.81 -138.246)" fill="#fff"/>
      <rect id="Rectangle_33893" data-name="Rectangle 33893" width="2.267" height="13.484" transform="translate(74.657 18.756)" fill="#fff"/>
      <path id="Path_153873" data-name="Path 153873" d="M235.674,157H241.7v1.851h-1.87v11.634h-2.287V158.849h-1.87Z" transform="translate(-157.995 -138.246)" fill="#fff"/>
      <path id="Path_153874" data-name="Path 153874" d="M244.325,157v10.2c0,2.09-.9,3.442-3.2,3.442-2.392,0-3.386-1.352-3.386-3.442V157h2.27v10.423c0,.8.318,1.335,1.115,1.335s1.112-.538,1.112-1.335V157Z" transform="translate(-153.283 -138.246)" fill="#fff"/>
      <path id="Path_153875" data-name="Path 153875" d="M240.05,167.115v-6.522c0-2.11.994-3.642,3.383-3.642,2.5,0,3.2,1.391,3.2,3.379v1.594h-2.07v-1.772c0-.837-.279-1.312-1.093-1.312s-1.155.574-1.155,1.391v7.241c0,.817.341,1.391,1.155,1.391s1.093-.515,1.093-1.312v-2.487h2.07v2.329c0,1.929-.8,3.363-3.2,3.363-2.388,0-3.383-1.555-3.383-3.642" transform="translate(-148.015 -138.355)" fill="#fff"/>
      <rect id="Rectangle_33894" data-name="Rectangle 33894" width="2.267" height="13.484" transform="translate(99.552 18.756)" fill="#fff"/>
      <path id="Path_153876" data-name="Path 153876" d="M247.937,167.473v-7.241c0-.817-.361-1.391-1.175-1.391-.794,0-1.155.574-1.155,1.391v7.241c0,.817.361,1.391,1.155,1.391.814,0,1.175-.574,1.175-1.391m-4.6-.358v-6.522c0-2.11,1.033-3.642,3.422-3.642,2.408,0,3.442,1.532,3.442,3.642v6.522c0,2.087-1.033,3.642-3.442,3.642-2.388,0-3.422-1.555-3.422-3.642" transform="translate(-140.508 -138.355)" fill="#fff"/>
      <path id="Path_153877" data-name="Path 153877" d="M247.645,162.012v8.471h-1.909V157h2.228l2.444,7.736V157h1.89v13.484h-1.988Z" transform="translate(-135.048 -138.246)" fill="#fff"/>
      <path id="Path_153878" data-name="Path 153878" d="M248.038,157h5.41v1.851H250.3v3.858h2.247v1.831H250.3v4.1h3.143v1.847h-5.41Z" transform="translate(-129.796 -138.246)" fill="#fff"/>
      <path id="Path_153879" data-name="Path 153879" d="M249.9,167.69v-1.811h2.11v1.85c0,.755.338,1.191,1.112,1.191.712,0,1.033-.476,1.033-1.191v-.518a2.449,2.449,0,0,0-1.014-1.909l-1.332-1.332c-1.3-1.273-1.89-2.047-1.89-3.6v-.456c0-1.67.974-2.959,3.179-2.959,2.267,0,3.166,1.112,3.166,3.064v1.089h-2.07v-1.171c0-.778-.361-1.155-1.073-1.155a1,1,0,0,0-1.076,1.112v.282c0,.758.42,1.191,1.076,1.827l1.45,1.43c1.234,1.253,1.831,2.011,1.831,3.5v.653c0,1.85-.994,3.166-3.3,3.166s-3.2-1.293-3.2-3.064" transform="translate(-125.551 -138.353)" fill="#fff"/>
      <path id="Path_153880" data-name="Path 153880" d="M224.826,173.144v-1.811h2.106v1.85c0,.755.335,1.194,1.112,1.194.712,0,1.033-.479,1.033-1.194v-.515a2.44,2.44,0,0,0-1.014-1.909l-1.332-1.335c-1.3-1.273-1.89-2.047-1.89-3.6v-.456c0-1.673.974-2.963,3.179-2.963,2.267,0,3.166,1.112,3.166,3.064v1.089h-2.07v-1.171c0-.778-.361-1.155-1.073-1.155a1,1,0,0,0-1.076,1.112v.282c0,.758.42,1.191,1.076,1.827l1.45,1.43c1.234,1.257,1.831,2.011,1.831,3.5v.656c0,1.847-.994,3.163-3.3,3.163s-3.2-1.293-3.2-3.064" transform="translate(-182.738 -125.913)" fill="#fff"/>
      <path id="Path_153881" data-name="Path 153881" d="M231.677,174.572v-7.244c0-.81-.361-1.388-1.178-1.388-.794,0-1.152.577-1.152,1.388v7.244c0,.814.358,1.388,1.152,1.388.817,0,1.178-.574,1.178-1.388m.673-11.319-3.56.456v-1.273l3.56-.751Zm-5.269,10.958v-6.519c0-2.113,1.033-3.645,3.419-3.645,2.408,0,3.442,1.532,3.442,3.645v6.519c0,2.087-1.033,3.642-3.442,3.642-2.385,0-3.419-1.555-3.419-3.642" transform="translate(-177.597 -127.558)" fill="#fff"/>
      <path id="Path_153882" data-name="Path 153882" d="M229.474,162.454h2.267v11.637h2.707v1.847h-4.974Z" transform="translate(-172.137 -125.803)" fill="#fff"/>
      <rect id="Rectangle_33895" data-name="Rectangle 33895" width="2.267" height="13.484" transform="translate(63.043 36.65)" fill="#fff"/>
      <path id="Path_153883" data-name="Path 153883" d="M235.435,174.088c.935,0,1.293-.554,1.293-1.371v-7.06a1.18,1.18,0,0,0-1.293-1.352h-.955v9.783Zm3.56-8.015v6.247c0,2.067-.853,3.619-3.281,3.619h-3.5V162.454h3.5c2.428,0,3.281,1.532,3.281,3.619" transform="translate(-165.89 -125.804)" fill="#fff"/>
      <path id="Path_153884" data-name="Path 153884" d="M237.231,171.663h1.808l-.892-5.41h-.023Zm-2.848,4.275,2.546-13.484h2.589l2.566,13.484h-2.326l-.42-2.467h-2.408l-.4,2.467Z" transform="translate(-160.94 -125.804)" fill="#fff"/>
      <path id="Path_153885" data-name="Path 153885" d="M236.825,173.144v-1.811h2.11v1.85c0,.755.338,1.194,1.115,1.194.712,0,1.033-.479,1.033-1.194v-.515a2.434,2.434,0,0,0-1.017-1.909l-1.332-1.335c-1.293-1.273-1.887-2.047-1.887-3.6v-.456c0-1.673.971-2.963,3.176-2.963,2.27,0,3.166,1.112,3.166,3.064v1.089h-2.067v-1.171c0-.778-.361-1.155-1.073-1.155a.994.994,0,0,0-1.076,1.112v.282c0,.758.417,1.191,1.076,1.827l1.45,1.43c1.23,1.257,1.831,2.011,1.831,3.5v.656c0,1.847-.994,3.163-3.307,3.163s-3.2-1.293-3.2-3.064" transform="translate(-155.37 -125.913)" fill="#fff"/>
      <g id="Group_100250" data-name="Group 100250" transform="translate(-200.844 -837.759)">
        <text id="Leer_más" data-name="Leer más" transform="translate(235.172 953)" fill="#fff" font-size="14" font-family="Roboto-Regular, Roboto"><tspan x="0" y="13">Leer más</tspan></text>
        <g id="icon_arrow_arrow-right-circle" data-name="icon / arrow / arrow-right-circle" transform="translate(303.172 955.888)">
          <g id="Group_201" data-name="Group 201">
            <path id="icon_arrow-right-circle-2" data-name="icon / arrow-right-circle" d="M6.328,12.657A6.31,6.31,0,0,1,0,6.328,6.31,6.31,0,0,1,6.328,0a6.31,6.31,0,0,1,6.328,6.328,6.31,6.31,0,0,1-6.328,6.328Zm0-11.506a5.178,5.178,0,1,0,5.178,5.178A5.184,5.184,0,0,0,6.328,1.151Zm0,8.055a.521.521,0,0,1-.4-.173.557.557,0,0,1,0-.805L7.249,6.9H4.027a.575.575,0,0,1,0-1.151H7.249L5.926,4.43a.558.558,0,0,1,0-.806.557.557,0,0,1,.806,0l2.3,2.3c.057.057.115.115.115.173a.207.207,0,0,0,.021.076.378.378,0,0,1,.036.154.349.349,0,0,1-.057.23c0,.058-.059.116-.115.172l-2.3,2.3A.52.52,0,0,1,6.328,9.205Z" transform="translate(0 0)" fill="#fff"/>
          </g>
        </g>
      </g>
    </g>
  </g>
</svg>
