<svg xmlns="http://www.w3.org/2000/svg" xmlns:xlink="http://www.w3.org/1999/xlink" width="160" height="160" viewBox="0 0 160 160">
  <defs>
    <clipPath id="clip-path">
      <path id="icon_arrow-right-circle" data-name="icon / arrow-right-circle" d="M6.328,12.657A6.31,6.31,0,0,1,0,6.328,6.31,6.31,0,0,1,6.328,0a6.31,6.31,0,0,1,6.328,6.328,6.31,6.31,0,0,1-6.328,6.328Zm0-11.506a5.178,5.178,0,1,0,5.178,5.178A5.184,5.184,0,0,0,6.328,1.151Zm0,8.055a.521.521,0,0,1-.4-.173.557.557,0,0,1,0-.805L7.249,6.9H4.027a.575.575,0,0,1,0-1.151H7.249L5.926,4.43a.558.558,0,0,1,0-.806.557.557,0,0,1,.806,0l2.3,2.3c.057.057.115.115.115.173a.207.207,0,0,0,.021.076.378.378,0,0,1,.036.154.349.349,0,0,1-.057.23c0,.058-.059.116-.115.172l-2.3,2.3A.52.52,0,0,1,6.328,9.205Z" transform="translate(0 0)" fill="#fff"/>
    </clipPath>
  </defs>
  <g id="t2-ob5" transform="translate(-1035.5 -819)">
    <g id="Group_100229" data-name="Group 100229">
      <g id="Group_98539" data-name="Group 98539" transform="translate(15 39)">
        <rect id="Rectangle_33839" data-name="Rectangle 33839" width="160" height="160" rx="10" transform="translate(1020.5 780)" fill="#ee402b"/>
        <g id="Group_98439" data-name="Group 98439" transform="translate(1035.927 792.864)">
          <g id="Group_98438" data-name="Group 98438" transform="translate(0 0)">
            <path id="Path_153528" data-name="Path 153528" d="M278.15,49.859a4.9,4.9,0,0,0-4.567,2.237h-.049V44.056h9.327V39.63H268.586V57.809h4.947v-.715c0-1.906.856-2.949,2.379-2.949,1.667,0,2.336,1.145,2.336,2.9v7.808c0,1.709-.623,2.9-2.29,2.9-1.854,0-2.52-1.234-2.52-3.136V60.565h-4.951v3.665c0,4.9,1.952,8.044,7.47,8.044,5.472,0,7.71-2.9,7.71-7.372V57c0-5.092-2.615-7.139-5.518-7.139" transform="translate(-268.488 -39.105)" fill="#fff"/>
            <path id="Path_153529" data-name="Path 153529" d="M300.959,98.683a15.416,15.416,0,1,1,15.415-15.417,15.433,15.433,0,0,1-15.415,15.417M330.564,54h-15.99a.2.2,0,0,0-.2.2v5.313a.2.2,0,0,0,.2.206h6.366L313.87,66.8a20.934,20.934,0,1,0-15.615,37.232v6.126H291.95a.2.2,0,0,0-.206.2v5.69a.2.2,0,0,0,.206.206h6.305v6.025a.2.2,0,0,0,.206.2h5.69a.2.2,0,0,0,.208-.2V116.25h6.305a.2.2,0,0,0,.2-.206v-5.69a.2.2,0,0,0-.2-.2H304.36V103.93a20.923,20.923,0,0,0,13.716-32.708l6.97-6.973V70.2a.2.2,0,0,0,.208.2h5.311a.206.206,0,0,0,.208-.2V54.2a.208.208,0,0,0-.208-.2" transform="translate(-229.827 -6.328)" fill="#fff"/>
            <path id="Path_153530" data-name="Path 153530" d="M303.263,62.7h-18.7a.2.2,0,0,0-.2.182v4.527a.193.193,0,0,0,.2.185h18.7a.192.192,0,0,0,.206-.185V62.878a.194.194,0,0,0-.206-.182" transform="translate(-222.713 7.915)" fill="#fff"/>
            <path id="Path_153531" data-name="Path 153531" d="M303.263,65.759h-18.7a.2.2,0,0,0-.2.19v4.524a.2.2,0,0,0,.2.185h18.7a.194.194,0,0,0,.206-.185V65.949a.2.2,0,0,0-.206-.19" transform="translate(-222.713 12.933)" fill="#fff"/>
            <rect id="Rectangle_33838" data-name="Rectangle 33838" width="2.267" height="13.484" transform="translate(27.611 0.157)" fill="#fff"/>
            <path id="Path_153532" data-name="Path 153532" d="M281.417,45.913h3.222v7.2H283V51.642a2.038,2.038,0,0,1-2.165,1.631c-1.949,0-2.844-1.552-2.844-3.638V43.108c0-2.106,1.017-3.638,3.4-3.638,2.507,0,3.245,1.394,3.245,3.382v1.191h-2.067V42.672c0-.837-.318-1.312-1.135-1.312s-1.175.577-1.175,1.391v7.241c0,.817.338,1.391,1.115,1.391.735,0,1.115-.417,1.115-1.293V47.7h-1.076Z" transform="translate(-246.805 -39.47)" fill="#fff"/>
            <path id="Path_153533" data-name="Path 153533" d="M287,39.518v10.2c0,2.09-.892,3.442-3.2,3.442-2.388,0-3.386-1.352-3.386-3.442v-10.2h2.27v10.42c0,.8.318,1.335,1.115,1.335s1.112-.538,1.112-1.335V39.518Z" transform="translate(-241.29 -39.361)" fill="#fff"/>
            <path id="Path_153534" data-name="Path 153534" d="M285.461,48.73h1.808l-.892-5.41h-.023ZM282.613,53l2.546-13.484h2.589L290.313,53h-2.326l-.42-2.464h-2.408l-.4,2.464Z" transform="translate(-236.272 -39.361)" fill="#fff"/>
            <path id="Path_153535" data-name="Path 153535" d="M285.244,39.518h2.267V51.155h2.707V53h-4.974Z" transform="translate(-230.271 -39.36)" fill="#fff"/>
            <path id="Path_153536" data-name="Path 153536" d="M290.3,51.155c.935,0,1.293-.554,1.293-1.375V42.723c0-.8-.358-1.358-1.293-1.358h-.955v9.79Zm3.56-8.018v6.25c0,2.067-.856,3.615-3.281,3.615h-3.5V39.518h3.5c2.425,0,3.281,1.532,3.281,3.619" transform="translate(-226.095 -39.361)" fill="#fff"/>
            <path id="Path_153537" data-name="Path 153537" d="M292.179,48.73h1.811l-.9-5.41h-.02ZM289.335,53l2.546-13.484h2.585L297.032,53h-2.326l-.417-2.464h-2.408l-.4,2.464Z" transform="translate(-220.941 -39.361)" fill="#fff"/>
            <path id="Path_153538" data-name="Path 153538" d="M295.19,51.155c.932,0,1.293-.554,1.293-1.375V42.723a1.185,1.185,0,0,0-1.293-1.358h-.955v9.79Zm3.56-8.018v6.25c0,2.067-.856,3.615-3.281,3.615h-3.5V39.518h3.5c2.425,0,3.281,1.532,3.281,3.619" transform="translate(-214.942 -39.361)" fill="#fff"/>
            <path id="Path_153539" data-name="Path 153539" d="M280.126,56.913c.935,0,1.293-.561,1.293-1.375V48.481c0-.8-.358-1.358-1.293-1.358h-.955v9.79Zm3.56-8.018v6.25c0,2.067-.853,3.615-3.281,3.615h-3.5V45.276h3.5c2.428,0,3.281,1.529,3.281,3.619" transform="translate(-249.293 -26.228)" fill="#fff"/>
            <path id="Path_153540" data-name="Path 153540" d="M279.365,45.276h5.41v1.85h-3.143v3.858h2.247v1.827h-2.247v4.1h3.143v1.85h-5.41Z" transform="translate(-243.68 -26.227)" fill="#fff"/>
            <path id="Path_153541" data-name="Path 153541" d="M285.439,51.674h3.225v7.2h-1.637V57.4a2.04,2.04,0,0,1-2.165,1.634c-1.949,0-2.841-1.555-2.841-3.642V48.869c0-2.106,1.014-3.642,3.4-3.642,2.507,0,3.245,1.394,3.245,3.386V49.8h-2.07V48.432c0-.837-.318-1.312-1.132-1.312s-1.178.577-1.178,1.391v7.241c0,.817.338,1.391,1.115,1.391.735,0,1.116-.417,1.116-1.293V53.462h-1.076Z" transform="translate(-237.625 -26.34)" fill="#fff"/>
            <path id="Path_153542" data-name="Path 153542" d="M289.153,46.077l-3.56.456V45.261l3.56-.755Zm-4.714.955h5.41v1.85h-3.143v3.858h2.247v1.827h-2.247v4.1h3.143v1.85h-5.41Z" transform="translate(-232.11 -27.984)" fill="#fff"/>
            <path id="Path_153543" data-name="Path 153543" d="M288.366,50.289v8.474h-1.909V45.276h2.228l2.444,7.736V45.276h1.89V58.763H291.03Z" transform="translate(-227.506 -26.228)" fill="#fff"/>
            <path id="Path_153544" data-name="Path 153544" d="M288.85,45.276h5.41v1.85h-3.143v3.858h2.247v1.827h-2.247v4.1h3.143v1.85h-5.41Z" transform="translate(-222.047 -26.227)" fill="#fff"/>
            <path id="Path_153545" data-name="Path 153545" d="M293.135,47.126v4.2h.755a.981.981,0,0,0,1.115-1.112V48.222c0-.738-.338-1.1-1.115-1.1Zm0,5.449v6.188h-2.267V45.276h3.3c2.283,0,3.12,1.135,3.12,3.022V50.03c0,1.453-.515,2.306-1.811,2.6l2.169,6.128h-2.385Z" transform="translate(-217.444 -26.228)" fill="#fff"/>
            <path id="Path_153546" data-name="Path 153546" d="M297.8,55.749V48.509c0-.814-.361-1.391-1.175-1.391-.794,0-1.155.577-1.155,1.391v7.241c0,.817.361,1.391,1.155,1.391.814,0,1.175-.574,1.175-1.391m-4.6-.358V48.87c0-2.11,1.034-3.642,3.422-3.642,2.408,0,3.442,1.532,3.442,3.642v6.522c0,2.087-1.033,3.642-3.442,3.642-2.388,0-3.422-1.555-3.422-3.642" transform="translate(-212.121 -26.337)" fill="#fff"/>
          </g>
        </g>
      </g>
    </g>
    <g id="Group_100236" data-name="Group 100236" transform="translate(840)">
      <text id="Leer_más" data-name="Leer más" transform="translate(235.172 953)" fill="#fff" font-size="14" font-family="Roboto-Regular, Roboto"><tspan x="0" y="13">Leer más</tspan></text>
      <g id="icon_arrow_arrow-right-circle" data-name="icon / arrow / arrow-right-circle" transform="translate(303.172 955.888)">
        <g id="Group_201" data-name="Group 201">
          <path id="icon_arrow-right-circle-2" data-name="icon / arrow-right-circle" d="M6.328,12.657A6.31,6.31,0,0,1,0,6.328,6.31,6.31,0,0,1,6.328,0a6.31,6.31,0,0,1,6.328,6.328,6.31,6.31,0,0,1-6.328,6.328Zm0-11.506a5.178,5.178,0,1,0,5.178,5.178A5.184,5.184,0,0,0,6.328,1.151Zm0,8.055a.521.521,0,0,1-.4-.173.557.557,0,0,1,0-.805L7.249,6.9H4.027a.575.575,0,0,1,0-1.151H7.249L5.926,4.43a.558.558,0,0,1,0-.806.557.557,0,0,1,.806,0l2.3,2.3c.057.057.115.115.115.173a.207.207,0,0,0,.021.076.378.378,0,0,1,.036.154.349.349,0,0,1-.057.23c0,.058-.059.116-.115.172l-2.3,2.3A.52.52,0,0,1,6.328,9.205Z" transform="translate(0 0)" fill="#fff"/>
        </g>
      </g>
    </g>
  </g>
</svg>
