<svg xmlns="http://www.w3.org/2000/svg" xmlns:xlink="http://www.w3.org/1999/xlink" width="160" height="160" viewBox="0 0 160 160">
  <defs>
    <clipPath id="clip-path">
      <path id="icon_arrow-right-circle" data-name="icon / arrow-right-circle" d="M6.328,12.657A6.31,6.31,0,0,1,0,6.328,6.31,6.31,0,0,1,6.328,0a6.31,6.31,0,0,1,6.328,6.328,6.31,6.31,0,0,1-6.328,6.328Zm0-11.506a5.178,5.178,0,1,0,5.178,5.178A5.184,5.184,0,0,0,6.328,1.151Zm0,8.055a.521.521,0,0,1-.4-.173.557.557,0,0,1,0-.805L7.249,6.9H4.027a.575.575,0,0,1,0-1.151H7.249L5.926,4.43a.558.558,0,0,1,0-.806.557.557,0,0,1,.806,0l2.3,2.3c.057.057.115.115.115.173a.207.207,0,0,0,.021.076.378.378,0,0,1,.036.154.349.349,0,0,1-.057.23c0,.058-.059.116-.115.172l-2.3,2.3A.52.52,0,0,1,6.328,9.205Z" transform="translate(0 0)" fill="#fff"/>
    </clipPath>
  </defs>
  <g id="t2-ob17" transform="translate(-1125.5 -1222)">
    <rect id="Rectangle_33874" data-name="Rectangle 33874" width="160" height="160" rx="10" transform="translate(1125.5 1222)" fill="#18486c"/>
    <g id="Group_98465" data-name="Group 98465" transform="translate(1139.695 1235.123)">
      <path id="Path_153886" data-name="Path 153886" d="M277.236,151.552v32.26H271.81V159.117h-.046l-3.806,3.947h-.046V157.4l4.993-5.85Z" transform="translate(-267.912 -151.264)" fill="#fff"/>
      <path id="Path_153887" data-name="Path 153887" d="M271.508,151.552h13.609v4.993l-7.093,27.266h-5.377l7.234-27.837h-8.372Z" transform="translate(-259.71 -151.264)" fill="#fff"/>
      <path id="Path_153888" data-name="Path 153888" d="M312.6,192.635a13.615,13.615,0,0,0,4.372-10,13.859,13.859,0,0,0-.113-1.741,10.879,10.879,0,0,1,6.152,18.887,13.683,13.683,0,0,0-10.411-7.143m9.264,13.547a10.915,10.915,0,0,1-10.9,10.9,10.789,10.789,0,0,1-5.375-1.431,13.587,13.587,0,0,0,3.492-11.989,13.628,13.628,0,0,0,12.561.341,10.852,10.852,0,0,1,.221,2.179m-37.076.091a10.794,10.794,0,0,1,.238-2.261,13.626,13.626,0,0,0,12.523-.342,13.582,13.582,0,0,0,3.624,12,10.88,10.88,0,0,1-16.385-9.4m-4.731-14.548a10.911,10.911,0,0,1,9.733-10.835,13.875,13.875,0,0,0-.115,1.741,13.615,13.615,0,0,0,4.461,10.084,13.679,13.679,0,0,0-10.467,7.09,10.871,10.871,0,0,1-3.612-8.081m23.266-19.99a10.91,10.91,0,0,1,9.993,6.551,13.693,13.693,0,0,0-9.993,7.67,13.685,13.685,0,0,0-9.99-7.67,10.912,10.912,0,0,1,9.99-6.551m2.6,24.793a10.79,10.79,0,0,1,5.043-1.248,10.908,10.908,0,0,1,9.769,6.1,10.856,10.856,0,0,1-14.812-4.851m-5.226.072a10.854,10.854,0,0,1-14.743,4.8,10.867,10.867,0,0,1,14.743-4.8m-8.126-15.645a10.787,10.787,0,0,1,9.149,12.443,10.9,10.9,0,0,1-9.293-10.767,10.713,10.713,0,0,1,.144-1.676m10.806,33.033a10.869,10.869,0,0,1-.1-15.527,10.869,10.869,0,0,1,.1,15.527m10.849-31.357a10.9,10.9,0,0,1-9.291,10.767,10.8,10.8,0,0,1,9.149-12.443,10.732,10.732,0,0,1,.142,1.676m15.115,9.093a13.662,13.662,0,0,0-13.146-13.636,13.645,13.645,0,0,0-25.736,0,13.638,13.638,0,0,0-7.879,24.394,13.639,13.639,0,0,0,20.813,15.046,13.636,13.636,0,0,0,20.7-15.06,13.627,13.627,0,0,0,5.248-10.743" transform="translate(-234.817 -112.505)" fill="#fff"/>
      <path id="Path_153889" data-name="Path 153889" d="M281.6,160.721h1.808l-.892-5.41h-.023ZM278.752,165l2.546-13.484h2.588L286.452,165h-2.326l-.42-2.467H281.3L280.9,165Z" transform="translate(-243.189 -151.355)" fill="#fff"/>
      <path id="Path_153890" data-name="Path 153890" d="M281.382,151.512h2.267v11.634h2.707V165h-4.974Z" transform="translate(-237.191 -151.355)" fill="#fff"/>
      <rect id="Rectangle_33897" data-name="Rectangle 33897" width="2.267" height="13.484" transform="translate(50.198 0.154)" fill="#fff"/>
      <path id="Path_153891" data-name="Path 153891" d="M287.039,160.721h1.811l-.9-5.41h-.023ZM284.195,165l2.546-13.484h2.585L291.892,165h-2.326l-.417-2.467h-2.408l-.4,2.467Z" transform="translate(-230.775 -151.355)" fill="#fff"/>
      <path id="Path_153892" data-name="Path 153892" d="M288.734,156.522v8.471h-1.909V151.512h2.228l2.447,7.733v-7.733h1.886v13.481H291.4Z" transform="translate(-224.777 -151.354)" fill="#fff"/>
      <path id="Path_153893" data-name="Path 153893" d="M291.536,163.148h3.441V165h-5.807v-1.847l3.56-9.786h-3.2v-1.85h5.587v1.85Z" transform="translate(-219.426 -151.356)" fill="#fff"/>
      <path id="Path_153894" data-name="Path 153894" d="M294.051,160.721h1.811l-.9-5.41h-.023ZM291.207,165l2.546-13.484h2.585L298.9,165h-2.326l-.417-2.467h-2.408l-.4,2.467Z" transform="translate(-214.782 -151.355)" fill="#fff"/>
      <path id="Path_153895" data-name="Path 153895" d="M293.74,162.2v-1.808h2.11v1.847c0,.755.335,1.194,1.112,1.194.712,0,1.033-.476,1.033-1.194v-.515a2.444,2.444,0,0,0-1.014-1.909l-1.332-1.335c-1.3-1.273-1.89-2.047-1.89-3.6v-.456c0-1.67.974-2.963,3.179-2.963,2.267,0,3.166,1.112,3.166,3.061v1.092h-2.067v-1.171c0-.778-.364-1.155-1.076-1.155a1,1,0,0,0-1.076,1.112v.282c0,.755.42,1.191,1.076,1.827l1.45,1.434c1.234,1.25,1.831,2.008,1.831,3.5v.656c0,1.847-.994,3.159-3.3,3.159s-3.2-1.289-3.2-3.061" transform="translate(-209.005 -151.464)" fill="#fff"/>
      <path id="Path_153896" data-name="Path 153896" d="M298.99,153.362v5.312h.837a.975.975,0,0,0,1.112-1.115v-3.1c0-.735-.338-1.092-1.112-1.092Zm-2.267-1.85h3.359c2.29,0,3.123,1.132,3.123,3.025v2.844c0,1.886-.833,3.041-3.123,3.041H298.99V165h-2.267Z" transform="translate(-202.202 -151.355)" fill="#fff"/>
      <path id="Path_153897" data-name="Path 153897" d="M301.548,160.721h1.811l-.892-5.41h-.026ZM298.7,165l2.546-13.484h2.589L306.4,165h-2.326l-.417-2.467H301.25l-.4,2.467Z" transform="translate(-197.683 -151.355)" fill="#fff"/>
      <path id="Path_153898" data-name="Path 153898" d="M303.6,153.359v4.2h.755a.981.981,0,0,0,1.115-1.112v-1.988c0-.738-.338-1.1-1.115-1.1Zm0,5.453V165h-2.267V151.512h3.3c2.287,0,3.123,1.132,3.123,3.025v1.729c0,1.453-.518,2.306-1.811,2.6L308.116,165h-2.388Z" transform="translate(-191.683 -151.355)" fill="#fff"/>
      <path id="Path_153899" data-name="Path 153899" d="M306.4,160.721h1.811l-.9-5.41h-.02ZM303.559,165l2.546-13.484h2.585L311.256,165H308.93l-.417-2.467H306.1L305.7,165Z" transform="translate(-186.61 -151.355)" fill="#fff"/>
      <path id="Path_153900" data-name="Path 153900" d="M278.861,156.967h2.267V168.6h2.707v1.847h-4.974Z" transform="translate(-242.941 -138.914)" fill="#fff"/>
      <path id="Path_153901" data-name="Path 153901" d="M285.257,167.439V160.2c0-.817-.361-1.391-1.178-1.391-.794,0-1.152.574-1.152,1.391v7.241c0,.817.358,1.391,1.152,1.391.817,0,1.178-.574,1.178-1.391m-4.6-.358v-6.525c0-2.106,1.033-3.638,3.419-3.638,2.408,0,3.441,1.532,3.441,3.638v6.525c0,2.087-1.033,3.638-3.441,3.638-2.385,0-3.419-1.552-3.419-3.638" transform="translate(-238.835 -139.025)" fill="#fff"/>
      <path id="Path_153902" data-name="Path 153902" d="M286.568,163.361h3.222v7.2h-1.634v-1.476a2.035,2.035,0,0,1-2.165,1.634c-1.949,0-2.844-1.552-2.844-3.638V160.56c0-2.11,1.017-3.642,3.4-3.642,2.507,0,3.245,1.391,3.245,3.382v1.191h-2.067V160.12c0-.837-.318-1.312-1.135-1.312s-1.174.577-1.174,1.391v7.241c0,.814.338,1.391,1.115,1.391.732,0,1.115-.417,1.115-1.293v-2.388h-1.076Z" transform="translate(-233.168 -139.025)" fill="#fff"/>
      <path id="Path_153903" data-name="Path 153903" d="M287.832,158.817v4.2h.755A.981.981,0,0,0,289.7,161.9v-1.988c0-.738-.338-1.1-1.115-1.1Zm0,5.449v6.184h-2.267V156.967h3.3c2.283,0,3.12,1.132,3.12,3.025v1.729c0,1.453-.515,2.306-1.811,2.6l2.168,6.125h-2.388Z" transform="translate(-227.65 -138.913)" fill="#fff"/>
      <path id="Path_153904" data-name="Path 153904" d="M290.633,166.176h1.811l-.9-5.41h-.02Zm-2.844,4.275,2.546-13.484h2.585l2.566,13.484H293.16l-.417-2.467h-2.408l-.4,2.467Z" transform="translate(-222.578 -138.913)" fill="#fff"/>
      <path id="Path_153905" data-name="Path 153905" d="M292.686,158.817v4.2h.755a.981.981,0,0,0,1.116-1.112v-1.988c0-.738-.338-1.1-1.116-1.1Zm0,5.449v6.184h-2.267V156.967h3.3c2.284,0,3.12,1.132,3.12,3.025v1.729c0,1.453-.515,2.306-1.811,2.6l2.169,6.125h-2.388Z" transform="translate(-216.58 -138.913)" fill="#fff"/>
      <path id="Path_153906" data-name="Path 153906" d="M278.861,162.422h2.267v11.634h2.707v1.85h-4.974Z" transform="translate(-242.941 -126.472)" fill="#fff"/>
      <path id="Path_153907" data-name="Path 153907" d="M285.257,172.9v-7.244c0-.817-.361-1.391-1.178-1.391-.794,0-1.152.574-1.152,1.391V172.9c0,.814.358,1.388,1.152,1.388.817,0,1.178-.574,1.178-1.388m-4.6-.361v-6.522c0-2.11,1.033-3.642,3.419-3.642,2.408,0,3.441,1.532,3.441,3.642v6.522c0,2.087-1.033,3.638-3.441,3.638-2.385,0-3.419-1.552-3.419-3.638" transform="translate(-238.835 -126.583)" fill="#fff"/>
      <path id="Path_153908" data-name="Path 153908" d="M283.11,173.112V171.3h2.11v1.85c0,.755.338,1.194,1.115,1.194.712,0,1.03-.479,1.03-1.194v-.518a2.439,2.439,0,0,0-1.014-1.909l-1.332-1.332c-1.293-1.273-1.89-2.047-1.89-3.6v-.456c0-1.67.974-2.959,3.179-2.959,2.27,0,3.166,1.112,3.166,3.061v1.092H287.4v-1.171c0-.778-.358-1.155-1.07-1.155a.994.994,0,0,0-1.076,1.112v.282c0,.755.417,1.191,1.076,1.827l1.45,1.43c1.23,1.253,1.831,2.011,1.831,3.5v.656c0,1.847-.994,3.159-3.307,3.159s-3.2-1.289-3.2-3.061" transform="translate(-233.25 -126.581)" fill="#fff"/>
      <path id="Path_153909" data-name="Path 153909" d="M290.688,172.9v-7.244c0-.817-.361-1.391-1.175-1.391-.8,0-1.155.574-1.155,1.391V172.9c0,.814.358,1.388,1.155,1.388.814,0,1.175-.574,1.175-1.388m-4.6-.361v-6.522c0-2.11,1.033-3.642,3.422-3.642,2.408,0,3.441,1.532,3.441,3.642v6.522c0,2.087-1.033,3.638-3.441,3.638-2.388,0-3.422-1.552-3.422-3.638" transform="translate(-226.449 -126.583)" fill="#fff"/>
      <path id="Path_153910" data-name="Path 153910" d="M290.844,169.84v4.216h1a.974.974,0,0,0,1.112-1.093v-2.027c0-.718-.338-1.1-1.135-1.1Zm0-1.729h.8a.958.958,0,0,0,1.076-1.1v-1.65a.959.959,0,0,0-1.1-1.1h-.774Zm-2.267-5.689h3.281c2.267,0,3.025,1.053,3.025,2.963v1.371a1.967,1.967,0,0,1-1.352,2.149,2.042,2.042,0,0,1,1.69,2.247v1.791c0,1.906-.856,2.963-3.123,2.963h-3.52Z" transform="translate(-220.781 -126.471)" fill="#fff"/>
      <path id="Path_153911" data-name="Path 153911" d="M297.027,162.422v10.42c0,1.952-.853,3.222-3.12,3.222-2.349,0-2.985-1.293-2.985-3v-2.684h2.149V173.1c0,.676.236,1.076.837,1.076.617,0,.853-.4.853-1.1V162.422Z" transform="translate(-215.433 -126.471)" fill="#fff"/>
      <path id="Path_153912" data-name="Path 153912" d="M293.171,162.422h5.41v1.847h-3.143v3.862h2.247v1.827h-2.247v4.1h3.143v1.85h-5.41Z" transform="translate(-210.304 -126.472)" fill="#fff"/>
      <path id="Path_153913" data-name="Path 153913" d="M295.111,162.422h6.027v1.847h-1.87v11.637H296.98V164.269h-1.87Z" transform="translate(-205.879 -126.472)" fill="#fff"/>
      <rect id="Rectangle_33898" data-name="Rectangle 33898" width="2.267" height="13.484" transform="translate(96.309 35.947)" fill="#fff"/>
      <path id="Path_153914" data-name="Path 153914" d="M305.854,162.422l-2.566,13.484h-2.47l-2.562-13.484h2.306l1.552,9.406h.02l1.591-9.406Z" transform="translate(-198.706 -126.472)" fill="#fff"/>
      <path id="Path_153915" data-name="Path 153915" d="M305.33,172.9v-7.244c0-.817-.361-1.391-1.175-1.391-.8,0-1.155.574-1.155,1.391V172.9c0,.814.358,1.388,1.155,1.388.814,0,1.175-.574,1.175-1.388m-4.6-.361v-6.522c0-2.11,1.034-3.642,3.422-3.642,2.408,0,3.438,1.532,3.438,3.642v6.522c0,2.087-1.03,3.638-3.438,3.638-2.388,0-3.422-1.552-3.422-3.638" transform="translate(-193.053 -126.583)" fill="#fff"/>
      <path id="Path_153916" data-name="Path 153916" d="M303.182,173.112V171.3h2.11v1.85c0,.755.338,1.194,1.115,1.194.712,0,1.033-.479,1.033-1.194v-.518a2.444,2.444,0,0,0-1.017-1.909l-1.332-1.332c-1.293-1.273-1.887-2.047-1.887-3.6v-.456c0-1.67.971-2.959,3.176-2.959,2.27,0,3.166,1.112,3.166,3.061v1.092H307.48v-1.171c0-.778-.361-1.155-1.073-1.155a.994.994,0,0,0-1.076,1.112v.282c0,.755.417,1.191,1.076,1.827l1.45,1.43c1.234,1.253,1.831,2.011,1.831,3.5v.656c0,1.847-.994,3.159-3.307,3.159s-3.2-1.289-3.2-3.061" transform="translate(-187.47 -126.581)" fill="#fff"/>
      <g id="Group_100251" data-name="Group 100251" transform="translate(-201.661 -838.541)">
        <text id="Leer_más" data-name="Leer más" transform="translate(235.172 953)" fill="#fff" font-size="14" font-family="Roboto-Regular, Roboto"><tspan x="0" y="13">Leer más</tspan></text>
        <g id="icon_arrow_arrow-right-circle" data-name="icon / arrow / arrow-right-circle" transform="translate(303.172 955.888)">
          <g id="Group_201" data-name="Group 201">
            <path id="icon_arrow-right-circle-2" data-name="icon / arrow-right-circle" d="M6.328,12.657A6.31,6.31,0,0,1,0,6.328,6.31,6.31,0,0,1,6.328,0a6.31,6.31,0,0,1,6.328,6.328,6.31,6.31,0,0,1-6.328,6.328Zm0-11.506a5.178,5.178,0,1,0,5.178,5.178A5.184,5.184,0,0,0,6.328,1.151Zm0,8.055a.521.521,0,0,1-.4-.173.557.557,0,0,1,0-.805L7.249,6.9H4.027a.575.575,0,0,1,0-1.151H7.249L5.926,4.43a.558.558,0,0,1,0-.806.557.557,0,0,1,.806,0l2.3,2.3c.057.057.115.115.115.173a.207.207,0,0,0,.021.076.378.378,0,0,1,.036.154.349.349,0,0,1-.057.23c0,.058-.059.116-.115.172l-2.3,2.3A.52.52,0,0,1,6.328,9.205Z" transform="translate(0 0)" fill="#fff"/>
          </g>
        </g>
      </g>
    </g>
  </g>
</svg>
