<svg xmlns="http://www.w3.org/2000/svg" xmlns:xlink="http://www.w3.org/1999/xlink" width="160" height="160" viewBox="0 0 160 160">
  <defs>
    <clipPath id="clip-path">
      <path id="icon_arrow-right-circle" data-name="icon / arrow-right-circle" d="M6.328,12.657A6.31,6.31,0,0,1,0,6.328,6.31,6.31,0,0,1,6.328,0a6.31,6.31,0,0,1,6.328,6.328,6.31,6.31,0,0,1-6.328,6.328Zm0-11.506a5.178,5.178,0,1,0,5.178,5.178A5.184,5.184,0,0,0,6.328,1.151Zm0,8.055a.521.521,0,0,1-.4-.173.557.557,0,0,1,0-.805L7.249,6.9H4.027a.575.575,0,0,1,0-1.151H7.249L5.926,4.43a.558.558,0,0,1,0-.806.557.557,0,0,1,.806,0l2.3,2.3c.057.057.115.115.115.173a.207.207,0,0,0,.021.076.378.378,0,0,1,.036.154.349.349,0,0,1-.057.23c0,.058-.059.116-.115.172l-2.3,2.3A.52.52,0,0,1,6.328,9.205Z" transform="translate(0 0)" fill="#fff"/>
    </clipPath>
  </defs>
  <g id="t2-ob3" transform="translate(-615.5 -819)">
    <g id="Group_100227" data-name="Group 100227">
      <g id="Group_98537" data-name="Group 98537" transform="translate(16 39)">
        <rect id="Rectangle_33830" data-name="Rectangle 33830" width="160" height="160" rx="10" transform="translate(599.5 780)" fill="#4b9e46"/>
        <g id="Group_98436" data-name="Group 98436" transform="translate(615.284 792.865)">
          <path id="Path_153489" data-name="Path 153489" d="M165.634,72.444c5.473,0,7.852-2.9,7.852-7.376V60.311c0-2.95-1.286-4.856-4-5.473a5.152,5.152,0,0,0,3.714-5.233V46.8c0-4.567-2.189-7.376-7.182-7.376-5.617,0-7.569,3.327-7.569,8.088v2.854H163.4V47.082c0-2,.62-3.14,2.333-3.14s2.333,1.142,2.333,2.9v3.471c0,1.716-1.145,2.615-2.9,2.615h-2.047v4.144H165.4c1.9,0,2.664.9,2.664,2.618v5.328c0,1.709-.761,2.9-2.428,2.9-1.857,0-2.523-1.24-2.523-3.143V60.17h-4.945V64.4c0,4.9,1.949,8.042,7.468,8.042" transform="translate(-158.166 -39.207)" fill="#fff"/>
          <path id="Path_153490" data-name="Path 153490" d="M213.054,71.584c0-4.5-2.891-8.153-7.264-8.153-2.188,0-4.826,2.4-6.26,3.872-1.434-1.476-3.9-3.875-6.086-3.875-4.377,0-7.445,3.652-7.445,8.153a8.254,8.254,0,0,0,2.323,5.768L199.54,88.586l11.2-11.224-.01-.01a8.254,8.254,0,0,0,2.323-5.768" transform="translate(-97.057 9.544)" fill="#fff"/>
          <path id="Path_153491" data-name="Path 153491" d="M221.078,128.86c-.039,0-.075,0-.118,0a1.846,1.846,0,0,1-1.7-1.529l-5.7-33.181-8.632,16a1.842,1.842,0,0,1-3.442-.614l-3.662-25.609-6.706,15.057a1.84,1.84,0,0,1-1.683,1.093H163.388a1.842,1.842,0,0,1,0-3.685h24.857l8.816-19.8a1.842,1.842,0,0,1,3.507.489l3.776,26.406L212.859,87.7a1.842,1.842,0,0,1,3.435.564L221.57,119,240.8,55.125a1.842,1.842,0,0,1,3.422-.272l10.119,20.976a1.842,1.842,0,0,1-3.317,1.6l-8.062-16.71L222.84,127.551a1.842,1.842,0,0,1-1.762,1.309" transform="translate(-152.833 -12.385)" fill="#fff"/>
          <path id="Path_153492" data-name="Path 153492" d="M166.127,50.1V48.289h2.11v1.847c0,.755.338,1.194,1.116,1.194.712,0,1.034-.479,1.034-1.194v-.518a2.438,2.438,0,0,0-1.017-1.906l-1.332-1.335c-1.293-1.273-1.89-2.047-1.89-3.6v-.456c0-1.673.974-2.963,3.179-2.963,2.271,0,3.166,1.112,3.166,3.061v1.093h-2.07V42.34c0-.778-.358-1.155-1.07-1.155a.994.994,0,0,0-1.076,1.112v.279c0,.758.417,1.194,1.076,1.831l1.45,1.431c1.234,1.257,1.831,2.011,1.831,3.5V50c0,1.847-.994,3.16-3.307,3.16s-3.2-1.289-3.2-3.061" transform="translate(-140.007 -39.358)" fill="#fff"/>
          <path id="Path_153493" data-name="Path 153493" d="M171.148,48.616h1.811l-.9-5.41h-.02ZM168.3,52.891l2.546-13.485h2.585L176,52.891h-2.326l-.417-2.467h-2.408l-.4,2.467Z" transform="translate(-135.043 -39.249)" fill="#fff"/>
          <path id="Path_153494" data-name="Path 153494" d="M170.933,39.406H173.2V51.044h2.7v1.847h-4.971Z" transform="translate(-129.043 -39.249)" fill="#fff"/>
          <path id="Path_153495" data-name="Path 153495" d="M179.288,39.406v10.2c0,2.09-.9,3.442-3.2,3.442-2.389,0-3.383-1.352-3.383-3.442v-10.2h2.27V49.83c0,.794.318,1.332,1.112,1.332s1.112-.538,1.112-1.332V39.406Z" transform="translate(-125.006 -39.249)" fill="#fff"/>
          <path id="Path_153496" data-name="Path 153496" d="M178.328,51.041c.935,0,1.293-.554,1.293-1.371V42.608a1.182,1.182,0,0,0-1.293-1.355h-.955v9.787Zm3.56-8.016v6.247c0,2.067-.856,3.619-3.281,3.619h-3.5V39.406h3.5c2.425,0,3.281,1.532,3.281,3.619" transform="translate(-119.532 -39.249)" fill="#fff"/>
          <path id="Path_153497" data-name="Path 153497" d="M170.842,53.517v5.135h-2.267V53.517l-2.526-8.353h2.366l1.375,5.112h.016l1.375-5.112h2.169Z" transform="translate(-140.186 -26.115)" fill="#fff"/>
          <path id="Path_153498" data-name="Path 153498" d="M171.455,52.582V56.8h.994a.978.978,0,0,0,1.116-1.1V53.678c0-.715-.341-1.1-1.135-1.1Zm0-1.729h.8a.954.954,0,0,0,1.073-1.093V48.107a.954.954,0,0,0-1.1-1.093h-.774Zm-2.267-5.689h3.281c2.267,0,3.025,1.053,3.025,2.963V49.5a1.965,1.965,0,0,1-1.352,2.149,2.05,2.05,0,0,1,1.69,2.251v1.788c0,1.91-.856,2.963-3.124,2.963h-3.521Z" transform="translate(-133.024 -26.114)" fill="#fff"/>
          <rect id="Rectangle_33832" data-name="Rectangle 33832" width="2.267" height="13.485" transform="translate(43.94 19.05)" fill="#fff"/>
          <path id="Path_153499" data-name="Path 153499" d="M172.648,45.164h5.41v1.851h-3.143v3.859h2.248V52.7h-2.248v4.1h3.143v1.847h-5.41Z" transform="translate(-125.131 -26.115)" fill="#fff"/>
          <path id="Path_153500" data-name="Path 153500" d="M176.576,50.177v8.475h-1.91V45.163h2.228l2.444,7.737V45.163h1.89V58.652h-1.985Z" transform="translate(-120.527 -26.116)" fill="#fff"/>
          <path id="Path_153501" data-name="Path 153501" d="M177.06,45.164h5.41v1.851h-3.143v3.859h2.248V52.7h-2.248v4.1h3.143v1.847h-5.41Z" transform="translate(-115.067 -26.115)" fill="#fff"/>
          <path id="Path_153502" data-name="Path 153502" d="M179.012,55.855V54.044h2.11v1.851c0,.755.338,1.191,1.116,1.191.712,0,1.034-.476,1.034-1.191v-.518a2.433,2.433,0,0,0-1.017-1.906l-1.332-1.335c-1.293-1.273-1.89-2.047-1.89-3.6v-.456c0-1.673.974-2.963,3.183-2.963,2.267,0,3.163,1.112,3.163,3.061V49.27h-2.07V48.1c0-.778-.358-1.155-1.07-1.155a.994.994,0,0,0-1.076,1.112v.279c0,.758.417,1.194,1.076,1.831l1.45,1.431c1.234,1.257,1.831,2.011,1.831,3.5v.656c0,1.847-.994,3.16-3.3,3.16s-3.2-1.289-3.2-3.061" transform="translate(-110.615 -26.224)" fill="#fff"/>
          <path id="Path_153503" data-name="Path 153503" d="M181.188,45.164h6.027v1.851h-1.87V58.649h-2.287V47.014h-1.87Z" transform="translate(-105.651 -26.115)" fill="#fff"/>
          <path id="Path_153504" data-name="Path 153504" d="M185.779,54.374h1.811l-.9-5.41h-.02Zm-2.845,4.275,2.546-13.485h2.585l2.566,13.485h-2.326l-.417-2.467H185.48l-.4,2.467Z" transform="translate(-101.669 -26.114)" fill="#fff"/>
          <path id="Path_153505" data-name="Path 153505" d="M187.831,47.014v4.2h.755A.981.981,0,0,0,189.7,50.1V48.11c0-.738-.338-1.1-1.116-1.1Zm0,5.45v6.188h-2.267V45.164h3.3c2.284,0,3.12,1.135,3.12,3.022v1.732c0,1.453-.515,2.307-1.811,2.605l2.169,6.129h-2.385Z" transform="translate(-95.67 -26.114)" fill="#fff"/>
        </g>
      </g>
    </g>
    <g id="Group_100234" data-name="Group 100234" transform="translate(423)">
      <text id="Leer_más" data-name="Leer más" transform="translate(235.172 953)" fill="#fff" font-size="14" font-family="Roboto-Regular, Roboto"><tspan x="0" y="13">Leer más</tspan></text>
      <g id="icon_arrow_arrow-right-circle" data-name="icon / arrow / arrow-right-circle" transform="translate(303.172 955.888)">
        <g id="Group_201" data-name="Group 201">
          <path id="icon_arrow-right-circle-2" data-name="icon / arrow-right-circle" d="M6.328,12.657A6.31,6.31,0,0,1,0,6.328,6.31,6.31,0,0,1,6.328,0a6.31,6.31,0,0,1,6.328,6.328,6.31,6.31,0,0,1-6.328,6.328Zm0-11.506a5.178,5.178,0,1,0,5.178,5.178A5.184,5.184,0,0,0,6.328,1.151Zm0,8.055a.521.521,0,0,1-.4-.173.557.557,0,0,1,0-.805L7.249,6.9H4.027a.575.575,0,0,1,0-1.151H7.249L5.926,4.43a.558.558,0,0,1,0-.806.557.557,0,0,1,.806,0l2.3,2.3c.057.057.115.115.115.173a.207.207,0,0,0,.021.076.378.378,0,0,1,.036.154.349.349,0,0,1-.057.23c0,.058-.059.116-.115.172l-2.3,2.3A.52.52,0,0,1,6.328,9.205Z" transform="translate(0 0)" fill="#fff"/>
        </g>
      </g>
    </g>
  </g>
</svg>
