<svg xmlns="http://www.w3.org/2000/svg" xmlns:xlink="http://www.w3.org/1999/xlink" width="160" height="160" viewBox="0 0 160 160">
  <defs>
    <clipPath id="clip-path">
      <path id="icon_arrow-right-circle" data-name="icon / arrow-right-circle" d="M6.328,12.657A6.31,6.31,0,0,1,0,6.328,6.31,6.31,0,0,1,6.328,0a6.31,6.31,0,0,1,6.328,6.328,6.31,6.31,0,0,1-6.328,6.328Zm0-11.506a5.178,5.178,0,1,0,5.178,5.178A5.184,5.184,0,0,0,6.328,1.151Zm0,8.055a.521.521,0,0,1-.4-.173.557.557,0,0,1,0-.805L7.249,6.9H4.027a.575.575,0,0,1,0-1.151H7.249L5.926,4.43a.558.558,0,0,1,0-.806.557.557,0,0,1,.806,0l2.3,2.3c.057.057.115.115.115.173a.207.207,0,0,0,.021.076.378.378,0,0,1,.036.154.349.349,0,0,1-.057.23c0,.058-.059.116-.115.172l-2.3,2.3A.52.52,0,0,1,6.328,9.205Z" transform="translate(0 0)" fill="#fff"/>
    </clipPath>
  </defs>
  <g id="t2-ob4" transform="translate(-826.5 -819)">
    <g id="Group_100228" data-name="Group 100228">
      <g id="Group_98538" data-name="Group 98538" transform="translate(16 39)">
        <rect id="Rectangle_33833" data-name="Rectangle 33833" width="160" height="160" rx="10" transform="translate(810.5 780)" fill="#c4202f"/>
        <g id="Group_98437" data-name="Group 98437" transform="translate(825.579 790.496)">
          <path id="Path_153506" data-name="Path 153506" d="M217.719,62.427l4.852-13.274h.049V62.427Zm4.806,9.468h5.141V66.659h2.188V62.427h-2.188V39.635h-5.335l-9.373,23.694v3.33h9.567Z" transform="translate(-212.959 -36.725)" fill="#fff"/>
          <path id="Path_153507" data-name="Path 153507" d="M249.81,73.215l-28.7-16.568v53.6l28.7,8.661Z" transform="translate(-191.017 -5.924)" fill="#fff"/>
          <path id="Path_153508" data-name="Path 153508" d="M230.822,73.324v45.6l28.881-8.684V56.648Z" transform="translate(-168.873 -5.922)" fill="#fff"/>
          <path id="Path_153509" data-name="Path 153509" d="M251.21,58.595a3.394,3.394,0,1,0-6.788,0v3.658h6.788Z" transform="translate(-137.855 -9.227)" fill="#fff"/>
          <path id="Path_153510" data-name="Path 153510" d="M245.268,105.846h-.843l3.4,11.863,3.392-11.863h0V58.16h-6.791v47.686Z" transform="translate(-137.857 -2.473)" fill="#fff"/>
          <path id="Path_153511" data-name="Path 153511" d="M292.268,59.037l-3.077-2.428v55.179l-31.883,10.3h-3.241l-31.741-8.868V56.609l-3.077,2.428v56.344l34.674,9.6h3.527l31.991-10.157,2.828-.83Z" transform="translate(-195.273 -6.012)" fill="#fff"/>
          <path id="Path_153512" data-name="Path 153512" d="M221.255,39.518h5.41v1.85h-3.143v3.858h2.247v1.827h-2.247v4.1h3.143V53h-5.41Z" transform="translate(-194.039 -36.991)" fill="#fff"/>
          <path id="Path_153513" data-name="Path 153513" d="M226.5,51.155c.935,0,1.293-.554,1.293-1.375V42.723c0-.8-.358-1.358-1.293-1.358h-.955v9.79Zm3.56-8.018v6.25c0,2.067-.856,3.615-3.281,3.615h-3.5V39.518h3.5c2.425,0,3.281,1.532,3.281,3.619" transform="translate(-189.437 -36.992)" fill="#fff"/>
          <path id="Path_153514" data-name="Path 153514" d="M232.318,39.518v10.2c0,2.09-.9,3.442-3.2,3.442-2.392,0-3.386-1.352-3.386-3.442v-10.2H228v10.42c0,.8.315,1.335,1.115,1.335s1.109-.538,1.109-1.335V39.518Z" transform="translate(-183.824 -36.992)" fill="#fff"/>
          <path id="Path_153515" data-name="Path 153515" d="M228.134,49.631V43.108c0-2.11.994-3.638,3.379-3.638,2.506,0,3.205,1.391,3.205,3.376V44.44h-2.07V42.669c0-.837-.279-1.312-1.1-1.312s-1.152.577-1.152,1.391v7.244c0,.814.341,1.391,1.152,1.391s1.1-.518,1.1-1.316V47.583h2.07v2.326c0,1.929-.8,3.363-3.205,3.363-2.385,0-3.379-1.552-3.379-3.642" transform="translate(-178.348 -37.101)" fill="#fff"/>
          <path id="Path_153516" data-name="Path 153516" d="M233.194,48.73H235l-.892-5.41h-.026ZM230.346,53l2.546-13.484h2.589L238.046,53h-2.329l-.417-2.464h-2.408l-.4,2.464Z" transform="translate(-173.303 -36.992)" fill="#fff"/>
          <path id="Path_153517" data-name="Path 153517" d="M232.885,49.631V43.108c0-2.11.994-3.638,3.379-3.638,2.507,0,3.205,1.391,3.205,3.376V44.44H237.4V42.669c0-.837-.279-1.312-1.1-1.312s-1.152.577-1.152,1.391v7.244c0,.814.341,1.391,1.152,1.391s1.1-.518,1.1-1.316V47.583h2.07v2.326c0,1.929-.8,3.363-3.205,3.363-2.385,0-3.379-1.552-3.379-3.642" transform="translate(-167.512 -37.101)" fill="#fff"/>
          <rect id="Rectangle_33835" data-name="Rectangle 33835" width="2.267" height="13.484" transform="translate(73.188 2.526)" fill="#fff"/>
          <path id="Path_153518" data-name="Path 153518" d="M240.954,51.638V44.394c0-.814-.361-1.391-1.178-1.391-.794,0-1.152.577-1.152,1.391v7.244c0,.814.358,1.391,1.152,1.391.817,0,1.178-.577,1.178-1.391m.673-11.319-3.56.456V39.5l3.56-.755Zm-5.269,10.958V44.755c0-2.11,1.033-3.638,3.419-3.638,2.408,0,3.442,1.529,3.442,3.638v6.522c0,2.09-1.033,3.642-3.442,3.642-2.385,0-3.419-1.552-3.419-3.642" transform="translate(-159.591 -38.748)" fill="#fff"/>
          <path id="Path_153519" data-name="Path 153519" d="M240.752,44.531V53h-1.909V39.518h2.228l2.447,7.736V39.518H245.4V53h-1.988Z" transform="translate(-153.923 -36.992)" fill="#fff"/>
          <path id="Path_153520" data-name="Path 153520" d="M224.479,56.913c.935,0,1.293-.561,1.293-1.375V48.481c0-.8-.358-1.358-1.293-1.358h-.955v9.79Zm3.56-8.018v6.25c0,2.067-.856,3.615-3.281,3.615h-3.5V45.276h3.5c2.424,0,3.281,1.529,3.281,3.619" transform="translate(-194.04 -23.859)" fill="#fff"/>
          <path id="Path_153521" data-name="Path 153521" d="M223.715,45.276h5.41v1.85h-3.143v3.858h2.247v1.827h-2.247v4.1h3.143v1.85h-5.41Z" transform="translate(-188.427 -23.859)" fill="#fff"/>
          <path id="Path_153522" data-name="Path 153522" d="M226.37,55.392V48.87c0-2.11.994-3.642,3.382-3.642,2.5,0,3.2,1.391,3.2,3.379V50.2h-2.07V48.43c0-.837-.279-1.312-1.093-1.312s-1.155.577-1.155,1.391v7.241c0,.817.341,1.391,1.155,1.391s1.093-.518,1.093-1.312V53.345h2.07v2.326c0,1.929-.8,3.363-3.2,3.363-2.388,0-3.382-1.555-3.382-3.642" transform="translate(-182.372 -23.969)" fill="#fff"/>
          <path id="Path_153523" data-name="Path 153523" d="M231.429,54.486h1.808l-.892-5.41h-.023Zm-2.848,4.275,2.546-13.484h2.589l2.566,13.484h-2.326l-.42-2.467h-2.408l-.4,2.467Z" transform="translate(-177.329 -23.857)" fill="#fff"/>
          <path id="Path_153524" data-name="Path 153524" d="M231.212,45.276h2.267V56.91h2.707v1.85h-4.974Z" transform="translate(-171.328 -23.859)" fill="#fff"/>
          <rect id="Rectangle_33836" data-name="Rectangle 33836" width="2.267" height="13.484" transform="translate(65.891 21.417)" fill="#fff"/>
          <path id="Path_153525" data-name="Path 153525" d="M237.356,56.913c.935,0,1.293-.561,1.293-1.375V48.481c0-.8-.358-1.358-1.293-1.358H236.4v9.79Zm3.56-8.018v6.25c0,2.067-.853,3.615-3.281,3.615h-3.5V45.276h3.5c2.428,0,3.281,1.529,3.281,3.619" transform="translate(-164.664 -23.859)" fill="#fff"/>
          <path id="Path_153526" data-name="Path 153526" d="M239.238,54.486h1.811l-.9-5.41h-.023Zm-2.844,4.275,2.546-13.484h2.585l2.566,13.484h-2.326l-.417-2.467H238.94l-.4,2.467Z" transform="translate(-159.509 -23.857)" fill="#fff"/>
          <path id="Path_153527" data-name="Path 153527" d="M242.249,56.913c.932,0,1.293-.561,1.293-1.375V48.481a1.185,1.185,0,0,0-1.293-1.358h-.955v9.79Zm3.56-8.018v6.25c0,2.067-.856,3.615-3.281,3.615h-3.5V45.276h3.5c2.424,0,3.281,1.529,3.281,3.619" transform="translate(-153.511 -23.859)" fill="#fff"/>
        </g>
      </g>
    </g>
    <g id="Group_100235" data-name="Group 100235" transform="translate(638)">
      <text id="Leer_más" data-name="Leer más" transform="translate(235.172 953)" fill="#fff" font-size="14" font-family="Roboto-Regular, Roboto"><tspan x="0" y="13">Leer más</tspan></text>
      <g id="icon_arrow_arrow-right-circle" data-name="icon / arrow / arrow-right-circle" transform="translate(303.172 955.888)">
        <g id="Group_201" data-name="Group 201">
          <path id="icon_arrow-right-circle-2" data-name="icon / arrow-right-circle" d="M6.328,12.657A6.31,6.31,0,0,1,0,6.328,6.31,6.31,0,0,1,6.328,0a6.31,6.31,0,0,1,6.328,6.328,6.31,6.31,0,0,1-6.328,6.328Zm0-11.506a5.178,5.178,0,1,0,5.178,5.178A5.184,5.184,0,0,0,6.328,1.151Zm0,8.055a.521.521,0,0,1-.4-.173.557.557,0,0,1,0-.805L7.249,6.9H4.027a.575.575,0,0,1,0-1.151H7.249L5.926,4.43a.558.558,0,0,1,0-.806.557.557,0,0,1,.806,0l2.3,2.3c.057.057.115.115.115.173a.207.207,0,0,0,.021.076.378.378,0,0,1,.036.154.349.349,0,0,1-.057.23c0,.058-.059.116-.115.172l-2.3,2.3A.52.52,0,0,1,6.328,9.205Z" transform="translate(0 0)" fill="#fff"/>
        </g>
      </g>
    </g>
  </g>
</svg>
