<svg xmlns="http://www.w3.org/2000/svg" xmlns:xlink="http://www.w3.org/1999/xlink" width="160" height="160" viewBox="0 0 160 160">
  <defs>
    <clipPath id="clip-path">
      <path id="icon_arrow-right-circle" data-name="icon / arrow-right-circle" d="M6.328,12.657A6.31,6.31,0,0,1,0,6.328,6.31,6.31,0,0,1,6.328,0a6.31,6.31,0,0,1,6.328,6.328,6.31,6.31,0,0,1-6.328,6.328Zm0-11.506a5.178,5.178,0,1,0,5.178,5.178A5.184,5.184,0,0,0,6.328,1.151Zm0,8.055a.521.521,0,0,1-.4-.173.557.557,0,0,1,0-.805L7.249,6.9H4.027a.575.575,0,0,1,0-1.151H7.249L5.926,4.43a.558.558,0,0,1,0-.806.557.557,0,0,1,.806,0l2.3,2.3c.057.057.115.115.115.173a.207.207,0,0,0,.021.076.378.378,0,0,1,.036.154.349.349,0,0,1-.057.23c0,.058-.059.116-.115.172l-2.3,2.3A.52.52,0,0,1,6.328,9.205Z" transform="translate(0 0)" fill="#fff"/>
    </clipPath>
  </defs>
  <g id="t2-ob9" transform="translate(-615.5 -1009)">
    <g id="Group_98543" data-name="Group 98543" transform="translate(16 8)">
      <rect id="Rectangle_33848" data-name="Rectangle 33848" width="160" height="160" rx="10" transform="translate(599.5 1001)" fill="#f16a2b"/>
      <g id="Group_98450" data-name="Group 98450" transform="translate(613.338 1013.917)">
        <path id="Path_153648" data-name="Path 153648" d="M167.842,108.258c-.092,1.808-.856,2.95-2.566,2.95-1.854,0-2.569-1.142-2.569-3.235v-5.61c0-2.044.758-3.235,2.615-3.235,1.808,0,2.52,1.237,2.52,3.235Zm5.377-4.944c0-5-2.188-8.609-7.9-8.609-5.755,0-7.989,3.14-7.989,8.13V107.6c0,5.276,2.093,7.94,5.994,7.94a4.639,4.639,0,0,0,4.469-2.615h.046v6.942c0,1.949-.758,3.33-2.707,3.33s-2.664-1.142-2.664-3.14v-2.139H157.52v1.713c0,4.757,1.716,8.087,7.71,8.087,5.7,0,7.989-3.665,7.989-8.7Z" transform="translate(-157.333 -94.705)" fill="#fff"/>
        <path id="Path_153649" data-name="Path 153649" d="M228.327,165.7l-13.321,7.69V158.006l13.321-7.69Zm-44.007,7.69v-14.21l12.306,7.108Zm-2.022,0L168.98,165.7V150.316l13.318,7.69Zm14.328-42.539-12.306,7.108v-14.21Zm16.355,7.105-12.3-7.105,12.3-7.1Zm-12.3,10.612,13.316-7.687,13.321,7.684-13.321,7.692Zm-3.037-1.753L185.336,139.7l12.306-7.105Zm14.328-7.105-12.3,7.105V132.6Zm-14.328,24.822-12.309-7.105,12.309-7.105Zm32.2-16.842-14.839-8.565V121.988a1.012,1.012,0,0,0-.506-.875l-15.34-8.858a1.027,1.027,0,0,0-1.015,0l-15.34,8.858a1.012,1.012,0,0,0-.506.875V139.12l-14.839,8.565a1.01,1.01,0,0,0-.5.875v17.722a1.01,1.01,0,0,0,.5.875l15.346,8.856a1,1,0,0,0,.5.134,1.026,1.026,0,0,0,.509-.134l14.837-8.562,14.837,8.562a1,1,0,0,0,.5.134,1.016,1.016,0,0,0,.506-.134l15.346-8.856a1.012,1.012,0,0,0,.506-.875V148.56a1.009,1.009,0,0,0-.506-.875" transform="translate(-132.122 -55.984)" fill="#fff"/>
        <rect id="Rectangle_33858" data-name="Rectangle 33858" width="2.267" height="13.484" transform="translate(25.151 0.525)" fill="#fff"/>
        <path id="Path_153650" data-name="Path 153650" d="M168,99.877v8.474H166.09V94.864h2.228l2.444,7.736V94.864h1.89v13.487h-1.988Z" transform="translate(-137.36 -94.341)" fill="#fff"/>
        <path id="Path_153651" data-name="Path 153651" d="M171.708,106.5c.935,0,1.293-.558,1.293-1.371v-7.06a1.18,1.18,0,0,0-1.293-1.352h-.955V106.5Zm3.56-8.015v6.247c0,2.067-.856,3.619-3.281,3.619h-3.5V94.865h3.5c2.425,0,3.281,1.529,3.281,3.619" transform="translate(-131.902 -94.34)" fill="#fff"/>
        <path id="Path_153652" data-name="Path 153652" d="M177.529,94.865v10.2c0,2.09-.892,3.445-3.2,3.445-2.388,0-3.386-1.355-3.386-3.445v-10.2h2.27v10.42c0,.8.318,1.335,1.115,1.335s1.112-.538,1.112-1.335V94.865Z" transform="translate(-126.288 -94.34)" fill="#fff"/>
        <path id="Path_153653" data-name="Path 153653" d="M173.308,105.555v-1.808h2.11v1.847c0,.758.338,1.194,1.115,1.194.712,0,1.033-.479,1.033-1.194v-.518a2.438,2.438,0,0,0-1.017-1.906l-1.332-1.335c-1.293-1.27-1.89-2.047-1.89-3.6V97.78c0-1.673.974-2.963,3.182-2.963,2.267,0,3.163,1.112,3.163,3.061v1.093h-2.067V97.8c0-.778-.361-1.155-1.073-1.155a.994.994,0,0,0-1.076,1.112v.282c0,.755.417,1.191,1.076,1.827l1.45,1.43c1.234,1.257,1.831,2.011,1.831,3.5v.656c0,1.85-.994,3.159-3.3,3.159s-3.2-1.289-3.2-3.061" transform="translate(-120.897 -94.45)" fill="#fff"/>
        <path id="Path_153654" data-name="Path 153654" d="M175.484,94.865h6.027v1.85h-1.87v11.634h-2.287V96.715h-1.87Z" transform="translate(-115.933 -94.341)" fill="#fff"/>
        <path id="Path_153655" data-name="Path 153655" d="M179.909,96.715v4.2h.755a.983.983,0,0,0,1.115-1.112V97.811c0-.738-.338-1.1-1.115-1.1Zm0,5.446v6.188h-2.267V94.865h3.3c2.283,0,3.12,1.135,3.12,3.022v1.732c0,1.453-.515,2.3-1.811,2.6l2.169,6.129h-2.385Z" transform="translate(-111.011 -94.34)" fill="#fff"/>
        <rect id="Rectangle_33859" data-name="Rectangle 33859" width="2.267" height="13.484" transform="translate(74.285 0.525)" fill="#fff"/>
        <path id="Path_153656" data-name="Path 153656" d="M183.8,104.074h1.808l-.892-5.41h-.026Zm-2.848,4.275L183.5,94.865h2.589l2.562,13.484h-2.326l-.417-2.467H183.5l-.4,2.467Z" transform="translate(-103.45 -94.34)" fill="#fff"/>
        <path id="Path_153657" data-name="Path 153657" d="M185.985,98.492l-1.155,3.041h-1.273l.279-3.218h2.149Z" transform="translate(-97.52 -86.472)" fill="#fff"/>
        <rect id="Rectangle_33860" data-name="Rectangle 33860" width="2.267" height="13.484" transform="translate(25.151 18.419)" fill="#fff"/>
        <path id="Path_153658" data-name="Path 153658" d="M168,105.332V113.8H166.09V100.319h2.228l2.444,7.736v-7.736h1.89V113.8h-1.988Z" transform="translate(-137.36 -81.9)" fill="#fff"/>
        <path id="Path_153659" data-name="Path 153659" d="M170.393,105.332V113.8h-1.909V100.319h2.228l2.444,7.736v-7.736h1.89V113.8h-1.988Z" transform="translate(-131.9 -81.9)" fill="#fff"/>
        <path id="Path_153660" data-name="Path 153660" d="M175.474,110.8v-7.244c0-.814-.361-1.391-1.178-1.391-.794,0-1.152.577-1.152,1.391V110.8c0,.814.358,1.391,1.152,1.391.817,0,1.178-.577,1.178-1.391m-4.6-.361v-6.522c0-2.11,1.033-3.642,3.419-3.642,2.411,0,3.445,1.532,3.445,3.642v6.522c0,2.09-1.033,3.642-3.445,3.642-2.385,0-3.419-1.552-3.419-3.642" transform="translate(-126.439 -82.01)" fill="#fff"/>
        <path id="Path_153661" data-name="Path 153661" d="M180.737,100.319,178.171,113.8H175.7l-2.566-13.484h2.306L177,109.729h.02l1.591-9.409Z" transform="translate(-121.283 -81.899)" fill="#fff"/>
        <path id="Path_153662" data-name="Path 153662" d="M178.11,109.529h1.811l-.9-5.41h-.02Zm-2.844,4.275,2.546-13.484H180.4l2.566,13.484h-2.326l-.417-2.467h-2.408l-.4,2.467Z" transform="translate(-116.431 -81.898)" fill="#fff"/>
        <path id="Path_153663" data-name="Path 153663" d="M177.8,110.435v-6.522c0-2.11.994-3.642,3.383-3.642,2.5,0,3.2,1.394,3.2,3.383v1.591h-2.07v-1.772c0-.833-.279-1.312-1.1-1.312s-1.152.577-1.152,1.391V110.8c0,.814.338,1.391,1.152,1.391s1.1-.518,1.1-1.312v-2.487h2.07v2.326c0,1.929-.8,3.363-3.2,3.363-2.388,0-3.383-1.552-3.383-3.642" transform="translate(-110.64 -82.01)" fill="#fff"/>
        <rect id="Rectangle_33861" data-name="Rectangle 33861" width="2.267" height="13.484" transform="translate(74.98 18.419)" fill="#fff"/>
        <path id="Path_153664" data-name="Path 153664" d="M185.874,112.44V105.2c0-.814-.361-1.391-1.178-1.391-.794,0-1.152.577-1.152,1.391v7.244c0,.814.358,1.391,1.152,1.391.817,0,1.178-.577,1.178-1.391m.673-11.319-3.56.456V100.3l3.56-.755Zm-5.269,10.958v-6.522c0-2.11,1.033-3.642,3.419-3.642,2.411,0,3.442,1.532,3.442,3.642v6.522c0,2.09-1.03,3.642-3.442,3.642-2.385,0-3.419-1.552-3.419-3.642" transform="translate(-102.718 -83.654)" fill="#fff"/>
        <path id="Path_153665" data-name="Path 153665" d="M185.673,105.332V113.8h-1.909V100.319h2.228l2.444,7.736v-7.736h1.89V113.8h-1.988Z" transform="translate(-97.05 -81.9)" fill="#fff"/>
        <path id="Path_153666" data-name="Path 153666" d="M186.793,100.319h5.41v1.85H189.06v3.858h2.247v1.831H189.06v4.095H192.2v1.85h-5.41Z" transform="translate(-90.139 -81.899)" fill="#fff"/>
        <rect id="Rectangle_33862" data-name="Rectangle 33862" width="2.267" height="13.484" transform="translate(25.151 36.319)" fill="#fff"/>
        <path id="Path_153667" data-name="Path 153667" d="M168,110.787v8.474H166.09V105.774h2.228l2.444,7.736v-7.736h1.89v13.488h-1.988Z" transform="translate(-137.36 -69.458)" fill="#fff"/>
        <path id="Path_153668" data-name="Path 153668" d="M168.484,105.775h5.308v1.85h-3.041v3.858h2.267v1.827h-2.267v5.948h-2.267Z" transform="translate(-131.9 -69.457)" fill="#fff"/>
        <path id="Path_153669" data-name="Path 153669" d="M172.672,107.625v4.2h.755a.981.981,0,0,0,1.115-1.112v-1.988c0-.738-.338-1.1-1.115-1.1Zm0,5.449v6.188H170.4V105.775h3.3c2.283,0,3.12,1.132,3.12,3.022v1.732c0,1.453-.515,2.306-1.811,2.6l2.169,6.129H174.8Z" transform="translate(-127.518 -69.456)" fill="#fff"/>
        <path id="Path_153670" data-name="Path 153670" d="M175.474,114.984h1.811l-.9-5.41h-.02Zm-2.844,4.275,2.546-13.484h2.585l2.566,13.484H178l-.417-2.467h-2.408l-.4,2.467Z" transform="translate(-122.443 -69.456)" fill="#fff"/>
        <path id="Path_153671" data-name="Path 153671" d="M175.26,105.775h5.41v1.85h-3.143v3.858h2.247v1.827h-2.247v4.1h3.143v1.85h-5.41Z" transform="translate(-116.444 -69.457)" fill="#fff"/>
        <path id="Path_153672" data-name="Path 153672" d="M177.212,116.465v-1.808h2.11V116.5c0,.758.338,1.194,1.115,1.194.712,0,1.033-.479,1.033-1.194v-.518a2.438,2.438,0,0,0-1.017-1.906l-1.332-1.335c-1.293-1.273-1.89-2.047-1.89-3.6v-.456c0-1.673.974-2.963,3.179-2.963,2.27,0,3.166,1.112,3.166,3.061v1.092h-2.07v-1.171c0-.778-.358-1.155-1.07-1.155a1,1,0,0,0-1.076,1.116v.279c0,.755.417,1.191,1.076,1.827l1.45,1.43c1.23,1.257,1.827,2.011,1.827,3.5v.656c0,1.85-.994,3.159-3.3,3.159s-3.2-1.289-3.2-3.061" transform="translate(-111.992 -69.566)" fill="#fff"/>
        <path id="Path_153673" data-name="Path 153673" d="M179.388,105.775h6.027v1.85h-1.87v11.634h-2.287V107.625h-1.87Z" transform="translate(-107.03 -69.457)" fill="#fff"/>
        <path id="Path_153674" data-name="Path 153674" d="M183.812,107.625v4.2h.755a.981.981,0,0,0,1.115-1.112v-1.988c0-.738-.338-1.1-1.115-1.1Zm0,5.449v6.188h-2.267V105.775h3.3c2.283,0,3.12,1.132,3.12,3.022v1.732c0,1.453-.515,2.306-1.811,2.6l2.169,6.129h-2.385Z" transform="translate(-102.109 -69.456)" fill="#fff"/>
        <path id="Path_153675" data-name="Path 153675" d="M190.463,105.775v10.2c0,2.087-.892,3.442-3.2,3.442-2.388,0-3.386-1.355-3.386-3.442v-10.2h2.27v10.42c0,.8.318,1.335,1.115,1.335s1.112-.538,1.112-1.335v-10.42Z" transform="translate(-96.788 -69.456)" fill="#fff"/>
        <path id="Path_153676" data-name="Path 153676" d="M186.279,115.89v-6.522c0-2.11.994-3.642,3.383-3.642,2.5,0,3.2,1.394,3.2,3.379V110.7h-2.07v-1.772c0-.837-.279-1.312-1.1-1.312s-1.152.577-1.152,1.391v7.241c0,.817.341,1.391,1.152,1.391s1.1-.515,1.1-1.312v-2.484h2.07v2.326c0,1.929-.8,3.363-3.2,3.363-2.388,0-3.383-1.552-3.383-3.642" transform="translate(-91.312 -69.568)" fill="#fff"/>
        <path id="Path_153677" data-name="Path 153677" d="M188.521,105.775h6.027v1.85h-1.87v11.634h-2.287V107.625h-1.87Z" transform="translate(-86.197 -69.457)" fill="#fff"/>
        <path id="Path_153678" data-name="Path 153678" d="M197.263,105.775v10.2c0,2.087-.892,3.442-3.2,3.442-2.388,0-3.386-1.355-3.386-3.442v-10.2h2.27v10.42c0,.8.318,1.335,1.115,1.335s1.112-.538,1.112-1.335v-10.42Z" transform="translate(-81.278 -69.456)" fill="#fff"/>
        <path id="Path_153679" data-name="Path 153679" d="M195.346,107.625v4.2h.755a.981.981,0,0,0,1.115-1.112v-1.988c0-.738-.338-1.1-1.115-1.1Zm0,5.449v6.188h-2.267V105.775h3.3c2.283,0,3.12,1.132,3.12,3.022v1.732c0,1.453-.515,2.306-1.811,2.6l2.169,6.129h-2.385Z" transform="translate(-75.802 -69.456)" fill="#fff"/>
        <path id="Path_153680" data-name="Path 153680" d="M198.147,114.984h1.811l-.9-5.41h-.02Zm-2.845,4.275,2.546-13.484h2.585L203,119.259h-2.326l-.417-2.467h-2.408l-.4,2.467Z" transform="translate(-70.729 -69.456)" fill="#fff"/>
      </g>
    </g>
    <g id="Group_100241" data-name="Group 100241" transform="translate(423 193)">
      <text id="Leer_más" data-name="Leer más" transform="translate(235.172 953)" fill="#fff" font-size="14" font-family="Roboto-Regular, Roboto"><tspan x="0" y="13">Leer más</tspan></text>
      <g id="icon_arrow_arrow-right-circle" data-name="icon / arrow / arrow-right-circle" transform="translate(303.172 955.888)">
        <g id="Group_201" data-name="Group 201">
          <path id="icon_arrow-right-circle-2" data-name="icon / arrow-right-circle" d="M6.328,12.657A6.31,6.31,0,0,1,0,6.328,6.31,6.31,0,0,1,6.328,0a6.31,6.31,0,0,1,6.328,6.328,6.31,6.31,0,0,1-6.328,6.328Zm0-11.506a5.178,5.178,0,1,0,5.178,5.178A5.184,5.184,0,0,0,6.328,1.151Zm0,8.055a.521.521,0,0,1-.4-.173.557.557,0,0,1,0-.805L7.249,6.9H4.027a.575.575,0,0,1,0-1.151H7.249L5.926,4.43a.558.558,0,0,1,0-.806.557.557,0,0,1,.806,0l2.3,2.3c.057.057.115.115.115.173a.207.207,0,0,0,.021.076.378.378,0,0,1,.036.154.349.349,0,0,1-.057.23c0,.058-.059.116-.115.172l-2.3,2.3A.52.52,0,0,1,6.328,9.205Z" transform="translate(0 0)" fill="#fff"/>
        </g>
      </g>
    </g>
  </g>
</svg>
