<svg xmlns="http://www.w3.org/2000/svg" width="295" height="200" viewBox="0 0 295 200">
  <g id="t4-ic2" transform="translate(-180.5 -837)">
    <rect id="BG" width="295" height="200" transform="translate(180.5 837)" fill="none" opacity="0.948"/>
    <g id="Group_98408" data-name="Group 98408" transform="translate(-973.455 2888.087)">
      <path id="Path_153250" data-name="Path 153250" d="M1201.281-1800.274l29.756,2.794,7.8-8.383-33.625,3.122Z" transform="translate(-11.559 -65.424)" fill="#4c529e" opacity="0.2"/>
      <g id="Group_98381" data-name="Group 98381" transform="translate(1157.955 -1943.601)">
        <g id="Group_98375" data-name="Group 98375" transform="translate(15.684 16.628)">
          <g id="Group_98374" data-name="Group 98374" transform="translate(8.821 23.79)">
            <path id="Path_153251" data-name="Path 153251" d="M1193.339-1849.318a3.763,3.763,0,0,1,2.84,1.454c1.237,1.514-.529.573-4.268-.8Z" transform="translate(-1191.519 1849.352)" fill="#e6836e"/>
            <path id="Path_153252" data-name="Path 153252" d="M1193.488-1849.294a7.333,7.333,0,0,1,2.006,2.083,17.57,17.57,0,0,1,1.485,2.583c.36.7-.3.412-.339.416-.027,0,.079.065-.083.2a1.049,1.049,0,0,1-.593.139c-.109-.013-.486-.07-.652-.092-.79-.107-2.187-.728-3.934-3.573C1191.377-1847.535,1191.7-1849.783,1193.488-1849.294Z" transform="translate(-1191.377 1849.364)" fill="#e6836e"/>
          </g>
          <path id="Path_153253" data-name="Path 153253" d="M1179.872-1881.286c.5-1.9,2.527,1.979,2.527,1.979a39.1,39.1,0,0,1,2.846,12.3c2.689,6.8,4.237,8.975,4.237,8.975l.828.579-.487.5c.681.307.065.507-.6.622l-.414.428-.221-.34c-.246.027-.422.041-.422.041C1183.709-1859.337,1177.49-1872.219,1179.872-1881.286Z" transform="translate(-1179.346 1881.811)" fill="#e6836e"/>
          <path id="Path_153254" data-name="Path 153254" d="M1183.413-1870.707c-.9.235-1.8.508-2.709.726.2-.047-.052-.018-.364.023a22.625,22.625,0,0,1-.467-11.328c.5-1.9,2.527,1.979,2.527,1.979a43.639,43.639,0,0,1,2.368,8.23C1184.326-1870.947,1183.873-1870.828,1183.413-1870.707Z" transform="translate(-1179.346 1881.811)" fill="#c6c6c5"/>
        </g>
        <path id="Path_153255" data-name="Path 153255" d="M1174.053-1887.78s.961-9.181,5.357-10.039c0,0,.059.463.148,1.191l.14-.822a7.622,7.622,0,0,0,1.086,4.637s1.222,3.742.155,5.15c0,0,3.953,5.332,1.232,7.5a6.675,6.675,0,0,0-2.159-3.717c-1.647-1.131-4.16-2.14-4.1-2.65.03-.239.081-.613.128-.945A10.192,10.192,0,0,1,1174.053-1887.78Z" transform="translate(-1162.25 1902.71)" fill="#0b1b4f"/>
        <path id="Path_153256" data-name="Path 153256" d="M1181.127-1845.237a.917.917,0,0,0,1.1.68l13.3-3.519a.917.917,0,0,0,.622-1.135l-2.231-8.433a.916.916,0,0,0-1.1-.679l-13.3,3.518a.915.915,0,0,0-.622,1.136Z" transform="translate(-1163.534 1892.18)" fill="#3ca8f4"/>
        <path id="Path_153257" data-name="Path 153257" d="M1179.52-1853.569l.575-.152a17.125,17.125,0,0,0,6.483,5.848c2.3,1.155,5.165,1.312,7.737,1.353l-12.085,3.2a.917.917,0,0,1-1.1-.68l-2.23-8.432A.915.915,0,0,1,1179.52-1853.569Z" transform="translate(-1163.534 1890.945)" fill="#3ca8f4" style="mix-blend-mode: multiply;isolation: isolate"/>
        <g id="Group_98380" data-name="Group 98380">
          <path id="Path_153258" data-name="Path 153258" d="M1177.738-1787.139s-.382.2-.385.331a14.509,14.509,0,0,0-.081,2.186c.1.306,5.3.842,5.3.842s2.626-.157,2.9-.511.152-.614-.007-.655-6.239-2.361-6.239-2.361Z" transform="translate(-1163.101 1873.226)" fill="#fb0"/>
          <path id="Path_153259" data-name="Path 153259" d="M1178.145-1790.122s.089,2.672.111,2.74c.137.4,1.217.422,1.532.092l.353-2.711Z" transform="translate(-1163.342 1873.977)" fill="#f3a290"/>
          <path id="Path_153260" data-name="Path 153260" d="M1182.514-1854.446c2.543,5.981,2.173,20.775.578,28.97,0,0-4.562-.588-5.2-2.633s-1.756-25.057-1.756-25.057S1178.76-1863.276,1182.514-1854.446Z" transform="translate(-1162.806 1892.104)" fill="#0b1b4f"/>
          <path id="Path_153261" data-name="Path 153261" d="M1179.343-1822.745s-1.259,4.781-1.444,5.482-.152,14.729-.128,19.652c0,0,1.73.895,2.305-.012.888-1.395,3.846-20.308,3.846-20.308Z" transform="translate(-1163.237 1882.681)" fill="#0b1b4f"/>
          <path id="Path_153262" data-name="Path 153262" d="M1167.79-1783.36s-.384.2-.388.328a14.581,14.581,0,0,0-.1,2.184c.1.307,5.293.9,5.293.9s2.627-.131,2.9-.48.157-.612,0-.656-6.215-2.425-6.215-2.425Z" transform="translate(-1160.441 1872.214)" fill="#fb0"/>
          <path id="Path_153263" data-name="Path 153263" d="M1168.084-1786.69s-.064,2.692-.049,2.741c.123.407,1.245.434,1.579.124l.653-2.591Z" transform="translate(-1160.644 1873.062)" fill="#f3a290"/>
          <path id="Path_153264" data-name="Path 153264" d="M1172.637-1853.021c.064.984,7.017.222,7.08,1.228.238,3.773-1.882,11.049-4.139,17.095a281.554,281.554,0,0,1-6.138,31.122c-.351,1.423-2.714.052-2.714.052-.249-9.137-.247-36.363-1-38.23-1.734-4.4,0-4.969,1.268-10.133C1168.092-1856.349,1170.222-1853.047,1172.637-1853.021Z" transform="translate(-1159.834 1891.079)" fill="#fb0"/>
          <g id="Group_98379" data-name="Group 98379">
            <path id="Path_153265" data-name="Path 153265" d="M1165.7-1899.453l-1.339,1.2s-.518,8.84-3.17,12.346-2.964,4-3.2,5.313.385,5.115,5.772,5.478,2.812-2.741,2.812-3.568S1167.793-1895.359,1165.7-1899.453Z" transform="translate(-1157.955 1903.146)" fill="#fb0"/>
            <g id="Group_98378" data-name="Group 98378" transform="translate(2.73 0.593)">
              <path id="Path_153266" data-name="Path 153266" d="M1169.571-1893.248c.318,1.12.059,2.173-.578,2.353s-1.406-.583-1.723-1.7-.059-2.174.577-2.353S1169.255-1894.369,1169.571-1893.248Z" transform="translate(-1163.134 1901.36)" fill="#f3a290"/>
              <path id="Path_153267" data-name="Path 153267" d="M1166.829-1857.752s.686-5.434,1.368-8.243l-2.314-13.539v-1.73s1.178-1,5-1.313a16.4,16.4,0,0,1,5.911.76,27.876,27.876,0,0,0,3.2,5.715c1.868,2.224-.108,5.713-.452,6.8-1.58,4.991.971,10.142,1.177,11.217S1175.95-1854.943,1166.829-1857.752Z" transform="translate(-1162.8 1898.06)" fill="#fff"/>
              <path id="Path_153268" data-name="Path 153268" d="M1168.523-1882.081a22.838,22.838,0,0,1,2.675-.531,21.536,21.536,0,0,1,4.725.395c.97.291,1.715,6.866,1.617,6.962S1172.071-1879.281,1168.523-1882.081Z" transform="translate(-1163.505 1898.061)" fill="#e6836e"/>
              <path id="Path_153269" data-name="Path 153269" d="M1170.21-1891.076a46.209,46.209,0,0,1,1.194,6.407s1.846,1.651,3.44.122c0,0,.619-6.116,1.919-7.053S1170.21-1891.076,1170.21-1891.076Z" transform="translate(-1163.955 1900.542)" fill="#e6836e"/>
              <g id="Group_98377" data-name="Group 98377" transform="translate(0 16.479)">
                <g id="Group_98376" data-name="Group 98376" transform="translate(3.108 28.186)">
                  <path id="Path_153270" data-name="Path 153270" d="M1168.386-1842.672a3.762,3.762,0,0,1,1.552,2.389c.418,1.751-.537.234-2.741-2.482Z" transform="translate(-1166.259 1842.764)" fill="#f3a290"/>
                  <path id="Path_153271" data-name="Path 153271" d="M1168.3-1842.489a16.976,16.976,0,0,1,.709,2.36,18.938,18.938,0,0,1,.479,2.654c.1.706-.31.249-.345.238s.044.079-.108.14a.7.7,0,0,1-.464-.078c-.076-.047-.338-.219-.454-.293-.551-.348-1.59-.987-2.2-3.947C1165.917-1841.413,1167.105-1843.49,1168.3-1842.489Z" transform="translate(-1165.917 1842.763)" fill="#f3a290"/>
                </g>
                <path id="Path_153272" data-name="Path 153272" d="M1166.591-1851.725l.587-.319-.585-.936s-.78-2.873-1.272-10.96a48.906,48.906,0,0,0,.947-13.816s-.727-4.821-1.727-3.068c-4.768,8.348-2.818,24.137.328,29.193,0,0,.164.059.4.131l.1.44.5-.271C1166.506-1851.178,1167.121-1851.131,1166.591-1851.725Z" transform="translate(-1161.679 1881.206)" fill="#f3a290"/>
                <path id="Path_153273" data-name="Path 153273" d="M1162.019-1871.705a11.965,11.965,0,0,0,3.129,1.178,8.521,8.521,0,0,0,1.194.111,66.818,66.818,0,0,0,.011-7.339s-.727-4.821-1.727-3.068a23.755,23.755,0,0,0-2.631,9.106Z" transform="translate(-1161.763 1881.206)" fill="#fff"/>
              </g>
              <path id="Path_153274" data-name="Path 153274" d="M1170.071-1902.731s4.66-2.368,7.472.369a27.912,27.912,0,0,1,.429,6.555c-.3,2.642-.646,5.149-2.6,5.284,0,0-5.517-.174-6.27-3.953C1168.418-1897.879,1168.775-1901.858,1170.071-1902.731Z" transform="translate(-1163.568 1903.682)" fill="#f3a290"/>
            </g>
            <path id="Path_153275" data-name="Path 153275" d="M1167.846-1902.9a6.2,6.2,0,0,1,2.967-1.465h0a3.011,3.011,0,0,1,.771-.106,6.67,6.67,0,0,1,1.909.141c1.227.171,2.346.436,2.346.436a3.24,3.24,0,0,1,1.79,1.749,4.8,4.8,0,0,1-.048,3.9l-.018-.035c-.438.541-1.859.741-3.342.793.059-.811.245-3.242.344-3.61l0,.005-1.212,3.621c-.768,0-1.5-.03-2.078-.062-.446,3.3.827,10.068,2.362,12.384,1.653,2.5-.433,4.969-.433,4.969l-.711-1.758c-.713-1.763-4-3-4.985-4.771s0-2.5,0-2.5l.5-.87a5.291,5.291,0,0,1-1.737-1.835S1165.7-1900.718,1167.846-1902.9Z" transform="translate(-1160.153 1904.49)" fill="#fb0"/>
            <path id="Path_153276" data-name="Path 153276" d="M1183.57-1784.935a17.178,17.178,0,0,1-3.714-1.755l-1.548.24s-.02,1.158,3.789,1.823Z" transform="translate(-1163.385 1873.062)" fill="#f3a290"/>
            <path id="Path_153277" data-name="Path 153277" d="M1173.52-1781.743a17.249,17.249,0,0,1-3.871-1.375l-1.612.122s.191,1.426,4.05,1.708Z" transform="translate(-1160.645 1872.109)" fill="#f3a290"/>
          </g>
        </g>
      </g>
      <g id="Group_98385" data-name="Group 98385" transform="translate(1216.648 -2003.462)">
        <g id="Group_98384" data-name="Group 98384">
          <path id="Path_153278" data-name="Path 153278" d="M1397.287-1903.453a11.216,11.216,0,0,1-11.173,11.259H1268.542a11.216,11.216,0,0,1-11.173-11.259v-71.421a11.216,11.216,0,0,1,11.173-11.259h117.572a11.216,11.216,0,0,1,11.173,11.259Z" transform="translate(-1243.171 1986.133)" fill="#7ae582"/>
          <rect id="Rectangle_33784" data-name="Rectangle 33784" width="126.212" height="73.411" transform="translate(21.884 6.772)" fill="#fff"/>
          <path id="Path_153279" data-name="Path 153279" d="M1392.016-1976.174c-2.43,5.8-4.512,12.357-7.723,18.023a21.337,21.337,0,0,1-1.153,1.833c-3.753,5.3-7.719,10.464-11.908,15.425-.488.577-.99,1.142-1.518,1.683a39.712,39.712,0,0,1-3.392,3.1c-5.619,4.552-11.266,9.21-17.3,13.244-1.172.784-2.369,1.53-3.6,2.219a45.409,45.409,0,0,1-4.242,2.115c-6.379,2.735-13.789,6.378-20.876,8.563a58.126,58.126,0,0,1-8.307,1.9c-7.319,1.122-14.659,2.234-22.034,2.923-1.369.128-2.74.227-4.113.283a117.743,117.743,0,0,1-18.463-.891v2.78H1393.6v-73.411h-1.5C1392.07-1976.312,1392.045-1976.243,1392.016-1976.174Z" transform="translate(-1245.844 1983.531)" fill="#9182bc" opacity="0.2"/>
          <path id="Path_153280" data-name="Path 153280" d="M1392.121-1873.089H1252.105l-14.1,55.534h168.217Z" transform="translate(-1238.005 1955.974)" fill="#90d1ff"/>
          <path id="Path_153281" data-name="Path 153281" d="M1263.322-1869.931h127.384l6.184,30.586H1255.883Z" transform="translate(-1242.775 1955.131)" fill="#7ae582" style="mix-blend-mode: multiply;isolation: isolate"/>
          <path id="Path_153282" data-name="Path 153282" d="M1323.805-1840.407h65.69l.736,4.081h-66.992Z" transform="translate(-1260.745 1947.254)" fill="#fb0"/>
          <path id="Path_153283" data-name="Path 153283" d="M1321.949-1849.3h42.7l.929,4.081h-44.317Z" transform="translate(-1260.216 1949.625)" fill="#fb0"/>
          <path id="Path_153284" data-name="Path 153284" d="M1322.57-1821.627h40.121l4.012,13.572H1318.84Z" transform="translate(-1259.571 1942.244)" fill="#fb0"/>
          <path id="Path_153285" data-name="Path 153285" d="M1329.088-1799.01h34.461l3.446,3.358h-41.111Z" transform="translate(-1261.451 1936.209)" fill="#fb0"/>
          <rect id="Rectangle_33785" data-name="Rectangle 33785" width="168.217" height="4.279" transform="translate(0 138.418)" fill="#7ae582"/>
          <g id="Group_98382" data-name="Group 98382" transform="translate(18.371 87.634)">
            <path id="Path_153286" data-name="Path 153286" d="M1269.8-1866.612l21.752.031-.75,3.713h-21.847Z" transform="translate(-1264.632 1866.612)" fill="#fb0"/>
            <path id="Path_153287" data-name="Path 153287" d="M1267.95-1858.012h24.958l-.845,3.955h-25.007Z" transform="translate(-1264.126 1864.317)" fill="#fb0"/>
            <path id="Path_153288" data-name="Path 153288" d="M1305.22-1858.011l11.42.033-.721,3.922H1304.46Z" transform="translate(-1274.106 1864.317)" fill="#fb0"/>
            <path id="Path_153289" data-name="Path 153289" d="M1393.021-1858.01l-11.137.032.992,3.922h11.188Z" transform="translate(-1294.762 1864.317)" fill="#fb0"/>
            <path id="Path_153290" data-name="Path 153290" d="M1323.091-1858.012h11.263v3.955h-11.791Z" transform="translate(-1278.935 1864.317)" fill="#fb0"/>
            <path id="Path_153291" data-name="Path 153291" d="M1302.38-1866.612H1317.3l-.443,3.744h-15.284Z" transform="translate(-1273.335 1866.612)" fill="#fb0"/>
            <path id="Path_153292" data-name="Path 153292" d="M1266.017-1849.3h38.866l-.883,4.081h-38.975Z" transform="translate(-1263.584 1861.992)" fill="#fb0"/>
            <path id="Path_153293" data-name="Path 153293" d="M1264.02-1840.407h15.723l-1.048,4.081h-15.634Z" transform="translate(-1263.061 1859.62)" fill="#fb0"/>
            <path id="Path_153294" data-name="Path 153294" d="M1289.787-1840.407h22.426l-.761,4.081h-22.84Z" transform="translate(-1269.877 1859.62)" fill="#fb0"/>
          </g>
          <g id="Group_98383" data-name="Group 98383" transform="translate(64.282 87.528)">
            <path id="Path_153295" data-name="Path 153295" d="M1425.887-1866.612l-21.752.031.75,3.713h21.846Z" transform="translate(-1346.609 1866.717)" fill="#fb0"/>
            <path id="Path_153296" data-name="Path 153296" d="M1426.41-1858.012h-25.341l1.112,3.954H1427.3Z" transform="translate(-1345.791 1864.423)" fill="#fb0"/>
            <path id="Path_153297" data-name="Path 153297" d="M1368.747-1858.012h-27.771v3.955h28.652Z" transform="translate(-1329.759 1864.423)" fill="#fb0"/>
            <path id="Path_153298" data-name="Path 153298" d="M1326.206-1866.756h11.263v3.955h-11.791Z" transform="translate(-1325.677 1866.756)" fill="#fb0"/>
            <path id="Path_153299" data-name="Path 153299" d="M1371.862-1866.756h-27.77v3.955h28.652Z" transform="translate(-1330.59 1866.756)" fill="#fb0"/>
            <path id="Path_153300" data-name="Path 153300" d="M1423.319-1849.3h-39.045l1.062,4.081h38.975Z" transform="translate(-1341.311 1862.098)" fill="#fb0"/>
            <path id="Path_153301" data-name="Path 153301" d="M1433.814-1840.407h-15.722l1.048,4.081h15.635Z" transform="translate(-1350.333 1859.726)" fill="#fb0"/>
          </g>
        </g>
        <path id="Path_153302" data-name="Path 153302" d="M1396.018-1873.09c-1.412,1.75-2.832,3.482-4.218,5.21A33.973,33.973,0,0,1,1387-1863c-5.281,4.388-10.7,8.636-16.31,12.593-.919.648-1.858,1.27-2.82,1.855a64.579,64.579,0,0,1-5.781,3.117c-7.171,3.417-14.555,6.4-21.934,9.332-4.567,1.81-9.235,3.46-13.916,4.949-11.77,3.746-23.933,5.959-36.1,7.966-6.256,1.033-12.5,2.153-18.775,3.09-6.022.9-12.052,1.766-18.094,2.538h157.025l-14.1-55.534Z" transform="translate(-1242.077 1955.974)" fill="#7ae582" opacity="0.37" style="mix-blend-mode: multiply;isolation: isolate"/>
      </g>
      <g id="Group_98396" data-name="Group 98396" transform="translate(1252.563 -2051.087)">
        <g id="Group_98390" data-name="Group 98390">
          <g id="Group_98389" data-name="Group 98389">
            <rect id="Rectangle_33786" data-name="Rectangle 33786" width="79.401" height="104.538" rx="9.324" fill="#fb0"/>
            <path id="Path_153303" data-name="Path 153303" d="M1364.664-1954.83a6.417,6.417,0,0,1-6.369,6.463h-61.237a6.417,6.417,0,0,1-6.369-6.463v-85.9a6.417,6.417,0,0,1,6.369-6.463h61.237a6.417,6.417,0,0,1,6.369,6.463Z" transform="translate(-1287.975 2050.047)" fill="#a6daff"/>
            <g id="Group_98386" data-name="Group 98386" transform="translate(14.316 9.798)">
              <path id="Path_153304" data-name="Path 153304" d="M1357.282-2036.106a1.732,1.732,0,0,1-1.828,1.617h-47.111a1.733,1.733,0,0,1-1.829-1.617h0a1.733,1.733,0,0,1,1.829-1.618h47.111a1.732,1.732,0,0,1,1.828,1.618Z" transform="translate(-1306.514 2037.724)" fill="#fb0"/>
              <path id="Path_153305" data-name="Path 153305" d="M1357.282-2029.146a1.733,1.733,0,0,1-1.829,1.618h-47.111a1.733,1.733,0,0,1-1.829-1.618h0a1.732,1.732,0,0,1,1.829-1.618h47.111a1.732,1.732,0,0,1,1.829,1.618Z" transform="translate(-1306.514 2035.867)" fill="#fb0"/>
              <path id="Path_153306" data-name="Path 153306" d="M1357.282-2022.187a1.733,1.733,0,0,1-1.829,1.617h-47.111a1.733,1.733,0,0,1-1.829-1.617h0a1.733,1.733,0,0,1,1.829-1.619h47.111a1.733,1.733,0,0,1,1.829,1.619Z" transform="translate(-1306.514 2034.011)" fill="#fb0"/>
              <path id="Path_153307" data-name="Path 153307" d="M1348.071-2015.228a1.561,1.561,0,0,1-1.5,1.618h-38.563a1.561,1.561,0,0,1-1.5-1.618h0a1.561,1.561,0,0,1,1.5-1.618h38.563a1.561,1.561,0,0,1,1.5,1.618Z" transform="translate(-1306.514 2032.154)" fill="#fb0"/>
              <path id="Path_153308" data-name="Path 153308" d="M1357.283-2008.269a1.733,1.733,0,0,1-1.829,1.618h-47.111a1.732,1.732,0,0,1-1.828-1.618h0a1.733,1.733,0,0,1,1.828-1.618h47.111a1.733,1.733,0,0,1,1.829,1.618Z" transform="translate(-1306.514 2030.297)" fill="#fb0"/>
              <path id="Path_153309" data-name="Path 153309" d="M1353.345-2001.309a1.653,1.653,0,0,1-1.686,1.618H1308.2a1.653,1.653,0,0,1-1.686-1.618h0a1.653,1.653,0,0,1,1.686-1.618h43.457a1.653,1.653,0,0,1,1.686,1.618Z" transform="translate(-1306.514 2028.44)" fill="#fb0"/>
              <path id="Path_153310" data-name="Path 153310" d="M1333.657-1994.35c0,.894-.438,1.617-.978,1.617h-25.186c-.54,0-.977-.724-.977-1.617h0c0-.893.438-1.618.977-1.618h25.186c.54,0,.978.725.978,1.618Z" transform="translate(-1306.514 2026.584)" fill="#fb0"/>
            </g>
            <g id="Group_98387" data-name="Group 98387" transform="translate(14.316 45.36)">
              <path id="Path_153311" data-name="Path 153311" d="M1306.515-1987.6a1.732,1.732,0,0,0,1.828,1.618h47.111a1.733,1.733,0,0,0,1.829-1.618h0a1.733,1.733,0,0,0-1.829-1.618h-47.111a1.732,1.732,0,0,0-1.828,1.618Z" transform="translate(-1306.514 1989.221)" fill="#fb0"/>
              <path id="Path_153312" data-name="Path 153312" d="M1306.514-1980.644a1.733,1.733,0,0,0,1.829,1.619h47.111a1.733,1.733,0,0,0,1.829-1.619h0a1.733,1.733,0,0,0-1.829-1.617h-47.111a1.733,1.733,0,0,0-1.829,1.617Z" transform="translate(-1306.514 1987.364)" fill="#fb0"/>
              <path id="Path_153313" data-name="Path 153313" d="M1306.514-1973.684a1.732,1.732,0,0,0,1.829,1.617h47.111a1.732,1.732,0,0,0,1.829-1.617h0a1.733,1.733,0,0,0-1.829-1.618h-47.111a1.733,1.733,0,0,0-1.829,1.618Z" transform="translate(-1306.514 1985.507)" fill="#fb0"/>
              <path id="Path_153314" data-name="Path 153314" d="M1319.078-1966.725a1.561,1.561,0,0,0,1.5,1.618h38.564a1.561,1.561,0,0,0,1.5-1.618h0a1.56,1.56,0,0,0-1.5-1.617h-38.564a1.56,1.56,0,0,0-1.5,1.617Z" transform="translate(-1309.866 1983.651)" fill="#fb0"/>
              <path id="Path_153315" data-name="Path 153315" d="M1306.514-1959.765a1.733,1.733,0,0,0,1.829,1.617h47.111a1.732,1.732,0,0,0,1.828-1.617h0a1.732,1.732,0,0,0-1.828-1.618h-47.111a1.733,1.733,0,0,0-1.829,1.618Z" transform="translate(-1306.514 1981.794)" fill="#fb0"/>
              <path id="Path_153316" data-name="Path 153316" d="M1311.885-1952.806a1.654,1.654,0,0,0,1.686,1.618h43.458a1.653,1.653,0,0,0,1.686-1.618h0a1.653,1.653,0,0,0-1.686-1.618h-43.458a1.653,1.653,0,0,0-1.686,1.618Z" transform="translate(-1307.947 1979.937)" fill="#fb0"/>
              <path id="Path_153317" data-name="Path 153317" d="M1338.738-1945.846c0,.893.438,1.617.977,1.617H1364.9c.54,0,.977-.724.977-1.617h0c0-.894-.437-1.618-.977-1.618h-25.187c-.54,0-.977.724-.977,1.618Z" transform="translate(-1315.111 1978.08)" fill="#fb0"/>
            </g>
            <g id="Group_98388" data-name="Group 98388" transform="translate(14.316 83.381)">
              <path id="Path_153318" data-name="Path 153318" d="M1306.514-1935.748a1.733,1.733,0,0,0,1.829,1.618h47.111a1.733,1.733,0,0,0,1.829-1.618h0a1.733,1.733,0,0,0-1.829-1.617h-47.111a1.733,1.733,0,0,0-1.829,1.617Z" transform="translate(-1306.514 1937.365)" fill="#fb0"/>
              <path id="Path_153319" data-name="Path 153319" d="M1306.514-1928.787a1.733,1.733,0,0,0,1.829,1.618h47.111a1.732,1.732,0,0,0,1.828-1.618h0a1.732,1.732,0,0,0-1.828-1.618h-47.111a1.733,1.733,0,0,0-1.829,1.618Z" transform="translate(-1306.514 1935.508)" fill="#fb0"/>
            </g>
          </g>
        </g>
        <g id="Group_98395" data-name="Group 98395" transform="translate(15.17 11.855)">
          <g id="Group_98394" data-name="Group 98394" transform="translate(0 0)">
            <rect id="Rectangle_33787" data-name="Rectangle 33787" width="79.402" height="104.538" rx="9.324" fill="#1638a1"/>
            <path id="Path_153320" data-name="Path 153320" d="M1385.353-1938.661a6.416,6.416,0,0,1-6.369,6.463h-61.237a6.416,6.416,0,0,1-6.369-6.463v-85.9a6.416,6.416,0,0,1,6.369-6.463h61.237a6.416,6.416,0,0,1,6.369,6.463Z" transform="translate(-1308.665 2033.878)" fill="#fff"/>
            <g id="Group_98391" data-name="Group 98391" transform="translate(14.317 9.797)">
              <path id="Path_153321" data-name="Path 153321" d="M1377.972-2019.937a1.732,1.732,0,0,1-1.828,1.617h-47.111a1.733,1.733,0,0,1-1.829-1.617h0a1.733,1.733,0,0,1,1.829-1.619h47.111a1.733,1.733,0,0,1,1.828,1.619Z" transform="translate(-1327.204 2021.556)" fill="#1638a1"/>
              <path id="Path_153322" data-name="Path 153322" d="M1377.973-2012.978a1.733,1.733,0,0,1-1.829,1.618h-47.111a1.733,1.733,0,0,1-1.829-1.618h0a1.732,1.732,0,0,1,1.829-1.617h47.111a1.733,1.733,0,0,1,1.829,1.617Z" transform="translate(-1327.204 2019.699)" fill="#1638a1"/>
              <path id="Path_153323" data-name="Path 153323" d="M1377.973-2006.019a1.733,1.733,0,0,1-1.829,1.618h-47.111a1.733,1.733,0,0,1-1.829-1.618h0a1.733,1.733,0,0,1,1.829-1.618h47.111a1.734,1.734,0,0,1,1.829,1.618Z" transform="translate(-1327.204 2017.843)" fill="#1638a1"/>
              <path id="Path_153324" data-name="Path 153324" d="M1368.76-1999.059a1.561,1.561,0,0,1-1.5,1.617H1328.7a1.561,1.561,0,0,1-1.5-1.617h0a1.561,1.561,0,0,1,1.5-1.618h38.564a1.561,1.561,0,0,1,1.5,1.618Z" transform="translate(-1327.204 2015.985)" fill="#1638a1"/>
              <path id="Path_153325" data-name="Path 153325" d="M1377.973-1992.1a1.733,1.733,0,0,1-1.829,1.618h-47.111a1.733,1.733,0,0,1-1.829-1.618h0a1.734,1.734,0,0,1,1.829-1.618h47.111a1.734,1.734,0,0,1,1.829,1.618Z" transform="translate(-1327.204 2014.129)" fill="#1638a1"/>
              <path id="Path_153326" data-name="Path 153326" d="M1374.034-1985.141a1.653,1.653,0,0,1-1.686,1.618h-43.457a1.654,1.654,0,0,1-1.687-1.618h0a1.653,1.653,0,0,1,1.687-1.617h43.457a1.653,1.653,0,0,1,1.686,1.617Z" transform="translate(-1327.204 2012.272)" fill="#1638a1"/>
              <path id="Path_153327" data-name="Path 153327" d="M1354.347-1978.181c0,.894-.438,1.618-.977,1.618h-25.188c-.539,0-.977-.724-.977-1.618h0c0-.893.438-1.618.977-1.618h25.188c.539,0,.977.725.977,1.618Z" transform="translate(-1327.204 2010.415)" fill="#1638a1"/>
            </g>
            <g id="Group_98392" data-name="Group 98392" transform="translate(14.317 45.36)">
              <path id="Path_153328" data-name="Path 153328" d="M1327.2-1971.434a1.732,1.732,0,0,0,1.829,1.617h47.111a1.733,1.733,0,0,0,1.829-1.617h0a1.733,1.733,0,0,0-1.829-1.618h-47.111a1.733,1.733,0,0,0-1.829,1.618Z" transform="translate(-1327.204 1973.052)" fill="#1638a1"/>
              <path id="Path_153329" data-name="Path 153329" d="M1327.2-1964.474a1.733,1.733,0,0,0,1.829,1.618h47.111a1.733,1.733,0,0,0,1.829-1.618h0a1.733,1.733,0,0,0-1.829-1.618h-47.111a1.733,1.733,0,0,0-1.829,1.618Z" transform="translate(-1327.204 1971.195)" fill="#1638a1"/>
              <path id="Path_153330" data-name="Path 153330" d="M1327.2-1957.515a1.732,1.732,0,0,0,1.829,1.618h47.111a1.733,1.733,0,0,0,1.829-1.618h0a1.733,1.733,0,0,0-1.829-1.618h-47.111a1.733,1.733,0,0,0-1.829,1.618Z" transform="translate(-1327.204 1969.339)" fill="#1638a1"/>
              <path id="Path_153331" data-name="Path 153331" d="M1339.767-1950.555a1.562,1.562,0,0,0,1.5,1.618h38.564a1.56,1.56,0,0,0,1.5-1.618h0a1.56,1.56,0,0,0-1.5-1.617h-38.564a1.561,1.561,0,0,0-1.5,1.617Z" transform="translate(-1330.556 1967.481)" fill="#1638a1"/>
              <path id="Path_153332" data-name="Path 153332" d="M1327.2-1943.6a1.732,1.732,0,0,0,1.829,1.617h47.111a1.732,1.732,0,0,0,1.828-1.617h0a1.733,1.733,0,0,0-1.828-1.618h-47.111a1.733,1.733,0,0,0-1.829,1.618Z" transform="translate(-1327.204 1965.625)" fill="#1638a1"/>
              <path id="Path_153333" data-name="Path 153333" d="M1332.575-1936.637a1.653,1.653,0,0,0,1.686,1.618h43.457a1.653,1.653,0,0,0,1.686-1.618h0a1.653,1.653,0,0,0-1.686-1.618h-43.457a1.653,1.653,0,0,0-1.686,1.618Z" transform="translate(-1328.637 1963.768)" fill="#1638a1"/>
              <path id="Path_153334" data-name="Path 153334" d="M1359.428-1929.677c0,.893.438,1.617.977,1.617h25.187c.54,0,.977-.724.977-1.617h0c0-.894-.437-1.618-.977-1.618h-25.187c-.54,0-.977.724-.977,1.618Z" transform="translate(-1335.801 1961.911)" fill="#1638a1"/>
            </g>
            <g id="Group_98393" data-name="Group 98393" transform="translate(14.317 83.381)">
              <path id="Path_153335" data-name="Path 153335" d="M1327.2-1919.578a1.733,1.733,0,0,0,1.829,1.617h47.111a1.733,1.733,0,0,0,1.829-1.617h0a1.733,1.733,0,0,0-1.829-1.618h-47.111a1.733,1.733,0,0,0-1.829,1.618Z" transform="translate(-1327.204 1921.196)" fill="#1638a1"/>
              <path id="Path_153336" data-name="Path 153336" d="M1327.2-1912.619a1.733,1.733,0,0,0,1.829,1.618h47.111a1.732,1.732,0,0,0,1.828-1.618h0a1.732,1.732,0,0,0-1.828-1.617h-47.111a1.733,1.733,0,0,0-1.829,1.617Z" transform="translate(-1327.204 1919.339)" fill="#1638a1"/>
            </g>
          </g>
          <path id="Path_153337" data-name="Path 153337" d="M1384.651-1930.507a6.838,6.838,0,0,0,5.527-6.709v-90.865a6.837,6.837,0,0,0-6.836-6.836H1319.29Z" transform="translate(-1310.776 2034.918)" fill="#90d1ff" opacity="0.13"/>
        </g>
      </g>
      <g id="Group_98397" data-name="Group 98397" transform="translate(1157.988 -2017.208)">
        <path id="Path_153338" data-name="Path 153338" d="M1209.662-2004.881H1163.2a5.464,5.464,0,0,0-5.2,5.7v27.689a5.464,5.464,0,0,0,5.2,5.695h38.56c2.628,2.83,8.758,9.319,10.259,9.946,1.926.8,2.843.765,2.843-15.641v-27.689A5.464,5.464,0,0,0,1209.662-2004.881Z" transform="translate(-1158 2004.881)" fill="#3ca8f4"/>
        <path id="Path_153339" data-name="Path 153339" d="M1208.616-1989.812a4.431,4.431,0,0,1-4.43,4.43h-30.52a4.43,4.43,0,0,1-4.43-4.43h0a4.429,4.429,0,0,1,4.43-4.43h30.52a4.43,4.43,0,0,1,4.43,4.43Z" transform="translate(-1160.998 2002.042)" fill="#fff"/>
        <path id="Path_153340" data-name="Path 153340" d="M1208.616-1969.924a4.43,4.43,0,0,1-4.43,4.429h-30.52a4.429,4.429,0,0,1-4.43-4.429h0a4.43,4.43,0,0,1,4.43-4.431h30.52a4.431,4.431,0,0,1,4.43,4.431Z" transform="translate(-1160.998 1996.737)" fill="#fff"/>
      </g>
      <g id="Group_98398" data-name="Group 98398" transform="translate(1380.914 -2010.077)">
        <path id="Path_153341" data-name="Path 153341" d="M1467.814-1995.155h51.568a6.065,6.065,0,0,1,5.771,6.322v30.731a6.064,6.064,0,0,1-5.771,6.321h-42.8c-2.916,3.14-9.719,10.343-11.385,11.039-2.138.892-3.156.848-3.156-17.36v-30.731A6.066,6.066,0,0,1,1467.814-1995.155Z" transform="translate(-1462.043 1995.155)" fill="#29b39d"/>
        <path id="Path_153342" data-name="Path 153342" d="M1488.27-1967.6a5.965,5.965,0,0,1-5.965,5.965h0a5.965,5.965,0,0,1-5.965-5.965h0a5.965,5.965,0,0,1,5.965-5.966h0a5.965,5.965,0,0,1,5.965,5.966Z" transform="translate(-1465.857 1989.396)" fill="#fff"/>
        <path id="Path_153343" data-name="Path 153343" d="M1509.712-1967.6a5.966,5.966,0,0,1-5.965,5.965h0a5.966,5.966,0,0,1-5.967-5.965h0a5.966,5.966,0,0,1,5.967-5.966h0a5.966,5.966,0,0,1,5.965,5.966Z" transform="translate(-1471.577 1989.396)" fill="#fff"/>
        <path id="Path_153344" data-name="Path 153344" d="M1531.155-1967.6a5.965,5.965,0,0,1-5.965,5.965h0a5.965,5.965,0,0,1-5.966-5.965h0a5.966,5.966,0,0,1,5.966-5.966h0a5.966,5.966,0,0,1,5.965,5.966Z" transform="translate(-1477.299 1989.396)" fill="#fff"/>
      </g>
      <g id="Group_98403" data-name="Group 98403" transform="translate(1187.809 -1962.215)">
        <path id="Path_153345" data-name="Path 153345" d="M1206.256-1923.292s-.66,3.288.488,3.988c0,0,2.456-5.1.713-4.78S1206.256-1923.292,1206.256-1923.292Z" transform="translate(-1200.646 1928.336)" fill="#fb0"/>
        <g id="Group_98400" data-name="Group 98400" transform="translate(13.697)">
          <g id="Group_98399" data-name="Group 98399" transform="translate(22.085)">
            <path id="Path_153346" data-name="Path 153346" d="M1247.477-1925.839a3.432,3.432,0,0,1,.98-2.422c1.062-1.068.426.439-.477,3.621Z" transform="translate(-1247.475 1929.537)" fill="#e6836e"/>
            <path id="Path_153347" data-name="Path 153347" d="M1247.79-1926.179a11.8,11.8,0,0,1,1.067-1.8,12.2,12.2,0,0,1,1.4-1.741c.391-.437.36.151.374.187.009.021.025-.079.161.025a1.01,1.01,0,0,1,.247.448c.019.091.075.406.1.546.128.658.384,1.89-1.134,3.9C1250.013-1924.614,1247.911-1924.632,1247.79-1926.179Z" transform="translate(-1247.559 1929.877)" fill="#e6836e"/>
          </g>
          <path id="Path_153348" data-name="Path 153348" d="M1218.854-1911.993s-2.511,6.882-1.036,8.609c3.33,3.9,19.445-2.5,24.446-19.687,0,0-1.723-2.783-3.126-1.612-2.361,1.969-5.679,6.042-10.965,8.74C1225.743-1914.7,1222.6-1915.434,1218.854-1911.993Z" transform="translate(-1217.354 1928.568)" fill="#c6c6c5"/>
        </g>
        <path id="Path_153349" data-name="Path 153349" d="M1216.862-1804.234s-.4.2-.406.334a14.2,14.2,0,0,0-.107,2.218c.1.31,5.539.909,5.539.909s2.749-.133,3.036-.487.164-.622,0-.666-6.5-2.463-6.5-2.463Z" transform="translate(-1203.381 1896.398)" fill="#fb0"/>
        <path id="Path_153350" data-name="Path 153350" d="M1207.911-1803.453s.414.172.428.3a14.191,14.191,0,0,1,.263,2.206c-.081.317-5.462,1.3-5.462,1.3s-2.753.059-3.064-.274-.208-.609-.047-.664,6.315-2.913,6.315-2.913Z" transform="translate(-1198.994 1896.16)" fill="#fb0"/>
        <path id="Path_153351" data-name="Path 153351" d="M1208.61-1805.864s-.068,2.733-.051,2.784c.128.413,1.3.44,1.652.125l.683-2.631Z" transform="translate(-1201.309 1896.791)" fill="#f3a290"/>
        <path id="Path_153352" data-name="Path 153352" d="M1216.884-1807.264s-.046,2.715-.025,2.784c.122.415,1.251.493,1.6.175l.508-2.73Z" transform="translate(-1203.523 1897.165)" fill="#f3a290"/>
        <path id="Path_153353" data-name="Path 153353" d="M1224.108-1873.891s-.871,19.7-1.821,28.929c0,0-4.962-.806-5.463-2.928s.444-24.906.444-24.906Z" transform="translate(-1203.476 1914.94)" fill="#70ab3c"/>
        <path id="Path_153354" data-name="Path 153354" d="M1214.3-1872.771c.073,1,7.922-.452,7.993.57.268,3.83-6.363,14.533-6.352,14.672-2.576,16.505-4.309,31.487-5.265,34.963-.4,1.445-3.077.054-3.077.054-.571-18.762-.957-48.708-.957-48.708C1208.662-1872.455,1211.564-1872.8,1214.3-1872.771Z" transform="translate(-1200.799 1914.642)" fill="#29b39d"/>
        <path id="Path_153355" data-name="Path 153355" d="M1210.912-1907.315a8.828,8.828,0,0,0-6.431,2.358s-2.133,16.09.041,23.162c0,0,10.53,4.775,16.022-.507,0,0,2.839-20.442-1.964-28.081C1218.58-1910.384,1213.437-1909.977,1210.912-1907.315Z" transform="translate(-1199.973 1924.677)" fill="#ececec"/>
        <path id="Path_153356" data-name="Path 153356" d="M1210.275-1914.238a46.943,46.943,0,0,1,1.213,6.506s1.876,1.676,3.494.124c0,0,.628-6.209,1.948-7.162S1210.275-1914.238,1210.275-1914.238Z" transform="translate(-1201.768 1925.932)" fill="#e6836e"/>
        <path id="Path_153357" data-name="Path 153357" d="M1214.914-1924.947s-4.363-2-7.218.781a16.158,16.158,0,0,0-1.093,6.254c.3,2.683.944,5.222,2.93,5.36,0,0,5.6-.177,6.368-4.014C1216.591-1920.02,1216.23-1924.061,1214.914-1924.947Z" transform="translate(-1200.777 1928.747)" fill="#f3a290"/>
        <path id="Path_153358" data-name="Path 153358" d="M1218.125-1915.959c-.322,1.137-.059,2.207.586,2.389s1.429-.592,1.751-1.73.059-2.207-.587-2.389S1218.447-1917.1,1218.125-1915.959Z" transform="translate(-1203.826 1926.632)" fill="#f3a290"/>
        <path id="Path_153359" data-name="Path 153359" d="M1207.529-1899.7s-.922-4.431-3.328-4.165c-3.667.4-7.523,8.563-4.354,17.859,1.46,4.281,12.723.018,15.743-2.562,0,0,2.955-2.615-1.3-3.146a29,29,0,0,0-9.389.479C1205.657-1891.236,1208.322-1894.341,1207.529-1899.7Z" transform="translate(-1198.672 1922.941)" fill="#fff"/>
        <path id="Path_153360" data-name="Path 153360" d="M1218.277-1839.953s-1.306-.222-1.505.488-.273,20.026-.273,25.025c0,0,1.805.917,2.412,0,.935-1.411,3.328-21.476,3.328-21.476Z" transform="translate(-1203.429 1905.895)" fill="#70ab3c"/>
        <g id="Group_98402" data-name="Group 98402" transform="translate(15.891 26.288)">
          <g id="Group_98401" data-name="Group 98401" transform="translate(0.553)">
            <path id="Path_153361" data-name="Path 153361" d="M1230.971-1892.928a.769.769,0,0,1,.674.852l-1.693,11.33a.769.769,0,0,1-.893.617l-7.277-1.087a.768.768,0,0,1-.673-.851l1.692-11.33a.771.771,0,0,1,.894-.618Z" transform="translate(-1221.1 1894.024)" fill="#3ca8f4"/>
            <path id="Path_153362" data-name="Path 153362" d="M1223.409-1893.4l-.026.18a16.249,16.249,0,0,1,6.752,8.2c.268.686.528,1.387.749,2.1l1.369-9.158a.77.77,0,0,0-.674-.852l-7.276-1.087A.771.771,0,0,0,1223.409-1893.4Z" transform="translate(-1221.71 1894.024)" fill="#3ca8f4" style="mix-blend-mode: multiply;isolation: isolate"/>
            <path id="Path_153363" data-name="Path 153363" d="M1228.1-1885.662a.856.856,0,0,1,.75.949.855.855,0,0,1-.993.688.856.856,0,0,1-.751-.948A.856.856,0,0,1,1228.1-1885.662Z" transform="translate(-1222.7 1891.796)" fill="#fb0"/>
          </g>
          <path id="Path_153364" data-name="Path 153364" d="M1221.607-1887.19a4,4,0,0,1,3.163.246c1.587.87.145.72-3.989.485Z" transform="translate(-1220.462 1892.259)" fill="#f3a290"/>
          <path id="Path_153365" data-name="Path 153365" d="M1221.49-1887.111a16.685,16.685,0,0,1,2.48.714,16.475,16.475,0,0,1,2.5,1.077c.638.312-.092.409-.131.433s.1.007.011.173a1.228,1.228,0,0,1-.485.357c-.106.04-.458.3-.62.359-.774.28-1.79.859-4.643-.279C1220.6-1884.277,1219.626-1886.642,1221.49-1887.111Z" transform="translate(-1220.346 1892.18)" fill="#f3a290"/>
        </g>
        <path id="Path_153366" data-name="Path 153366" d="M1209.134-1924.643a2.491,2.491,0,0,0,2.872.653s-.2,2.337,1.644,2.674a3.183,3.183,0,0,1-.188,1.862,1.283,1.283,0,0,0,.208,1.615c.269.209.268-.515.268-.515s.485-1.466,1.128-1.585.733.238.951.347.654.306.911-.386-.128-1.535,0-1.812,1.178-1.05,1.139-1.793a1.81,1.81,0,0,0-2.007-1.923,2.115,2.115,0,0,0-1.743-2.233s-2.265-1.624-3.819-.581c0,0-3.866-2.06-4.764.37,0,0-2.681-.118-2.562,1.875s2.153,2.681,4.014,1.942C1207.186-1924.134,1208.572-1923.778,1209.134-1924.643Z" transform="translate(-1199.872 1929.68)" fill="#fb0"/>
      </g>
      <g id="Group_98407" data-name="Group 98407" transform="translate(1375.495 -1944.497)">
        <g id="Group_98405" data-name="Group 98405" transform="translate(0 16.561)">
          <g id="Group_98404" data-name="Group 98404" transform="translate(0 20.052)">
            <path id="Path_153367" data-name="Path 153367" d="M1458.886-1855.755a3.32,3.32,0,0,0-2.431.708c-1.134.92.382.454,3.539-.106Z" transform="translate(-1455.034 1855.776)" fill="#e6836e"/>
            <path id="Path_153368" data-name="Path 153368" d="M1458.484-1855.445a11.5,11.5,0,0,0-1.838.853,11.932,11.932,0,0,0-1.815,1.184c-.46.334.111.362.144.379s-.078.015.008.157a.971.971,0,0,0,.408.283c.086.026.385.113.517.153.623.188,1.785.554,3.868-.713C1459.776-1853.148,1459.964-1855.178,1458.484-1855.445Z" transform="translate(-1454.653 1855.687)" fill="#e6836e"/>
          </g>
          <path id="Path_153369" data-name="Path 153369" d="M1474.285-1881.644s3.231-2.548,4.753-.957c3.433,3.591-1.417,17.131-17.724,22.449,0,0-2.515-1.933-1.248-3.173,2.129-2.084,4.827-3.187,7.945-8.019C1469.444-1873.565,1470.6-1878.372,1474.285-1881.644Z" transform="translate(-1456.002 1883.124)" fill="#bfb036"/>
        </g>
        <path id="Path_153370" data-name="Path 153370" d="M1495.736-1902.385l.019.044c.222.529,2.267,5.624-.845,7.1l.832-7.126" transform="translate(-1465.393 1904.824)" fill="#fb0"/>
        <path id="Path_153371" data-name="Path 153371" d="M1484.735-1784.638s.389.193.393.322a13.659,13.659,0,0,1,.1,2.15c-.1.3-5.369.881-5.369.881s-2.665-.129-2.943-.473-.159-.6,0-.645,6.3-2.386,6.3-2.386Z" transform="translate(-1460.549 1873.45)" fill="#fb0"/>
        <path id="Path_153372" data-name="Path 153372" d="M1493.032-1782.942s.389.194.393.324a13.825,13.825,0,0,1,.1,2.149c-.1.3-5.369.881-5.369.881s-2.665-.13-2.944-.471-.158-.6,0-.645,6.3-2.388,6.3-2.388Z" transform="translate(-1462.762 1872.997)" fill="#fb0"/>
        <path id="Path_153373" data-name="Path 153373" d="M1495-1786.22s.065,2.651.05,2.7c-.124.4-1.262.427-1.6.122l-.661-2.551Z" transform="translate(-1464.828 1873.832)" fill="#f3a290"/>
        <path id="Path_153374" data-name="Path 153374" d="M1487.065-1787.578s.043,2.631.024,2.7c-.119.4-1.212.479-1.548.171l-.493-2.65Z" transform="translate(-1462.762 1874.194)" fill="#f3a290"/>
        <path id="Path_153375" data-name="Path 153375" d="M1478.186-1852.155s.845,19.095,1.766,28.04c0,0,4.808-.782,5.294-2.838s-.43-24.141-.43-24.141Z" transform="translate(-1460.931 1891.423)" fill="#0b1b4f"/>
        <path id="Path_153376" data-name="Path 153376" d="M1485.788-1851.07c-.066.969-7.088-.439-7.151.552-.24,3.712,5.692,14.086,5.682,14.221,2.3,16,3.854,30.519,4.71,33.889.356,1.4,2.752.051,2.752.051.51-18.185.855-47.21.855-47.21C1490.832-1850.763,1488.237-1851.1,1485.788-1851.07Z" transform="translate(-1461.05 1891.134)" fill="#fb0"/>
        <path id="Path_153377" data-name="Path 153377" d="M1484.933-1883.58s5.515-.326,8.587,2.362c0,0,3.593,16.042-1.3,22.9,0,0-9.085,4.429-14.41-.691,0,0-2.133-16.487.888-22.163C1478.7-1881.17,1479.253-1883.453,1484.933-1883.58Z" transform="translate(-1460.637 1899.81)" fill="#3ca8f4"/>
        <path id="Path_153378" data-name="Path 153378" d="M1491.816-1891.262a45.559,45.559,0,0,0-1.177,6.305s-1.816,1.625-3.386.12c0,0-.609-6.02-1.889-6.941S1491.816-1891.262,1491.816-1891.262Z" transform="translate(-1462.809 1902.076)" fill="#e6836e"/>
        <path id="Path_153379" data-name="Path 153379" d="M1490.667-1902.623s-6.064-1.875-8.832.819c0,0,.482,3.4.777,6s.916,5.061,2.84,5.2c0,0,5.429-.172,6.172-3.89C1492.294-1897.848,1491.943-1901.765,1490.667-1902.623Z" transform="translate(-1461.905 1905.057)" fill="#f3a290"/>
        <path id="Path_153380" data-name="Path 153380" d="M1493.922-1893.4c-.312,1.1-.057,2.139.568,2.315s1.385-.573,1.7-1.676.057-2.139-.568-2.315S1494.233-1894.5,1493.922-1893.4Z" transform="translate(-1465.094 1902.881)" fill="#f3a290"/>
        <g id="Group_98406" data-name="Group 98406" transform="translate(26.42 45.716)">
          <path id="Path_153381" data-name="Path 153381" d="M1493.35-1843.36a3.609,3.609,0,0,0-1.992,1.952c-.651,1.515.579.272,3.335-1.894Z" transform="translate(-1490.82 1843.36)" fill="#f3a290"/>
          <path id="Path_153382" data-name="Path 153382" d="M1493.3-1843.061a12.953,12.953,0,0,0-1.356,1.8,13.854,13.854,0,0,0-1.179,2.128c-.281.576.276.315.316.317.023,0-.067.055.082.157a.986.986,0,0,0,.523.084c.094-.016.421-.078.565-.1.684-.121,1.969-.331,3.365-2.682C1495.617-1841.36,1494.842-1843.534,1493.3-1843.061Z" transform="translate(-1490.686 1843.298)" fill="#f3a290"/>
        </g>
        <path id="Path_153383" data-name="Path 153383" d="M1494.594-1877.9s1.544-4.584,3.186-2.786c6.757,7.4,8.191,24.38-1.586,29.97a3.075,3.075,0,0,1-2.306-2.055c-.729-1.882,2.794-8.169,2.794-8.169A37.405,37.405,0,0,1,1494.594-1877.9Z" transform="translate(-1465.094 1899.147)" fill="#3ca8f4"/>
        <path id="Path_153384" data-name="Path 153384" d="M1484.435-1819.261s1.266-.215,1.458.472.265,19.411.265,24.255c0,0-1.749.889-2.338,0-.906-1.367-3.225-20.814-3.225-20.814Z" transform="translate(-1461.574 1882.655)" fill="#0b1b4f"/>
        <path id="Path_153385" data-name="Path 153385" d="M1491.559-1904.52c-8.159-2.67-12.018-.02-12.018-.02.1,1.133,2.419,3.033,3.3,3.187a32.727,32.727,0,0,0,6.432-.653c.884-.224.916,1.016.87,1.7-.005.053-.009.111-.012.169-.015.158-.031.262-.031.262a4.385,4.385,0,0,0,.005,1.389,12.722,12.722,0,0,1-.338,3.858,3.009,3.009,0,0,1-2.453,1.394c-.569-.776-3.253-4.173-5.229-2.186v0a.553.553,0,0,0-.088.11c-.4.614.088,2.829.333,3.527.624,1.781,6.016.5,7.264,0a1.815,1.815,0,0,0,1.094-2.139,7.3,7.3,0,0,1,.081-2.7l0,0a7.014,7.014,0,0,1,.691-1.459l.345-1.248C1492.577-1901.487,1491.559-1904.52,1491.559-1904.52Z" transform="translate(-1461.293 1905.711)" fill="#fb0"/>
      </g>
    </g>
  </g>
</svg>
