<svg xmlns="http://www.w3.org/2000/svg" width="154.822" height="150" viewBox="0 0 154.822 150">
  <g id="t4-ic1" transform="translate(-11.16 -8.918)">
    <circle id="Ellipse_4427" data-name="Ellipse 4427" cx="8.282" cy="8.282" r="8.282" transform="translate(50.314 42.137)" fill="#fec093"/>
    <circle id="Ellipse_4428" data-name="Ellipse 4428" cx="8.282" cy="8.282" r="8.282" transform="translate(108.811 42.137)" fill="#fec9a3"/>
    <path id="Path_152234" data-name="Path 152234" d="M149.646,180.891H61.406V168.928a35.739,35.739,0,0,1,35.739-35.739h15.312A35.739,35.739,0,0,1,148.2,168.928Z" transform="translate(-16.957 -41.939)" fill="#29b39d"/>
    <path id="Path_152235" data-name="Path 152235" d="M109.4,133.189H97.146a35.739,35.739,0,0,0-35.739,35.739v11.962H73.664V168.928A35.739,35.739,0,0,1,109.4,133.189Z" transform="translate(-16.957 -41.939)" fill="#29b39d" style="mix-blend-mode: multiply;isolation: isolate"/>
    <rect id="Rectangle_33282" data-name="Rectangle 33282" width="17.888" height="35.391" rx="8.944" transform="translate(78.9 67.397)" fill="#fec9a3"/>
    <path id="Path_152236" data-name="Path 152236" d="M113.406,106.172v17.5a8.98,8.98,0,0,0,7.742,8.863V97.309a8.98,8.98,0,0,0-7.742,8.863Z" transform="translate(-34.506 -29.83)" fill="#fec093"/>
    <rect id="Rectangle_33283" data-name="Rectangle 33283" width="58.497" height="72.927" rx="29.248" transform="translate(58.596 12.421)" fill="#fec9a3"/>
    <path id="Path_152237" data-name="Path 152237" d="M95.016,57.885V43.454a29.359,29.359,0,0,1,23.122-28.592A29.222,29.222,0,0,0,82.759,43.454v14.43a29.22,29.22,0,0,0,35.377,28.593,29.359,29.359,0,0,1-23.12-28.592Z" transform="translate(-24.163 -1.785)" fill="#fec093"/>
    <path id="Path_152238" data-name="Path 152238" d="M111.029,130.765l8.944,11.654-9.689,5.217-3.92-16.4,4.665-5.3Z" transform="translate(-32.129 -39.492)" fill="#3ca8f4"/>
    <path id="Path_152239" data-name="Path 152239" d="M135.85,130.765l-8.944,11.654,9.689,5.217,3.921-16.4-4.666-5.3Z" transform="translate(-39.062 -39.492)" fill="#3ca8f4"/>
    <path id="Path_152240" data-name="Path 152240" d="M114.572,82.581a1.841,1.841,0,1,1-3.681,0V80a1.84,1.84,0,1,1,3.681,0Z" transform="translate(-33.657 -23.366)"/>
    <path id="Path_152241" data-name="Path 152241" d="M136.391,10.421a14.793,14.793,0,0,0-11.528,5.507,28.974,28.974,0,0,0-12.853-3A29.335,29.335,0,0,0,82.759,42.177v6.479h4.818V44.748s9.754-2.461,9.846-13.227c0,0,12.41,11.017,34.774,7.942a14.824,14.824,0,1,0,4.194-29.042Z" transform="translate(-24.163 -0.507)" fill="#afafaf"/>
    <path id="Path_152242" data-name="Path 152242" d="M118.12,14.863a29,29,0,0,0-6.112-.663A29.335,29.335,0,0,0,82.759,43.452v6.479h4.818V46.023a14.333,14.333,0,0,0,7.586-5.488A29.389,29.389,0,0,1,118.12,14.863Z" transform="translate(-24.163 -1.783)" fill="#636363"/>
    <path id="Path_152243" data-name="Path 152243" d="M0,0H18.551V6.432H0Z" transform="matrix(0.941, -0.338, 0.338, 0.941, 107.24, 83.247)" fill="#fec9a3"/>
    <path id="Path_152244" data-name="Path 152244" d="M0,0H18.551V46.156A9.275,9.275,0,0,1,0,46.156V0Z" transform="matrix(0.941, -0.338, 0.338, 0.941, 109.411, 89.297)" fill="#63bce7"/>
    <path id="Path_152245" data-name="Path 152245" d="M0,0H18.551V5.467H0Z" transform="matrix(0.941, -0.338, 0.338, 0.941, 109.413, 89.299)" fill="#3ca8f4"/>
    <circle id="Ellipse_4429" data-name="Ellipse 4429" cx="11.14" cy="11.14" r="11.14" transform="translate(84.579 49.353) rotate(-31.671)" fill="#a8dbff"/>
    <rect id="Rectangle_33284" data-name="Rectangle 33284" width="6.96" height="19.089" rx="3.48" transform="translate(104.972 67.823) rotate(-31.671)" fill="#3ca8f4"/>
    <path id="Path_152246" data-name="Path 152246" d="M3.7,0H7.69A1.834,1.834,0,0,1,9.524,1.834v12.73A1.834,1.834,0,0,1,7.69,16.4H3.7a3.7,3.7,0,0,1-3.7-3.7V3.7A3.7,3.7,0,0,1,3.7,0Z" transform="translate(109.307 72.974) rotate(-53.909)" fill="#fec9a3"/>
    <path id="Path_152247" data-name="Path 152247" d="M157.263,120.594l-3.789-5.888a3.313,3.313,0,0,1-.484-2.325l.819-5.029a3.313,3.313,0,0,1,1.632-2.347l5.678-3.228a2.366,2.366,0,0,1,2.394,4.081l-5.72,3.462a16.46,16.46,0,0,1,6.8,8.647Z" transform="translate(-47.85 -31.234)" fill="#fec9a3"/>
    <path id="Path_152248" data-name="Path 152248" d="M147.044,82.581a1.841,1.841,0,1,1-3.682,0V80a1.841,1.841,0,1,1,3.682,0Z" transform="translate(-44.615 -23.366)"/>
    <path id="Path_152249" data-name="Path 152249" d="M155.09,224.277v1.887a4.451,4.451,0,0,1-4.439,4.439H49.094a4.451,4.451,0,0,1-4.439-4.439v-1.887Z" transform="translate(-11.304 -72.679)" fill="#0f6fe9"/>
    <path id="Path_152250" data-name="Path 152250" d="M55.816,145.033h95.646v58.826H55.816Z" transform="translate(-15.07 -45.936)" fill="#7ae582"/>
    <path id="Path_152251" data-name="Path 152251" d="M55.816,145.033H68.073V203.86H55.816Z" transform="translate(-15.07 -45.936)" fill="#7ae582" style="mix-blend-mode: multiply;isolation: isolate"/>
    <path id="Path_152252" data-name="Path 152252" d="M181.684,145.033h12.257V203.86H181.684Z" transform="translate(-57.548 -45.936)" fill="#a8dbff"/>
    <circle id="Ellipse_4430" data-name="Ellipse 4430" cx="7.655" cy="7.655" r="7.655" transform="translate(80.915 120.855)" fill="#29b39d"/>
    <path id="Path_152253" data-name="Path 152253" d="M20.508,95.519v23.534H50.876V95.519L35.692,87.927Z" transform="translate(-3.155 -26.664)" fill="#29b39d"/>
    <path id="Path_152254" data-name="Path 152254" d="M52.085,89.4,34.131,80.417a2.43,2.43,0,0,0-2.173,0L14,89.4a2.429,2.429,0,1,0,2.173,4.346l1.446-.723,15.426-7.712,15.426,7.712,1.446.723A2.429,2.429,0,1,0,52.086,89.4Z" transform="translate(-0.504 -24.043)" fill="#7ae582"/>
    <path id="Path_152255" data-name="Path 152255" d="M197.508,107.876h6.982v17.909h-6.982Z" transform="translate(-62.888 -33.396)" fill="#3ca8f4"/>
    <path id="Path_152256" data-name="Path 152256" d="M215.157,98.468h6.982V122.61h-6.982Z" transform="translate(-68.844 -30.221)" fill="#29b39d"/>
    <path id="Path_152257" data-name="Path 152257" d="M232.806,89.06h6.982v30.375h-6.982Z" transform="translate(-74.801 -27.046)" fill="#3ca8f4"/>
    <path id="Path_152258" data-name="Path 152258" d="M45.177,118.26H33.915l-1.988-9.62H47.165Z" transform="translate(-7.008 -33.654)" fill="#3ca8f4"/>
    <rect id="Rectangle_33285" data-name="Rectangle 33285" width="3.768" height="9.607" rx="1.884" transform="translate(30.653 68.554)" fill="#7ae582"/>
    <g id="Group_97223" data-name="Group 97223" transform="translate(11.16 8.918)">
      <path id="Path_152259" data-name="Path 152259" d="M62.284,59.655a30.314,30.314,0,0,0,20.088,25v1.415l-4.188,4.755A36.724,36.724,0,0,0,61.962,98.1H45.21a.994.994,0,0,0-.994.994V150.6h-6.4a.994.994,0,0,0-.994.994v1.887a5.406,5.406,0,0,0,1.236,3.445H25.384a.994.994,0,1,0,0,1.988h135.3a.994.994,0,0,0,0-1.988H148.01a5.406,5.406,0,0,0,1.236-3.445V151.6a.994.994,0,0,0-.994-.994h-6.4V139.261a10.278,10.278,0,0,0,6.007-13.052l-5.972-16.648a.776.776,0,0,0-.036-.075V99.1a.994.994,0,0,0-.994-.994h-3.08L134.12,87.908l-1.846-5.146-1.371-3.82,1.448-1.988A2.827,2.827,0,0,0,131.73,73l-10.288-7.5a2.858,2.858,0,0,0-.339-.2,29.86,29.86,0,0,0,1.234-5.653,9.267,9.267,0,0,0,.2-18.45q-.014-.873-.078-1.744A15.816,15.816,0,1,0,104.906,14.2a29.762,29.762,0,0,0-12.595-2.767A30.271,30.271,0,0,0,62.08,41.205a9.267,9.267,0,0,0,.2,18.45ZM92.309,86.342a30.086,30.086,0,0,0,7.95-1.066v5.66l-5.5,7.167h-4.9l-5.5-7.167V85.274A30.159,30.159,0,0,0,92.309,86.342Zm16.943-2.332,3.728,5.79,1.185,3.305a36.477,36.477,0,0,0-7.729-2.28l-4.189-4.756V84.652a30.051,30.051,0,0,0,6.337-3.1,4.29,4.29,0,0,0,.668,2.461Zm.458-22.371a10.13,10.13,0,1,1,.007,0Zm3.221,5.225a2.5,2.5,0,0,1,3.424.808l.006.008-1.214,1.668a4.7,4.7,0,0,0-.826,1.991l-1.145.651-1.053-1.707a2.49,2.49,0,0,1,.81-3.421Zm-.385,7.771,5.678-3.228a1.372,1.372,0,0,1,1.391,2.366l-5.721,3.462a.994.994,0,0,0,.041,1.723,15.477,15.477,0,0,1,5.973,7.184l-5.622,2.016-3.365-5.221a2.319,2.319,0,0,1-.339-1.627l.819-5.03a2.31,2.31,0,0,1,1.145-1.644ZM129.457,80.8l.61,1.7-8.289,2.973a19.008,19.008,0,0,0-.82-1.717,4.384,4.384,0,0,0,3.4-2.039,4.638,4.638,0,0,0,1.838.393,4.762,4.762,0,0,0,.74-.058,4.664,4.664,0,0,0,2.521-1.25ZM102.044,91.878a.994.994,0,0,0,.206-.6V89.079l2.584,2.936L103.377,98.1H97.263Zm4.625,1.016a34.485,34.485,0,0,1,8.431,2.812l.861,2.4H105.423Zm8.48-2.934,4.655-1.67,10.936-3.923,1.175,3.275-15.59,5.592Zm6.758-8.541a2.476,2.476,0,0,1-2.341.136,17.45,17.45,0,0,0-3.321-3.423l1.625-.984,4.811,3.5a2.451,2.451,0,0,1-.774.766ZM82.371,89.079v2.195a.994.994,0,0,0,.205.6l4.778,6.228H81.241l-1.458-6.089ZM77.954,92.9,79.2,98.1H65.365a34.708,34.708,0,0,1,12.589-5.2ZM38.81,153.485v-.893h5.407v4.338H42.254a3.445,3.445,0,0,1-3.444-3.444Zm108.448-.893v.893a3.445,3.445,0,0,1-3.445,3.445H141.85v-4.338Zm-1.271-25.714a8.29,8.29,0,0,1-4.136,10.221V115.348Zm-6.124,30.051H46.2V100.091h93.66ZM118.066,98.1l-1.075-3,15.59-5.592,3.081,8.59ZM130.557,74.61a.839.839,0,0,1,.184,1.173L128.394,79a2.709,2.709,0,0,1-3.786.6l-4.9-3.566.928-.56a3.356,3.356,0,0,0-3.208-5.89l1.664-2.284a.839.839,0,0,1,1.173-.184Zm-1.716-24.191A7.294,7.294,0,0,1,122.5,57.64c.026-.511.043-1.024.043-1.538V43.2a7.265,7.265,0,0,1,6.3,7.22ZM120.56,41.67V56.1a27.978,27.978,0,0,1-1.471,8.964,2.791,2.791,0,0,0-1.5.957,4.472,4.472,0,0,0-4.792-1.271l-1.219-1.98a12.129,12.129,0,1,0-18.188-4.657v7.1a.994.994,0,0,0,.994.994c.014,0,.028,0,.042,0a2.08,2.08,0,1,1-.042,4.159.994.994,0,1,0,0,1.987,4.067,4.067,0,0,0,.994-8.01V61.121a12.039,12.039,0,0,0,6.212,3.688,12.2,12.2,0,0,0,2.822.331,12.016,12.016,0,0,0,5.478-1.325l1.218,1.977a4.479,4.479,0,0,0-.674,5.536l1.02,1.656a4.281,4.281,0,0,0-2.006,2.977l-.477,2.931c-.009.006-.019.01-.028.017a27.964,27.964,0,0,1-16.629,5.449A28.286,28.286,0,0,1,64.055,56.1V49.144h3.823a.994.994,0,0,0,.994-.994V44.96A14.612,14.612,0,0,0,78.6,32.944c3.992,2.825,15.608,9.463,33.826,7.023a15.813,15.813,0,0,0,8.09.117c.029.531.049,1.061.049,1.587Zm-56.509,0A28.286,28.286,0,0,1,92.305,13.416a27.818,27.818,0,0,1,12.416,2.9.994.994,0,0,0,1.212-.265A13.828,13.828,0,1,1,112.777,38a1,1,0,0,0-.416-.032c-21.608,2.973-33.855-7.6-33.978-7.7a.994.994,0,0,0-1.656.735,12.537,12.537,0,0,1-9.1,12.272.994.994,0,0,0-.751.963v2.915H64.055V41.67ZM62.064,43.2V56.1q0,.773.039,1.537A7.284,7.284,0,0,1,62.064,43.2Z" transform="translate(-15.625 -8.918)"/>
      <path id="Path_152260" data-name="Path 152260" d="M120.473,108.792a4.235,4.235,0,0,1-1.247-3.012.994.994,0,1,0-1.988,0A6.248,6.248,0,0,0,127.9,110.2a.994.994,0,1,0-1.405-1.405,4.265,4.265,0,0,1-6.024,0Z" transform="translate(-46.959 -41.271)"/>
      <path id="Path_152261" data-name="Path 152261" d="M116.41,72.689a.994.994,0,0,0-.215-1.391,7.23,7.23,0,0,0-5.606-1.347,6.506,6.506,0,0,0-4.3,2.769.994.994,0,0,0,1.664,1.087,4.511,4.511,0,0,1,2.991-1.9,5.26,5.26,0,0,1,4.075.994A.994.994,0,0,0,116.41,72.689Z" transform="translate(-43.21 -29.478)"/>
      <path id="Path_152262" data-name="Path 152262" d="M147.116,71.3a7.235,7.235,0,0,0-5.606-1.347,6.507,6.507,0,0,0-4.3,2.769.994.994,0,0,0,1.664,1.087,4.514,4.514,0,0,1,2.991-1.9,5.26,5.26,0,0,1,4.075.994.994.994,0,1,0,1.173-1.6Z" transform="translate(-53.645 -29.479)"/>
      <path id="Path_152268" data-name="Path 152268" d="M123.594,193.671a8.649,8.649,0,1,0-8.65-8.649,8.649,8.649,0,0,0,8.65,8.649Zm0-15.31a6.662,6.662,0,1,1-6.662,6.662A6.661,6.661,0,0,1,123.594,178.361Z" transform="translate(-46.185 -65.43)"/>
      <path id="Path_152269" data-name="Path 152269" d="M13.5,94.311a3.4,3.4,0,0,0,2.613-.186L16.359,94v21.926a.994.994,0,0,0,.994.994H47.722a.994.994,0,0,0,.994-.994V94l.248.124A3.423,3.423,0,0,0,52.026,88L34.067,79.023a3.445,3.445,0,0,0-3.061,0L13.052,88a3.423,3.423,0,0,0,.449,6.309Zm33.23-1.3v21.926H18.347V93.007l14.191-7.1ZM13.939,89.78,31.893,80.8a1.446,1.446,0,0,1,1.284,0l17.96,8.979a1.434,1.434,0,0,1,.642,1.926,1.454,1.454,0,0,1-1.925.641l-16.87-8.435a.994.994,0,0,0-.889,0L15.222,92.347a1.435,1.435,0,0,1-1.283-2.567Z" transform="translate(-11.16 -32.456)"/>
      <path id="Path_152270" data-name="Path 152270" d="M197,126.272h6.982a.994.994,0,0,0,.994-.994V107.37a.994.994,0,0,0-.994-.994H197a.994.994,0,0,0-.994.994v17.909a.994.994,0,0,0,.994.994ZM198,108.364h4.995v15.921H198Z" transform="translate(-73.542 -41.808)"/>
      <path id="Path_152271" data-name="Path 152271" d="M214.651,96.968a.994.994,0,0,0-.994.994V122.1a.994.994,0,0,0,.994.994h6.985a.994.994,0,0,0,.994-.994V97.962a.994.994,0,0,0-.994-.994Zm5.989,24.142h-4.995V98.956h5Z" transform="translate(-79.498 -38.633)"/>
      <path id="Path_152272" data-name="Path 152272" d="M231.306,88.555v30.375a.994.994,0,0,0,.994.994h6.983a.994.994,0,0,0,.994-.994V88.555a.994.994,0,0,0-.994-.994H232.3a.994.994,0,0,0-.994.994Zm1.988.994h5v28.387h-5Z" transform="translate(-85.454 -35.458)"/>
      <path id="Path_152273" data-name="Path 152273" d="M32.435,114.681a.994.994,0,0,0,.973.8H44.671a.994.994,0,0,0,.973-.8l1.988-9.62a.994.994,0,0,0-.973-1.193H41.918v-3.553a2.878,2.878,0,1,0-5.756,0v3.553H31.421a.994.994,0,0,0-.973,1.193Zm5.714-14.369a.89.89,0,0,1,1.781,0v5.839a.89.89,0,1,1-1.78,0Zm-1.988,5.541v.3a2.878,2.878,0,1,0,5.756,0v-.3h3.521l-1.577,7.633H34.218l-1.577-7.633Z" transform="translate(-17.662 -38.791)"/>
    </g>
  </g>
</svg>
