<svg xmlns="http://www.w3.org/2000/svg" xmlns:xlink="http://www.w3.org/1999/xlink" width="181" height="182" viewBox="0 0 181 182">
  <defs>
    <linearGradient id="linear-gradient" x1="0.5" x2="0.5" y2="1" gradientUnits="objectBoundingBox">
      <stop offset="0" stop-color="#2481fc"/>
      <stop offset="1" stop-color="#0052cc"/>
    </linearGradient>
  </defs>
  <g id="t5-ic3" transform="translate(-968 -1510.031)">
    <ellipse id="Ellipse_4378" data-name="Ellipse 4378" cx="90.5" cy="91" rx="90.5" ry="91" transform="translate(968 1510.031)" fill="#fff"/>
    <path id="Union_4" data-name="Union 4" d="M10.592,90A10.731,10.731,0,0,1,0,79.228Q0,61.516,0,43.8H0Q.009,27.217,0,10.63A10.716,10.716,0,0,1,10.6,0Q45.072,0,79.545,0A10.718,10.718,0,0,1,90.089,10.8q0,22.7,0,45.389a5.721,5.721,0,0,1-.056,1.191l-.009-.032.009.032a7.247,7.247,0,0,1,.058,1.449q0,9.583,0,19.162a18.346,18.346,0,0,1-.119,2.843A10.713,10.713,0,0,1,79.361,90Q44.978,90,10.592,90ZM35.219,68.387a3.6,3.6,0,0,0,3.344-2.17,6.443,6.443,0,0,0,.288-2.649q-.01-11.049-.02-22.1l.749.006-.749-.006q0-10.66-.023-21.318a3.589,3.589,0,0,0-3.579-3.544l-4.794,0c-3.448,0-6.9-.006-10.345.01a3.564,3.564,0,0,0-3.4,3.529q-.008,11.843,0,23.687.011,9.862,0,19.728a6.257,6.257,0,0,0,.324,2.747,3.576,3.576,0,0,0,3.259,2.079Q27.742,68.393,35.219,68.387Zm54.724-11.65c0-.41.077-.826.079-1.238C90.021,55.911,89.943,56.327,89.944,56.738Zm.073-1.433q-.009-.51-.013-1.021Q90.008,54.795,90.017,55.3ZM90,52.826c0-.68,0-1.361,0-2.041C90,51.465,90,52.146,90,52.826ZM69.879,47.886a3.647,3.647,0,0,0,3.257-1.994l3.174,0-3.174,0a3.917,3.917,0,0,0,.357-1.66q-.028-11.966-.06-23.927a3.594,3.594,0,0,0-1.982-3.326A4.791,4.791,0,0,0,69.07,16.6l-.428,0q-6.331,0-12.663,0l-.349,0a4.759,4.759,0,0,0-2.268.346,3.594,3.594,0,0,0-2.053,3.335q.006,10.595,0,21.191h0a20.755,20.755,0,0,0,.158,3.881A3.607,3.607,0,0,0,54.9,47.886Q62.39,47.9,69.879,47.886Zm9.469-1.991h0Zm.09,0h0Zm8.195,0ZM3.565,43.9Zm5.78-.1h0Zm.177,0,.367,0Zm1.635-.009c.213,0,.427-.007.64-.008-.214,0-.429.005-.643.008-.288,0-.576.009-.864.009C10.579,43.8,10.868,43.793,11.157,43.789Zm29.544-2.3h0Zm-.372,0h0Zm-.372,0h0Z" transform="translate(1013.452 1556.031)" fill="url(#linear-gradient)"/>
  </g>
</svg>
