<svg xmlns="http://www.w3.org/2000/svg" width="610" height="53.653" viewBox="0 0 610 53.653">
  <g id="t5-i2" transform="translate(-435.326 -1158.667)">
    <g id="Group_98433" data-name="Group 98433" transform="translate(848.196 1160.325)">
      <path id="Path_153428" data-name="Path 153428" d="M328.225,190.695c3.912,0,5.383-3.347,5.383-6.316,0-3.2-1.372-6.269-5.687-6.269H325v12.585ZM321.2,174.858h7.185c5.787,0,9.186,3.4,9.186,9.542,0,6.1-4.211,9.546-9.086,9.546H321.2Z" transform="translate(-320.464 -174.502)" fill="#23aae1"/>
      <path id="Path_153429" data-name="Path 153429" d="M325.413,174.858h12.181v3.4H329.22V182.6h8.144V186H329.22v4.541h8.374v3.4H325.413Z" transform="translate(-306.378 -174.502)" fill="#23aae1"/>
      <path id="Path_153430" data-name="Path 153430" d="M336.972,190.695c3.911,0,5.383-3.347,5.383-6.316,0-3.2-1.372-6.269-5.687-6.269h-2.917v12.585Zm-7.028-15.837h7.185c5.782,0,9.186,3.4,9.186,9.542,0,6.1-4.211,9.546-9.086,9.546h-7.285Z" transform="translate(-291.238 -174.502)" fill="#23aae1"/>
      <path id="Path_153431" data-name="Path 153431" d="M334.159,174.858H346.34v3.4h-8.374V182.6h8.144V186h-8.144v4.541h8.374v3.4H334.159Z" transform="translate(-277.155 -174.502)" fill="#23aae1"/>
      <path id="Path_153432" data-name="Path 153432" d="M347.2,180.159c0-1.32-1.268-2.136-2.791-2.136-1.906,0-3.043.842-3.043,2.11,0,1.32,1.268,1.954,2.205,2.257l3.5,1.12c2.54.807,4.341,2.283,4.341,5.227,0,2.336-1.676,5.835-6.955,5.835-6.629,0-7.237-4.289-7.237-5.987l3.812-.078c0,2.032,1.6,2.822,3.451,2.822,1.289,0,3.121-.634,3.121-2.11,0-1.016-.434-1.545-2.309-2.236l-4.163-1.5a5.173,5.173,0,0,1-3.582-4.767c0-2.435,1.676-5.943,6.625-5.943,5.891,0,6.829,3.911,6.829,5.3Z" transform="translate(-266.9 -174.776)" fill="#23aae1"/>
      <path id="Path_153433" data-name="Path 153433" d="M349.424,179.451h-.052l-2.414,7.415h4.9Zm3.451,10.51h-6.981l-1.246,3.985h-4.111l6.955-19.088H351.5l6.855,19.088h-4.189Z" transform="translate(-255.844 -174.502)" fill="#23aae1"/>
      <path id="Path_153434" data-name="Path 153434" d="M351.2,183.306c2.618,0,3.278-1.394,3.278-2.613,0-1.372-.66-2.587-3.4-2.587h-2.409v5.2Zm-.3,3.1h-2.231v7.541h-3.812V174.858h7.137c4.011,0,6.295,2.509,6.295,5.683,0,2.006-1.094,4.619-3.556,5.357l4.441,8.049h-4.545Z" transform="translate(-241.43 -174.502)" fill="#23aae1"/>
      <path id="Path_153435" data-name="Path 153435" d="M354.764,183.306c2.618,0,3.278-1.394,3.278-2.613,0-1.372-.66-2.587-3.4-2.587h-2.409v5.2Zm-.3,3.1h-2.231v7.541h-3.812V174.858h7.137c4.011,0,6.295,2.509,6.295,5.683,0,2.006-1.094,4.619-3.556,5.357l4.441,8.049h-4.541Z" transform="translate(-229.515 -174.502)" fill="#23aae1"/>
      <path id="Path_153436" data-name="Path 153436" d="M361.081,178.175c-3.555,0-5.331,3.074-5.331,6.5s1.775,6.5,5.331,6.5,5.331-3.069,5.331-6.5-1.78-6.5-5.331-6.5m0-3.4c5.939,0,9.29,4.771,9.29,9.9s-3.351,9.9-9.29,9.9-9.29-4.771-9.29-9.9,3.347-9.9,9.29-9.9" transform="translate(-218.242 -174.776)" fill="#23aae1"/>
      <path id="Path_153437" data-name="Path 153437" d="M356.515,174.858h3.807v15.533h7.337v3.555H356.515Z" transform="translate(-202.457 -174.502)" fill="#23aae1"/>
      <path id="Path_153438" data-name="Path 153438" d="M359.432,174.858h3.807v15.533h7.337v3.555H359.432Z" transform="translate(-192.71 -174.502)" fill="#23aae1"/>
      <path id="Path_153439" data-name="Path 153439" d="M371.447,178.175c-3.556,0-5.331,3.074-5.331,6.5s1.776,6.5,5.331,6.5,5.331-3.069,5.331-6.5-1.78-6.5-5.331-6.5m0-3.4c5.939,0,9.29,4.771,9.29,9.9s-3.351,9.9-9.29,9.9-9.29-4.771-9.29-9.9,3.347-9.9,9.29-9.9" transform="translate(-183.607 -174.776)" fill="#23aae1"/>
      <path id="Path_153440" data-name="Path 153440" d="M334.581,187.681c0-1.793-1.724-2.9-3.794-2.9-2.583,0-4.137,1.137-4.137,2.861,0,1.8,1.724,2.657,3,3.069l4.758,1.519c3.451,1.1,5.9,3.1,5.9,7.1,0,3.178-2.279,7.936-9.455,7.936-9,0-9.828-5.83-9.828-8.14l5.17-.1c0,2.757,2.175,3.829,4.693,3.829,1.758,0,4.241-.864,4.241-2.865,0-1.376-.586-2.1-3.139-3.035l-5.657-2.036a7.022,7.022,0,0,1-4.862-6.481c0-3.312,2.275-8.07,9-8.07,8.005,0,9.282,5.314,9.282,7.206Z" transform="translate(-321.028 -156.086)" fill="#23aae1"/>
      <path id="Path_153441" data-name="Path 153441" d="M338.466,184.993c-4.827,0-7.241,4.172-7.241,8.826s2.414,8.834,7.241,8.834,7.241-4.176,7.241-8.834-2.414-8.826-7.241-8.826m0-4.623c8.07,0,12.62,6.486,12.62,13.449s-4.55,13.453-12.62,13.453-12.624-6.486-12.624-13.453,4.55-13.449,12.624-13.449" transform="translate(-304.944 -156.086)" fill="#23aae1"/>
      <path id="Path_153442" data-name="Path 153442" d="M345.584,187.681c0-1.793-1.724-2.9-3.794-2.9-2.587,0-4.142,1.137-4.142,2.861,0,1.8,1.728,2.657,3,3.069l4.762,1.519c3.451,1.1,5.9,3.1,5.9,7.1,0,3.178-2.279,7.936-9.451,7.936-9,0-9.828-5.83-9.828-8.14l5.17-.1c0,2.757,2.175,3.829,4.693,3.829,1.758,0,4.241-.864,4.241-2.865,0-1.376-.586-2.1-3.139-3.035l-5.657-2.036a7.021,7.021,0,0,1-4.867-6.481c0-3.312,2.279-8.07,9-8.07,8.005,0,9.282,5.314,9.282,7.206Z" transform="translate(-284.265 -156.086)" fill="#23aae1"/>
      <path id="Path_153443" data-name="Path 153443" d="M343.53,185.1H336.7v-4.623h18.832V185.1h-6.829v21.315H343.53Z" transform="translate(-268.659 -155.715)" fill="#23aae1"/>
      <path id="Path_153444" data-name="Path 153444" d="M341.5,180.481h16.557V185.1H346.674V191h11.07v4.619h-11.07V201.8h11.383v4.623H341.5Z" transform="translate(-252.627 -155.715)" fill="#23aae1"/>
      <path id="Path_153445" data-name="Path 153445" d="M350.937,188.725h-.065v17.691H345.9V180.481h5.552L361.976,197.9h.065V180.481h4.971v25.934h-5.348Z" transform="translate(-237.922 -155.713)" fill="#23aae1"/>
      <rect id="Rectangle_33828" data-name="Rectangle 33828" width="5.175" height="25.939" transform="translate(133.119 24.767)" fill="#23aae1"/>
      <path id="Path_153446" data-name="Path 153446" d="M362.4,202c3.273,0,4.445-1.45,4.445-3.278,0-1.654-1.033-3.382-4.033-3.382h-3.829V202Zm-.282-10.862c2.453,0,4.107-1.107,4.107-3.178,0-2.136-1.58-3.065-3.655-3.065h-3.586v6.243Zm-8.3-10.662h9.2c5.522,0,8.383,2.83,8.383,7.037a5.583,5.583,0,0,1-3.486,5.344v.07a5.773,5.773,0,0,1,4.311,5.9c0,4.758-3.651,7.588-9,7.588h-9.412Z" transform="translate(-211.483 -155.714)" fill="#23aae1"/>
      <path id="Path_153447" data-name="Path 153447" d="M358.659,180.481h5.175v21.107H373.8v4.832H358.659Z" transform="translate(-195.294 -155.715)" fill="#23aae1"/>
      <path id="Path_153448" data-name="Path 153448" d="M362.623,180.481h16.553V185.1H367.8V191h11.07v4.619H367.8V201.8h11.378v4.623H362.623Z" transform="translate(-182.048 -155.715)" fill="#23aae1"/>
    </g>
    <g id="Group_98432" data-name="Group 98432" transform="translate(435.326 1160.205)">
      <path id="Path_153449" data-name="Path 153449" d="M361.2,188.742l.157.233a21.209,21.209,0,0,1,0,2.6,16.245,16.245,0,0,1,2.537-.355.88.88,0,0,1-.467-.279c-.5-.03-.725-.548-.888-.939-.076-.284.117-.513.233-.756-.213-.436-.868-.117-1.243-.274-.106-.086-.182-.213-.33-.233M349.159,188l-.03.127-2.171,2.187a21.37,21.37,0,0,0,11.243,5.261,17.74,17.74,0,0,1,2.1.254l-.157-.254V192.72l.106-.157-.325.081A16.617,16.617,0,0,1,349.159,188m23.414.036-.051-.254a5.732,5.732,0,0,1-1.446,1.39c-.685.685-1.8.832-2.151,1.826-.37.335-.5.863-1.015,1.055-.188.507-.725.472-1.03.842-.888.8-1.456-.507-2.258-.665l-1.613.289a5.15,5.15,0,0,1-1.649.02,23.979,23.979,0,0,1,0,3.308l.2-.127a20.481,20.481,0,0,0,13.232-5.571Zm-19.492-1.974c.066.254.406.411.309.731-.178.279-.548.289-.847.279-.6-.1-1.04.36-1.613.426-.517.157-.695-.477-1.172-.426a16.556,16.556,0,0,0,10.213,4.378l.294.2-.127-.36v-2.785l-.249.107a12.191,12.191,0,0,1-6.808-2.552m-.076-.086a.463.463,0,0,1-.248-.325Zm-.335-.452-.041-.076.041.127Zm16.961-.4-.071-.2a1.712,1.712,0,0,1-.477.6c.01.167-.051.421.152.538.416.137.964.411,1.06.908-.168.462-1.055.883-.507,1.39.183.254-.254.35-.177.563l.147-.2a14.494,14.494,0,0,0,1.877-1.573h.076c-.127-.041-.289.086-.431.02-.3-.137-.35-.4-.35-.705Zm-14.647-2.943a15.908,15.908,0,0,1-2.1,2.151c.33.02.507.381.776.538a13.169,13.169,0,0,0,5.393,2.4l-.507-.233c-.381-.431-.913-.939-.933-1.537.375-.127.335-.553.461-.832a2.1,2.1,0,0,1,1.106-.614c-1.065.441-1.994-.35-2.882-.761a4.064,4.064,0,0,1-1.314-1.116m10.172-.294c-.32,0-.492.254-.736.452-.294.173-.441-.315-.685-.2.01.051.061.071.106.091a.244.244,0,0,1,0,.31c-.355.325-.528-.162-.868-.127v.127c.015.071-.02.188-.122.147-.213-.35-.644-.223-.857-.528-.137-.076-.264.02-.355.106-.076.157-.416-.02-.33.249-.264.1-.294.381-.487.548-.325-.051-.472.32-.781.31.036.061,0,.167.1.178a1.036,1.036,0,0,0,.614.071c.315-.5.842-.081,1.283-.269.279.051.086.345.284.452.436-.137.761.37,1.111.051-.025-.492.538-.452.842-.578.477-.284,1.01-.665.959-1.3Zm-1.187-.791c-.036.081-.147.228,0,.284.254-.264.791-.254.812-.634-.37-.056-.558.152-.812.35m-6.129-1.847a16.649,16.649,0,0,1-1.953,2.1,8.036,8.036,0,0,0,3.8,1.75c.076-.284-.041-.649.106-.888.1-.233.391-.223.6-.178a.178.178,0,0,0,.122-.274c-.3-.066-.168-.4-.274-.589.01-.112.188-.091.152-.223-.213-.167.1-.36-.081-.538.081-.056.127-.172.233-.172-.66.35-1.38-.071-1.974-.335-.274-.157-.675-.32-.736-.654m13.293,0c-.31-.02-.675.157-.944-.056-.091-.081-.152.046-.147.127-.1.162-.208.36-.452.289-.188-.086-.188-.289-.254-.436a1.173,1.173,0,0,1-.051.33,3.636,3.636,0,0,0-.457.705c-.218.238-.578.157-.812.36-.041.507-.6.4-.918.558-.02.061.056.071.086.127a.42.42,0,0,0,.457-.107c.441.117.345-.441.6-.634.218-.03.431-.218.664-.071a1.5,1.5,0,0,1,.254,1.066c-.254.254-.127.665-.31.959.046.35-.375.507-.325.852a.746.746,0,0,1-.583.183,9.818,9.818,0,0,0-2.633-.6.191.191,0,0,0-.127.2c.381.2.847.208,1.243.375.36.1.6.538,1.055.406.381-.213,1.015.127,1.268-.279-.046-.391.294-.675.462-1.01l.127-.036c.208.228.2.553.294.8.294-.32.533-.665.791-.994a9.292,9.292,0,0,0,1.537-3.262,3.451,3.451,0,0,0-.827.152m-5.976-.02a.793.793,0,0,0,.172.5c.411-.056.233.507.609.457.213-.066.015-.244.076-.381-.061-.32-.365-.345-.578-.538-.02-.061.02-.112.051-.172-.157-.081-.228.015-.329.132m-8.326-.868a1.489,1.489,0,0,1-.436.685l.031.025c.254-.178.436-.512.761-.528Zm-3.318-.832c.294.548.457,1.172.761,1.72.193.482.614.868.8,1.339a7.624,7.624,0,0,1,.888-1.035.567.567,0,0,0-.091-.411c-.1-.218-.015-.538-.183-.726-.274.091.091.37-.025.528a.166.166,0,0,1-.249-.132.692.692,0,0,1-.507-.472c.2-.127-.051-.177-.107-.284-.106-.051-.117-.041-.2.056a.342.342,0,0,1-.162-.02c0-.609-.675-.244-.928-.563m-5.418-1.3-.234.107a24.336,24.336,0,0,1-2.932-.076l.127.183.233,1.943a15.463,15.463,0,0,1,.4,2.2c.117-.162.04-.472.325-.507-.112-.228.228-.431.036-.634a2.1,2.1,0,0,1,.6-1.39c.538-.02.578-.731,1.116-.761.274-.01.446.36.563.487a1.992,1.992,0,0,1-.233-1.553m-4.125,0-.284.107-2.932-.025a21.514,21.514,0,0,0,2.582,9.264,34.718,34.718,0,0,0,2.806,3.947l2.1-2.177.254-.1a6.207,6.207,0,0,1-.979-1.015,1.428,1.428,0,0,1-.888-.675c-.106-.117-.01-.325-.127-.411l-.127.162c-.37.173-.5-.2-.756-.365-.33-.178-.173-.8-.614-.685-.167-.005-.223-.2-.325-.3-.416.041-.523-.411-.741-.634-.041.1,0,.223-.127.284-.426.1-.573-.421-.852-.629-.076.03-.127.112-.233.091a1.247,1.247,0,0,1-.436-.883c-.345-.391-.183-1.01-.127-1.492.066-.122.243-.2.213-.355.1-.218.33-.243.548-.254a.545.545,0,0,1,.213.2c.137-.086.441.01.325-.3a1.435,1.435,0,0,1,.685-.254,4.708,4.708,0,0,0,.477.66l-.147-.233a16.527,16.527,0,0,1-.507-3.212c.01-.056-.137-.091-.051-.152l.02.03a3.45,3.45,0,0,1,.03-.594m5.084-.041.157.254a8.825,8.825,0,0,1,.152,2.065c.112-.2.142-.472.4-.6.035-.188-.254-.238-.218-.431.2-.391.01-1.025.528-1.192a1.238,1.238,0,0,1-1.015-.1m24.611-.03a12.517,12.517,0,0,1-.147,1.9l.345.381a.389.389,0,0,1-.076.487.43.43,0,0,1-.487-.03,13.834,13.834,0,0,1-1.842,4.028c-.35.441-.685,1.05-1.141,1.284l.964.847c.051-.056.015-.137.03-.213,0-.127.061-.274.223-.254.462-.01.472.482.736.736-.051.4.294.72.178,1.086a15.646,15.646,0,0,0,4.231-10.051l.147-.167c-.949.1-1.948.03-2.932.041Zm4.226.071-.183-.122.106.284a16.983,16.983,0,0,1-3.338,9.366,6.966,6.966,0,0,1-1.248,1.36,21.973,21.973,0,0,1,2.349,2.308l.091-.157a20.3,20.3,0,0,0,5.261-12.876l.127-.254-.157.071Zm-7.215-.147.325.33c.33.218.107.7.457.883.411.213.563.69.736,1.045a1,1,0,0,0,.1-.3c.147-.578.127-1.238.3-1.806a4.47,4.47,0,0,1-1.918-.147m.655-1.035c-.086.046-.2.01-.3.02a.873.873,0,0,1,.3-.02m-19.746-.355c-.852.274.137.918-.076,1.446-.117.3-.426.02-.649.147l-.086.558c-.127.325-.538.081-.73.3-.132.213.015.431.127.6-.289.67.67.883.654,1.5.3.381-.04.928.386,1.263.091.685-.1,1.613.5,2.156l.106.649c.127.457-.538.34-.451.741.127-.066.157.107.167.147v-.02a27.827,27.827,0,0,1,2.709-2.765l-.4-.4a10.641,10.641,0,0,1-1.624-3.622l-.309-.157c-.01.335-.162.6-.147.939l-.107.127c-.218-.015-.355-.193-.543-.3-.046-.117-.162-.309.02-.4a.335.335,0,0,1,.254.071c.091-.117.051-.284.107-.431.03-.254-.193-.482-.036-.705.2-.02.345.223.431.355.2.066.366-.1.528-.178,0-.178.254-.426-.02-.528a2.6,2.6,0,0,0-.015-1.248c-.122-.345-.513-.279-.8-.249m9.168-2.608c-.173-.188-.538-.071-.761,0,.213.213.127.589.253.852a2.007,2.007,0,0,1-1.339.8c-.137.167-.107.538-.431.5-.107.233-.467.37-.33.705a6.787,6.787,0,0,0-.178,1.218c-.619.391-.446-.517-.761-.71l-.1.183c-.127.036-.213-.041-.3-.127-.091-.03-.254-.066-.335.02-.137.233-.345.421-.294.736-.066.193-.385.132-.34.33a5.794,5.794,0,0,0,1.065-.147c.238.061.447-.117.685-.132a.239.239,0,0,1,.152.259h.081a.425.425,0,0,0,.167-.507c.02-.223.264-.223.411-.284.137.061.056.2.076.3.472.178-.117.528-.183.781-.127.2,0,.655-.4.594a.153.153,0,0,1-.1-.183h-.051a.537.537,0,0,0,.279.477c.294-.244.309-.659.731-.71.218-.233-.1-.589.233-.781.548-.005,1.136-.238,1.568.2-.03.193-.106.274.056.431a2.188,2.188,0,0,1-.381.71.365.365,0,0,1-.106.4c-.147.644-.883.335-1.319.553a3.3,3.3,0,0,0,2.334.634c.451-.02.254-.578.482-.832.152-.736.822-.228,1.238-.431a2.938,2.938,0,0,0,.355-.984.688.688,0,0,1-.284-.786c-.178-.243-.157-.685-.548-.731-.061-.081-.01-.188.04-.254-.01-.233.223-.3.289-.482-.244-.157-.183-.507-.162-.71-.406.122-.452-.421-.761-.538-.071-.244-.335-.284-.543-.325-.513.243-.594-.381-.974-.528-.041-.117-.127-.284,0-.38.193-.157.442-.02.665-.036Zm-5.114-1.75h.233c.254.254.66.2.852.538.091.188-.183.167-.172.325.056.046.127.056.172.127.2.081.157-.112.233-.2.259-.264.3.254.558.254a.387.387,0,0,1,.558.076c.168-.152.528-.015.578-.289.33-.345.147-.883.634-1.106.167.1-.015.254.051.4.325.137.7-.274.959.056a6.8,6.8,0,0,1-.157-2.3,7.177,7.177,0,0,0-4.5,2.121m5.672-2.2a20.606,20.606,0,0,1,.147,2.182l.761.249c.218-.365.705-.436.918-.786.137-.117.294,0,.4.127a2.005,2.005,0,0,1-.127.842c-.284.573-.959.644-1.334,1.055.243.137.375-.117.578-.167a1.293,1.293,0,0,1,.71.472c.183.086.365-.031.538-.091.112-.873,1.207-.751,1.537-1.573l-.2.076c-.081-.117-.294-.066-.284-.254a2.185,2.185,0,0,1,.634-.507,10.687,10.687,0,0,0-3.008-1.375,9.438,9.438,0,0,1-1.263-.249m-9.112-.35a12.435,12.435,0,0,0-2.836,5.845,9.894,9.894,0,0,1-.254,1.568,2.725,2.725,0,0,1,1.314-.051c-.238-.127-.041-.431-.173-.6-.035-.264-.081-.594.173-.761-.03-.436.436-.654.477-1.045.117-.441.624-.147.863-.375.162-.086.02-.238.02-.35.213-.284.543-.279.8-.431a2.191,2.191,0,0,1,.705-.741c.629.02.644-.868,1.243-.888a24.162,24.162,0,0,1-2.329-2.171m17.158-.107-.051.127c-.974,1.015-2.035,2.06-2.963,3.095a.677.677,0,0,0,.284.3c.041-.249.178-.472.2-.736.254-.345.634-.127.959-.051a7.174,7.174,0,0,1,1.5.107c.376.188.411.675.756.863a.3.3,0,0,1-.1.4c.1.792.482-.213.883-.02.173.061.381.041.507.218.061.33.462.269.482.583-.025.157-.2.2-.3.284.091.315-.33.517-.183.852.609.117.629-.588.918-.908a5.788,5.788,0,0,0-.588-1.593c-.35-.071-.563-.482-.908-.553-.68-.264.1-.69.02-1.091a12.826,12.826,0,0,0-1.416-1.877m-20.177-2.932-.02.2-1.141,1.446A16.81,16.81,0,0,0,345,175.145l2.887-.051.279.1c-.117-.071-.086-.2-.132-.3a12.752,12.752,0,0,1,3.369-7.92,21.466,21.466,0,0,1-2.227-2.227m12.1-.791.112.233-.025,2.856.279-.051a9.276,9.276,0,0,1,4.734,1.928l.076.223c.472-.665,1.192-1.233,1.745-1.862l.527-.31-.248-.107a12.414,12.414,0,0,0-3.8-2.2,19.326,19.326,0,0,0-3.4-.715m-1.106-.02-.177.107a12.31,12.31,0,0,0-7.037,2.988,26.538,26.538,0,0,1,2.247,2.1l.162-.228a9.577,9.577,0,0,1,3.211-1.669,4.711,4.711,0,0,1,1.593-.183,14.474,14.474,0,0,1,0-3.11m-13.871-2.2a20.762,20.762,0,0,0-5.4,11.517c-.112.634-.04,1.289-.167,1.928a21.872,21.872,0,0,1,3.262,0l-.076-.411a17.132,17.132,0,0,1,3.161-9.036,8.68,8.68,0,0,1,1.416-1.613c-.685-.644-1.4-1.4-2.121-2.1Zm29.01-.076a25.409,25.409,0,0,1-2.1,2.258l-.355.076c.218.051.284.315.431.472.766.416.969,1.233,1.644,1.7.38.791,1.253,1.4,1.284,2.308a16.6,16.6,0,0,1,1.6,6.55l-.081.127a.425.425,0,0,0,.254-.1l3.039-.051c-.2-.294-.117-.726-.173-1.086a20.879,20.879,0,0,0-5.545-12.258m-23.439.959c-.654.457-1.253,1.045-1.928,1.446a16.845,16.845,0,0,1,2.131,1.973l.071.2a12.734,12.734,0,0,1,6.332-3.206,5.793,5.793,0,0,1,1.664-.127,20.881,20.881,0,0,1-.02-3.034,16.213,16.213,0,0,0-8.249,2.75m18.934-2.836c-.223.213-.411-.188-.614.051a.433.433,0,0,0,.076.309c.441.157.5.8,1.065.654.168-.188-.107-.391-.051-.634a.634.634,0,0,0-.477-.38m-9.543-.02.1.2c-.02.984.041,2.024-.051,2.943a3.365,3.365,0,0,1,1.213.046,12.276,12.276,0,0,1,5.672,2.278,1.535,1.535,0,0,1-.482-.761.108.108,0,0,1,.127-.041c.02-.33-.325-.5-.381-.792a.217.217,0,0,1,.234-.1,7.383,7.383,0,0,1,.928,1.086c.228-.1.421.051.589.178.31.183.117.573.35.781.04.624.8.974.756,1.593.01.147.193.036.254.112l.634.776c-.117.147-.02.325.106.431.284.127.441-.228.726-.178.411.228-.061.507-.015.761.152.01.355-.127.482.03.051.233-.193.381-.284.528,0,.233.188.178.355.233a.287.287,0,0,1,.254.38c.528.543-.157,1.137.1,1.715a1,1,0,0,1-.274,1.035c.01.462-.411.746-.578,1.136l-.538.107c-.289.289.244.634-.046.812l1.182.02-.127-.127a1.748,1.748,0,0,1,.157-1.5,3.423,3.423,0,0,1,.563-1.162c.071-.015.208-.157.274,0a2.153,2.153,0,0,1-.183,1.091,3.2,3.2,0,0,1,.325,1.72c1.045-.061,2.07-.086,3.095-.076l-.1-.2a15.131,15.131,0,0,0-1.37-5.464c-.223.01-.38.188-.634.127a.215.215,0,0,1-.127-.213,14.615,14.615,0,0,0-1.157-1.284c-.538.051-.781-.573-1.268-.634-.436-.183-.137-.878-.761-.685a1.029,1.029,0,0,1-.665-.705,1.747,1.747,0,0,0-.6-1.5c-.381-.137-.538.37-.918.284-.213-.1-.117-.375-.183-.558-.071-.157-.249-.274-.218-.482.5-.654-.6-.649-.36-1.289-.061-.467-.533-.644-.776-1.015a17.138,17.138,0,0,0-5.119-1.466,3.435,3.435,0,0,1-1.263-.178m2.455-2.608-1.522.655c-.122-.051-.365-.112-.451.056-.061.051,0,.127.025.177.553.72,1.527.315,2.222.178a1.34,1.34,0,0,0,1.375-.355v-.076a2.131,2.131,0,0,0-1.649-.634m-3.617-1.593a20.555,20.555,0,0,0-11.349,4.023c-.644.441-1.213,1.116-1.867,1.5h.1a17.7,17.7,0,0,1,2.329,2.248l.056-.147a16.707,16.707,0,0,1,10.776-4.536l-.1-.254-.03-2.532Zm1.177-.107a14.64,14.64,0,0,1,.035,2.917.429.429,0,0,1,.091-.254c.152-.086.279.041.34.147.01.147.076.4-.051.487.127.015.188-.076.3-.076a15.682,15.682,0,0,1,6.656,2.024v-.051c.411-.2.939-.467,1.365-.112.5-.183.6.436,1.01.512a2.21,2.21,0,0,1,1.116,1.421c.1.193.391.33.431.533a8.1,8.1,0,0,1,1.593-1.852l.36-.147a19.7,19.7,0,0,0-11.192-5.292,16.211,16.211,0,0,1-2.06-.259m18.589,11.015a20.93,20.93,0,0,1,1.39,14.83,21.285,21.285,0,0,1-32.328,11.983,21.268,21.268,0,0,1,2.334-36.58,22.3,22.3,0,0,1,9.6-2.278,21.207,21.207,0,0,1,19.005,12.044" transform="translate(-331.079 -154.42)" fill="#368ddd"/>
      <path id="Path_153450" data-name="Path 153450" d="M351.339,157a9.318,9.318,0,0,1,2.7,5.028l.254.594a22.257,22.257,0,0,1-5.713-6.073l-1.755-1.776c1.542.654,3.2,1.045,4.515,2.227" transform="translate(-301.819 -152.999)" fill="#368ddd"/>
      <path id="Path_153451" data-name="Path 153451" d="M342.812,159.511a33.389,33.389,0,0,1-3.521,3.217c.629-1.309.649-2.872,1.548-4.069,1.278-2.227,3.643-3.008,5.748-3.83a26.433,26.433,0,0,0-3.775,4.683" transform="translate(-332.505 -152.758)" fill="#368ddd"/>
      <path id="Path_153452" data-name="Path 153452" d="M354.446,159.844c.492,2.212-.223,4.378.234,6.616l-.025.02c-1.2-2.374-3.764-3.491-5.525-5.393a7.56,7.56,0,0,1-1.72-3.952c1.015,2.435,3.734,2.973,5.292,5.018a6.619,6.619,0,0,1,1.04,1.669l.051-.056a45.615,45.615,0,0,1-1.826-6.124,4.789,4.789,0,0,0-1.771-2.324,6.185,6.185,0,0,1,4.251,4.526" transform="translate(-299.436 -150.762)" fill="#368ddd"/>
      <path id="Path_153453" data-name="Path 153453" d="M343.022,155.393c-2.09,1.436-1.948,4.008-2.613,6.149-.213.792-.584,1.517-.761,2.329l.056.046a7.161,7.161,0,0,1,1.715-2.537c1.487-1.37,3.678-2.222,4.409-4.246-.03,2.816-2.384,5.028-4.632,6.611a9.26,9.26,0,0,0-2.329,2.79c-.051-.71.106-1.431.056-2.192-.244-2.455-.426-5.256,1.314-7.083a5.23,5.23,0,0,1,2.785-1.867" transform="translate(-334.633 -150.457)" fill="#368ddd"/>
      <path id="Path_153454" data-name="Path 153454" d="M353.63,157.28a9.876,9.876,0,0,1,.918,9.457,16.838,16.838,0,0,0-1.065,3.907c-.1-.233-.117-.548-.2-.812-.736-2.841-3.425-4.86-4.531-7.544a13.89,13.89,0,0,1-.817-2.729c1.182,2.182,4.094,3.313,4.881,5.713a10.914,10.914,0,0,1,.513,2.029.079.079,0,0,0,.081-.076,27.839,27.839,0,0,1,.1-7.519,6.232,6.232,0,0,0-.888-3.638c.477.274.685.8,1.015,1.213" transform="translate(-297.302 -147.711)" fill="#368ddd"/>
      <path id="Path_153455" data-name="Path 153455" d="M340.789,156.151c-1.6,2.435-.279,5.5-.35,8.28l-.213,2.836c.036.02.036.1.112.076a9.063,9.063,0,0,0,.172-.984c.385-2.288,2.364-3.912,4.1-5.495a4.322,4.322,0,0,0,.888-1.319,11.708,11.708,0,0,1-.969,3.343c-1.349,2.638-3.851,4.8-4.307,7.818-.223-2.887-2.192-5.053-1.989-8.117a9.716,9.716,0,0,1,2.425-6.382c.04-.02.071-.066.127-.056" transform="translate(-336.859 -147.374)" fill="#368ddd"/>
      <path id="Path_153456" data-name="Path 153456" d="M353.857,167.547c-1.111,1.573-2.445,3.039-3.47,4.642a8.915,8.915,0,0,0-.234-4.028,35.1,35.1,0,0,1-1.847-8.052l.035-1.086c.639,2.9,3.491,4.9,3.308,8.143a7.048,7.048,0,0,1-.325,2.151l.051.051.127-.142a31.991,31.991,0,0,1,1.289-4.754c.939-2.146,2.1-4.307,1.623-6.895a11.711,11.711,0,0,1-.558,9.969" transform="translate(-295.778 -141.556)" fill="#368ddd"/>
      <path id="Path_153457" data-name="Path 153457" d="M341.062,166.186a26.671,26.671,0,0,0,.812,3.217c.04.02.076-.02.106-.051-1.091-3.039.472-5.86,2.045-8.229a7.806,7.806,0,0,0,.792-2.1,17.946,17.946,0,0,1-.381,4.378c-.38,1.816-.949,3.531-1.441,5.3a8.329,8.329,0,0,0-.081,3.491l-.157-.127c-1.147-2.121-3.425-3.775-4.1-6.093a12.94,12.94,0,0,1-.548-6.007,11.258,11.258,0,0,1,.649-2.3c-.639,3.293,1.578,5.667,2.3,8.523" transform="translate(-337.95 -141.21)" fill="#368ddd"/>
      <path id="Path_153458" data-name="Path 153458" d="M351.344,165.911a7.528,7.528,0,0,1-1.289,3.83h.127a48.946,48.946,0,0,1,2.988-4.013c1.831-1.766,3.7-3.582,3.942-6.037.624,4.1-1.674,7.7-5.078,10.02-1.405.913-2.831,1.771-4.181,2.816V172.4c2.065-3.44,1.055-8.158,2.329-11.933l.472-1.263c-.259,2.354.761,4.343.69,6.707" transform="translate(-297.623 -134.932)" fill="#368ddd"/>
      <path id="Path_153459" data-name="Path 153459" d="M346.384,170.268c.223.781.68,1.476.969,2.227-3.14-2.141-7.423-4.175-8.813-8.1a9.718,9.718,0,0,1-.533-4.576c.259,3.491,4.008,5.337,5.748,8.224a10.04,10.04,0,0,0,1.319,1.745c-.081-.37-.431-.69-.558-1.07a7.539,7.539,0,0,1-.685-4.125c.167-1.776.918-3.435.634-5.312,1.527,3.3,1.065,7.417,1.918,10.989" transform="translate(-337.953 -134.627)" fill="#368ddd"/>
      <path id="Path_153460" data-name="Path 153460" d="M351.338,168.342a10.419,10.419,0,0,1-2.151,2.582c.274-.01.517-.254.761-.411,2.268-2.258,5.22-2.892,7.666-4.723a7.408,7.408,0,0,0,2.309-2.912c-.462,3.744-4.186,7.26-7.7,8.376-1.816.482-3.759.644-5.52,1.243,2.983-2.562,2.816-6.53,4.815-9.543a30.245,30.245,0,0,1,1.892-2.562c-1.207,2.435-.68,5.586-2.075,7.95" transform="translate(-302.299 -130.094)" fill="#368ddd"/>
      <path id="Path_153461" data-name="Path 153461" d="M347.776,164.907c1.055,2.592,1.456,5.525,3.9,7.488-2.638-.868-5.728-.624-8.052-2.248-2.542-1.558-4.81-4.206-5.286-7.118,1.75,3.962,6.139,4.292,9.087,6.707a7.3,7.3,0,0,0,1.715,1.172l.035-.036a10.117,10.117,0,0,1-1.933-2.1c-1.72-2.395-1.116-5.748-2.4-8.321a19.23,19.23,0,0,1,2.943,4.45" transform="translate(-336.403 -129.825)" fill="#368ddd"/>
      <path id="Path_153462" data-name="Path 153462" d="M351.094,167.822a16.094,16.094,0,0,1-2.121.812,22.14,22.14,0,0,0,2.755-.411c3.48-.553,7.468.01,9.9-2.953a9.381,9.381,0,0,1-5.241,4.525c-3.556,1.339-7.128-.3-10.537-.857l-.655-.081v-.02a9.58,9.58,0,0,0,4.505-2.029,46.382,46.382,0,0,1,5.728-5.17c-1.573,2.019-1.74,4.886-4.338,6.184" transform="translate(-308.438 -125.017)" fill="#368ddd"/>
      <path id="Path_153463" data-name="Path 153463" d="M351.047,166.636a9.767,9.767,0,0,0,4.683,2.075c-.411.147-.949.112-1.39.223-3.069.761-6.489,1.994-9.746.888a9.48,9.48,0,0,1-5.373-4.434c2.811,3.2,7.4,2.136,11.141,2.968a5.11,5.11,0,0,0,1.573.2c-.441-.284-1.07-.249-1.552-.507-2.927-1.03-3.364-4.206-4.957-6.352a45.345,45.345,0,0,1,5.621,4.942" transform="translate(-332.79 -124.79)" fill="#368ddd"/>
      <path id="Path_153464" data-name="Path 153464" d="M370,165.409a8.115,8.115,0,0,0,7.179-.781,8.446,8.446,0,0,1-3.795,2.659c-3.166,1.187-6.464-.056-8.934-1.933-1-.629-1.887-1.547-3.186-1.461a4.452,4.452,0,0,0-1.319.127,24.373,24.373,0,0,1,6.677,4.627,10.452,10.452,0,0,1-1.208,1.1,23.926,23.926,0,0,0-6.585-5.352,4.324,4.324,0,0,0-1.36.583,20.453,20.453,0,0,0-5.424,4.84l-1.263-1.045A23.136,23.136,0,0,1,357.484,164c-2.4-.761-3.978,1.253-5.8,2.278a8.5,8.5,0,0,1-11.491-1.4,8.243,8.243,0,0,0,7.341.634c3.095-1.339,6.3-3.039,10.025-2.227.578.015,1.146.593,1.694.1a11.919,11.919,0,0,1,8.28,1.045Z" transform="translate(-328.826 -119.24)" fill="#368ddd"/>
    </g>
    <g id="Group_98434" data-name="Group 98434" transform="translate(502.629 1158.667)">
      <path id="Path_153465" data-name="Path 153465" d="M364.789,178.87a14.66,14.66,0,0,1,2.365-3.038L359.4,167.34a26.554,26.554,0,0,0-4.912,6.4Z" transform="translate(-105.429 -159.096)" fill="#5eba47"/>
      <path id="Path_153466" data-name="Path 153466" d="M358.491,177.374a14.781,14.781,0,0,1,3.25,2.035l7.767-8.477a26.475,26.475,0,0,0-6.889-4.3Z" transform="translate(-80.134 -163.603)" fill="#e2b432"/>
      <path id="Path_153467" data-name="Path 153467" d="M369.814,168.445l-10.3,5.132a14.828,14.828,0,0,1,1.032,3.639L372,176.132a26.16,26.16,0,0,0-2.189-7.687" transform="translate(-73.668 -152.111)" fill="#c3212e"/>
      <path id="Path_153468" data-name="Path 153468" d="M361.386,178.892l10.3-5.139a26.577,26.577,0,0,0-4.817-6.384l-7.767,8.485a14.745,14.745,0,0,1,2.284,3.038" transform="translate(-76.273 -158.913)" fill="#4b9e46"/>
      <path id="Path_153469" data-name="Path 153469" d="M365.54,171.427c0-.234.007-.461.014-.7L354.1,169.707c-.029.564-.051,1.142-.051,1.72a26.54,26.54,0,0,0,.776,6.376l11.062-3.185a15.221,15.221,0,0,1-.344-3.192" transform="translate(-108.224 -144.136)" fill="#408046"/>
      <path id="Path_153470" data-name="Path 153470" d="M361.631,171.228a14.4,14.4,0,0,1-2.8,2.621l6.054,9.8a26.454,26.454,0,0,0,5.923-5.505Z" transform="translate(-77.96 -134.522)" fill="#f8c116"/>
      <path id="Path_153471" data-name="Path 153471" d="M359.968,171.339a14.543,14.543,0,0,1-.337,3.163l11.061,3.177a26.238,26.238,0,0,0,.776-6.34c0-.549-.022-1.083-.051-1.618L359.96,170.8c.007.176.007.351.007.534" transform="translate(-72.928 -144.047)" fill="#ed4029"/>
      <path id="Path_153472" data-name="Path 153472" d="M364,171.258l-9.151,6.955a26.137,26.137,0,0,0,5.974,5.417l6.047-9.781a15.1,15.1,0,0,1-2.87-2.592" transform="translate(-103.129 -134.331)" fill="#f79d28"/>
      <path id="Path_153473" data-name="Path 153473" d="M365.546,177.238a14.684,14.684,0,0,1,1.1-3.7l-10.293-5.125a26.146,26.146,0,0,0-2.277,7.8Z" transform="translate(-108.046 -152.289)" fill="#1795d2"/>
      <path id="Path_153474" data-name="Path 153474" d="M367.731,181.49l-6.054-9.781a14.343,14.343,0,0,1-3.514,1.427l2.123,11.325a26.42,26.42,0,0,0,7.445-2.972" transform="translate(-82.207 -131.474)" fill="#a11c46"/>
      <path id="Path_153475" data-name="Path 153475" d="M360.961,170.593a15.127,15.127,0,0,1-1.611,3.316l9.187,6.918a26.081,26.081,0,0,0,3.477-7.057Z" transform="translate(-74.698 -138.535)" fill="#26bce3"/>
      <path id="Path_153476" data-name="Path 153476" d="M363.129,171.951a14.8,14.8,0,0,1-2.145.154,15.11,15.11,0,0,1-1.735-.1l-2.13,11.311a26.9,26.9,0,0,0,3.866.285,26.527,26.527,0,0,0,4.275-.351Z" transform="translate(-88.807 -129.952)" fill="#f26b2c"/>
      <path id="Path_153477" data-name="Path 153477" d="M357.777,177.851a14.927,14.927,0,0,1,3.675.71l4.136-10.74a26.3,26.3,0,0,0-7.811-1.479Z" transform="translate(-84.647 -165.399)" fill="#e7213e"/>
      <path id="Path_153478" data-name="Path 153478" d="M365.562,173.107a14.92,14.92,0,0,1-3.653-1.376l-6.047,9.781a25.748,25.748,0,0,0,7.57,2.892Z" transform="translate(-96.751 -131.341)" fill="#db176a"/>
      <path id="Path_153479" data-name="Path 153479" d="M360.627,178.524a14.492,14.492,0,0,1,3.756-.666V166.342a26.485,26.485,0,0,0-7.914,1.449Z" transform="translate(-92.915 -165.405)" fill="#14476c"/>
      <path id="Path_153480" data-name="Path 153480" d="M367.026,174.111a14.586,14.586,0,0,1-1.75-3.514l-11.062,3.177a26.254,26.254,0,0,0,3.653,7.3Z" transform="translate(-107.162 -138.51)" fill="#c5982d"/>
      <path id="Path_153481" data-name="Path 153481" d="M363.083,179.277a14.83,14.83,0,0,1,3.185-1.925l-4.158-10.732a26.463,26.463,0,0,0-6.779,4.158Z" transform="translate(-100.115 -163.648)" fill="#036a9c"/>
      <path id="Path_153482" data-name="Path 153482" d="M344.272,207.916c6.332,0,8.594-2.8,8.594-6.325,0-3.2-2-6.53-7.789-6.53h-7.4v12.855Zm-.534-20.988c4.729,0,7.928-2.13,7.928-6.128,0-4.129-3.06-5.923-7.057-5.923h-6.933v12.05Zm-16.054-20.586h17.789c10.659,0,16.193,5.469,16.193,13.595a10.815,10.815,0,0,1-6.735,10.33v.132c4.458,1.061,8.331,5.124,8.331,11.391,0,9.195-7.065,14.656-17.387,14.656H327.683Z" transform="translate(-274.864 -165.405)" fill="#368ddd"/>
      <path id="Path_153483" data-name="Path 153483" d="M332.67,166.342h22.921v33.046c0,15.857-9.466,17.453-19.59,17.453h-3.2v-8.521h5.132c4.861,0,7.657-1.464,7.657-6.662V175.273H332.67Z" transform="translate(-243.341 -165.405)" fill="#368ddd"/>
      <path id="Path_153484" data-name="Path 153484" d="M336.7,166.342h31.984v8.931H346.7v11.391h21.384v8.924H346.7v11.933h21.984v8.924H336.7Z" transform="translate(-217.867 -165.405)" fill="#368ddd"/>
      <path id="Path_153485" data-name="Path 153485" d="M354.442,175.273H341.25v-8.931h36.377v8.931H364.435v41.172h-9.993Z" transform="translate(-189.109 -165.405)" fill="#368ddd"/>
      <rect id="Rectangle_33829" data-name="Rectangle 33829" width="9.993" height="50.103" transform="translate(192.711 0.937)" fill="#368ddd"/>
      <path id="Path_153486" data-name="Path 153486" d="M380.843,166.342h10.791l-16.252,50.1H364.855l-16.325-50.1h11l10.725,36.845h.132Z" transform="translate(-143.097 -165.405)" fill="#368ddd"/>
      <path id="Path_153487" data-name="Path 153487" d="M344.853,175.146c-9.327,0-13.99,8.06-13.99,17.05s4.663,17.057,13.99,17.057,14-8.06,14-17.057-4.671-17.05-14-17.05m0-8.931c15.593,0,24.385,12.533,24.385,25.981s-8.792,25.981-24.385,25.981-24.385-12.518-24.385-25.981,8.792-25.981,24.385-25.981" transform="translate(-320.468 -166.208)" fill="#368ddd"/>
      <path id="Path_153488" data-name="Path 153488" d="M387.672,180.343c0-3.463-3.338-5.6-7.328-5.6-5.007,0-8,2.2-8,5.534,0,3.463,3.338,5.132,5.8,5.93l9.188,2.928c6.676,2.138,11.4,6,11.4,13.726,0,6.128-4.4,15.322-18.251,15.322-17.387,0-19-11.259-19-15.718l10-.2c0,5.322,4.2,7.387,9.056,7.387,3.411,0,8.207-1.662,8.207-5.527,0-2.665-1.135-4.063-6.062-5.864l-10.937-3.931c-5.527-2-9.385-6.86-9.385-12.526,0-6.391,4.393-15.593,17.387-15.593,15.447,0,17.921,10.264,17.921,13.931Z" transform="translate(-61.254 -166.214)" fill="#368ddd"/>
    </g>
  </g>
</svg>
