<svg xmlns="http://www.w3.org/2000/svg" width="100" height="105.264" viewBox="0 0 100 105.264">
  <g id="t6-ic2" transform="translate(-0.5)">
    <path id="Path_152274" data-name="Path 152274" d="M70.228,92.166l4.421,4.79a37.908,37.908,0,0,1-5.965,1.825v9.754a1.759,1.759,0,0,1-1.755,1.754H52.895a1.759,1.759,0,0,1-1.755-1.754V98.78a39.911,39.911,0,0,1-12.877-5.316l-1.912,1.912-4.966,4.965a1.736,1.736,0,0,1-2.491,0l-1.385-1.386L18.983,90.43a1.736,1.736,0,0,1,0-2.491l6.877-6.878a39.893,39.893,0,0,1-5.316-12.877H10.789a1.759,1.759,0,0,1-1.754-1.755V52.394a1.759,1.759,0,0,1,1.754-1.755h9.754a39.893,39.893,0,0,1,5.316-12.877l-6.877-6.878a1.736,1.736,0,0,1,0-2.491l9.912-9.912a1.736,1.736,0,0,1,2.491,0l6.878,6.877A39.911,39.911,0,0,1,51.14,20.043V10.289a1.759,1.759,0,0,1,1.755-1.754H66.93a1.759,1.759,0,0,1,1.755,1.754v9.754a37.907,37.907,0,0,1,5.965,1.825L70.439,26.85l.667,13.368L59.579,57.113,70.3,78.851Zm0,0" transform="translate(-6.781 -6.78)" fill="#3c9aef"/>
    <path id="Path_152275" data-name="Path 152275" d="M64.964,92.166l4.421,4.79a37.908,37.908,0,0,1-5.965,1.825v9.754a1.758,1.758,0,0,1-1.754,1.754H52.894a1.759,1.759,0,0,1-1.755-1.754V98.78a39.911,39.911,0,0,1-12.877-5.316l-1.912,1.912c-1.158-.579-5.176,6.825-6.263,6.14l-2.579-2.562L18.982,90.43a1.736,1.736,0,0,1,0-2.491l6.877-6.878a39.893,39.893,0,0,1-5.316-12.877H10.789a1.759,1.759,0,0,1-1.754-1.755V52.394a1.759,1.759,0,0,1,1.754-1.755h9.754a39.893,39.893,0,0,1,5.316-12.877l-6.877-6.878a1.736,1.736,0,0,1,0-2.491l8.526-8.526,2.579-2.562c1.087-.684,5.105,6.72,6.263,6.14l1.912,1.912A39.911,39.911,0,0,1,51.14,20.043V10.289a1.76,1.76,0,0,1,1.755-1.754h8.772a1.758,1.758,0,0,1,1.754,1.754v9.754a37.907,37.907,0,0,1,5.965,1.825l-4.21,4.982.667,13.368L54.315,57.113l10.72,21.737Zm0,0" transform="translate(-6.78 -6.78)" fill="#55b2f4"/>
    <path id="Path_152276" data-name="Path 152276" d="M151.784,122.775l-9.86,17.544,9.86,19.193v9.158a29.566,29.566,0,0,1-10.526,1.912,25.476,25.476,0,0,1-2.6-.123,29.813,29.813,0,0,1,.018-59.4h.052a23.692,23.692,0,0,1,2.527-.123,29.566,29.566,0,0,1,10.526,1.912Zm0,0" transform="translate(-88.126 -88.125)" fill="#3bcd43"/>
    <path id="Path_152277" data-name="Path 152277" d="M146.522,123.251l-9.86,17.544,9.86,19.193v9.158a28.664,28.664,0,0,1-7.86,1.789,29.813,29.813,0,0,1,.018-59.4h.052a29.466,29.466,0,0,1,7.79,1.789Zm0,0" transform="translate(-88.127 -88.601)" fill="#7ae582"/>
    <g id="Group_97224" data-name="Group 97224" transform="translate(72.43 5.263)">
      <path id="Path_152278" data-name="Path 152278" d="M407.07,32.618a7.017,7.017,0,0,1-7.017,7.017,6.6,6.6,0,0,1-2.632-.526,7,7,0,0,1,0-12.983,6.584,6.584,0,0,1,2.632-.526,7.015,7.015,0,0,1,7.017,7.017Zm0,0" transform="translate(-384.263 -25.601)" fill="#ffd152"/>
      <path id="Path_152279" data-name="Path 152279" d="M364.4,135.017a7.015,7.015,0,0,1-7.017,7.017,6.583,6.583,0,0,1-2.632-.526,7,7,0,0,1,0-12.983,6.584,6.584,0,0,1,2.632-.526,7.017,7.017,0,0,1,7.017,7.017Zm0,0" transform="translate(-350.367 -106.947)" fill="#ffd152"/>
      <path id="Path_152280" data-name="Path 152280" d="M424.136,228.884a7.017,7.017,0,0,1-7.017,7.017,6.584,6.584,0,0,1-2.632-.526,7,7,0,0,1,0-12.983,6.584,6.584,0,0,1,2.632-.526,7.017,7.017,0,0,1,7.017,7.017Zm0,0" transform="translate(-397.821 -181.515)" fill="#ffd152"/>
      <path id="Path_152281" data-name="Path 152281" d="M364.4,322.751a7.017,7.017,0,0,1-7.017,7.017,6.583,6.583,0,0,1-2.632-.526,7,7,0,0,1,0-12.983,6.583,6.583,0,0,1,2.632-.526,7.015,7.015,0,0,1,7.017,7.017Zm0,0" transform="translate(-350.367 -256.084)" fill="#ffd152"/>
      <path id="Path_152282" data-name="Path 152282" d="M407.07,425.15a7.015,7.015,0,0,1-7.017,7.017,6.584,6.584,0,0,1-2.632-.526,7,7,0,0,1,0-12.983,6.6,6.6,0,0,1,2.632-.526,7.017,7.017,0,0,1,7.017,7.017Zm0,0" transform="translate(-384.263 -337.431)" fill="#ffd152"/>
    </g>
    <path id="Path_152283" data-name="Path 152283" d="M401.806,34.652c0-3.585-1.964-6.491-4.386-6.491s-4.386,2.906-4.386,6.491,1.964,6.491,4.386,6.491S401.806,38.237,401.806,34.652Zm0,0" transform="translate(-311.833 -22.371)" fill="#fb0"/>
    <path id="Path_152284" data-name="Path 152284" d="M359.139,137.05c0-3.585-1.964-6.491-4.387-6.491s-4.386,2.906-4.386,6.491,1.964,6.491,4.386,6.491S359.139,140.635,359.139,137.05Zm0,0" transform="translate(-277.937 -103.717)" fill="#fb0"/>
    <path id="Path_152285" data-name="Path 152285" d="M418.873,230.917c0-3.585-1.964-6.491-4.386-6.491s-4.386,2.906-4.386,6.491,1.964,6.491,4.386,6.491,4.386-2.906,4.386-6.491Zm0,0" transform="translate(-325.391 -178.285)" fill="#fb0"/>
    <path id="Path_152286" data-name="Path 152286" d="M359.139,324.784c0-3.585-1.964-6.491-4.387-6.491s-4.386,2.906-4.386,6.491,1.964,6.491,4.386,6.491S359.139,328.369,359.139,324.784Zm0,0" transform="translate(-277.937 -252.854)" fill="#fb0"/>
    <path id="Path_152287" data-name="Path 152287" d="M401.806,427.183c0-3.585-1.964-6.491-4.386-6.491s-4.386,2.906-4.386,6.491,1.964,6.491,4.386,6.491S401.806,430.768,401.806,427.183Zm0,0" transform="translate(-311.833 -334.201)" fill="#fb0"/>
    <path id="Path_152288" data-name="Path 152288" d="M236.4,228.884a7.017,7.017,0,0,1-7.017,7.017,6.583,6.583,0,0,1-2.632-.526,7,7,0,0,1,0-12.983,6.584,6.584,0,0,1,2.632-.526,7.017,7.017,0,0,1,7.017,7.017Zm0,0" transform="translate(-176.253 -176.252)" fill="#cfd8dc"/>
    <path id="Path_152289" data-name="Path 152289" d="M231.139,230.917c0-3.585-1.964-6.491-4.387-6.491s-4.386,2.906-4.386,6.491,1.964,6.491,4.386,6.491,4.387-2.906,4.387-6.491Zm0,0" transform="translate(-176.253 -178.285)" fill="#f5f5f5"/>
    <path id="Path_152290" data-name="Path 152290" d="M53.132,105.264H46.114a3.513,3.513,0,0,1-3.509-3.509V93.387A41.532,41.532,0,0,1,31.747,88.9l-5.9,5.9a3.46,3.46,0,0,1-2.486,1.04h0a3.46,3.46,0,0,1-2.5-1.057l-9.9-9.895a3.493,3.493,0,0,1,.015-4.989l5.883-5.883a41.606,41.606,0,0,1-4.485-10.859H4.009A3.513,3.513,0,0,1,.5,59.649V45.614a3.513,3.513,0,0,1,3.509-3.509h8.366A41.606,41.606,0,0,1,16.86,31.246l-5.9-5.9a3.494,3.494,0,0,1,.015-4.99l9.9-9.9a3.449,3.449,0,0,1,2.482-1.04h0a3.474,3.474,0,0,1,2.5,1.054l5.885,5.885a41.53,41.53,0,0,1,10.859-4.484V3.509A3.513,3.513,0,0,1,46.114,0h7.017a1.754,1.754,0,1,1,0,3.509H46.114v9.754a1.754,1.754,0,0,1-1.379,1.714A38.085,38.085,0,0,0,32.423,20.06a1.752,1.752,0,0,1-2.18-.241l-6.878-6.877-9.923,9.912,6.877,6.888a1.753,1.753,0,0,1,.24,2.181,38.134,38.134,0,0,0-5.084,12.311,1.754,1.754,0,0,1-1.712,1.38H4.009V59.649h9.754a1.754,1.754,0,0,1,1.713,1.379A38.13,38.13,0,0,0,20.56,73.341a1.752,1.752,0,0,1-.24,2.18L13.443,82.4l9.913,9.923,6.887-6.877a1.758,1.758,0,0,1,2.18-.241,38.067,38.067,0,0,0,12.312,5.082A1.756,1.756,0,0,1,46.114,92v9.754h7.017a1.754,1.754,0,1,1,0,3.509Zm0,0" transform="translate(0 0)"/>
    <path id="Path_152291" data-name="Path 152291" d="M134.477,165.557a31.579,31.579,0,0,1,0-63.159,1.754,1.754,0,1,1,0,3.509,28.071,28.071,0,0,0,0,56.141,1.754,1.754,0,1,1,0,3.509Zm0,0" transform="translate(-81.346 -81.346)"/>
    <path id="Path_152292" data-name="Path 152292" d="M256.737,446.869H249.72a1.754,1.754,0,1,1,0-3.509h7.017v-9.754a1.753,1.753,0,0,1,1.374-1.712,36.549,36.549,0,0,0,5.69-1.739,1.754,1.754,0,1,1,1.312,3.253,38.6,38.6,0,0,1-4.868,1.582v8.37A3.513,3.513,0,0,1,256.737,446.869Zm0,0" transform="translate(-196.588 -341.606)"/>
    <path id="Path_152293" data-name="Path 152293" d="M264.457,16.843a1.749,1.749,0,0,1-.656-.128,36.464,36.464,0,0,0-5.69-1.74,1.753,1.753,0,0,1-1.373-1.712V3.509H249.72a1.754,1.754,0,1,1,0-3.509h7.017a3.513,3.513,0,0,1,3.509,3.509v8.37a38.463,38.463,0,0,1,4.868,1.583,1.754,1.754,0,0,1-.657,3.382Zm0,0" transform="translate(-196.588)"/>
    <path id="Path_152294" data-name="Path 152294" d="M249.72,388.677a1.754,1.754,0,1,1,0-3.509,27.819,27.819,0,0,0,9.9-1.8,1.754,1.754,0,0,1,1.244,3.281,31.323,31.323,0,0,1-11.149,2.026Zm0,0" transform="translate(-196.588 -304.466)"/>
    <path id="Path_152295" data-name="Path 152295" d="M260.246,107.82a1.751,1.751,0,0,1-.622-.115,27.8,27.8,0,0,0-9.9-1.8,1.754,1.754,0,1,1,0-3.509,31.323,31.323,0,0,1,11.149,2.026,1.755,1.755,0,0,1-.622,3.4Zm0,0" transform="translate(-196.588 -81.346)"/>
    <path id="Path_152296" data-name="Path 152296" d="M138.789,181.478a1.754,1.754,0,0,1-1.754-1.755,21.059,21.059,0,0,1,9.623-17.293,1.754,1.754,0,0,1,1.809,3.006,17.5,17.5,0,0,0-7.923,14.287A1.754,1.754,0,0,1,138.789,181.478Zm0,0" transform="translate(-108.464 -128.846)"/>
    <path id="Path_152297" data-name="Path 152297" d="M222.6,230.876a8.772,8.772,0,1,1,8.772-8.772A8.773,8.773,0,0,1,222.6,230.876Zm0-14.036a5.264,5.264,0,1,0,5.264,5.264A5.264,5.264,0,0,0,222.6,216.841Zm0,0" transform="translate(-169.472 -169.472)"/>
    <path id="Path_152298" data-name="Path 152298" d="M393.272,34.61a8.772,8.772,0,1,1,8.771-8.771A8.772,8.772,0,0,1,393.272,34.61Zm0-14.035a5.263,5.263,0,1,0,5.263,5.264A5.263,5.263,0,0,0,393.272,20.575Zm0,0" transform="translate(-305.052 -13.557)"/>
    <path id="Path_152299" data-name="Path 152299" d="M350.6,137.009a8.772,8.772,0,1,1,8.772-8.772A8.772,8.772,0,0,1,350.6,137.009Zm0-14.035a5.263,5.263,0,1,0,5.263,5.263A5.263,5.263,0,0,0,350.6,122.975Zm0,0" transform="translate(-271.157 -94.904)"/>
    <path id="Path_152300" data-name="Path 152300" d="M410.338,230.876a8.772,8.772,0,1,1,8.771-8.772A8.772,8.772,0,0,1,410.338,230.876Zm0-14.036A5.264,5.264,0,1,0,415.6,222.1,5.264,5.264,0,0,0,410.338,216.841Zm0,0" transform="translate(-318.61 -169.472)"/>
    <path id="Path_152301" data-name="Path 152301" d="M350.6,324.743a8.772,8.772,0,1,1,8.772-8.772A8.773,8.773,0,0,1,350.6,324.743Zm0-14.036a5.263,5.263,0,1,0,5.263,5.264A5.264,5.264,0,0,0,350.6,310.708Zm0,0" transform="translate(-271.157 -244.041)"/>
    <path id="Path_152302" data-name="Path 152302" d="M393.272,427.146a8.772,8.772,0,1,1,8.771-8.772A8.772,8.772,0,0,1,393.272,427.146Zm0-14.035a5.263,5.263,0,1,0,5.263,5.263A5.263,5.263,0,0,0,393.272,413.111Zm0,0" transform="translate(-305.052 -325.391)"/>
    <path id="Path_152303" data-name="Path 152303" d="M266.1,170.251a1.755,1.755,0,0,1-1.539-2.594l7.158-13.14a1.751,1.751,0,0,1,1.54-.915h8.772a1.754,1.754,0,0,1,0,3.509h-7.731l-6.659,12.226a1.754,1.754,0,0,1-1.542.915Zm0,0" transform="translate(-209.606 -122.022)"/>
    <path id="Path_152304" data-name="Path 152304" d="M282.079,294.147h-8.772a1.754,1.754,0,0,1-1.54-.915l-7.157-13.14a1.754,1.754,0,0,1,3.08-1.679l6.659,12.226h7.731a1.754,1.754,0,0,1,0,3.509Zm0,0" transform="translate(-209.649 -220.463)"/>
    <path id="Path_152305" data-name="Path 152305" d="M308.418,250.974H283.856a1.755,1.755,0,0,1,0-3.51h24.562a1.755,1.755,0,0,1,0,3.51Zm0,0" transform="translate(-223.706 -196.588)"/>
    <path id="Path_152306" data-name="Path 152306" d="M318.466,365.894h-9.8a3.53,3.53,0,0,1-2.481-1.028l-5.99-5.99a3.484,3.484,0,0,1-1.028-2.481V343.087a1.754,1.754,0,1,1,3.509,0V356.4l5.99,5.99h9.8a1.754,1.754,0,0,1,0,3.509Zm0,0" transform="translate(-237.264 -271.157)"/>
    <path id="Path_152307" data-name="Path 152307" d="M300.922,75.761a1.754,1.754,0,0,1-1.754-1.755V60.7a3.484,3.484,0,0,1,1.028-2.481l5.99-5.989a3.53,3.53,0,0,1,2.481-1.028h9.8a1.754,1.754,0,0,1,0,3.509h-9.8l-5.99,5.989V74.006A1.754,1.754,0,0,1,300.922,75.761Zm0,0" transform="translate(-237.264 -40.673)"/>
  </g>
</svg>
